<?xml version="1.0" encoding="UTF-8" standalone="no"?>
<svg
   viewBox="0 0 128 128"
   version="1.1"
   id="svg38"
   sodipodi:docname="drill.svg"
   inkscape:version="1.2.2 (b0a8486541, 2022-12-01)"
   xmlns:inkscape="http://www.inkscape.org/namespaces/inkscape"
   xmlns:sodipodi="http://sodipodi.sourceforge.net/DTD/sodipodi-0.dtd"
   xmlns="http://www.w3.org/2000/svg"
   xmlns:svg="http://www.w3.org/2000/svg">
  <defs
     id="defs42">
    <marker
       style="overflow:visible"
       id="marker6617"
       refX="0"
       refY="0"
       orient="auto-start-reverse"
       inkscape:stockid="RoundedArrow"
       markerWidth="5"
       markerHeight="4"
       viewBox="0 0 6.1347524 5.9304951"
       inkscape:isstock="true"
       inkscape:collect="always"
       preserveAspectRatio="none">
      <path
         transform="scale(0.7)"
         d="m -0.21114562,-4.1055728 6.42229122,3.21114561 a 1,1 90 0 1 0,1.78885438 L -0.21114562,4.1055728 A 1.236068,1.236068 31.717474 0 1 -2,3 v -6 a 1.236068,1.236068 148.28253 0 1 1.78885438,-1.1055728 z"
         style="fill:context-stroke;fill-rule:evenodd;stroke:none"
         id="path6615" />
    </marker>
    <marker
       style="overflow:visible"
       id="RoundedArrow"
       refX="0"
       refY="0"
       orient="auto-start-reverse"
       inkscape:stockid="RoundedArrow"
       markerWidth="5"
       markerHeight="4"
       viewBox="0 0 6.1347524 5.9304951"
       inkscape:isstock="true"
       inkscape:collect="always"
       preserveAspectRatio="none">
      <path
         transform="scale(0.7)"
         d="m -0.21114562,-4.1055728 6.42229122,3.21114561 a 1,1 90 0 1 0,1.78885438 L -0.21114562,4.1055728 A 1.236068,1.236068 31.717474 0 1 -2,3 v -6 a 1.236068,1.236068 148.28253 0 1 1.78885438,-1.1055728 z"
         style="fill:context-stroke;fill-rule:evenodd;stroke:none"
         id="path1367" />
    </marker>
    <marker
       style="overflow:visible"
       id="RoundedArrow-7"
       refX="0"
       refY="0"
       orient="auto-start-reverse"
       inkscape:stockid="RoundedArrow"
       markerWidth="5"
       markerHeight="4"
       viewBox="0 0 6.1347524 5.9304951"
       inkscape:isstock="true"
       inkscape:collect="always"
       preserveAspectRatio="none">
      <path
         transform="scale(0.7)"
         d="m -0.21114562,-4.1055728 6.42229122,3.21114561 a 1,1 90 0 1 0,1.78885438 L -0.21114562,4.1055728 A 1.236068,1.236068 31.717474 0 1 -2,3 v -6 a 1.236068,1.236068 148.28253 0 1 1.78885438,-1.1055728 z"
         style="fill:context-stroke;fill-rule:evenodd;stroke:none"
         id="path1367-5" />
    </marker>
  </defs>
  <sodipodi:namedview
     id="namedview40"
     pagecolor="#ffffff"
     bordercolor="#000000"
     borderopacity="0.25"
     inkscape:showpageshadow="2"
     inkscape:pageopacity="0.0"
     inkscape:pagecheckerboard="0"
     inkscape:deskcolor="#d1d1d1"
     showgrid="false"
     inkscape:zoom="4.574097"
     inkscape:cx="87.667577"
     inkscape:cy="36.509938"
     inkscape:window-width="1920"
     inkscape:window-height="1011"
     inkscape:window-x="0"
     inkscape:window-y="0"
     inkscape:window-maximized="1"
     inkscape:current-layer="svg38" />
  <rect
     style="fill:#fff;stroke:#000;stroke-width:4;stroke-linecap:round;stroke-linejoin:round;stroke-dasharray:none;stroke-opacity:1;fill-opacity:1"
     width="120"
     height="120"
     x="5"
     y="5"
     rx="4"
     ry="4"
     id="rect2" />
  <path
     style="fill:#e6e6e6;stroke:#000000;stroke-width:1.13171;stroke-linecap:round;stroke-linejoin:round;stroke-dasharray:none;stroke-dashoffset:0;stroke-opacity:1"
     d="M 29.565851,6.5658535 H 98.434149 V 45.434143 H 29.565851 Z"
     id="path4" />
  <path
     fill="#7e4d07"
     stroke="#000"
     stroke-linecap="round"
     stroke-width="6.078"
     d="m68.96 46.96-9.92-9.92m0 9.92 9.92-9.92"
     style="fill:maroon;stroke:maroon"
     id="path6" />
  <path
     style="fill:#000000;stroke:#000000;stroke-width:2;stroke-linecap:round;stroke-linejoin:round;stroke-dasharray:6, 6;stroke-dashoffset:0;stroke-opacity:1;marker-end:url(#RoundedArrow)"
     d="M 84.06572,29.113955 16.359746,15.90863"
     transform="rotate(136.13,47.133,52.15)"
     id="path16"
     sodipodi:nodetypes="cc" />
  <path
     style="fill:#000000;stroke:#000000;stroke-width:2;stroke-linecap:round;stroke-linejoin:round;stroke-dasharray:none;stroke-dashoffset:0;stroke-opacity:1;marker-end:url(#RoundedArrow-7)"
     d="m 102.29792,93.125629 3.768,-30.735466"
     id="path16-3"
     sodipodi:nodetypes="cc" />
  <path
     fill="#7e4d07"
     stroke="#000"
     stroke-linecap="round"
     stroke-width="6.078"
     d="m 68.959,98.959 -9.92,-9.92 m 0,9.92 9.92,-9.92"
     style="fill:#800000;stroke:#800000"
     id="path24" />
  <path
     style="fill:#000;stroke:#000;stroke-width:4;stroke-linecap:round;stroke-linejoin:round;stroke-dasharray:none;stroke-opacity:1"
     d="M56.5 16h15"
     id="path26" />
  <circle
     style="fill:none;stroke:#000;stroke-width:2;stroke-linecap:round;stroke-linejoin:round;stroke-dasharray:none;stroke-opacity:1"
     cx="64"
     cy="25.199"
     r="4.199"
     id="circle28" />
  <g
     id="g3499"
     transform="rotate(-47.640419,97.586387,47.785754)">
    <path
       style="fill:none;stroke:#000000;stroke-width:2;stroke-linecap:round;stroke-linejoin:round;stroke-dasharray:none;stroke-opacity:1"
       d="M 97.999996,49.999997 98,40 m 4,9.999999 V 40"
       id="path30"
       sodipodi:nodetypes="cccc" />
    <path
       style="fill:#000000;stroke:#000000;stroke-width:1;stroke-linecap:round;stroke-linejoin:round;stroke-dasharray:none;stroke-dashoffset:0;stroke-opacity:1"
       d="m 100,31 -4,9 h 8 z"
       id="path34"
       sodipodi:nodetypes="cccc" />
  </g>
  <circle
     cx="101"
     cy="105"
     fill="navy"
     stroke="navy"
     stroke-linecap="round"
     stroke-linejoin="round"
     stroke-width="2"
     r="8"
     style="fill:#000080;fill-opacity:1;stroke:#000080;stroke-opacity:1"
     id="circle8" />
  <circle
     cx="29"
     cy="105"
     fill="navy"
     stroke="navy"
     stroke-linecap="round"
     stroke-linejoin="round"
     stroke-width="2"
     r="8"
     style="fill:#000080;fill-opacity:1;stroke:#000080;stroke-opacity:1"
     id="circle10" />
  <path
     style="fill:none;stroke:#000000;stroke-width:1.90323;stroke-linecap:round;stroke-linejoin:round;stroke-dasharray:none;stroke-dashoffset:0;stroke-opacity:1;marker-end:url(#marker6617)"
     d="m 26.638478,91.22906 c 0,0 15.166,-22.51 13.09,-24.53 -1.886,-1.835 -19.747,3.029 -25.382,-3.381 -5.3060004,-6.034 -0.099,-24.103 -0.099,-24.103"
     id="path179" />
</svg>
