<svg xmlns="http://www.w3.org/2000/svg" style="display: none">
	<symbol id="basketball.default" viewBox="0 0 128 128">
		<path d="m224.139 210 40.776 40.776c36.787-33.665 83.793-54.3 134.218-58.917-3.965-41.654-21.431-79.428-47.967-108.886zm-28.285 0-40.768-40.768c-36.785 33.663-83.79 54.296-134.215 58.912 3.964 41.652 21.426 79.424 47.958 108.881zm69.074 69.074c-30.139 33.221-48.696 75.509-53.062 120.904 48.061-.466 91.908-18.858 125.16-48.806zm-95.7-123.985 40.768 40.768L337.023 68.831c-29.458-26.53-67.229-43.992-108.88-47.957-4.617 50.424-25.25 97.43-58.915 134.215zm81.544 109.829-40.776-40.776L82.971 351.168c29.459 26.535 67.233 43.999 108.887 47.962 4.618-50.423 25.25-97.427 58.914-134.212zm-95.699-123.984c30.139-33.223 48.697-75.512 53.063-120.907-48.062.464-91.91 18.857-125.162 48.808ZM68.831 82.977c-29.949 33.252-48.341 77.099-48.808 125.159 45.396-4.364 87.685-22.921 120.907-53.06ZM351.169 337.03c29.953-33.252 48.347-77.101 48.812-125.164-45.396 4.365-87.687 22.924-120.91 53.065z" style="fill:#ffac52" transform="scale(.30476)"/>
		<path d="M33.6 0C15.072 0 0 15.073 0 33.6c0 18.528 15.073 33.6 33.6 33.6s33.6-15.072 33.6-33.6C67.2 15.074 52.128 0 33.6 0ZM3.203 33.302c.074-7.69 3.017-14.705 7.81-20.026l11.535 11.536c-5.316 4.822-12.082 7.791-19.345 8.49zM33.302 3.204c-.699 7.263-3.668 14.03-8.49 19.345L13.276 11.013c5.32-4.792 12.336-7.735 20.026-7.81Zm30.695 30.694c-.075 7.69-3.017 14.706-7.81 20.027L44.65 42.389c5.316-4.823 12.082-7.792 19.346-8.49zm-21.61 6.226L35.861 33.6l20.324-20.325a30.289 30.289 0 0 1 7.675 17.422c-8.068.74-15.589 4.04-21.475 9.427ZM24.813 27.077l6.523 6.523-20.324 20.324a30.29 30.29 0 0 1-7.674-17.421c8.068-.739 15.59-4.04 21.475-9.426zm8.785 4.26-6.523-6.523c5.387-5.886 8.688-13.407 9.427-21.474a30.29 30.29 0 0 1 17.42 7.673zm0 4.526 6.524 6.524c-5.386 5.886-8.687 13.406-9.426 21.474a30.288 30.288 0 0 1-17.422-7.674Zm8.79 8.789 11.535 11.536c-5.32 4.791-12.336 7.734-20.026 7.809.699-7.264 3.668-14.03 8.49-19.345Z" style="stroke-width:.999999" transform="scale(1.90476)"/>
	</symbol>
	<symbol id="drill.default" viewBox="0 0 128 128">
		<defs><marker style="overflow:visible" id="c" refX="0" refY="0" orient="auto-start-reverse" markerWidth="5" markerHeight="4" viewBox="0 0 6.135 5.93" preserveAspectRatio="none"><path transform="scale(.7)" d="M-.211-4.106 6.21-.894a1 1 90 0 1 0 1.788L-.21 4.106A1.236 1.236 31.717 0 1-2 3v-6A1.236 1.236 148.283 0 1-.211-4.106z" style="fill:context-stroke;fill-rule:evenodd;stroke:none"/></marker><marker style="overflow:visible" id="a" refX="0" refY="0" orient="auto-start-reverse" markerWidth="5" markerHeight="4" viewBox="0 0 6.135 5.93" preserveAspectRatio="none"><path transform="scale(.7)" d="M-.211-4.106 6.21-.894a1 1 90 0 1 0 1.788L-.21 4.106A1.236 1.236 31.717 0 1-2 3v-6A1.236 1.236 148.283 0 1-.211-4.106z" style="fill:context-stroke;fill-rule:evenodd;stroke:none"/></marker><marker style="overflow:visible" id="b" refX="0" refY="0" orient="auto-start-reverse" markerWidth="5" markerHeight="4" viewBox="0 0 6.135 5.93" preserveAspectRatio="none"><path transform="scale(.7)" d="M-.211-4.106 6.21-.894a1 1 90 0 1 0 1.788L-.21 4.106A1.236 1.236 31.717 0 1-2 3v-6A1.236 1.236 148.283 0 1-.211-4.106z" style="fill:context-stroke;fill-rule:evenodd;stroke:none"/></marker></defs><rect style="fill:#fff;stroke:#000;stroke-width:4;stroke-linecap:round;stroke-linejoin:round;stroke-dasharray:none;stroke-opacity:1;fill-opacity:1" width="120" height="120" x="5" y="5" rx="4" ry="4"/><path style="fill:#e6e6e6;stroke:#000;stroke-width:1;stroke-linecap:round;stroke-linejoin:round;stroke-dasharray:none;stroke-dashoffset:0;stroke-opacity:1" d="M45 6.5h38v55H45z"/><path fill="#7e4d07" stroke="#000" stroke-linecap="round" stroke-width="6.078" d="m68.96 46.96-9.92-9.92m0 9.92 9.92-9.92" style="fill:maroon;stroke:maroon"/><path style="fill:#000;stroke:#000;stroke-width:2;stroke-linecap:round;stroke-linejoin:round;stroke-dasharray:6,6;stroke-dashoffset:0;stroke-opacity:1;marker-end:url(#a)" d="M84.066 29.114 16.36 15.909" transform="rotate(136.13 47.133 52.15)"/><path style="fill:#000;stroke:#000;stroke-width:2;stroke-linecap:round;stroke-linejoin:round;stroke-dasharray:none;stroke-dashoffset:0;stroke-opacity:1;marker-end:url(#b)" d="m102.298 93.126 3.768-30.736"/><path fill="#7e4d07" stroke="#000" stroke-linecap="round" stroke-width="6.078" d="m68.959 98.959-9.92-9.92m0 9.92 9.92-9.92" style="fill:maroon;stroke:maroon"/><path style="fill:#000;stroke:#000;stroke-width:4;stroke-linecap:round;stroke-linejoin:round;stroke-dasharray:none;stroke-opacity:1" d="M56.5 16h15"/><circle style="fill:none;stroke:#000;stroke-width:2;stroke-linecap:round;stroke-linejoin:round;stroke-dasharray:none;stroke-opacity:1" cx="64" cy="25.199" r="4.199"/><path style="fill:none;stroke:#000;stroke-width:2;stroke-linecap:round;stroke-linejoin:round;stroke-dasharray:none;stroke-opacity:1" d="M98 50V40m4 10V40" transform="rotate(-47.64 97.586 47.786)"/><path style="fill:#000;stroke:#000;stroke-width:1;stroke-linecap:round;stroke-linejoin:round;stroke-dasharray:none;stroke-dashoffset:0;stroke-opacity:1" d="m100 31-4 9h8z" transform="rotate(-47.64 97.586 47.786)"/><path style="fill:none;stroke:#000;stroke-width:1;stroke-linecap:round;stroke-linejoin:round;stroke-dasharray:none;stroke-opacity:1" d="M18 5v15c0 14.01 1.4 29.28 10 40 8.395 10.465 21.69 18 36 18 14.31 0 27.605-7.535 36-18 8.6-10.72 10-26.086 10-40V5"/><circle cx="101" cy="105" fill="navy" stroke="navy" stroke-linecap="round" stroke-linejoin="round" stroke-width="2" r="8" style="fill:navy;fill-opacity:1;stroke:navy;stroke-opacity:1"/><circle cx="29" cy="105" fill="navy" stroke="navy" stroke-linecap="round" stroke-linejoin="round" stroke-width="2" r="8" style="fill:navy;fill-opacity:1;stroke:navy;stroke-opacity:1"/><path style="fill:none;stroke:#000;stroke-width:1.90323;stroke-linecap:round;stroke-linejoin:round;stroke-dasharray:none;stroke-dashoffset:0;stroke-opacity:1;marker-end:url(#c)" d="M26.638 91.23s15.166-22.51 13.09-24.53c-1.886-1.836-19.747 3.028-25.382-3.382-5.306-6.034-.099-24.103-.099-24.103"/>
	</symbol>
	<symbol id="drill.versions" viewBox="0 0 128 128">
		<rect style="fill:#fff;fill-opacity:1;stroke:#000;stroke-width:3.80645;stroke-linecap:round;stroke-linejoin:round;stroke-dasharray:none;stroke-opacity:1" width="114.194" height="114.194" x="2.903" y="2.903" rx="3.806" ry="3.806"/><path style="fill:#e6e6e6;stroke:#000;stroke-width:.951613;stroke-linecap:round;stroke-linejoin:round;stroke-dasharray:none;stroke-dashoffset:0;stroke-opacity:1" d="M40.968 4.331H77.13v52.34H40.97z"/><path fill="#7e4d07" stroke="#000" stroke-linecap="round" stroke-width="5.784" d="m63.77 42.834-9.442-9.442m0 9.442 9.441-9.442" style="fill:maroon;stroke:#4d4d4d"/><circle cx="27.43" cy="98.671" fill="navy" stroke="navy" stroke-linecap="round" stroke-linejoin="round" stroke-width="2" r="7.613" style="fill:#333;fill-opacity:1;stroke:#333;stroke-width:1.903;stroke-dasharray:none;stroke-opacity:1"/><path style="fill:none;stroke:#000;stroke-width:1.90323;stroke-linecap:round;stroke-linejoin:round;stroke-dasharray:none;stroke-dashoffset:0;stroke-opacity:1" d="M26.705 88.894s15.166-22.51 13.09-24.53c-1.886-1.835-19.747 3.029-25.382-3.381-5.306-6.034-.099-24.103-.099-24.103"/><path style="fill:#000;stroke:#000;stroke-width:.951615;stroke-linecap:round;stroke-linejoin:round;stroke-dasharray:none;stroke-dashoffset:0;stroke-opacity:1" d="m17.545 29.817-5.41 5.862 4.3 2.037z"/><path style="fill:#000;stroke:#000;stroke-width:3.80645;stroke-linecap:round;stroke-linejoin:round;stroke-dasharray:none;stroke-opacity:1" d="M51.911 13.371h14.274"/><circle style="fill:none;stroke:#000;stroke-width:1.90323;stroke-linecap:round;stroke-linejoin:round;stroke-dasharray:none;stroke-opacity:1" cx="59.048" cy="22.125" r="3.996"/><path style="fill:none;stroke:#000;stroke-width:.951613;stroke-linecap:round;stroke-linejoin:round;stroke-dasharray:none;stroke-opacity:1" d="M15.274 2.903v14.274c0 13.332 1.333 27.863 9.516 38.065C32.78 65.2 45.431 72.37 59.048 72.37c13.617 0 26.27-7.17 34.258-17.13 8.184-10.2 9.517-24.823 9.517-38.064V2.903"/><circle cx="84.843" cy="84.843" r="38.157" style="fill:#d7eef4;stroke:navy;stroke-width:8;stroke-linecap:round;stroke-linejoin:round;stroke-dasharray:none"/><path d="m78.63 69.358 5.72 21.348 17.151-4.596" style="fill:#d7eef4;stroke:navy;stroke-width:8;stroke-linecap:round;stroke-linejoin:round;stroke-dasharray:none"/><path style="fill:#333;stroke:navy;stroke-width:12;stroke-linecap:round;stroke-linejoin:round;stroke-dasharray:none;stroke-opacity:1" d="m46.326 49.187 16.71-10.989"/><path style="fill:none;stroke:#000;stroke-width:2;stroke-linecap:round;stroke-linejoin:round;stroke-dasharray:none;stroke-opacity:1" d="M98 50V40m4 10V40" transform="rotate(-47.64 81.144 59.709)"/><path style="fill:#000;stroke:#000;stroke-width:1;stroke-linecap:round;stroke-linejoin:round;stroke-dasharray:none;stroke-dashoffset:0;stroke-opacity:1" d="m100 31-4 9h8z" transform="rotate(-47.64 81.144 59.709)"/>
	</symbol>
	<symbol id="match.default" viewBox="0 0 128 128">
		<g transform="translate(.5 .5)">
			<circle cx="63.5" cy="16.5" r="15.5" style="fill:#d45500;fill-opacity:1;stroke:#000;stroke-width:1.00002956;stroke-linecap:round;stroke-linejoin:round;stroke-miterlimit:4;stroke-dasharray:none;stroke-opacity:1"/>
			<g style="stroke-width:.88384563;stroke-miterlimit:4;stroke-dasharray:none">
				<g style="stroke-width:.82982951;stroke-miterlimit:4;stroke-dasharray:none" transform="translate(179.963 87.33) scale(1.20507)">
					<circle cx="-136.15" cy="-10.822" r="10.699" style="fill:#fca;fill-opacity:1;stroke:#000;stroke-width:.82982951;stroke-linecap:round;stroke-linejoin:round;stroke-miterlimit:4;stroke-dasharray:none;stroke-opacity:1"/>
					<path d="M-135.81 7.928s-.968 2.093-1.195 3.213c-.538 2.656-.356 8.122-.356 8.122s.56-3.12 3.848-4.05c3.288-.93 7.179.753 7.49 3.63.006 2.682-.2 4.704-1.612 7.2-2.552 4.445-2.91 6.046-2.91 6.046h19.813c.286-3.15 4.986-11.866-2.698-26.218-1.956-3.654-6.008-6.807-10.133-7.206-6.465-.627-12.248 9.263-12.248 9.263z" style="fill:#d45500;fill-opacity:1;stroke:#000;stroke-width:.82982951;stroke-linecap:round;stroke-linejoin:round;stroke-miterlimit:4;stroke-dasharray:none;stroke-opacity:1"/>
					<path d="M-109.844-35.644c1.432-4.207 4.978-11.414 7.118-11.273 2.14.14-1.397 9.642-1.462 10.677 0 0 1.55 16.027.13 25.18-3.254 5.673-10.17 15.363-10.17 15.363-3.235-3.219-2.82-2.653-8.291-5.444 0 0 5.321-10.189 9.375-12.24 2.89-1.462 2.31-6.838 2.296-11.494-.012-3.974-.158-7.356 1.004-10.77zm-28.917 63.934 1.4-9.027c2.414-6.91 12.628-4.929 11.574 1.878-.254 1.637-1.827 4.96-2.586 6.461l-2.171 4.487h-6.753s-2.492.175-1.464-3.8z" style="fill:#fca;fill-opacity:1;stroke:#000;stroke-width:.82982951;stroke-linecap:round;stroke-linejoin:round;stroke-miterlimit:4;stroke-dasharray:none;stroke-opacity:1"/>
				</g>
			</g>
			<g style="stroke-width:.81382382;stroke-miterlimit:4;stroke-dasharray:none" transform="matrix(-1.22877 0 0 1.22877 -56.3 76.055)">
				<circle cx="-132.156" cy="-10.096" r="10.492" style="fill:#c87137;fill-opacity:1;stroke:#000;stroke-width:.81380558;stroke-linecap:round;stroke-linejoin:round;stroke-miterlimit:4;stroke-dasharray:none;stroke-opacity:1"/>
				<path d="M-135.81 10.824s-.968 2.094-1.194 3.214c-.538 2.656-.356 8.122-.356 8.122s.559-3.12 3.847-4.05c3.288-.93 6.026 2.38 7.027 5.095 1.644 4.454-1.376 6.804-5.775 11.21-3.568 3.574-4.978 6.231-4.978 6.231l24.102-.235c.286-3.15 4.988-16.33-.292-31.643-1.352-3.919-6.008-6.807-10.134-7.207-6.465-.626-12.247 9.263-12.247 9.263z" style="fill:navy;fill-opacity:1;stroke:#000;stroke-width:.81382382;stroke-linecap:round;stroke-linejoin:round;stroke-miterlimit:4;stroke-dasharray:none;stroke-opacity:1"/>
				<path d="M-107.716-32.747c.915-3.505 1.65-10.323 3.79-10.183 2.14.14.439 5.882.374 6.916 0 0 .915 18.698-.505 27.85-3.255 5.674-10.17 15.364-10.17 15.364-3.235-3.219-2.82-2.653-8.292-5.444 0 0 6.25-8.117 10.303-10.168 2.89-1.462 2.01-9.094 2.842-13.675.642-3.538.75-7.18 1.658-10.66zm-33.716 73.276c3.255-5.674 4.072-18.37 4.072-18.37 2.413-6.91 10.418-4.97 11.152 1.88.298 2.78-1.094 6.516-4.268 7.792 0 0-.637-1.766-2.797 8.698z" style="fill:#c87137;fill-opacity:1;stroke:#000;stroke-width:.81382382;stroke-linecap:round;stroke-linejoin:round;stroke-miterlimit:4;stroke-dasharray:none;stroke-opacity:1"/>
			</g>
		</g>
	</symbol>
	<symbol id="player.default" viewBox="0 0 128 128">
		<g transform="matrix(1.0353123,0,0,1.0353123,3.8209995,-6.3531222)">
			<circle
				r="10.333761"
				cy="21"
				cx="68"
				id="path817"
				style="fill:#ffccaa;fill-opacity:1;stroke:#000000;stroke-width:1.33247828;stroke-linecap:round;stroke-linejoin:round;stroke-miterlimit:4;stroke-dasharray:none;stroke-opacity:1" />
			<circle
				r="10.333761"
				cy="69.066666"
				cx="93.006615"
				id="path817-4"
				style="fill:#d45500;fill-opacity:1;stroke:#000000;stroke-width:1.33247828;stroke-linecap:round;stroke-linejoin:round;stroke-miterlimit:4;stroke-dasharray:none;stroke-opacity:1" />
			<path
				id="path882"
				d="m 61.350799,35.31969 c 0,0 0.954653,2.018137 1.153349,3.103837 0.6151,3.36099 0.06397,10.250236 0.06397,10.250236 0,0 -0.26008,-5.418187 -3.436195,-6.316967 -3.176115,-0.89878 -5.8202,2.299107 -6.787565,4.920898 -1.587518,4.302551 3.119835,12.245364 5.099828,17.924007 2.114022,6.063045 0.766838,3.864965 0.766838,3.864965 l -20.71488,5.550535 c 0,0 -5.184421,-27.421383 2.237186,-41.283867 1.88962,-3.529536 5.802979,-6.57477 9.787862,-6.96077 6.244145,-0.604846 11.829604,8.947126 11.829604,8.947126 z"
				style="fill:#d45500;fill-opacity:1;stroke:#000000;stroke-width:1px;stroke-linecap:round;stroke-linejoin:round;stroke-opacity:1" />
			<path
				id="path884"
				d="m 38.296147,80.483868 20.71488,-5.550535"
				style="fill:none;stroke:#000000;stroke-width:1px;stroke-linecap:butt;stroke-linejoin:miter;stroke-opacity:1" />
			<path
				id="path886"
				d="M 37.496147,74.617201 37.6,93.866667 l 12,3.2 c 0,0 -0.787095,-9.440441 2.666667,-10.666667 3.350641,-1.189614 4.978302,6.338958 8.533333,6.4 4.659838,0.08001 11.466667,-8 11.466667,-8 L 58.211027,69.066666"
				style="fill:#000080;fill-opacity:1;stroke:#000000;stroke-width:1px;stroke-linecap:round;stroke-linejoin:round;stroke-opacity:1" />
			<path
				id="path890"
				d="m 79.333333,95.333333 c 1.64879,4.269697 0.266666,5.066667 -8.112907,17.273677 -1.29978,1.89346 -12.893617,13.74143 -14.953759,12.72632 -2.105063,-1.03724 -4.48718,-4.64138 -2.933334,-6.4 l 17.2,-19.466667 L 61,92.466667 72.133333,85.933333 Z"
				style="fill:#ffccaa;fill-opacity:1;stroke:#000000;stroke-width:1px;stroke-linecap:round;stroke-linejoin:round;stroke-opacity:1" />
			<path
				id="path890-9"
				d="m 47.93334,111.73333 c -1.818399,3.91154 -4.178137,4.87385 -15.253776,-0.30018 -2.0808,-0.97205 -20.904483,-16.428236 -19.889373,-18.488375 1.03724,-2.10507 6.617883,-3.049137 8.47418,-1.613407 L 38.331041,104.53137 37.6,93.866667 l 12,3.2 z"
				style="fill:#ffccaa;fill-opacity:1;stroke:#000000;stroke-width:1px;stroke-linecap:round;stroke-linejoin:round;stroke-opacity:1" />
			<path
				id="path890-2"
				d="m 24.35061,39.880087 c 1.651274,6.821368 8.44191,18.809803 11.641498,17.544101 -0.03587,-4.427055 0.281852,-5.939371 -0.08365,-6.871406 l -5.320025,-10.71126 7.241654,-2.30743 c 1.465846,-3.846098 4.015207,-7.909423 9.299893,-10.604521 0,0 -2.602471,-0.693252 -6.540847,1.241242 -4.819756,2.367419 -12.465541,3.210433 -15.835283,8.086038 -0.690918,0.999674 -0.68915,2.442147 -0.40324,3.623236 z"
				style="fill:#ffccaa;fill-opacity:1;stroke:#000000;stroke-width:1px;stroke-linecap:round;stroke-linejoin:round;stroke-opacity:1" />
			<path
				id="path890-2-1"
				d="m 64.276718,69.982395 c 7.223563,-1.70615 22.46325,-9.730902 22.189536,-12.890293 -0.273714,-3.159392 -2.515867,-2.279783 -6.227478,-0.81785 -3.711611,1.461933 -13.997189,6.605201 -13.997189,6.605201 L 62.568121,49.317691 c -0.739025,-7.943338 -7.978814,-10.671866 -10.331266,-1.431677 0,0 -0.693252,2.602471 1.241242,6.540847 3.078164,6.266739 9.487656,15.049293 10.798621,15.555536 z"
				style="fill:#ffccaa;fill-opacity:1;stroke:#000000;stroke-width:1px;stroke-linecap:round;stroke-linejoin:round;stroke-opacity:1" />
		</g>
	</symbol>
</svg>  
