<svg xmlns="http://www.w3.org/2000/svg" style="display: none">
	<symbol id="add.default" viewBox="0 0 128 128">
		<path fill="#2ca02c" stroke="#000" stroke-linecap="round" stroke-linejoin="round" d="M64.479 3c-4.742 0-10.23 2.324-12.724 6.358-7.435 12.024 0 42.413 0 42.413s-30.373-7.422-42.393.004C5.33 54.27 3 59.753 3 64.5c0 4.738 2.324 10.23 6.362 12.724 12.016 7.431 42.393 0 42.393 0s-7.431 30.381 0 42.41c2.494 4.033 6.896 6.234 12.724 6.362 5.827.14 10.23-2.329 12.724-6.362 7.43-12.029 0-42.41 0-42.41s30.402 7.436 42.435 0C123.668 74.73 126 69.237 126 64.5c0-4.746-2.333-10.23-6.362-12.724-12.033-7.43-42.435 0-42.435 0s7.435-30.389 0-42.413C74.709 5.33 69.22 3.004 64.479 3.004z" style="stroke-width:3.99997;stroke-dasharray:none"/>
	</symbol>
	<symbol id="back.default" viewBox="0 0 128 128">
		<path fill="#ac9d93" d="M128 82.787C128 107.767 107.768 128 82.787 128H45.213C20.233 128 0 107.768 0 82.787V45.213C0 20.233 20.232 0 45.213 0h37.574C107.767 0 128 20.232 128 45.213z"/><path fill="#6c5d53" d="M0 45.213C0 20.233 20.232 0 45.213 0h37.574C107.767 0 128 20.232 128 45.213v37.574C128 107.767 107.768 128 82.787 128"/><path fill="#483e37" d="M82.787 0C107.767 0 128 20.232 128 45.213v37.574C128 107.767 107.768 128 82.787 128"/><path fill="none" stroke="#483e37" stroke-linecap="round" stroke-linejoin="round" stroke-width="10" d="M57 43 35 67l22 24M35 67h51"/><path fill="none" stroke="#fff" stroke-linecap="round" stroke-linejoin="round" stroke-width="10" d="M59 40 37 64l22 24M37 64h51"/>
	</symbol>
	<symbol id="cancel.default" viewBox="0 0 128 128">
		<path fill="#ce0909" d="M128 82.787C128 107.767 107.768 128 82.787 128H45.213C20.233 128 0 107.768 0 82.787V45.213C0 20.233 20.232 0 45.213 0h37.574C107.767 0 128 20.232 128 45.213z"/><path fill="#b70000" d="M0 45.213C0 20.233 20.232 0 45.213 0h37.574C107.767 0 128 20.232 128 45.213v37.574C128 107.767 107.768 128 82.787 128"/><g fill="#960000"><path d="M82.787 0C107.767 0 128 20.232 128 45.213v37.574C128 107.767 107.768 128 82.787 128"/><path d="m68.335 67.716 17.342-17.342c1.24-1.239 1.24-3.097 0-4.335-1.238-1.239-3.096-1.239-4.335 0L64 63.38 46.658 46.039c-1.239-1.239-3.097-1.239-4.335 0-1.24 1.238-1.24 3.096 0 4.335l17.342 17.342-17.342 17.342c-1.24 1.239-1.24 3.097 0 4.336.619.619 1.445.825 2.064.825.62 0 1.445-.206 2.065-.825l17.342-17.342 17.341 17.342c.62.619 1.446.825 2.065.825.62 0 1.445-.206 2.065-.825 1.238-1.24 1.238-3.097 0-4.336z"/></g><path fill="#fff" d="m68.335 64 17.342-17.342c1.24-1.239 1.24-3.097 0-4.335-1.238-1.24-3.096-1.24-4.335 0L64 59.665 46.658 42.323c-1.239-1.24-3.097-1.24-4.335 0-1.24 1.238-1.24 3.096 0 4.335L59.665 64 42.323 81.342c-1.24 1.239-1.24 3.097 0 4.335.619.62 1.445.826 2.064.826.62 0 1.445-.206 2.065-.826l17.342-17.342 17.341 17.342c.62.62 1.446.826 2.065.826.62 0 1.445-.206 2.065-.826 1.238-1.238 1.238-3.096 0-4.335z"/>
	</symbol>
	<symbol id="clear.default" viewBox="0 0 128 128">
		<path fill="#ececec" d="M25 37.5v81c0 2.587 1.402 4 4 4h70c2.51 0 4-1.702 4-4v-81c0-2.688-1.524-4-4-4H29c-2.385 0-4 1.497-4 4z"/><text xml:space="preserve" x="43.136" y="62.369" font-family="sans-serif" font-size="4" font-weight="400" letter-spacing="0" style="line-height:1.25;white-space:pre;inline-size:59.9132" transform="translate(-6.16 -11.83)" word-spacing="0"><tspan x="43.136" y="62.369"><tspan style="-inkscape-font-specification:sans-serif">Aliquam tincidunt mauris eu </tspan></tspan><tspan x="43.136" y="67.369"><tspan style="-inkscape-font-specification:sans-serif">risus.</tspan></tspan></text><text xml:space="preserve" x="36.978" y="63.539" font-family="sans-serif" font-size="4" letter-spacing="0" style="line-height:1.25" word-spacing="0"><tspan x="36.978" y="63.539">Vestibulum auctor dapibus</tspan><tspan x="36.978" y="68.539">neque.</tspan></text><text xml:space="preserve" x="36.978" y="76.539" font-family="sans-serif" font-size="4" letter-spacing="0" style="line-height:1.25" word-spacing="0"><tspan x="36.978" y="76.539">Nunc dignissim risus id metus.</tspan></text><text xml:space="preserve" x="36.978" y="86.539" font-family="sans-serif" font-size="4" letter-spacing="0" style="line-height:1.25" word-spacing="0"><tspan x="36.978" y="86.539">Cras ornare tristique elit.</tspan></text><text xml:space="preserve" x="36.978" y="95.039" font-family="sans-serif" font-size="4" letter-spacing="0" style="line-height:1.25;white-space:pre;inline-size:64.3061" transform="translate(0 1.5)" word-spacing="0"><tspan x="36.978" y="95.039"><tspan>Vivamus vestibulum ntulla nec </tspan></tspan><tspan x="36.978" y="100.039"><tspan>ante.</tspan></tspan></text><text xml:space="preserve" x="36.784" y="108.039" font-family="sans-serif" font-size="4" letter-spacing="0" style="line-height:1.25;white-space:pre;inline-size:62.2875" transform="translate(0 1.5)" word-spacing="0"><tspan x="36.784" y="108.039"><tspan>Praesent placerat risus quis </tspan></tspan><tspan x="36.784" y="113.039"><tspan>eros.</tspan></tspan></text><circle cx="33.12" cy="49.167" r="1.167" fill="navy"/><circle cx="33.12" cy="62.167" r="1.167" fill="navy"/><circle cx="33.12" cy="75.167" r="1.167" fill="navy"/><circle cx="33.12" cy="85.167" r="1.167" fill="navy"/><circle cx="33.12" cy="95.167" r="1.167" fill="navy"/><circle cx="33.12" cy="108.167" r="1.167" fill="navy"/><text xml:space="preserve" x="43.136" y="62.369" font-family="sans-serif" font-size="4" font-weight="400" letter-spacing="0" style="line-height:1.25;white-space:pre;inline-size:59.9132" transform="translate(-6.16 -21.83)" word-spacing="0"><tspan x="43.136" y="62.369"><tspan>Lorem ipsum dolor</tspan></tspan></text><circle cx="33.12" cy="39.167" r="1.167" fill="navy"/><path fill="#520" d="M74.226 68.375s37.02-51.633 37.708-58.268c.687-6.634-4.057-9.814-9.945-7.185-5.887 2.628-43.674 53.955-43.674 53.955z"/><path fill="#f4e3d7" stroke="#000" stroke-linecap="round" stroke-linejoin="round" stroke-width=".912" d="M37.703 51.962s1.334 9.148 4.476 12.092c4.713 4.416 18.576 5.56 18.576 5.56S54.99 88.24 47.18 92.431c-7.812 4.193-26.615-1.246-26.615-1.246s6.657-12.157 5.539-18.503c-.745-4.23-7.692-10.366-7.692-10.366z" transform="matrix(.58527 1.20714 -1.21457 .58354 111.33 6.334)"/><path fill="none" stroke="#000" stroke-linecap="round" stroke-linejoin="round" stroke-width=".912" d="M28.818 68.119s3.601 8.33 3.818 12.762c.2 4.066-2.343 11.982-2.343 11.982m6.563-29.058s5.247 7.45 8.897 10.036c3.332 2.361 11.346 4.635 11.346 4.635M33.337 68.8s3.89 8.268 5.158 12.635C39.68 85.514 40.75 93.97 40.75 93.97m-5.805-26.033s4.805 7.777 7.774 11.232c2.772 3.226 9.284 8.761 9.284 8.761" transform="matrix(.58527 1.20714 -1.21457 .58354 111.33 6.334)"/><path fill="#520" d="M73.195 84.27s4.04-4.013 2.668-8.872c-1.372-4.86-19.62-17.813-24.71-17.856-5.09-.044-7.611 5.302-7.611 5.302z"/><path fill="none" stroke="#000" stroke-linecap="round" stroke-linejoin="round" stroke-width="4" d="M68.732 32H31.3c-3.708 0-6.98 3.419-6.98 8v38M70 124h27.432c3.708 0 6.98-3.419 6.98-8V40"/>
	</symbol>
	<symbol id="close.default" viewBox="0 0 128 128">
		<use href="#cancel.default">
	</symbol>
	<symbol id="copy.default" viewBox="0 0 128 128">
		<g stroke="#000" transform="rotate(23.378 30.329 12.074) scale(.64018)"><g fill="#fff"><path d="M.5 6.497v69c16.34-.867 32.76-10.896 49 0v-69c-16.333-9.737-32.667-.75-49 0z" transform="matrix(-1.5659 .46328 .56122 1.2926 79.334 .037)"/><path d="M.5 4.996v69c16.34-.867 32.76-10.895 49 0v-69c-16.333-9.736-32.667-.75-49 0z" transform="matrix(-1.5659 .46328 .56122 1.2926 79.334 .037)"/><path d="M.5 3.497v69c16.34-.867 32.76-10.896 49 0v-69c-16.333-9.737-32.667-.75-49 0z" transform="matrix(-1.5659 .46328 .56122 1.2926 79.334 .037)"/><path d="M.5 1.996v69c16.34-.867 32.76-10.895 49 0v-69c-16.333-9.736-32.667-.75-49 0z" transform="matrix(-1.5659 .46328 .56122 1.2926 79.334 .037)"/></g><ellipse cx="3.12" cy="52.572" fill="#1a1a1a" stroke-width="1.517" rx=".408" ry=".352" transform="matrix(.95891 -.2837 .39826 .91727 0 0)"/><path fill="none" stroke-linecap="round" stroke-linejoin="round" stroke-width="1.511" d="M54.19 38.143s-5.146.18-7.612.728c-2.047.456-3.903.83-5.83 2.098m-10.755 3.76 4.558-1.585m25.493-5.314s6.8-.38 10.147-.877c2.004-.298 5.917-1.257 5.917-1.257"/><ellipse cx="3.239" cy="65.378" fill="#1a1a1a" stroke-width="1.517" rx=".408" ry=".352" transform="matrix(.95891 -.2837 .39826 .91727 0 0)"/><path fill="none" stroke-linecap="round" stroke-linejoin="round" stroke-width="1.511" d="M64.737 50.512s-4.372.692-6.582.89c-2.393.214-7.211.32-7.211.32m20.462-2.152 4.913-.465m10.355 12.671 4.914-.464"/><ellipse cx="3.717" cy="78.673" fill="#1a1a1a" stroke-width="1.517" rx=".408" ry=".352" transform="matrix(.95891 -.2837 .39826 .91727 0 0)"/><path fill="none" stroke-linecap="round" stroke-linejoin="round" stroke-width="1.511" d="m40.418 69.413 4.739-1.168"/><path fill="none" stroke-linecap="round" stroke-linejoin="round" stroke-width="1.469" d="M46.028 53.743s-4.664.273-6.797.983c-1.956.65-5.247 2.916-5.247 2.916"/></g><g fill="#fff" stroke="navy" stroke-width="2.067"><path d="M.5 6.497v69c16.34-.867 32.76-10.896 49 0v-69c-16.333-9.737-32.667-.75-49 0z" transform="matrix(-1.03785 -.12553 .00145 .90214 125.004 53.514)"/><path d="M.5 4.996v69c16.34-.867 32.76-10.895 49 0v-69c-16.333-9.736-32.667-.75-49 0z" transform="matrix(-1.03785 -.12553 .00145 .90214 125.004 53.514)"/><path d="M.5 3.497v69c16.34-.867 32.76-10.896 49 0v-69c-16.333-9.737-32.667-.75-49 0z" transform="matrix(-1.03785 -.12553 .00145 .90214 125.004 53.514)"/><path d="M.5 1.996v69c16.34-.867 32.76-10.895 49 0v-69c-16.333-9.736-32.667-.75-49 0z" transform="matrix(-1.03785 -.12553 .00145 .90214 125.004 53.514)"/></g><ellipse cx="80.695" cy="82.205" fill="navy" stroke="navy" stroke-width="1.832" rx=".261" ry=".225" transform="matrix(.99276 .12008 .0016 1 0 0)"/><path fill="none" stroke="navy" stroke-linecap="round" stroke-linejoin="round" stroke-width="1.825" d="M100.361 94.177s-3.07-1.2-4.658-1.505c-1.319-.252-2.504-.503-3.96-.248m-6.113-.231 3.081.226m11.838-22.899s-3.07-1.202-4.658-1.506c-1.319-.252-2.504-.503-3.96-.248m12.138 3.057s4.092 1.504 6.185 2.062c1.254.334 3.797.765 3.797.765m-10.71 21.808s4.093 1.505 6.186 2.062c1.253.335 3.796.765 3.796.765"/><ellipse cx="81.001" cy="65.718" fill="navy" stroke="navy" stroke-width="1.832" rx=".261" ry=".225" transform="matrix(.99276 .12008 .0016 1 0 0)"/><path fill="none" stroke="navy" stroke-linecap="round" stroke-linejoin="round" stroke-width="1.825" d="M103.605 79.467s-2.745-.703-4.094-1.148c-1.46-.482-4.319-1.645-4.319-1.645m12.571 3.934 3.006.975m-6.309 6.258 3.005.976m6.17 2.843 3.005.974"/><ellipse cx="81.307" cy="74.229" fill="navy" stroke="navy" stroke-width="1.832" rx=".261" ry=".225" transform="matrix(.99276 .12008 .0016 1 0 0)"/><path fill="none" stroke="navy" stroke-linecap="round" stroke-linejoin="round" stroke-width="1.774" d="M91.79 76.614s-2.81-1.024-4.244-1.15c-1.314-.114-3.824.382-3.824.382m15.792 10.198s-2.81-1.024-4.244-1.149c-1.314-.114-3.824.381-3.824.381"/><path fill="#f60" d="m86.587 53.538-.153 1.173q-.43-.263-.85-.424-.421-.16-.807-.21-.513-.067-.776.042-.263.109-.302.406-.029.223.118.37.151.144.574.29l.593.202q.9.306 1.24.735.34.43.25 1.127-.12.917-.724 1.295-.6.375-1.717.23-.527-.07-1.045-.238-.517-.17-1.023-.436l.157-1.206q.494.351.97.56.478.206.939.266.467.06.736-.063.27-.123.307-.413.034-.26-.119-.423-.148-.163-.639-.34l-.537-.194q-.808-.287-1.143-.727-.332-.439-.246-1.1.108-.827.7-1.203.593-.376 1.595-.246.457.06.93.193.474.13.972.334zm1.641.036 3.856.502-.14 1.08-2.428-.316-.134 1.032 2.283.298-.14 1.08-2.284-.297-.165 1.269 2.51.327-.141 1.08-3.938-.513zm9.026 1.353-.152 1.173q-.43-.264-.85-.424-.422-.16-.808-.211-.512-.067-.775.042-.264.11-.302.406-.03.223.118.37.15.145.573.29l.593.202q.9.306 1.24.735.341.43.25 1.128-.119.916-.723 1.295-.6.374-1.717.229-.527-.069-1.045-.238-.518-.17-1.023-.435l.157-1.206q.494.35.969.56.479.206.94.265.467.061.736-.062.269-.124.307-.413.033-.26-.119-.423-.149-.163-.639-.34l-.537-.195q-.808-.286-1.144-.726-.331-.44-.245-1.1.108-.828.7-1.204t1.595-.245q.456.06.93.193.473.13.971.334zm5.134.668-.153 1.173q-.43-.264-.85-.424-.421-.16-.807-.21-.513-.068-.776.042-.263.109-.302.406-.029.222.118.37.151.144.574.29l.593.201q.9.306 1.24.736.34.429.25 1.127-.12.917-.724 1.295-.6.375-1.717.23-.527-.07-1.045-.239-.517-.17-1.023-.435l.157-1.206q.495.351.97.56.478.206.939.266.467.06.736-.063.27-.124.307-.413.034-.26-.119-.423-.148-.163-.639-.34l-.537-.194q-.808-.287-1.143-.727-.332-.44-.246-1.1.108-.828.7-1.204.593-.375 1.595-.245.457.06.93.193.474.13.972.334zm1.641.036 1.429.186-.721 5.542-1.43-.186zm5.238 1.633q-.653-.085-1.076.35-.423.436-.537 1.312-.114.873.184 1.402.297.53.95.614.657.086 1.08-.35.423-.435.536-1.308.114-.876-.183-1.405-.297-.53-.954-.615zm.135-1.035q1.336.173 1.994 1.037.657.863.482 2.21-.175 1.344-1.032 2.01-.856.666-2.193.492-1.332-.173-1.993-1.037-.658-.863-.483-2.207.175-1.347 1.032-2.013.86-.666 2.193-.492zm3.918.611 1.596.208 1.52 4.063.495-3.8 1.355.176-.721 5.542-1.596-.208-1.521-4.063-.495 3.8-1.355-.176zM15.258 10.386l-.153 1.173q-.43-.264-.85-.424-.422-.16-.808-.211-.512-.067-.775.043-.263.109-.302.406-.03.222.118.37.15.144.574.29l.592.201q.9.306 1.24.736.341.429.25 1.127-.119.917-.723 1.295-.6.375-1.717.23-.527-.07-1.045-.239-.518-.17-1.023-.435l.157-1.206q.494.35.97.56.478.206.938.266.468.06.737-.063.269-.124.307-.413.034-.26-.119-.423-.149-.163-.639-.34l-.537-.195q-.808-.286-1.143-.726-.332-.44-.246-1.1.108-.828.7-1.204.593-.375 1.595-.245.456.06.93.193.474.13.972.334zm1.641.036 3.856.502-.14 1.08-2.428-.316-.134 1.032 2.283.297-.141 1.08-2.283-.297-.165 1.27 2.51.326-.141 1.08-3.939-.512zm9.026 1.352-.152 1.173q-.43-.263-.851-.424-.42-.16-.807-.21-.512-.067-.775.042-.264.11-.302.406-.03.223.117.37.152.145.574.29l.593.202q.9.306 1.24.735.341.43.25 1.127-.12.917-.723 1.295-.6.375-1.717.23-.527-.069-1.045-.238-.518-.17-1.023-.435l.157-1.207q.494.351.969.56.479.206.94.266.467.061.736-.062.269-.124.306-.414.034-.26-.118-.423-.149-.162-.64-.34l-.536-.194q-.809-.286-1.144-.726-.331-.44-.245-1.1.107-.828.7-1.204.592-.376 1.594-.246.457.06.93.193.474.13.972.334zm5.134.669-.153 1.172q-.43-.263-.85-.424-.421-.16-.807-.21-.513-.067-.776.042-.263.11-.302.406-.029.223.118.37.151.145.574.29l.592.202q.9.306 1.241.735.34.43.25 1.127-.12.917-.724 1.295-.6.375-1.717.23-.527-.069-1.045-.238-.518-.17-1.023-.435l.157-1.207q.494.352.97.56.478.206.938.266.468.061.737-.062.27-.124.307-.413.034-.26-.119-.423-.148-.163-.639-.34l-.537-.195q-.808-.286-1.143-.726-.332-.44-.246-1.1.108-.828.7-1.204.593-.376 1.595-.245.456.06.93.192.474.13.972.335zm1.641.036 1.429.186-.722 5.541-1.429-.186zm5.238 1.633q-.653-.085-1.076.35-.423.436-.537 1.312-.114.872.184 1.402.297.53.95.614.657.086 1.08-.35.423-.436.536-1.308.114-.876-.183-1.405-.297-.53-.954-.615zm.135-1.036q1.336.174 1.994 1.037.657.863.482 2.21-.175 1.345-1.032 2.01-.857.667-2.193.493-1.332-.174-1.994-1.037-.657-.864-.482-2.207.175-1.348 1.032-2.014.86-.665 2.193-.492zm3.917.612 1.596.208 1.521 4.063.495-3.8 1.355.175-.722 5.542-1.596-.208-1.52-4.063-.495 3.801-1.355-.176z" aria-label="SESSION" font-size="15.949" font-weight="700" style="line-height:1.25;-inkscape-font-specification:&quot;sans-serif Bold&quot;"/><path fill="#f60" stroke="navy" stroke-linecap="round" stroke-linejoin="round" stroke-width="2.909" d="M30.873 39.851 57.49 51.588l-.2-17.575L81.606 65.4c1.871 2.556-.177 6.295-2.934 6.655L39.1 75.272l13.11-11.706-26.62-11.737c8.673-2.856 6.288-7.463 5.282-11.978z"/>
	</symbol>
	<symbol id="delete.default" viewBox="0 0 128 128">
		<path fill="#f2ebd9" d="m4.636 86.924 19.008-20.22 33.978 36.144-19.008 20.22z"/><path fill="#6da8d6" d="m66.222 74.444 38.612-41.072-15.875-16.886-53.547 56.96 15.874 16.886 9.504-10.11a1.84 1.84 0 0 1 2.716-.001l2.715-2.889a2.136 2.136 0 0 1 0-2.888z"/><path fill="#185f8d" d="M68.937 77.333a1.857 1.857 0 0 1-1.358.598c-.491 0-.983-.2-1.357-.598l-2.716 2.888c.75.798.75 2.091 0 2.889l-9.504 10.11 8.146 8.666 53.548-56.96-8.147-8.666zM24.551 61.89 78.097 4.93l8.146 8.666-53.545 56.958z"/><path fill="#082947" d="M119.77 43.481 79.454.598A1.863 1.863 0 0 0 78.097 0c-.509 0-.997.215-1.357.598L20.477 60.447a2.135 2.135 0 0 0 0 2.888l.452.482L.562 85.482a2.135 2.135 0 0 0 0 2.888l36.694 39.032c.375.399.866.598 1.358.598.49 0 .982-.2 1.357-.598l20.367-21.665.453.482a1.86 1.86 0 0 0 1.357.598c.492 0 .983-.2 1.358-.598L119.77 46.37a2.11 2.11 0 0 0 .562-1.444 2.11 2.11 0 0 0-.562-1.445zm-57.622 58.405-8.146-8.666 9.504-10.11c.75-.798.75-2.091 0-2.889a1.84 1.84 0 0 0-2.715 0l-9.505 10.11-15.874-16.886 53.548-56.96 15.874 16.886-38.612 41.073c-.75.797-.75 2.09 0 2.888.375.4.866.599 1.358.599.491 0 .982-.2 1.357-.599L107.55 36.26l8.147 8.666zm24.096-88.29-53.548 56.96-8.146-8.665 53.547-56.96zm-28.622 89.252-19.008 20.22L4.636 86.927l19.009-20.22z"/><g transform="matrix(.4379 0 0 .4658 -41.338 5.154)"><path fill="#d40000" d="m322.002 202.431 9.64-9.64c3.99-3.993 3.99-10.467-.002-14.459-3.994-3.992-10.465-3.992-14.46 0l-9.64 9.64-9.64-9.64c-3.993-3.992-10.464-3.992-14.458 0-3.993 3.993-3.993 10.466 0 14.459l9.64 9.64-9.64 9.64c-3.993 3.993-3.993 10.466 0 14.459a10.194 10.194 0 0 0 7.23 2.994c2.617 0 5.233-.998 7.23-2.994l9.64-9.64 9.64 9.64a10.194 10.194 0 0 0 7.23 2.994c2.617 0 5.233-.998 7.23-2.994 3.993-3.993 3.993-10.466 0-14.459z"/><circle cx="308.009" cy="202.006" r="49.835" fill="none" stroke="#d40000" stroke-linecap="square" stroke-linejoin="round" stroke-width="23.772"/></g>
	</symbol>
	<symbol id="edit.default" viewBox="0 0 128 128">
		<path d="M121.903 6.095c-8.132-8.127-21.358-8.127-29.49 0L8.866 89.64c-.04.04-.062.088-.097.13-.049.055-.09.116-.134.176a2.253 2.253 0 0 0-.29.554c-.02.06-.051.113-.067.173-.007.023-.021.047-.028.07L.06 125.146a2.297 2.297 0 0 0-.05.468c0 .03-.01.058-.01.088a2.304 2.304 0 0 0 .22.933c.114.248.255.487.454.686a2.332 2.332 0 0 0 1.638.679c.179 0 .36-.02.535-.063l34.404-8.19c.063-.013.118-.048.179-.069a2.281 2.281 0 0 0 .695-.375c.055-.044.113-.076.166-.125.019-.019.042-.028.06-.046l83.55-83.547c8.132-8.132 8.132-21.36.002-29.49zm-3.276 3.276c5.764 5.766 6.256 14.82 1.506 21.168L97.46 7.865c6.35-4.749 15.404-4.258 21.168 1.506zM107.16 43.774 84.223 20.84l3.276-3.276 22.936 22.935zm-95.666 72.728a2.314 2.314 0 0 0-3.275 0l-1.754 1.754 5.917-24.854 10.244-1.137-1.318 11.866c-.009.088.023.17.023.255 0 .088-.032.167-.023.255.01.076.049.139.065.213a2.353 2.353 0 0 0 .336.801 2.194 2.194 0 0 0 .595.605c.105.072.204.14.32.195.153.072.313.113.48.153.088.02.16.07.25.08.083.01.167.015.252.015h.01c.083 0 .169-.005.252-.014l11.867-1.319-1.138 10.245-24.856 5.917 1.753-1.754a2.318 2.318 0 0 0 0-3.276zM40.57 103.81l51.844-51.845a2.314 2.314 0 0 0 0-3.276 2.314 2.314 0 0 0-3.276 0l-51.844 51.845-11.058 1.228 1.228-11.058L79.312 38.86a2.314 2.314 0 0 0 0-3.275 2.314 2.314 0 0 0-3.276 0L24.187 87.428l-7.374.82 64.135-64.133 22.935 22.935-64.134 64.133zm73.142-66.587L90.775 14.287l3.278-3.278 22.936 22.935z"/><path fill="#f55" fill-opacity=".984" d="M108.864 19.127 97.562 7.825l1.125-.692c4.749-2.923 10.529-3.21 15.525-.774 4.64 2.264 7.914 6.563 8.819 11.585.28 1.558.28 4.246 0 5.74a17.196 17.196 0 0 1-2.412 6.036l-.453.71z"/><path fill="#d4aa00" fill-opacity=".984" d="M39.963 110.167c.075-.373.272-1.96.437-3.525l.299-2.848 26.14-26.169C84.011 60.432 93.036 51.21 93.15 50.74c.373-1.55-1.522-3.297-3.017-2.781-.284.098-12.292 11.936-26.686 26.308l-26.17 26.13-4.61.545c-2.535.3-4.983.545-5.438.546l-.829.001.593-5.322.593-5.321 26.202-26.207C78.987 39.436 79.99 38.395 79.99 37.442c0-.546-.076-1.19-.168-1.43-.268-.7-1.689-1.302-2.645-1.122-.678.127-6.11 5.42-26.99 26.3l-26.14 26.141-3.057.33c-1.682.181-3.19.285-3.352.231-.161-.054 14.016-14.406 31.505-31.894L80.94 24.202l11.388 11.39 11.389 11.39L71.77 78.915c-21.503 21.493-31.901 31.71-31.808 31.253z"/><path fill="#fea" fill-opacity=".984" d="M11.768 119.603c.69-1.17.722-1.453.274-2.388-.28-.584-.983-1.228-1.561-1.432-.857-.301-1.266-.211-2.204.482-.634.469-1.153.668-1.153.442 0-.655 4.974-21.584 5.335-22.446.287-.685.905-.839 5.033-1.251 2.59-.259 4.752-.425 4.807-.37.055.056-.136 2.086-.426 4.512-.713 5.981-.702 8.239.044 8.985.748.748 2.112.75 8.368.013 2.719-.32 5.01-.516 5.09-.435.177.177-.873 9.441-1.095 9.663-.15.151-22.58 5.551-23.056 5.551-.131 0 .113-.597.544-1.326z"/><path fill="#c8beb7" fill-opacity=".984" d="M102.237 25.328 91.132 14.213l1.488-1.488 1.488-1.488 11.227 11.226 11.227 11.227-1.293 1.376c-.71.757-1.435 1.377-1.61 1.377-.174 0-5.314-5.002-11.422-11.115z"/><path fill="#e3dedb" fill-opacity=".984" d="m95.743 31.851-11.09-11.1 1.309-1.393 1.309-1.393 11.263 11.253 11.263 11.253-1.164 1.24c-.641.682-1.308 1.24-1.482 1.24-.175 0-5.308-4.995-11.408-11.1zm6.594-6.704L91.304 14.11l1.361-1.32 1.362-1.32L105.2 22.644l11.174 11.174-1.183 1.184c-.65.65-1.327 1.183-1.503 1.183-.176 0-5.284-4.967-11.352-11.038z"/>
	</symbol>
	<symbol id="export.default" viewBox="0 0 128 128">
		<path fill="#87de87" d="M128 82.787C128 107.767 107.768 128 82.787 128H45.213C20.233 128 0 107.768 0 82.787V45.213C0 20.233 20.232 0 45.213 0h37.574C107.767 0 128 20.232 128 45.213z"/><path fill="#37c837" d="M0 45.213C0 20.233 20.232 0 45.213 0h37.574C107.767 0 128 20.232 128 45.213v37.574C128 107.767 107.768 128 82.787 128"/><path fill="#217821" d="M82.787 0C107.767 0 128 20.232 128 45.213v37.574C128 107.767 107.768 128 82.787 128"/><g stroke-width="10.522" font-family="Constantia" font-size="505.066" font-weight="700" letter-spacing="0" word-spacing="0"><text xml:space="preserve" x="101.726" y="435.26" fill="#217821" style="line-height:1.25;-inkscape-font-specification:&quot;Constantia, Bold&quot;;font-variant-ligatures:normal;font-variant-caps:normal;font-variant-numeric:normal;font-feature-settings:normal;text-align:start" transform="translate(3.871) scale(.25806)"><tspan x="101.726" y="435.26" style="-inkscape-font-specification:&quot;Constantia, Bold&quot;;font-variant-ligatures:normal;font-variant-caps:normal;font-variant-numeric:normal;font-feature-settings:normal;text-align:start">X</tspan></text><text xml:space="preserve" x="101.726" y="420.26" fill="#fff" style="line-height:1.25;-inkscape-font-specification:&quot;Constantia, Bold&quot;;font-variant-ligatures:normal;font-variant-caps:normal;font-variant-numeric:normal;font-feature-settings:normal;text-align:start" transform="translate(3.871) scale(.25806)"><tspan x="101.726" y="420.26" style="-inkscape-font-specification:&quot;Constantia, Bold&quot;;font-variant-ligatures:normal;font-variant-caps:normal;font-variant-numeric:normal;font-feature-settings:normal;text-align:start">X</tspan></text></g><path fill="none" stroke="#217821" stroke-linecap="round" stroke-linejoin="round" stroke-width="12" d="M6.085 66.768h43.369l-11.71-11.71m11.71 11.71-11.71 11.336"/><path fill="none" stroke="#fff" stroke-linecap="round" stroke-linejoin="round" stroke-width="12" d="M7.672 64.187H51.04l-11.71-11.71m11.71 11.71L39.33 75.523"/>
	</symbol>
	<symbol id="forward.default" viewBox="0 0 128 128">
		<path fill="#ac9d93" d="M128 82.787C128 107.767 107.768 128 82.787 128H45.213C20.233 128 0 107.768 0 82.787V45.213C0 20.233 20.232 0 45.213 0h37.574C107.767 0 128 20.232 128 45.213z"/><path fill="#6c5d53" d="M0 45.213C0 20.233 20.232 0 45.213 0h37.574C107.767 0 128 20.232 128 45.213v37.574C128 107.767 107.768 128 82.787 128"/><path fill="#483e37" d="M82.787 0C107.767 0 128 20.232 128 45.213v37.574C128 107.767 107.768 128 82.787 128"/><path fill="none" stroke="#483e37" stroke-linecap="round" stroke-linejoin="round" stroke-width="10" d="m66 43 22 24-22 24m22-24H37"/><path fill="none" stroke="#fff" stroke-linecap="round" stroke-linejoin="round" stroke-width="10" d="m64 40 22 24-22 24m22-24H35"/>
	</symbol>
	<symbol id="import.default" viewBox="0 0 128 128">
		<path fill="#87de87" d="M128 82.787C128 107.767 107.768 128 82.787 128H45.213C20.233 128 0 107.768 0 82.787V45.213C0 20.233 20.232 0 45.213 0h37.574C107.767 0 128 20.232 128 45.213z"/><path fill="#37c837" d="M0 45.213C0 20.233 20.232 0 45.213 0h37.574C107.767 0 128 20.232 128 45.213v37.574C128 107.767 107.768 128 82.787 128"/><path fill="#217821" d="M82.787 0C107.767 0 128 20.232 128 45.213v37.574C128 107.767 107.768 128 82.787 128"/><g stroke-width="10.522" font-family="Constantia" font-size="505.066" font-weight="700" letter-spacing="0" word-spacing="0"><text xml:space="preserve" x="101.726" y="435.26" fill="#217821" style="line-height:1.25;-inkscape-font-specification:&quot;Constantia, Bold&quot;;font-variant-ligatures:normal;font-variant-caps:normal;font-variant-numeric:normal;font-feature-settings:normal;text-align:start" transform="translate(-19.355) scale(.25806)"><tspan x="101.726" y="435.26" style="-inkscape-font-specification:&quot;Constantia, Bold&quot;;font-variant-ligatures:normal;font-variant-caps:normal;font-variant-numeric:normal;font-feature-settings:normal;text-align:start">X</tspan></text><text xml:space="preserve" x="101.726" y="420.26" fill="#fff" style="line-height:1.25;-inkscape-font-specification:&quot;Constantia, Bold&quot;;font-variant-ligatures:normal;font-variant-caps:normal;font-variant-numeric:normal;font-feature-settings:normal;text-align:start" transform="translate(-19.355) scale(.25806)"><tspan x="101.726" y="420.26" style="-inkscape-font-specification:&quot;Constantia, Bold&quot;;font-variant-ligatures:normal;font-variant-caps:normal;font-variant-numeric:normal;font-feature-settings:normal;text-align:start">X</tspan></text></g><path fill="none" stroke="#217821" stroke-linecap="round" stroke-linejoin="round" stroke-width="12" d="M76.983 62.984h43.369l-11.71-11.71m11.71 11.71-11.71 11.336"/><path fill="none" stroke="#fff" stroke-linecap="round" stroke-linejoin="round" stroke-width="12" d="M78.57 60.403h43.368l-11.71-11.71m11.71 11.71-11.71 11.336"/>
	</symbol>
	<symbol id="login.default" viewBox="0 0 128 128">
		<g stroke="#fff" stroke-linecap="round" stroke-linejoin="round"><path fill="#fff" stroke-width=".933" d="M12.783 22.244v8.842c0 .855.36.934.92.934h16.345c.44.014.933-.261.933-.934.006-4.015.013-20.013 0-27.04 0-.557-.612-.934-.933-.934H13.717c-.533 0-.934.494-.934.934v6.999c0 .56.158 1.4.934 1.4.775 0 .933-.84.933-1.4V5.912c0-.44.479-.933.919-.933h12.613c.348 0 .933.493.933.933V29.22c0 .44-.493.933-.933.933H15.583c-.44 0-.933-.493-.933-.933v-6.976c0-.44-.493-.933-.933-.933-.44 0-.934.685-.934.933z"/><g fill="none"><path stroke-width="2.646" d="m20.373 11.906 6.085 5.027-6.085 5.027"/><path stroke-width="4.233" d="M24.033 16.933H4.117"/></g></g>
	</symbol>
	<symbol id="logout.default" viewBox="0 0 128 128">
		<g stroke-linecap="round" stroke-linejoin="round"><path stroke="#000" stroke-width="1.058" d="M21.167 22.225v10.028c0 .969-.408 1.058-1.043 1.058H1.588c-.5.017-1.058-.296-1.059-1.058C.523 27.699.515 9.556.53 1.587.53.957 1.224.53 1.588.53h18.52c.604 0 1.059.56 1.059 1.058v7.938s.028 1.587-.53 1.587c-.557 0-.529-1.587-.529-1.587v-6.88c0-.498-.543-1.058-1.042-1.058H2.646c-.395 0-1.058.56-1.058 1.059v28.548c0 .5.559 1.059 1.058 1.059H19.05c.499 0 1.058-.56 1.058-1.059v-8.97s.135-1.057.53-1.057c.394 0 .522.777.529 1.058z"/><g fill="none" stroke="maroon"><path stroke-width="2.646" d="m26.458 11.906 6.086 5.027-6.086 5.027"/><path stroke-width="4.233" d="M29.104 16.933H11.906"/></g></g>
	</symbol>
	<symbol id="next.default" viewBox="0 0 128 128">
		<use href="#forward.default">
	</symbol>
	<symbol id="previous.default" viewBox="0 0 128 128">
		<use href="#back.default">
	</symbol>
	<symbol id="remove.default" viewBox="0 0 128 128">
		<path fill="#d40000" stroke="#000" stroke-linecap="round" stroke-linejoin="round" d="M120.76 9.23c-4.307-4.296-11.443-7.384-17.305-5.772-18.891 5.187-38.453 44.46-38.453 44.46S45.469 8.667 26.587 3.48C20.73 1.872 13.593 4.946 9.296 9.244c-4.302 4.297-7.38 11.438-5.773 17.3 5.174 18.882 44.4 38.452 44.4 38.452S8.698 84.528 3.51 103.402c-1.612 5.858.599 11.9 5.764 17.304 5.157 5.4 11.438 7.368 17.305 5.76 18.87-5.178 38.423-44.383 38.423-44.383s19.583 39.23 38.474 44.409c5.862 1.603 13.007-1.476 17.305-5.773 4.297-4.297 7.371-11.433 5.76-17.291C121.348 84.537 82.083 65 82.083 65s39.261-19.584 44.443-38.483c1.608-5.858-1.475-12.998-5.772-17.291z" style="stroke-width:4.00004;stroke-dasharray:none"/>
	</symbol>
	<symbol id="save.default" viewBox="0 0 128 128">
		<path fill="#82cc00" d="M128 64c0 35.303-28.697 64-64 64S0 99.303 0 64 28.697 0 64 0s64 28.697 64 64z"/><path fill="#3eb500" d="M64 0c35.303 0 64 28.697 64 64s-28.697 64-64 64"/><path fill="#5fbf02" d="M18.787 18.787c24.98-24.98 65.445-24.98 90.426 0 24.98 24.98 24.98 65.445 0 90.426"/><path fill="green" stroke="#fff" stroke-linecap="round" stroke-linejoin="round" stroke-width="4.816" d="M87.797 106.751H40.204V72.945h47.592v33.805h18.956V38.946l-17.691-17.7H21.247v85.505h19.619"/><path fill="#dcdcdc" stroke="#fff" stroke-linecap="round" stroke-linejoin="round" stroke-width="3.614" d="m88.102 21.246.207 19.011H40.724l-.208-19.01"/><path fill="#e3f4d7" d="M42.652 89.757V75.364h42.625v28.786H42.652z"/><text xml:space="preserve" x="-44.739" y="-17.364" fill="#8a916f" stroke-width=".189" font-family="sans-serif" font-size="7.549" font-weight="400" letter-spacing="0" style="line-height:1.25" transform="translate(115.893 114.249) scale(1.59539)" word-spacing="0"><tspan x="-44.739" y="-17.364">Save</tspan><tspan x="-44.739" y="-7.929">record</tspan></text>
	</symbol>
	<symbol id="search.default" viewBox="0 0 128 128">
		<g fill="navy"><path d="M67.117 25.658c-5.537-5.537-12.899-8.586-20.729-8.586s-15.192 3.05-20.729 8.586a3.988 3.988 0 1 0 5.64 5.64 21.198 21.198 0 0 1 15.09-6.25 21.2 21.2 0 0 1 15.088 6.25c8.32 8.32 8.32 21.857 0 30.176a3.988 3.988 0 1 0 5.64 5.64c11.43-11.429 11.43-30.027 0-41.456z"/><path d="M120.792 105.273 83.098 67.581c9.352-16.205 7.108-37.322-6.737-51.166C68.355 8.409 57.711 4 46.388 4 35.066 4 24.422 8.409 16.415 16.415 8.41 24.421 4 35.065 4 46.386c0 11.322 4.41 21.966 12.416 29.972 8.263 8.263 19.118 12.394 29.972 12.394a42.403 42.403 0 0 0 21.196-5.658l37.694 37.692a10.897 10.897 0 0 0 7.757 3.214c2.93 0 5.685-1.141 7.757-3.213 4.277-4.277 4.277-11.236 0-15.514zM46.388 80.78c-8.81-.002-17.624-3.355-24.332-10.063-6.5-6.499-10.079-15.14-10.079-24.33 0-9.192 3.58-17.833 10.08-24.332 6.499-6.499 15.14-10.078 24.331-10.078 9.192 0 17.833 3.579 24.332 10.078 13.417 13.417 13.417 35.246 0 48.662-6.709 6.71-15.519 10.063-24.332 10.063zm68.764 34.367a2.974 2.974 0 0 1-2.117.877c-.8 0-1.55-.312-2.116-.877L74.17 78.399a42.9 42.9 0 0 0 2.192-2.041 42.715 42.715 0 0 0 2.041-2.192l36.75 36.748a2.997 2.997 0 0 1 0 4.233z"/></g>
	</symbol>
</svg>