<svg xmlns="http://www.w3.org/2000/svg" style="display: none">
	<symbol id="5-dots-fade.default" viewBox="0 0 40 24">
		<circle cx="4" cy="12" r="3" fill="#500" class="spinner_S1WN"/><circle cx="12" cy="12" r="3" fill="#500" class="spinner_S1WN" style="animation-delay:-.65s"/><circle cx="20" cy="12" r="3" fill="#500" class="spinner_S1WN spinner_JApP"/><circle cx="28" cy="12" r="3" fill="#500" class="spinner_S1WN spinner_JApP"/><circle cx="36" cy="12" r="3" fill="#500" class="spinner_S1WN spinner_JApP"/>
	</symbol>
	<symbol id="actions.default" viewBox="0 0 128 128">
		<path fill="#ececec" d="M25 37.5v81c0 2.587 1.402 4 4 4h70c2.51 0 4-1.702 4-4v-81c0-2.688-1.524-4-4-4H29c-2.385 0-4 1.497-4 4z"/><text xml:space="preserve" x="43.136" y="62.369" font-family="sans-serif" font-size="4" font-weight="400" letter-spacing="0" style="line-height:1.25;white-space:pre;inline-size:59.9132" transform="translate(-6.16 -11.83)" word-spacing="0"><tspan x="43.136" y="62.369"><tspan style="-inkscape-font-specification:sans-serif">Aliquam tincidunt mauris eu </tspan></tspan><tspan x="43.136" y="67.369"><tspan style="-inkscape-font-specification:sans-serif">risus.</tspan></tspan></text><text xml:space="preserve" x="36.978" y="63.539" font-family="sans-serif" font-size="4" letter-spacing="0" style="line-height:1.25" word-spacing="0"><tspan x="36.978" y="63.539">Vestibulum auctor dapibus</tspan><tspan x="36.978" y="68.539">neque.</tspan></text><text xml:space="preserve" x="36.978" y="76.539" font-family="sans-serif" font-size="4" letter-spacing="0" style="line-height:1.25" word-spacing="0"><tspan x="36.978" y="76.539">Nunc dignissim risus id metus.</tspan></text><text xml:space="preserve" x="36.978" y="86.539" font-family="sans-serif" font-size="4" letter-spacing="0" style="line-height:1.25" word-spacing="0"><tspan x="36.978" y="86.539">Cras ornare tristique elit.</tspan></text><text xml:space="preserve" x="36.978" y="95.039" font-family="sans-serif" font-size="4" letter-spacing="0" style="line-height:1.25;white-space:pre;inline-size:64.3061" transform="translate(0 1.5)" word-spacing="0"><tspan x="36.978" y="95.039"><tspan>Vivamus vestibulum ntulla nec </tspan></tspan><tspan x="36.978" y="100.039"><tspan>ante.</tspan></tspan></text><text xml:space="preserve" x="36.784" y="108.039" font-family="sans-serif" font-size="4" letter-spacing="0" style="line-height:1.25;white-space:pre;inline-size:62.2875" transform="translate(0 1.5)" word-spacing="0"><tspan x="36.784" y="108.039"><tspan>Praesent placerat risus quis </tspan></tspan><tspan x="36.784" y="113.039"><tspan>eros.</tspan></tspan></text><circle cx="33.12" cy="49.167" r="1.167" fill="navy"/><circle cx="33.12" cy="62.167" r="1.167" fill="navy"/><circle cx="33.12" cy="75.167" r="1.167" fill="navy"/><circle cx="33.12" cy="85.167" r="1.167" fill="navy"/><circle cx="33.12" cy="95.167" r="1.167" fill="navy"/><circle cx="33.12" cy="108.167" r="1.167" fill="navy"/><text xml:space="preserve" x="43.136" y="62.369" font-family="sans-serif" font-size="4" font-weight="400" letter-spacing="0" style="line-height:1.25;white-space:pre;inline-size:59.9132" transform="translate(-6.16 -21.83)" word-spacing="0"><tspan x="43.136" y="62.369"><tspan>Lorem ipsum dolor</tspan></tspan></text><circle cx="33.12" cy="39.167" r="1.167" fill="navy"/><path fill="none" stroke="#000" stroke-linecap="round" stroke-linejoin="round" stroke-width="4" d="M70.302 32H97c4.719 0 7.411 3.555 7.411 8v76c0 4.581-3.271 8-6.979 8H32c-5.11-.035-9.093-1.74-8.989-6.255V67.152"/><g transform="translate(2 2)"><circle cx="30" cy="30" r="30" fill="navy"/><path fill="#fe9e14" d="M57.5 30C57.5 14.837 45.163 2.5 30 2.5S2.5 14.837 2.5 30c0 8.009 3.444 15.228 8.926 20.258l-.026.023.892.752c.058.049.121.089.179.137.474.393.965.766 1.465 1.127.162.117.324.234.489.348.534.368 1.082.717 1.642 1.048.122.072.245.142.368.212a27.44 27.44 0 0 0 1.88.98l.142.064a27.252 27.252 0 0 0 6.651 2.105l.184.033c.724.125 1.456.225 2.197.292.09.008.18.013.271.021.738.061 1.484.1 2.24.1.749 0 1.488-.039 2.222-.098l.279-.021a27.808 27.808 0 0 0 2.178-.287l.187-.034a27.251 27.251 0 0 0 6.557-2.055c.076-.035.153-.068.229-.104a27.639 27.639 0 0 0 2.25-1.189 27.514 27.514 0 0 0 1.581-1c.185-.126.366-.259.549-.391.439-.316.87-.642 1.289-.983.093-.075.193-.14.284-.217l.915-.764-.027-.023C54.023 45.302 57.5 38.05 57.5 30zm-53 0C4.5 15.939 15.939 4.5 30 4.5S55.5 15.939 55.5 30c0 7.577-3.325 14.389-8.589 19.063a7.494 7.494 0 0 0-.893-.537l-8.467-4.233a2.217 2.217 0 0 1-1.232-1.993v-2.957c.196-.242.403-.516.617-.817a20.378 20.378 0 0 0 2.616-5.123 3.63 3.63 0 0 0 2.085-3.289v-3.545c0-.867-.318-1.708-.887-2.369v-4.667c.052-.519.236-3.448-1.883-5.864C37.024 11.565 34.041 10.5 30 10.5c-4.041 0-7.024 1.065-8.867 3.168-2.119 2.416-1.935 5.345-1.883 5.864v4.667a3.644 3.644 0 0 0-.887 2.369v3.545c0 1.101.494 2.128 1.34 2.821.81 3.173 2.477 5.575 3.093 6.389v2.894a2.23 2.23 0 0 1-1.162 1.958l-7.907 4.313a7.227 7.227 0 0 0-.752.476C7.776 44.292 4.5 37.522 4.5 30zm40.459 20.632c-.35.254-.706.5-1.067.735-.166.108-.331.216-.5.321-.472.292-.952.57-1.442.83-.108.057-.217.111-.326.167a25.481 25.481 0 0 1-3.488 1.476l-.127.043c-.627.208-1.262.393-1.904.552l-.006.001a25.59 25.59 0 0 1-1.964.402l-.054.01c-.621.101-1.247.174-1.875.229-.111.01-.222.017-.334.025-.621.047-1.245.077-1.872.077a25.43 25.43 0 0 1-1.895-.078c-.109-.008-.218-.015-.326-.025a25.862 25.862 0 0 1-1.89-.233l-.084-.015a25.405 25.405 0 0 1-3.89-.971l-.118-.04a25.86 25.86 0 0 1-1.862-.713l-.013-.006a26.094 26.094 0 0 1-1.705-.816c-.073-.038-.147-.074-.219-.113a25.7 25.7 0 0 1-1.939-1.155 25.417 25.417 0 0 1-1.338-.933l-.133-.104.096-.054 7.907-4.313a4.229 4.229 0 0 0 2.205-3.714l-.001-3.602-.23-.278c-.022-.025-2.184-2.655-3.001-6.216l-.091-.396-.341-.221a1.657 1.657 0 0 1-.769-1.392v-3.545c0-.465.197-.898.557-1.223l.33-.298v-5.57l-.009-.131c-.003-.024-.298-2.429 1.396-4.36C24.083 13.337 26.561 12.5 30 12.5c3.426 0 5.896.83 7.346 2.466 1.692 1.911 1.415 4.361 1.413 4.381l-.009 5.701.33.298c.359.324.557.758.557 1.223v3.545a1.67 1.67 0 0 1-1.181 1.575l-.497.153-.16.495a18.5 18.5 0 0 1-2.496 5.032c-.262.37-.517.698-.736.949l-.248.283V42.3c0 1.612.896 3.062 2.338 3.782l8.467 4.233.16.083c-.107.081-.217.156-.325.234z"/></g>
	</symbol>
	<symbol id="actions.full" viewBox="0 0 128 128">
		<path fill="#ececec" d="M25 37.5v81c0 2.587 1.402 4 4 4h70c2.51 0 4-1.702 4-4v-81c0-2.688-1.524-4-4-4H29c-2.385 0-4 1.497-4 4z"/><text xml:space="preserve" x="43.136" y="62.369" font-family="sans-serif" font-size="4" font-weight="400" letter-spacing="0" style="line-height:1.25;white-space:pre;inline-size:59.9132" transform="translate(-6.16 -11.83)" word-spacing="0"><tspan x="43.136" y="62.369"><tspan style="-inkscape-font-specification:sans-serif">Aliquam tincidunt mauris eu </tspan></tspan><tspan x="43.136" y="67.369"><tspan style="-inkscape-font-specification:sans-serif">risus.</tspan></tspan></text><text xml:space="preserve" x="36.978" y="63.539" font-family="sans-serif" font-size="4" letter-spacing="0" style="line-height:1.25" word-spacing="0"><tspan x="36.978" y="63.539">Vestibulum auctor dapibus</tspan><tspan x="36.978" y="68.539">neque.</tspan></text><text xml:space="preserve" x="36.978" y="76.539" font-family="sans-serif" font-size="4" letter-spacing="0" style="line-height:1.25" word-spacing="0"><tspan x="36.978" y="76.539">Nunc dignissim risus id metus.</tspan></text><text xml:space="preserve" x="36.978" y="86.539" font-family="sans-serif" font-size="4" letter-spacing="0" style="line-height:1.25" word-spacing="0"><tspan x="36.978" y="86.539">Cras ornare tristique elit.</tspan></text><text xml:space="preserve" x="36.978" y="95.039" font-family="sans-serif" font-size="4" letter-spacing="0" style="line-height:1.25;white-space:pre;inline-size:64.3061" transform="translate(0 1.5)" word-spacing="0"><tspan x="36.978" y="95.039"><tspan>Vivamus vestibulum ntulla nec </tspan></tspan><tspan x="36.978" y="100.039"><tspan>ante.</tspan></tspan></text><text xml:space="preserve" x="36.784" y="108.039" font-family="sans-serif" font-size="4" letter-spacing="0" style="line-height:1.25;white-space:pre;inline-size:62.2875" transform="translate(0 1.5)" word-spacing="0"><tspan x="36.784" y="108.039"><tspan>Praesent placerat risus quis </tspan></tspan><tspan x="36.784" y="113.039"><tspan>eros.</tspan></tspan></text><circle cx="33.12" cy="49.167" r="1.167" fill="navy"/><circle cx="33.12" cy="62.167" r="1.167" fill="navy"/><circle cx="33.12" cy="75.167" r="1.167" fill="navy"/><circle cx="33.12" cy="85.167" r="1.167" fill="navy"/><circle cx="33.12" cy="95.167" r="1.167" fill="navy"/><circle cx="33.12" cy="108.167" r="1.167" fill="navy"/><text xml:space="preserve" x="43.136" y="62.369" font-family="sans-serif" font-size="4" font-weight="400" letter-spacing="0" style="line-height:1.25;white-space:pre;inline-size:59.9132" transform="translate(-6.16 -21.83)" word-spacing="0"><tspan x="43.136" y="62.369"><tspan>Lorem ipsum dolor</tspan></tspan></text><circle cx="33.12" cy="39.167" r="1.167" fill="navy"/><g transform="translate(2 2)"><circle cx="30" cy="30" r="30" fill="navy"/><path fill="#fe9e14" d="M57.5 30C57.5 14.837 45.163 2.5 30 2.5S2.5 14.837 2.5 30c0 8.009 3.444 15.228 8.926 20.258l-.026.023.892.752c.058.049.121.089.179.137.474.393.965.766 1.465 1.127.162.117.324.234.489.348.534.368 1.082.717 1.642 1.048.122.072.245.142.368.212a27.44 27.44 0 0 0 1.88.98l.142.064a27.252 27.252 0 0 0 6.651 2.105l.184.033c.724.125 1.456.225 2.197.292.09.008.18.013.271.021.738.061 1.484.1 2.24.1.749 0 1.488-.039 2.222-.098l.279-.021a27.808 27.808 0 0 0 2.178-.287l.187-.034a27.251 27.251 0 0 0 6.557-2.055c.076-.035.153-.068.229-.104a27.639 27.639 0 0 0 2.25-1.189 27.514 27.514 0 0 0 1.581-1c.185-.126.366-.259.549-.391.439-.316.87-.642 1.289-.983.093-.075.193-.14.284-.217l.915-.764-.027-.023C54.023 45.302 57.5 38.05 57.5 30zm-53 0C4.5 15.939 15.939 4.5 30 4.5S55.5 15.939 55.5 30c0 7.577-3.325 14.389-8.589 19.063a7.494 7.494 0 0 0-.893-.537l-8.467-4.233a2.217 2.217 0 0 1-1.232-1.993v-2.957c.196-.242.403-.516.617-.817a20.378 20.378 0 0 0 2.616-5.123 3.63 3.63 0 0 0 2.085-3.289v-3.545c0-.867-.318-1.708-.887-2.369v-4.667c.052-.519.236-3.448-1.883-5.864C37.024 11.565 34.041 10.5 30 10.5c-4.041 0-7.024 1.065-8.867 3.168-2.119 2.416-1.935 5.345-1.883 5.864v4.667a3.644 3.644 0 0 0-.887 2.369v3.545c0 1.101.494 2.128 1.34 2.821.81 3.173 2.477 5.575 3.093 6.389v2.894a2.23 2.23 0 0 1-1.162 1.958l-7.907 4.313a7.227 7.227 0 0 0-.752.476C7.776 44.292 4.5 37.522 4.5 30zm40.459 20.632c-.35.254-.706.5-1.067.735-.166.108-.331.216-.5.321-.472.292-.952.57-1.442.83-.108.057-.217.111-.326.167a25.481 25.481 0 0 1-3.488 1.476l-.127.043c-.627.208-1.262.393-1.904.552l-.006.001a25.59 25.59 0 0 1-1.964.402l-.054.01c-.621.101-1.247.174-1.875.229-.111.01-.222.017-.334.025-.621.047-1.245.077-1.872.077a25.43 25.43 0 0 1-1.895-.078c-.109-.008-.218-.015-.326-.025a25.862 25.862 0 0 1-1.89-.233l-.084-.015a25.405 25.405 0 0 1-3.89-.971l-.118-.04a25.86 25.86 0 0 1-1.862-.713l-.013-.006a26.094 26.094 0 0 1-1.705-.816c-.073-.038-.147-.074-.219-.113a25.7 25.7 0 0 1-1.939-1.155 25.417 25.417 0 0 1-1.338-.933l-.133-.104.096-.054 7.907-4.313a4.229 4.229 0 0 0 2.205-3.714l-.001-3.602-.23-.278c-.022-.025-2.184-2.655-3.001-6.216l-.091-.396-.341-.221a1.657 1.657 0 0 1-.769-1.392v-3.545c0-.465.197-.898.557-1.223l.33-.298v-5.57l-.009-.131c-.003-.024-.298-2.429 1.396-4.36C24.083 13.337 26.561 12.5 30 12.5c3.426 0 5.896.83 7.346 2.466 1.692 1.911 1.415 4.361 1.413 4.381l-.009 5.701.33.298c.359.324.557.758.557 1.223v3.545a1.67 1.67 0 0 1-1.181 1.575l-.497.153-.16.495a18.5 18.5 0 0 1-2.496 5.032c-.262.37-.517.698-.736.949l-.248.283V42.3c0 1.612.896 3.062 2.338 3.782l8.467 4.233.16.083c-.107.081-.217.156-.325.234z"/><circle cx="100" cy="100" r="24" fill="maroon"/></g><path fill="none" stroke="#000" stroke-linecap="round" stroke-linejoin="round" stroke-width="4" d="M70 32h27.432c3.708 0 6.98 3.419 6.98 8v32M78 124H30.49c-3.708 0-6.98-3.419-6.98-8V72"/>
	</symbol>
	<symbol id="attendance.default" viewBox="0 0 128 128">
		<path fill="none" stroke="navy" stroke-width="2" d="M27.79 72.752h14.53c.752 0 1.36-.61 1.36-1.362V56.86a1.36 1.36 0 0 0-1.36-1.362H27.79c-.753 0-1.362.61-1.362 1.362v14.53c0 .752.609 1.362 1.361 1.362zm28.944 0h14.533c.75 0 1.36-.61 1.36-1.362V56.86c0-.752-.61-1.362-1.36-1.362H56.734c-.75 0-1.361.61-1.361 1.362v14.53c0 .752.61 1.362 1.361 1.362zm28.947 0h14.53a1.36 1.36 0 0 0 1.361-1.362V56.86a1.36 1.36 0 0 0-1.36-1.362h-14.53c-.754 0-1.362.61-1.362 1.362v14.53a1.36 1.36 0 0 0 1.361 1.362zM27.79 101.698h14.53c.752 0 1.36-.61 1.36-1.363V85.806c0-.752-.608-1.363-1.36-1.363H27.79c-.753 0-1.362.61-1.362 1.363v14.53c0 .752.609 1.362 1.361 1.362zm28.944 0h14.533c.75 0 1.36-.61 1.36-1.363V85.806c0-.752-.61-1.363-1.36-1.363H56.734c-.75 0-1.361.61-1.361 1.363v14.53c0 .752.61 1.362 1.361 1.362zm28.947 0h14.53c.753 0 1.361-.61 1.361-1.363V85.806c0-.752-.608-1.363-1.36-1.363h-14.53c-.754 0-1.362.61-1.362 1.363v14.53a1.36 1.36 0 0 0 1.361 1.362z"/><path fill="navy" d="M123.596 3.384H108.1v3.77a7.814 7.814 0 0 1-7.814 7.814h-1.172A7.814 7.814 0 0 1 91.3 7.154v-3.77H72.4v3.77a7.814 7.814 0 0 1-7.814 7.814h-1.172A7.814 7.814 0 0 1 55.6 7.154v-3.77H36.7v3.77a7.814 7.814 0 0 1-7.814 7.814h-1.172A7.814 7.814 0 0 1 19.9 7.154v-3.77H4.405A3.405 3.405 0 0 0 1 6.789v114.422a3.405 3.405 0 0 0 3.405 3.406h119.19A3.405 3.405 0 0 0 127 121.21V6.79a3.404 3.404 0 0 0-3.404-3.405zM116.783 114.4H11.217V42.546h105.566z"/><path fill="#009f00" stroke="#009f00" stroke-width=".206" d="M29.18 61.216s2.23 3.247 3.24 4.926c.775 1.287 0 0 2.16 3.94 1.08.985 1.985.637 2.16 0 1.08-3.94 1.106-4.07 2.16-5.91 2.59-4.532 2.59-4.532 9.717-12.806 1.043-1.21-.885-1.576-4.772-.985-5.183 4.137-8.639 10.835-10.293 14.864-.218.53 3.727 1.881 2.648.896l-3.24-5.91c-.864-1.182-4.427-.197-3.78.985z"/><path fill="none" d="M11.243 78.453V42.592H116.7v71.722H11.243zm31.99 22.959c.36-.361.417-1.487.417-8.28 0-6.944-.051-7.92-.44-8.35-.406-.448-1.014-.485-8.042-.485-6.452 0-7.693.062-8.194.413-.587.412-.59.453-.59 8.28 0 6.948.051 7.924.44 8.353.406.45 1.02.486 8.215.486 6.715 0 7.834-.057 8.194-.417zm28.886-.023c.45-.407.486-1.021.486-8.28 0-6.923-.051-7.897-.44-8.326-.406-.45-1.014-.486-8.042-.486-6.452 0-7.693.063-8.194.413-.588.412-.59.453-.59 8.28 0 6.948.05 7.924.44 8.353.406.45 1.017.486 8.147.486 6.799 0 7.765-.052 8.193-.44zm28.955 0c.45-.407.486-1.021.486-8.28 0-6.923-.052-7.897-.44-8.326-.406-.45-1.014-.486-8.043-.486-6.452 0-7.693.063-8.194.413-.587.412-.59.453-.59 8.28 0 6.948.051 7.924.44 8.353.406.45 1.017.486 8.147.486 6.8 0 7.765-.052 8.194-.44zM43.233 72.457c.355-.355.417-1.323.417-6.484v-6.067l1.116-1.419c.614-.78 2.287-2.781 3.719-4.447s2.603-3.237 2.603-3.491c0-.643-.526-.785-2.909-.785-2.005 0-2.108.032-3.365 1.034-.713.57-1.936 1.824-2.717 2.79l-1.421 1.754H34.12c-5.503 0-6.65.067-7.146.414-.587.411-.59.452-.59 8.28 0 6.947.051 7.924.44 8.353.406.45 1.02.485 8.215.485 6.715 0 7.834-.057 8.194-.417zm28.955 0c.36-.36.417-1.493.417-8.353 0-7.898-.003-7.937-.59-8.348-.5-.35-1.728-.414-8.043-.414-6.315 0-7.543.063-8.043.414-.588.411-.59.452-.59 8.28 0 6.947.05 7.924.44 8.353.406.45 1.019.485 8.215.485 6.715 0 7.833-.057 8.194-.417zm28.886-.022c.45-.407.486-1.024.486-8.353 0-7.876-.003-7.915-.59-8.326-.501-.35-1.729-.414-8.044-.414s-7.542.063-8.043.414c-.587.411-.59.452-.59 8.28 0 6.947.051 7.924.44 8.353.406.449 1.017.485 8.147.485 6.8 0 7.765-.051 8.194-.44z"/><path fill="#009f00" stroke="#009f00" stroke-width=".206" d="M57.981 61.216s2.23 3.247 3.24 4.926c.774 1.287 0 0 2.16 3.94 1.079.985 1.984.637 2.159 0 1.08-3.94 1.107-4.07 2.16-5.91 2.591-4.532 2.591-4.532 9.718-12.806 1.042-1.21-.885-1.576-4.773-.985-5.183 4.137-8.638 10.835-10.293 14.864-.218.53 3.728 1.881 2.648.896l-3.24-5.91c-.863-1.182-4.427-.197-3.779.985z"/><path fill="#a00" d="M85 55c0-3.074 3.074-3.074 3.074-3.074S90.3 53.825 91.147 55c1.34 1.859 3.074 6.147 3.074 6.147S95.955 56.86 97.295 55c.847-1.175 1.625-3.074 3.074-3.074 1.449 0 3.073 1.625 3.073 3.074 0 1.449-2.226 1.898-3.073 3.074-1.34 1.858-3.074 6.147-3.074 6.147s1.734 4.29 3.074 6.148c.847 1.175 3.073 3.073 3.073 3.073.525 2.29.826 4.398-3.073 3.074 0 0-2.227-1.898-3.074-3.074-1.34-1.858-3.074-6.147-3.074-6.147s-1.734 4.289-3.074 6.147c-.847 1.176-3.073 3.074-3.073 3.074-4.135 1.35-3.443-.985-3.074-3.074 0 0 2.227-1.898 3.074-3.073 1.34-1.859 3.073-6.148 3.073-6.148l-3.073-6.147C88.074 57.049 85 56.024 85 55"/>
	</symbol>
	<symbol id="calendar.default" viewBox="0 0 128 128">
		<path fill="teal" fill-opacity=".973" d="M27.79 72.752h14.53c.752 0 1.36-.61 1.36-1.362V56.86a1.36 1.36 0 0 0-1.36-1.362H27.79c-.753 0-1.362.61-1.362 1.362v14.53c0 .752.609 1.362 1.361 1.362z"/><path fill="#0000d4" d="M56.734 72.752h14.533c.75 0 1.36-.61 1.36-1.362V56.86c0-.752-.61-1.362-1.36-1.362H56.734c-.75 0-1.361.61-1.361 1.362v14.53c0 .752.61 1.362 1.361 1.362z"/><path fill="green" d="M85.681 72.752h14.53a1.36 1.36 0 0 0 1.361-1.362V56.86a1.36 1.36 0 0 0-1.36-1.362h-14.53c-.754 0-1.362.61-1.362 1.362v14.53a1.36 1.36 0 0 0 1.361 1.362z"/><path fill="navy" d="M27.79 101.698h14.53c.752 0 1.36-.61 1.36-1.363V85.806c0-.752-.608-1.363-1.36-1.363H27.79c-.753 0-1.362.61-1.362 1.363v14.53c0 .752.609 1.362 1.361 1.362z"/><path fill="#8080ff" fill-opacity=".973" d="M56.734 101.698h14.533c.75 0 1.36-.61 1.36-1.363V85.806c0-.752-.61-1.363-1.36-1.363H56.734c-.75 0-1.361.61-1.361 1.363v14.53c0 .752.61 1.362 1.361 1.362z"/><path fill="#00a" fill-opacity=".973" d="M85.681 101.698h14.53c.753 0 1.361-.61 1.361-1.363V85.806c0-.752-.608-1.363-1.36-1.363h-14.53c-.754 0-1.362.61-1.362 1.363v14.53a1.36 1.36 0 0 0 1.361 1.362z"/><path fill="#fe9e14" d="M123.596 3.384H108.1v3.77a7.814 7.814 0 0 1-7.814 7.814h-1.172A7.814 7.814 0 0 1 91.3 7.154v-3.77H72.4v3.77a7.814 7.814 0 0 1-7.814 7.814h-1.172A7.814 7.814 0 0 1 55.6 7.154v-3.77H36.7v3.77a7.814 7.814 0 0 1-7.814 7.814h-1.172A7.814 7.814 0 0 1 19.9 7.154v-3.77H4.405A3.405 3.405 0 0 0 1 6.789v114.422a3.405 3.405 0 0 0 3.405 3.406h119.19A3.405 3.405 0 0 0 127 121.21V6.79a3.404 3.404 0 0 0-3.404-3.405zM116.783 114.4H11.217V42.546h105.566z"/>
	</symbol>
	<symbol id="call.default" viewBox="0 0 128 128">
		<g fill="#3eb500" image-rendering="optimizeQuality" shape-rendering="geometricPrecision" text-rendering="geometricPrecision"><g fill="navy" stroke-width="1.88"><path stroke="navy" stroke-linecap="round" stroke-linejoin="round" stroke-width="2.455" d="M37.498 45.093c-15.997 9.237 8.412 54.997 25.917 44.89 3.11 5.384 13.123 22.728 16.231 28.112-7.386 4.264-13.638 6.953-22.2 2.058-24.367-9.134-49.961-50.085-49.201-85.931.258-9.387 5.789-13.065 13.023-17.242L37.5 45.093z" class="fil0"/><path d="M45.662 44.173a3.631 3.631 0 0 1-4.95-1.327L25.41 16.343a3.632 3.632 0 0 1 1.326-4.95l8.042-4.644a3.632 3.632 0 0 1 4.952 1.327l15.3 26.502a3.632 3.632 0 0 1-1.326 4.951l-8.042 4.643zm41.802 72.401a3.631 3.631 0 0 1-4.95-1.326L67.211 88.745a3.631 3.631 0 0 1 1.326-4.95l8.042-4.644a3.632 3.632 0 0 1 4.952 1.327l15.302 26.502a3.632 3.632 0 0 1-1.326 4.951l-8.042 4.643z" class="fil0"/></g><g fill="none" stroke="navy" stroke-linecap="round" stroke-width="6.001"><path d="M66.527 28.48c17.48 4.685 30.278 26.85 25.593 44.331"/><path d="M72.332 17.74c21.852 5.855 37.848 33.562 31.993 55.414"/><path d="M78.138 7c26.221 7.026 45.417 40.274 38.39 66.495"/></g></g>
	</symbol>
	<symbol id="clock.default" viewBox="0 0 128 128">
		<path fill="navy" d="M27.543 29.007c-3.37 1.448-7.589-.748-9.349-4.842-1.76-4.095-.512-8.73 2.887-10.192l26.805-11.52c3.37-1.45 7.563.686 9.381 4.917 1.819 4.23.48 8.655-2.92 10.116z"/><g fill="none" stroke="navy" stroke-linecap="round" stroke-linejoin="round" transform="translate(-87.483 -75.278) scale(1.6039)"><circle cx="94.447" cy="92.993" r="29.5" stroke-width="6"/><path stroke-width="7" d="m88.789 80.247 4.422 16.505 13.26-3.553"/></g>
	</symbol>
	<symbol id="flag.default" viewBox="0 0 128 128">
		<g stroke="#000" stroke-linecap="round" style="fill:navy"><path stroke-width="8" d="M15 10.476v110" style="fill:navy" transform="translate(-2.5 -.476)"/><path fill="none" stroke-linejoin="round" stroke-width="4" d="M16 23.476s21.902-13.933 34-13c13.397 1.033 21.66 18.386 35 20 12.046 1.458 35-10 35-10V90s-22.307 14.012-35 12.476c-12.693-1.536-22.253-19.017-35-20-12.747-.983-34 13-34 13z" style="fill:navy" transform="translate(-2.5 -.476)"/></g><path style="fill:none;stroke:#fff;stroke-width:3.35425;stroke-linecap:round;stroke-linejoin:round;stroke-dasharray:none;stroke-opacity:1" d="M46.757 53.587c-.33-3.576 1.142-7.465 3.47-10.2 2.38-2.798 6.066-4.913 9.73-5.17 3.791-.268 7.72 1.55 10.72 3.884 3.791 2.95 7.306 7.187 8.09 11.927.679 4.094-.4 9.031-3.294 12.005-3.004 3.085-8.057 3.88-12.361 3.751-3.26-.098-6.693-1.28-9.172-3.398-3.719-3.178-6.735-7.927-7.183-12.799z"/><path style="fill:#fff;stroke:#fff;stroke-width:.893453;stroke-linecap:round;stroke-linejoin:round;stroke-dasharray:none;stroke-opacity:1" d="M48.6 75.177s2.877-15.405 4.972-22.945c1.979-7.12 4.197-14.108 7.157-20.985.454-1.055 1.52.625 1.876 1.18 3.985 6.21 6.35 12.993 8.048 19.965 1.652 6.781 1.98 20.844 1.98 20.844s-.894-15.229-6.87-15.928C55.53 55.527 51.437 70.264 48.6 75.177z"/><circle style="fill:#fff;stroke:none;stroke-width:1.28587;stroke-linecap:round;stroke-linejoin:round;stroke-dasharray:none;stroke-opacity:1" cx="88.225" cy="90.851" r="2.5"/><circle style="fill:#fff;stroke:none;stroke-width:1.28587;stroke-linecap:round;stroke-linejoin:round;stroke-dasharray:none;stroke-opacity:1" cx="83.656" cy="74.613" r="2.5"/><circle style="fill:#fff;stroke:none;stroke-width:1.28587;stroke-linecap:round;stroke-linejoin:round;stroke-dasharray:none;stroke-opacity:1" cx="87.984" cy="53.371" r="2.5"/><circle style="fill:#fff;stroke:none;stroke-width:1.28587;stroke-linecap:round;stroke-linejoin:round;stroke-dasharray:none;stroke-opacity:1" cx="84.242" cy="45.258" r="2.5"/><circle style="fill:#fff;stroke:none;stroke-width:1.28587;stroke-linecap:round;stroke-linejoin:round;stroke-dasharray:none;stroke-opacity:1" cx="90.202" cy="63.922" r="2.5"/><ellipse style="fill:#fff;stroke:none;stroke-width:1.54048;stroke-linecap:round;stroke-linejoin:round;stroke-dasharray:none;stroke-opacity:1" cx="82.811" cy="72.881" rx="2.5" ry="2.034" transform="rotate(-15)"/><ellipse style="fill:#fff;stroke:none;stroke-width:1.54048;stroke-linecap:round;stroke-linejoin:round;stroke-dasharray:none;stroke-opacity:1" cx="42.242" cy="115.64" rx="2.5" ry="2.034" transform="rotate(-30)"/><ellipse style="fill:#fff;stroke:none;stroke-width:1.54048;stroke-linecap:round;stroke-linejoin:round;stroke-dasharray:none;stroke-opacity:1" cx="80.88" cy="91.025" rx="2.5" ry="2.034" transform="rotate(-15)"/><ellipse style="fill:#fff;stroke:none;stroke-width:1.54048;stroke-linecap:round;stroke-linejoin:round;stroke-dasharray:none;stroke-opacity:1" cx="74.133" cy="86.891" rx="2.5" ry="2.034" transform="rotate(-30)"/><ellipse style="fill:#fff;stroke:none;stroke-width:1.54048;stroke-linecap:round;stroke-linejoin:round;stroke-dasharray:none;stroke-opacity:1" cx="50.376" cy="126.973" rx="2.5" ry="2.034" transform="rotate(-30)"/><ellipse style="fill:#fff;stroke:none;stroke-width:1.54048;stroke-linecap:round;stroke-linejoin:round;stroke-dasharray:none;stroke-opacity:1" cx="13.485" cy="49.183" rx="2.5" ry="2.034" transform="rotate(-15)"/><ellipse style="fill:#fff;stroke:none;stroke-width:1.54048;stroke-linecap:round;stroke-linejoin:round;stroke-dasharray:none;stroke-opacity:1" cx="10.023" cy="69.217" rx="2.5" ry="2.034" transform="rotate(-15)"/><ellipse style="fill:#fff;stroke:none;stroke-width:1.54048;stroke-linecap:round;stroke-linejoin:round;stroke-dasharray:none;stroke-opacity:1" cx=".627" cy="81.001" rx="2.5" ry="2.034" transform="rotate(-15)"/><ellipse style="fill:#fff;stroke:none;stroke-width:1.54048;stroke-linecap:round;stroke-linejoin:round;stroke-dasharray:none;stroke-opacity:1" cx="18.871" cy="48.472" rx="2.5" ry="2.034" transform="rotate(-30)"/><ellipse style="fill:#fff;stroke:none;stroke-width:1.54048;stroke-linecap:round;stroke-linejoin:round;stroke-dasharray:none;stroke-opacity:1" cx="9.824" cy="58.986" rx="2.5" ry="2.034" transform="rotate(-30)"/><ellipse style="fill:#fff;stroke:none;stroke-width:1.54048;stroke-linecap:round;stroke-linejoin:round;stroke-dasharray:none;stroke-opacity:1" cx="100.826" cy="35.085" rx="2.5" ry="2.034" transform="rotate(30)"/>
	</symbol>
	<symbol id="gmaps.default" viewBox="0 0 128 128">
		<path fill="#34a853" d="M44.282 94.364c3.897 4.889 7.856 10.992 9.93 14.644 2.532 4.8 3.588 8.058 5.438 13.843 1.135 3.198 2.161 4.149 4.366 4.149 2.403 0 3.492-1.622 4.34-4.134 1.75-5.463 3.12-9.633 5.286-13.573 4.248-7.61 9.529-14.367 14.715-20.858 1.406-1.839 10.485-12.55 14.572-21.002 0 0 5.025-9.281 5.025-22.246 0-12.128-4.953-20.542-4.953-20.542l-14.266 3.822-8.664 22.822-2.143 3.143-.429.572-.571.714-1 1.143-1.43 1.429-7.714 6.286-19.287 11.135z"/><path fill="#fbbc04" d="M24.352 65.862c4.71 10.752 13.784 20.204 19.93 28.502l32.646-38.646s-4.594 6.01-12.93 6.01c-9.288 0-16.788-7.417-16.788-16.764 0-6.413 3.859-10.819 3.859-10.819L28.924 40.08z"/><path fill="#4285f4" d="M77.285 3C88.12 6.49 97.395 13.828 103 24.645L76.928 55.718s3.857-4.482 3.857-10.858c0-9.568-8.058-16.715-16.763-16.715-8.228 0-12.953 6-12.953 6V14.572z"/><path fill="#1a73e8" d="M30.353 16.715C36.825 8.973 48.215 1 63.927 1c7.616 0 13.358 2 13.358 2L51.069 34.145H32.496z"/><path fill="#ea4335" d="M24.352 65.862s-4.306-8.48-4.306-20.764c0-11.614 4.517-21.764 10.307-28.383l20.716 17.43z"/>
	</symbol>
	<symbol id="home.default" viewBox="0 0 128 128">
		<path fill="navy" stroke="navy" stroke-linecap="round" stroke-linejoin="round" stroke-width="8.433" d="m111.433 53.016-94.862.406v69.36h94.862z"/><path fill="#f60" d="M75.596 127V76.408h28.507V127" style="stroke-width:3.98363"/><path fill="navy" stroke="navy" stroke-linejoin="round" stroke-width="6.322" d="M120.914 49.722 65.741 4.16 7.086 50.395z"/><path fill="#fff" d="M28.167 65.867v31.618h31.618V65.867z" style="stroke-width:3.98363"/><path fill="navy" stroke="navy" stroke-width="1.056" d="M43.974 65.867v31.618M28.167 81.63h31.618"/>
	</symbol>
	<symbol id="id_back.default" viewBox="0 0 128 82">
		<path fill="#ac9d93" d="M1.6-1.123c-.465 0-.986.517-.986.977v50.774c0 .46.521.977.985.977h82.318c.464 0 .985-.517.985-.977V-.146c0-.46-.52-.977-.985-.977z" style="stroke-width:.980724" transform="matrix(1.49488 0 0 1.51724 .081 2.704)"/><text xml:space="preserve" x="5.216" y="18.271" stroke-width=".262" font-size="3.138" transform="matrix(1.51276 0 0 1.4993 .081 2.704)"><tspan x="5.216" y="18.271" style="stroke-width:.261946">FISTRO</tspan></text><text xml:space="preserve" x="5.216" y="22.225" stroke-width=".262" font-size="3.138" transform="matrix(1.51279 0 0 1.49928 .081 2.704)"><tspan x="5.216" y="22.225" style="stroke-width:.261946">DIODENARL</tspan></text><text xml:space="preserve" x="5.473" y="8.996" fill="#ac9d93" stroke-width=".262" font-size="3.138" transform="matrix(1.51276 0 0 1.4993 .081 2.704)"><tspan x="5.473" y="8.996" style="stroke-width:.261946">NBAM</tspan></text><text xml:space="preserve" x="5.216" y="10.322" stroke-width=".262" font-size="3.138" transform="matrix(1.51276 0 0 1.4993 .081 2.704)"><tspan x="5.216" y="10.322" style="stroke-width:.261946">NAME</tspan></text><text xml:space="preserve" x="5.318" y="14.317" stroke-width=".262" font-size="3.138" transform="matrix(1.51276 0 0 1.4993 .081 2.704)"><tspan x="5.318" y="14.317" style="stroke-width:.261946">SURNAME</tspan></text><path fill="#520" d="M47.885 6.628a1.754 1.712 0 0 0-1 .316c-1.228.85-1.825 3.46.924 5.831-.073 1.905 3.507 2.25 2.085-.555 1.29-3.726-.459-5.607-2.01-5.592zm21.42.797c-.52.001-1.09.241-1.408.72-1.943 2.927.157 4.418 2.17 1.244.828-1.305.104-1.965-.762-1.963zm-3.501 5.29c-5.322 4.742-9.317 11.538-20.785 6.746 1.56 4.46-.568 5.925-2.628 6.358a9.823 9.592 0 0 1-2.129-2.024l-1.618-2.06.22 2.604c.43 5.132 2.315 8.923 5.436 11.367 3.122 2.444 7.398 3.52 12.524 3.52 8.006 0 15.255-5.077 17.923-12.336l.448-1.221-1.294.181c-.448.064-.8.045-1.074-.023l2.659-5.014c-1.203.512-2.464 1.133-3.69 1.688.145-1.11.483-2.512 1.067-4.19l.865-2.491-2.09 1.62c-2.136 1.657-4.434 3.635-6.694 5.272-.75-1.489-.64-4.507.86-9.997zm-28.857 3.8c-.745 0-1.511.956-1.316 1.891.516 2.478 3.004 1.766 2.42-.645-.217-.9-.657-1.245-1.104-1.246zm33.68 3.743c-.522 2.012-.645 3.587-.33 4.822.215.85.692 1.559 1.39 1.958.342.197.72.317 1.121.372-2.509 1.726-6.17.551-4.491-3.893-7.15 9.555-14.578 10.53-16.965 3.26-1.226 7.22-8.839 5.624-10.553-.195 1.848 1.526 3.97 2.237 5.93 1.855 1.314-.256 2.515-1.033 3.377-2.287.503-.73.891-1.622 1.16-2.666 1.09 1.81 2.35 2.983 3.76 3.59 1.923.83 4.005.552 6.015-.267 3.291-1.341 6.576-4.097 9.585-6.549zm-.504 14.976c.956.637 1.519 1.352 1.519 2.095 0 2.732-7.182 4.965-15.976 4.965-8.795 0-15.93-2.233-15.93-4.965 0-.72.518-1.425 1.422-2.045-3.34 1.109-5.442 2.602-5.442 4.236 0 3.418 8.942 6.18 19.949 6.18 11.007 0 19.946-2.762 19.946-6.18 0-1.651-2.089-3.171-5.489-4.286z" style="stroke-width:.988477" transform="matrix(1.49488 0 0 1.51724 .081 2.704)"/><text xml:space="preserve" x="5.062" y="46.841" stroke-width=".262" font-size="5.579" transform="matrix(1.51276 0 0 1.4993 .081 2.704)"><tspan x="5.062" y="46.841" font-family="FreeMono" font-weight="700" style="-inkscape-font-specification:'FreeMono Bold';stroke-width:.261985">11223344J</tspan></text>
	</symbol>
	<symbol id="id_front.default" viewBox="0 0 128 82">
		<path fill="#ac9d93" d="M2.472 1C1.779 1 1 1.784 1 2.482v77.036C1 80.216 1.779 81 2.472 81h123.056c.693 0 1.472-.784 1.472-1.482V2.482c0-.698-.779-1.482-1.472-1.482z"/><text xml:space="preserve" x="34.663" y="19.633" stroke-width=".265" font-size="3.175" transform="matrix(1.47196 0 0 1.48203 1 1)"><tspan x="34.663" y="19.633">FISTRO</tspan></text><text xml:space="preserve" x="34.663" y="23.634" stroke-width=".265" font-size="3.175" transform="matrix(1.472 0 0 1.482 1 1)"><tspan x="34.663" y="23.634">DIODENARL</tspan></text><path fill="#e3dedb" d="M9.033 8.41c-.207 0-.438.461-.438.875v45.39c0 .412.231.874.438.874H45.61c.206 0 .438-.462.438-.874V9.283c0-.412-.232-.873-.438-.873z"/><text xml:space="preserve" x="34.922" y="10.25" fill="#ac9d93" stroke-width=".265" font-size="3.175" transform="matrix(1.47196 0 0 1.48203 1 1)"><tspan x="34.922" y="10.25">NBAM</tspan></text><text xml:space="preserve" x="34.663" y="11.592" stroke-width=".265" font-size="3.175" transform="matrix(1.47196 0 0 1.48203 1 1)"><tspan x="34.663" y="11.592">NAME</tspan></text><text xml:space="preserve" x="34.766" y="15.633" stroke-width=".265" font-size="3.175" transform="matrix(1.47196 0 0 1.48203 1 1)"><tspan x="34.766" y="15.633">SURNAME</tspan></text><text xml:space="preserve" x="4.507" y="48.537" stroke-width=".265" font-size="5.644" transform="matrix(1.47196 0 0 1.48203 1 1)"><tspan x="4.507" y="48.537" font-family="FreeMono" font-weight="700" style="-inkscape-font-specification:'FreeMono Bold'">11223344J</tspan></text><g stroke="#000" stroke-linecap="round" stroke-linejoin="round" transform="matrix(.58197 0 0 .58595 -18.571 15.672)"><circle cx="79.081" cy="21.625" r="16.557" fill="#fca" stroke-width="2.135"/><path fill="#d45500" stroke-width="1.602" d="M46.84 67.743s-4.33-.364 3.126-.712c11.62-.54 7.01 1.22 7.062.198.655-12.785.887-17.627.887-17.627V67.13h43.333V49.602l.702 17.59c8.323 2.078 10.67-15.503 7.01-22.428-2.562-4.847-6.902-6.883-15.737-4.788-8.835 2.095-18.242 1.704-27.284 0-9.041-1.703-12.28 1.049-15.85 5.33-4.84 5.803-3.249 22.437-3.249 22.437z"/></g><path fill="#520" d="M103.552 3.453a1.29 1.298 0 0 0-.736.238c-.903.645-1.343 2.625.681 4.424-.054 1.447 2.58 1.708 1.534-.42.95-2.827-.339-4.254-1.478-4.242zm15.76.604a1.247 1.255 0 0 0-1.036.546c-1.428 2.22.117 3.352 1.598.944.608-.989.075-1.491-.562-1.49zm-2.576 4.014c-3.915 3.597-6.855 8.753-15.292 5.117 1.148 3.382-.418 4.495-1.933 4.823a7.227 7.277 0 0 1-1.568-1.536l-1.19-1.562.162 1.976c.318 3.893 1.703 6.768 4 8.622 2.297 1.854 5.442 2.67 9.215 2.67 5.89 0 11.224-3.85 13.186-9.358l.33-.926-.951.137a2.017 2.03 0 0 1-.79-.017l1.955-3.803c-.883.388-1.812.86-2.714 1.28.106-.843.353-1.906.785-3.179l.637-1.89-1.538 1.23c-1.572 1.256-3.262 2.757-4.925 4-.554-1.13-.471-3.42.632-7.584zm-21.232 2.882c-.547 0-1.11.727-.968 1.435.381 1.88 2.21 1.34 1.78-.49-.16-.682-.482-.945-.812-.945zm24.78 2.84c-.382 1.526-.473 2.72-.242 3.658.159.644.51 1.182 1.023 1.485.252.148.53.241.824.283-1.845 1.308-4.538.418-3.304-2.954-5.26 7.247-10.725 7.988-12.482 2.473-.901 5.478-6.502 4.266-7.764-.148 1.359 1.156 2.92 1.696 4.363 1.408.966-.195 1.85-.785 2.485-1.735.37-.555.656-1.23.854-2.025.802 1.376 1.728 2.265 2.767 2.726 1.413.628 2.945.418 4.425-.203 2.421-1.019 4.838-3.108 7.052-4.968zm-.37 11.361c.704.483 1.119 1.026 1.119 1.589 0 2.072-5.285 3.766-11.755 3.766-6.471 0-11.72-1.694-11.72-3.766 0-.547.381-1.082 1.045-1.552-2.457.842-4.004 1.974-4.004 3.213 0 2.594 6.58 4.69 14.679 4.69 8.098 0 14.675-2.096 14.675-4.69 0-1.25-1.537-2.405-4.039-3.25z"/><g stroke="#000" stroke-width=".265"><path d="M53.962 47.08c1.785-.232 3.59-.216 5.386-.207 1.217-.038 2.46.15 3.669-.068.616-.111.705-.192 1.25-.445.435-.264.824-.584 1.104-1.014.218-.335.342-.722.475-1.095.103-.292.192-.588.279-.885L62.72 41.53c-.052.296-.11.592-.205.878-.116.337-.219.699-.4 1.008-.225.384-.552.67-.927.903-.168.078-.33.171-.504.233-.697.247-1.435.26-2.165.28-.64.02-1.281.022-1.922.043-1.944.03-3.887.02-5.83-.083l3.195 2.287z" transform="matrix(1.47196 0 0 1.48203 1 1)"/><path stroke-width=".188" d="M50.37 37.053c.303.271.599.55.865.858.23.265.313.39.518.67.302.41.54.855.676 1.346.062.29.06.588.067.883.01.435-.037.862-.16 1.278-.114.282-.215.576-.382.832-.147.193-.343.342-.519.507-.222.163-.49.243-.734.365-.14.086-.293.139-.443.2l2.332 1.559c.152-.064.295-.145.437-.23.262-.132.533-.252.767-.433.2-.176.409-.35.56-.57.173-.286.264-.608.377-.92a5.4 5.4 0 0 0 .214-1.338c.01-.315.031-.632-.03-.944-.13-.549-.426-1.036-.75-1.493a15.84 15.84 0 0 0-1.194-1.493l-2.6-1.077zm6.841 1.99c.112-.108.216-.225.336-.323 1.23-1.013 2.695-1.697 4.207-2.172.41-.13.833-.217 1.25-.325 2.704.69.042-.683-.037-.526-.211.42.58.747.788 1.167.477.96.713 2.071.865 3.121.067.463.083.932.124 1.398.003.38.03.76.01 1.14a3.73 3.73 0 0 1-.109.737c-.029.111-.072.232-.161.304-.034.029-.133-.114-.093-.095 2.361 1.14 2.738 1.955 2.233.985-.134-1.01-.002-.28-2.504-1.203-.099-.037.156.146.204.24a2.4 2.4 0 0 1 .187.521c.17.667.11.65.038 1.336-.097.22-.158.459-.29.659-.32.486-.767.796-1.278 1.056-.595.303-1.276.495-1.924.638-.325.071-.657.113-.985.17-.25.028-1.267.156-1.572.147-.167-.006-.64-.172-.495-.088.658.378 1.309.834 2.052.983.19.038-.05-.387-.027-.579.032-.27.129-.53.193-.795.204-.51.383-1.033.686-1.497.135-.207.278-.415.467-.574.622-.523 1.512-.73 2.267-.884.755-.154 1.524-.228 2.286-.342 2.646-.291 5.308-.322 7.966-.336.88-.005 2.679.053 3.621-.135.412-.082.79-.281 1.185-.422.254-.262.573-.474.761-.786.438-.73.47-1.673.497-2.483.014-.448-.005-.897-.02-1.346-.032-.973-.068-1.246-.15-2.173-.045-.219-.052-.449-.135-.656a.666.666 0 0 0-.262-.336c-.87-.484-1.752-.959-2.683-1.308-.143-.053-.294.084-.436.14-.277.109-.485.24-.74.388-.118.084-.24.163-.353.254-.369.297-.707.63-1.07.936-.815.688-1.672 1.319-2.529 1.952-.952.703-1.935 1.366-2.862 2.102l-.148.125 2.342 1.436.115-.138c.744-.853 1.6-1.601 2.489-2.3.283-.216.562-.437.848-.648 1.093-.809 2.233-1.552 3.38-2.28.215-.12.45-.267.688-.337.126-.037.484.02.387-.067-.553-.492-1.237-.811-1.845-1.232-.139-.096.332.123.435.256.153.197.197.457.295.686.061.338.136.675.184 1.015.109.78.192 1.745.15 2.529-.04.78-.145 1.595-.55 2.287-.165.283-.428.495-.642.743-.339.157-.658.365-1.016.47-.886.263-2.388.327-3.246.383-2.644.17-5.293.275-7.941.367-.866.048-1.734.066-2.598.144-1.06.095-1.948.062-2.775.742-.202.166-.335.403-.47.627-.203.334-.548 1.189-.694 1.537-.103.263-.221.52-.307.79-.071.221-.33.514-.165.68.695.697 1.604 1.15 2.465 1.628.126.07.29 0 .433-.016.273-.031 1.238-.215 1.452-.255 1.011-.218 2.042-.4 2.98-.861.587-.289 1.051-.588 1.43-1.13.151-.215.228-.474.342-.712.043-.243.112-.483.129-.729.027-.405-.063-.761-.108-1.156-.013-.113.073-.285-.026-.341-.825-.472-1.717-.824-2.605-1.162-.058-.021.02.122.03.182.223 1.172.026.468 2.563 1.707.063.031.087-.119.097-.189.02-.146.001-.295-.006-.442a22.24 22.24 0 0 0-.059-.846c-.036-.403-.082-.806-.123-1.21-.15-1.082-.25-1.975-.497-3.049-.12-.517-.239-1.038-.425-1.535-.157-.419-.254-.915-.6-1.2-.859-.705-1.854-1.258-2.888-1.667-.318-.126-.68.082-1.019.123-.4.125-.805.24-1.202.376-.64.22-2.042.762-2.659 1.028-.834.36-1.637.785-2.46 1.168z" transform="matrix(1.47196 0 0 1.48203 1 1)"/></g>
	</symbol>
	<symbol id="id_front.none" viewBox="0 0 128 128">
		<g transform="matrix(1.47152 0 0 1.48024 1.038 24.048)"><circle cx=".119" cy=".079" r=".012" fill="#500" stroke="#000" stroke-width=".265"/><path fill="#ac9d93" d="M.975 0c-.471 0-1 .53-1 1.001v52.043c0 .472.529 1.001 1 1.001H84.6c.47 0 1-.53 1-1V1C85.6.53 85.07 0 84.6 0z" style="stroke-width:1.00075"/><text xml:space="preserve" x="34.663" y="19.633" stroke-width=".265" font-size="3.175"><tspan x="34.663" y="19.633">FISTRO</tspan></text><text xml:space="preserve" x="34.663" y="23.634" stroke-width=".265" font-size="3.175" transform="scale(1.00002 .99998)"><tspan x="34.663" y="23.634">DIODENARL</tspan></text><path fill="#e3dedb" d="M5.457 5c-.14 0-.297.311-.297.59v30.627c0 .278.157.59.297.59h24.85c.14 0 .298-.312.298-.59V5.589c0-.278-.158-.589-.298-.589z"/><text xml:space="preserve" x="34.922" y="10.25" fill="#ac9d93" stroke-width=".265" font-size="3.175"><tspan x="34.922" y="10.25">NBAM</tspan></text><text xml:space="preserve" x="34.663" y="11.592" stroke-width=".265" font-size="3.175"><tspan x="34.663" y="11.592">NAME</tspan></text><text xml:space="preserve" x="34.766" y="15.633" stroke-width=".265" font-size="3.175"><tspan x="34.766" y="15.633">SURNAME</tspan></text><text xml:space="preserve" x="4.507" y="48.537" stroke-width=".265" font-size="5.644"><tspan x="4.507" y="48.537" font-family="FreeMono" font-weight="700" style="-inkscape-font-specification:'FreeMono Bold'">11223344J</tspan></text><g stroke="#000" stroke-linecap="round" stroke-linejoin="round" transform="translate(-13.296 9.9) scale(.39537)"><circle cx="79.081" cy="21.625" r="16.557" fill="#fca" stroke-width="2.135"/><path fill="#d45500" stroke-width="1.602" d="M46.84 67.743s-4.33-.364 3.126-.712c11.62-.54 7.01 1.22 7.062.198.655-12.785.887-17.627.887-17.627V67.13h43.333V49.602l.702 17.59c8.323 2.078 10.67-15.503 7.01-22.428-2.562-4.847-6.902-6.883-15.737-4.788-8.835 2.095-18.242 1.704-27.284 0-9.041-1.703-12.28 1.049-15.85 5.33-4.84 5.803-3.249 22.437-3.249 22.437z"/></g><path fill="#520" d="M69.67 1.655a.876.876 0 0 0-.5.161c-.613.435-.912 1.771.463 2.985-.037.976 1.752 1.152 1.042-.284.645-1.907-.23-2.87-1.004-2.862zm10.707.408a.847.847 0 0 0-.704.368c-.97 1.498.08 2.262 1.086.637.413-.667.051-1.006-.382-1.005zm-1.75 2.708c-2.66 2.427-4.657 5.906-10.389 3.453.78 2.282-.284 3.033-1.313 3.254a4.91 4.91 0 0 1-1.065-1.036l-.809-1.054.11 1.333c.216 2.627 1.157 4.567 2.718 5.818 1.56 1.251 3.697 1.802 6.26 1.802 4.001 0 7.625-2.599 8.958-6.315l.224-.625-.646.093a1.37 1.37 0 0 1-.537-.012l1.329-2.566c-.6.262-1.231.58-1.844.864.072-.569.24-1.286.533-2.145l.433-1.275-1.045.83c-1.068.847-2.216 1.86-3.346 2.698-.376-.762-.32-2.307.43-5.117zM64.203 6.716c-.372 0-.755.49-.658.968.259 1.268 1.502.904 1.21-.33-.109-.461-.328-.638-.552-.638zm16.835 1.916c-.26 1.03-.322 1.836-.165 2.468.108.435.346.798.695 1.002.171.1.36.163.56.191-1.254.883-3.083.282-2.245-1.993-3.573 4.89-7.286 5.39-8.48 1.669-.612 3.696-4.417 2.878-5.274-.1.923.78 1.984 1.144 2.964.95.656-.132 1.257-.53 1.688-1.171.251-.374.446-.83.58-1.366.545.928 1.174 1.528 1.88 1.839.96.424 2.001.282 3.006-.137 1.645-.687 3.287-2.097 4.791-3.352zm-.252 7.666c.478.326.76.692.76 1.072 0 1.398-3.59 2.541-7.986 2.541s-7.962-1.143-7.962-2.541c0-.369.259-.73.71-1.047-1.669.568-2.72 1.332-2.72 2.168 0 1.75 4.47 3.164 9.972 3.164s9.97-1.414 9.97-3.164c0-.844-1.044-1.623-2.744-2.193z"/><g stroke="#000" stroke-width=".265"><path d="M53.962 47.08c1.785-.232 3.59-.216 5.386-.207 1.217-.038 2.46.15 3.669-.068.616-.111.705-.192 1.25-.445.435-.264.824-.584 1.104-1.014.218-.335.342-.722.475-1.095.103-.292.192-.588.279-.885L62.72 41.53c-.052.296-.11.592-.205.878-.116.337-.219.699-.4 1.008-.225.384-.552.67-.927.903-.168.078-.33.171-.504.233-.697.247-1.435.26-2.165.28-.64.02-1.281.022-1.922.043-1.944.03-3.887.02-5.83-.083l3.195 2.287z"/><path stroke-width=".188" d="M50.37 37.053c.303.271.599.55.865.858.23.265.313.39.518.67.302.41.54.855.676 1.346.062.29.06.588.067.883.01.435-.037.862-.16 1.278-.114.282-.215.576-.382.832-.147.193-.343.342-.519.507-.222.163-.49.243-.734.365-.14.086-.293.139-.443.2l2.332 1.559c.152-.064.295-.145.437-.23.262-.132.533-.252.767-.433.2-.176.409-.35.56-.57.173-.286.264-.608.377-.92a5.4 5.4 0 0 0 .214-1.338c.01-.315.031-.632-.03-.944-.13-.549-.426-1.036-.75-1.493a15.84 15.84 0 0 0-1.194-1.493l-2.6-1.077zm6.841 1.99c.112-.108.216-.225.336-.323 1.23-1.013 2.695-1.697 4.207-2.172.41-.13.833-.217 1.25-.325 2.704.69.042-.683-.037-.526-.211.42.58.747.788 1.167.477.96.713 2.071.865 3.121.067.463.083.932.124 1.398.003.38.03.76.01 1.14a3.73 3.73 0 0 1-.109.737c-.029.111-.072.232-.161.304-.034.029-.133-.114-.093-.095 2.361 1.14 2.738 1.955 2.233.985-.134-1.01-.002-.28-2.504-1.203-.099-.037.156.146.204.24a2.4 2.4 0 0 1 .187.521c.17.667.11.65.038 1.336-.097.22-.158.459-.29.659-.32.486-.767.796-1.278 1.056-.595.303-1.276.495-1.924.638-.325.071-.657.113-.985.17-.25.028-1.267.156-1.572.147-.167-.006-.64-.172-.495-.088.658.378 1.309.834 2.052.983.19.038-.05-.387-.027-.579.032-.27.129-.53.193-.795.204-.51.383-1.033.686-1.497.135-.207.278-.415.467-.574.622-.523 1.512-.73 2.267-.884.755-.154 1.524-.228 2.286-.342 2.646-.291 5.308-.322 7.966-.336.88-.005 2.679.053 3.621-.135.412-.082.79-.281 1.185-.422.254-.262.573-.474.761-.786.438-.73.47-1.673.497-2.483.014-.448-.005-.897-.02-1.346-.032-.973-.068-1.246-.15-2.173-.045-.219-.052-.449-.135-.656a.666.666 0 0 0-.262-.336c-.87-.484-1.752-.959-2.683-1.308-.143-.053-.294.084-.436.14-.277.109-.485.24-.74.388-.118.084-.24.163-.353.254-.369.297-.707.63-1.07.936-.815.688-1.672 1.319-2.529 1.952-.952.703-1.935 1.366-2.862 2.102l-.148.125 2.342 1.436.115-.138c.744-.853 1.6-1.601 2.489-2.3.283-.216.562-.437.848-.648 1.093-.809 2.233-1.552 3.38-2.28.215-.12.45-.267.688-.337.126-.037.484.02.387-.067-.553-.492-1.237-.811-1.845-1.232-.139-.096.332.123.435.256.153.197.197.457.295.686.061.338.136.675.184 1.015.109.78.192 1.745.15 2.529-.04.78-.145 1.595-.55 2.287-.165.283-.428.495-.642.743-.339.157-.658.365-1.016.47-.886.263-2.388.327-3.246.383-2.644.17-5.293.275-7.941.367-.866.048-1.734.066-2.598.144-1.06.095-1.948.062-2.775.742-.202.166-.335.403-.47.627-.203.334-.548 1.189-.694 1.537-.103.263-.221.52-.307.79-.071.221-.33.514-.165.68.695.697 1.604 1.15 2.465 1.628.126.07.29 0 .433-.016.273-.031 1.238-.215 1.452-.255 1.011-.218 2.042-.4 2.98-.861.587-.289 1.051-.588 1.43-1.13.151-.215.228-.474.342-.712.043-.243.112-.483.129-.729.027-.405-.063-.761-.108-1.156-.013-.113.073-.285-.026-.341-.825-.472-1.717-.824-2.605-1.162-.058-.021.02.122.03.182.223 1.172.026.468 2.563 1.707.063.031.087-.119.097-.189.02-.146.001-.295-.006-.442a22.24 22.24 0 0 0-.059-.846c-.036-.403-.082-.806-.123-1.21-.15-1.082-.25-1.975-.497-3.049-.12-.517-.239-1.038-.425-1.535-.157-.419-.254-.915-.6-1.2-.859-.705-1.854-1.258-2.888-1.667-.318-.126-.68.082-1.019.123-.4.125-.805.24-1.202.376-.64.22-2.042.762-2.659 1.028-.834.36-1.637.785-2.46 1.168z"/></g></g><path fill="#a00" d="M13.495 12.078c-1.233-.59-3.342-1.466 2.306 1.051.179.08-.345-.176-.515-.267-.252-.135-.631-.35-.882-.493a9.034 9.033 0 0 1-1.984-1.513 19.08 19.078 0 0 0-1.588-1.605c-.482-.383-.89-.81-1.29-1.247-.571-.624-1.194-1.214-1.82-1.803-.672-.636-1.403-1.234-1.986-1.927-.348-.479-.68-.966-.987-1.463A5.294 5.293 0 0 1 4.2 1.404c-.035-.35-.165-.681-.299-1.013-.079-.235-.04-.492.03-.727.088-.29.117-.355.455-.478L.754-2.71c-.384.193-.548.358-.642.712a2.588 2.588 0 0 0-.137.902c.116.328.328.635.337.983C.424.4.595.901.84 1.384c.275.518.644 1 .958 1.504.561.743 1.35 1.34 2.05 1.999a34.78 34.78 0 0 1 1.73 1.75c.422.44.79.911 1.307 1.286.576.501 1.134 1.017 1.61 1.582a8.435 8.434 0 0 0 1.95 1.615c2.058 1.156 4.2 2.224 6.465 3.103z" style="stroke-width:1.00006" transform="matrix(7.43987 0 0 7.4411 1.193 21.165)"/><path fill="#a00" d="M106.128 1.004c-7.834 3.795-12.707 12.486-17.87 19.92-7.589 10.864-14.486 22.338-21.606 33.61-4.04 6.162-7.588 12.8-11.948 18.656a120.414 120.434 0 0 1-10.885 12.419c-4.337 3.572-8.801 6.972-13.414 10.045-4.449 2.783-9.054 5.172-13.69 7.479-2.38.81-4.44 2.47-6.717 3.557-1.392.67-2.827 1.19-4.241 1.823-3.2 1.265-1.615.602-4.747 1.964l20.891 16.52c3.088-1.325 1.51-.67 4.732-1.98 3.817-1.555 7.462-3.527 11.153-5.432a239.34 239.38 0 0 0 13.644-7.895c4.732-3.192 9.404-6.57 13.712-10.507 3.906-4.04 7.812-8.088 11.182-12.769 4.204-6.087 7.537-12.932 11.465-19.257 6.718-11.512 13.652-22.86 21.256-33.59 4.791-6.488 10.282-15.678 17.945-17.278z"/>
	</symbol>
	<symbol id="locale.default" viewBox="0 0 128 128">
		<path style="fill:#000;stroke:#000;stroke-width:1.9369;stroke-linecap:round;stroke-linejoin:bevel" d="M102.998 105.964H64.92c-3.638 0-7.305-3.296-7.305-6.934V61.549c0-4.734 4.874-5.063 8.77-5.063h51.387c3.422 0 7.26 3.837 7.26 7.26v36.428c-1.833 9.294-17.225 19.612-18.803 18.803-1.573-.993-1.468-2.543-1.468-2.543 1.949-5.041 2.476-10.052-1.763-10.47z"/><path style="fill:navy;stroke:navy;stroke-width:1.9369;stroke-linecap:round;stroke-linejoin:round" d="M4.968 53.74V17.27c0-2.812 2.797-6.3 5.609-6.3h57.267c2.991 0 6.853 2.802 6.853 5.793v28.873h-17.27c-3.381 0-5.921 3.328-6.372 4.562-.347.95-3.316-.572-6.436-2.4 2.119-3.108 6.42-8.156 7.06-14.438 2.88 0 4.723.156 4.723-3.99 0-4.144-2.558-3.874-11.727-3.874 0-4.558.277-8.05-4.64-8.05-4.919 0-4.076 2.98-4.076 8.05-7.56-.34-12.007-1.04-12.007 4.918s16.018 2.946 19.73 2.946c-.775 3.865-3.13 8.407-3.13 8.407-4.26-4.505-5.928-7.305-8.776-5.204-1.876 1.384-1.2 5.054 3.591 8.766l-7.082 1.345c-1.73.756-4.877 1.951-4.028 5.118.848 3.167 7.103 1.254 14.704-1.025 4.648 3.787 8.016 5.327 11.039 5.242v5.033l-20.834 2.626s-5.24 2.433-.259 9.432c1.075 1.51-4.744.013-5.545-1.659-5.087-10.615-18.394-8.733-18.394-17.7z"/><text xml:space="preserve" style="font-weight:700;font-size:46.4855px;font-family:sans-serif;-inkscape-font-specification:'sans-serif, Bold';fill:#000;stroke:#000;stroke-width:1.9369;stroke-linecap:round;stroke-linejoin:bevel" x="73.335" y="96.81"><tspan x="73.335" y="96.81" style="fill:#fff;stroke:#fff;stroke-width:1.9369;stroke-linecap:round;stroke-linejoin:round">A</tspan></text>
	</symbol>
	<symbol id="location.default" viewBox="0 0 128 128">
		<path style="fill:none;fill-opacity:1;stroke:#000;stroke-width:2;stroke-linecap:round;stroke-linejoin:round;stroke-dasharray:none;stroke-opacity:1" d="M15 66h98v58H15zM64 124V67"/><path fill="navy" d="M48.351 78.098c3.092 3.88 6.235 8.724 7.88 11.622 2.01 3.81 2.848 6.396 4.317 10.987.9 2.538 1.715 3.293 3.464 3.293 1.907 0 2.772-1.287 3.444-3.281 1.389-4.336 2.476-7.645 4.196-10.772 3.371-6.04 7.563-11.402 11.678-16.554 1.116-1.46 8.322-9.96 11.566-16.668 0 0 3.988-7.367 3.988-17.656 0-9.625-3.931-16.303-3.931-16.303L83.63 25.799l-6.876 18.113-1.7 2.495-.34.453-.454.567-.794.907-1.134 1.134-6.123 4.99-15.307 8.837z"/><path fill="teal" fill-opacity=".973" d="M32.534 55.478c3.737 8.533 10.939 16.034 15.817 22.62l25.909-30.67s-3.646 4.769-10.262 4.769c-7.371 0-13.324-5.887-13.324-13.305 0-5.09 3.063-8.586 3.063-8.586l-17.575 4.709z"/><path fill="teal" fill-opacity=".973" d="M74.543 5.587c8.6 2.77 15.96 8.594 20.41 17.179L74.26 47.427s3.061-3.557 3.061-8.617c0-7.594-6.395-13.267-13.304-13.267-6.53 0-10.28 4.763-10.28 4.763V14.772z"/><path fill="#f60" d="M37.296 16.473C42.432 10.328 51.472 4 63.941 4c6.045 0 10.603 1.587 10.603 1.587L53.737 30.306h-14.74z"/><path fill="navy" d="M32.534 55.478s-3.418-6.73-3.418-16.48c0-9.217 3.584-17.273 8.18-22.525l16.44 13.833z"/><path style="fill:#e6e6e6;fill-opacity:1;stroke:#000;stroke-width:.858579;stroke-linecap:round;stroke-linejoin:round;stroke-dasharray:none;stroke-opacity:1" d="M15.429 83.53h23.138v22.939H15.429z"/><path style="fill:#e6e6e6;fill-opacity:1;stroke:#000;stroke-width:.862923;stroke-linecap:round;stroke-linejoin:round;stroke-dasharray:none;stroke-opacity:1" d="M89.331 83.533h23.133v22.935H89.331z"/><path style="fill:none;fill-opacity:1;stroke:#000;stroke-width:.995694;stroke-linecap:round;stroke-linejoin:round;stroke-dasharray:none;stroke-opacity:1" d="M15 72.073h9s11.885 1.21 16 4.957c4.773 4.347 7.294 11.42 7.352 17.846.06 6.718-2.31 14.304-7.352 18.792-4.11 3.657-16 4.258-16 4.258h-9M112.553 72.074h-9s-11.884 1.21-16 4.957c-4.773 4.346-7.36 11.034-7.351 17.845.007 6.771 2.253 14.456 7.351 18.962 4.112 3.633 16 4.089 16 4.089h9"/>
	</symbol>
	<symbol id="key.default" viewBox="0 0 128 128">
		<path fill="none" stroke="navy" stroke-linecap="round" stroke-linejoin="round" stroke-width="8.574" d="M120.495 33.57c1.397 4.197 1.62 11.434 0 16.79-1.948 6.437-6.014 12.487-11.178 16.788-5.455 4.544-12.521 7.546-19.565 8.395-5.624.678-12.815-.82-16.768-2.798-6.666 6.702-11.204 11.215-15.395 15.414 0 0-4.904-3.47-9.07.696-4.163 4.169-.695 9.082-.695 9.082l-8.387 8.393s-4.911-3.457-9.065.7-.7 9.08-.7 9.08l-5.597 5.603H6.287v-17.807l47.43-49.466c-4.243-17.403-.944-26.634 6.69-36.259 6.161-7.769 17.34-11.862 27.249-11.894 8.872-.026 20.264 6.3 24.458 10.496l-8.386 8.395c-2.794-2.798-5.445-3.007-8.383-2.798-2.079.147-4.118 1.325-5.59 2.798-1.471 1.474-2.648 3.517-2.795 5.597-.209 2.942.711 6.31 2.794 8.394 2.083 2.086 5.446 3.007 8.386 2.798 2.077-.147 4.191-1.398 5.588-2.798"/>
	</symbol>
	<symbol id="no.default" viewBox="0 0 128 128">
		<rect style="fill:#d40000;stroke-width:8;stroke-linecap:round;stroke-linejoin:round" width="120" height="120" x="4" y="4" rx="20" ry="20"/><path fill="#fff" d="m79.3 63.98 30.745-30.774c4.042-4.047 5.633-11.67.96-16.35-4.674-4.677-12.31-3.063-16.333.963L63.929 48.594 33.185 17.819c-4.111-4.116-11.718-5.581-16.333-.962-4.614 4.62-3.145 12.24.962 16.35L48.557 63.98S27.554 85.014 17.814 94.754c-4.106 4.105-5.532 11.779-.961 16.35 4.57 4.57 12.041 3.329 16.332-.962A99348.14 99348.14 0 0 0 63.93 79.367l30.743 30.775c3.53 3.533 11.197 6.093 16.333.962 5.136-5.132 2.895-12.49-.96-16.35z" style="fill:#fff;stroke:none;stroke-width:4;stroke-dasharray:none;stroke-opacity:1;fill-opacity:1"/>
	</symbol>
	<symbol id="key.old" viewBox="0 0 128 128">
		<path fill="none" stroke="#6e311e" stroke-linecap="round" stroke-linejoin="round" stroke-width="11.556" d="M119.004 34.356c1.361 4.088 1.578 11.14 0 16.357-1.897 6.27-5.857 12.164-10.886 16.353-5.313 4.428-12.194 7.351-19.054 8.179-5.478.66-12.48-.798-16.33-2.726-6.493 6.53-10.912 10.926-14.994 15.016 0 0-4.775-3.381-8.832.678-4.055 4.061-.678 8.847-.678 8.847l-8.168 8.177s-4.783-3.368-8.828.682c-4.046 4.05-.682 8.845-.682 8.845l-5.45 5.458H7.778v-17.347l46.191-48.188c-4.132-16.954-.919-25.946 6.516-35.322 6-7.569 16.888-11.556 26.537-11.587 8.64-.025 19.736 6.136 23.82 10.225l-8.167 8.178c-2.721-2.726-5.303-2.93-8.164-2.726-2.025.143-4.01 1.29-5.445 2.726-1.432 1.436-2.578 3.426-2.721 5.453-.204 2.865.693 6.146 2.721 8.176 2.029 2.033 5.304 2.93 8.166 2.726 2.023-.143 4.083-1.362 5.443-2.726"/><g fill="none" stroke="#7b888c" stroke-linecap="round" stroke-linejoin="round"><path d="M37 34s-1.068 10.133-4 14c-3.074 4.055-8.444 5.735-13 8-5.765 2.865-18 7-18 7" transform="matrix(1.93549 0 0 4.00001 1.097 -130)"/><path d="M37 34s8.67.234 12.234 2.366c3.03 1.812 4.043 5.876 6.69 8.212C58.01 46.418 63 49 63 49s-5.809.34-8 2c-2.142 1.623-4 7-4 7s-5.868-3.86-9-3.255C38.928 55.34 35 61 35 61s-2.988-3.191-5-3.63C20.699 55.34 2 63 2 63" transform="matrix(1.93549 0 0 4.00001 1.097 -130)"/><path d="m55 44-6 7s-3.764-2.71-5.885-2.503C39.862 48.813 35 54 35 54l-5-3m22-11-3 5s-3.673-1.506-5.56-1.274C41.05 44.021 37 47 37 47l-2-4" transform="matrix(1.93549 0 0 4.00001 1.097 -130)"/><path d="m40 35-3 12-2 7v7m11-26 3 10v6l2 7m-8-3V44l-1-9" transform="matrix(1.93549 0 0 4.00001 1.097 -130)"/></g>
	</symbol>
	<symbol id="pdf.default" viewBox="0 0 128 128">
		<path fill="#fff" d="m78.106 3.894 28.242 28.216v92H22.92V3.894z"/><path d="m76.91 6.785 26.547 26.522v87.91H25.811V6.781h51.1M79.302 1H20.03v125.999h89.207V30.908z"/><path fill="#fff" d="M22.92 124.11V3.894h55.186l.654.654V31.48h26.956l.632.63v92z"/><path d="M75.87 6.785V34.37h27.586v86.847H25.81V6.784h50.058M79.301 1H20.028v126h89.206V30.91l-2.323-2.322H81.648V3.348z"/><g stroke-width="21.791"><path d="M83.578 26.935V12.811L97.552 26.44v.495z"/><path d="m86.469 19.67 4.484 4.374H86.47V19.67m-1.81-9.84h-3.975v19.996h19.756v-4.605z"/></g><g fill="#ed1c24" stroke-width="212.65"><path d="M12.351 98.033V55.82l5.33-5.327v6.704h93.907v-6.704l5.327 5.327v42.213z"/><path d="m113.937 56.163.631.632v38.891H14.701V56.795l.632-.632v3.384h98.602v-3.384m-4.698-11.341v10.027h-89.21V44.822L10 54.849v45.534h109.263V54.849z"/></g><path fill="none" d="M23.031 63.643h84.135v31.741H23.031z"/><path fill="#fff" d="M18 96V60h13.182q2.935 0 5.593.61 2.659.553 4.653 1.993 1.994 1.385 3.157 3.71 1.218 2.272 1.218 5.65 0 3.323-1.218 5.705-1.163 2.381-3.157 3.932-1.994 1.495-4.597 2.27-2.603.72-5.428.72h-3.877V96zm9.526-18.942h3.434q2.825 0 4.154-1.329 1.385-1.329 1.385-3.766 0-2.437-1.496-3.434-1.495-.997-4.264-.997h-3.213zM51.674 96V60h10.634q4.098 0 7.477.997 3.434.997 5.87 3.157 2.438 2.16 3.767 5.538 1.384 3.379 1.384 8.142t-1.329 8.197q-1.329 3.434-3.766 5.649-2.382 2.215-5.705 3.268Q66.74 96 62.862 96zm9.526-7.643h.554q1.939 0 3.655-.443 1.717-.499 2.936-1.662 1.274-1.163 1.994-3.212.72-2.05.72-5.206 0-3.157-.72-5.15-.72-1.995-1.994-3.102-1.219-1.108-2.936-1.496-1.716-.443-3.655-.443H61.2zM87.233 96V60h23.483v7.975H96.759v6.868h11.963v7.975H96.76V96z"/>
	</symbol>
	<symbol id="person.default" viewBox="0 0 128 128">
		<g stroke="#000" stroke-linecap="round" stroke-linejoin="round" transform="translate(-10.772)"><circle cx="71.956" cy="18.297" r="13.431" fill="#fca" stroke-width="1.732"/><path fill="#d45500" stroke-width="1.3" d="M35.793 69.946c1.826 8.598 7.182 31.163 13.074 28.236 8.452-4.198.195-18.505-1.314-28.306-1.51-9.817 7.233-28.885 7.233-28.885v39.04h35.151v-39.04l12.526 16.569c1.562 2.067-13.379 16.338-7.438 20.558 6.222 4.418 14.982-7.34 17.76-14.448 1.796-4.595 1.116-9.472-2.106-14.65-3.915-6.295-5.866-11.109-11.064-14-4.746-2.639-9.02-3.536-16.187-1.837-7.167 1.7-14.798 1.382-22.132 0-7.335-1.382-12.352-.006-16.397 3.892-8.188 7.889-9.106 32.87-9.106 32.87z"/><path fill="navy" stroke-width="1.3" d="M89.937 80.032H54.785v34.615c1.46 12.852 12.85 10.246 12.998 0 1.3-25.265-.407 18.617 1.3-25.265.611-1.106 1.331-2.202 3.086-2.202s3.397.834 3.472 2.202c2.261 41.69 0 0 1.3 25.265 1.562 12.794 12.713 10.352 12.996 0z"/></g>
	</symbol>
	<symbol id="pie.default" viewBox="0 0 128 128">
		<g stroke-linecap="round"><path fill="#d45500" stroke="#d45500" stroke-linejoin="round" stroke-width="2.243" d="M97.23 4.185c.28-.558 5.894 2.78 8.345 4.87 7.249 6.182 13.412 13.822 18.119 22.105 1.543 2.715 3.184 8.81 3.184 8.81L71.61 56.91z"/><g stroke-width=".441"><path fill="teal" stroke="teal" d="M62.246 105.731c-.33.109-4.218-7.587-4.671-11.733-1.234-11.305.213-17.156 3.653-24.293 1.712-3.55 5.036-7.595 5.036-7.595l28.183 24.727z" transform="matrix(.42311 1.57286 -1.57907 .42145 159.11 -120.358)"/><path fill="navy" stroke="navy" d="M130.564 98.553c.057.172-4.606 10.352-10.857 15.85-5.85 5.146-13.385 9.293-21.148 9.95-9.074.77-16.286-.57-26.325-7.303-7.118-4.774-9.988-11.319-9.988-11.319l32.2-18.894z" transform="matrix(.42311 1.57286 -1.57907 .42145 159.11 -120.358)"/><path fill="#fc0" stroke="#fc0" d="M94.447 49.428c.145-.108 10.573.188 18.298 4.715 6.72 3.939 12.941 10.574 16.02 17.73 3.952 10.413 3.386 15.64 1.799 26.68L94.447 86.837z" transform="matrix(.42311 1.57286 -1.57907 .42145 159.11 -120.358)"/></g></g>
	</symbol>
	<symbol id="rivals.default" viewBox="0 0 128 128">
		<text xml:space="preserve" x="28.931" y="85.679" stroke-width="2.643" font-family="FreeMono" font-size="60.725" font-weight="700" style="-inkscape-font-specification:'FreeMono Bold';fill:#333;stroke:#000;stroke-width:1.07694;stroke-linecap:round;stroke-linejoin:round;stroke-dasharray:none;stroke-opacity:1"><tspan x="28.931" y="85.679" style="fill:#333;stroke:#000;stroke-width:1.07694;stroke-linecap:round;stroke-linejoin:round;stroke-dasharray:none;stroke-opacity:1">VS</tspan></text><path style="fill:green;stroke:#000;stroke-width:2;stroke-linecap:round;stroke-linejoin:round;stroke-dasharray:none;stroke-opacity:1" d="M5 19v28l28-14z"/><text xml:space="preserve" style="font-weight:700;font-size:20.938px;font-family:sans-serif;-inkscape-font-specification:'sans-serif, Bold';fill:#fff;stroke:#000;stroke-width:.43621;stroke-linecap:round;stroke-linejoin:round;stroke-dasharray:none;stroke-opacity:1" x="6.116" y="40.632"><tspan x="6.116" y="40.632" style="stroke:#000;stroke-width:.43621;stroke-opacity:1">A</tspan></text><path style="fill:#fc0;stroke:#000;stroke-width:2;stroke-linecap:round;stroke-linejoin:round;stroke-dasharray:none" d="M50 5h28v28H50z"/><text xml:space="preserve" style="font-weight:700;font-size:20.938px;font-family:sans-serif;-inkscape-font-specification:'sans-serif, Bold';fill:#fff;stroke:none;stroke-width:.436209;stroke-linecap:round;stroke-linejoin:round;stroke-dasharray:none" x="55.796" y="26.632"><tspan x="55.796" y="26.632" style="fill:#000;stroke-width:.436209">B</tspan></text><circle style="fill:maroon;stroke:#000;stroke-width:1.85125;stroke-linecap:round;stroke-linejoin:round" cx="109" cy="31" r="14.074"/><text xml:space="preserve" style="font-weight:700;font-size:20.938px;font-family:sans-serif;-inkscape-font-specification:'sans-serif, Bold';fill:#fff;stroke:none;stroke-width:.436209;stroke-linecap:round;stroke-linejoin:round;stroke-dasharray:none" x="100.465" y="38.622"><tspan x="100.465" y="38.622" style="stroke-width:.436209">C</tspan></text><path style="fill:navy;stroke:#000;stroke-width:2.07855;stroke-linecap:round;stroke-linejoin:round;stroke-dasharray:none;stroke-opacity:1" d="M3.94 19.12-8.94 3.016 3.94-13.086 16.823 3.017z" transform="matrix(.93383 0 0 .99175 105.32 94.008)"/><text xml:space="preserve" style="font-weight:700;font-size:20.938px;font-family:sans-serif;-inkscape-font-specification:'sans-serif, Bold';fill:#fff;stroke:none;stroke-width:.436209;stroke-linecap:round;stroke-linejoin:round;stroke-dasharray:none" x="101.465" y="104.622"><tspan x="101.465" y="104.622" style="stroke-width:.436209">F</tspan></text><path style="fill:#f60;stroke:#000;stroke-width:2;stroke-linecap:round;stroke-linejoin:round;stroke-dasharray:none;stroke-opacity:1" d="m7.415 96.566-17.871-15.477-4.468-23.214 22.339-7.738 22.338 7.738-4.468 23.214z" transform="matrix(.61946 0 0 .61946 13.864 49.562)"/><text xml:space="preserve" style="font-weight:700;font-size:20.9379px;font-family:sans-serif;-inkscape-font-specification:'sans-serif, Bold';fill:#fff;stroke:none;stroke-width:.436208;stroke-linecap:round;stroke-linejoin:round;stroke-dasharray:none" x="9.578" y="101.263" transform="scale(.99999 1.00001)"><tspan x="9.578" y="101.263" style="stroke-width:.436208">D</tspan></text><path style="fill:#fff;stroke:#000;stroke-width:2;stroke-linecap:round;stroke-linejoin:round;stroke-dasharray:none;stroke-opacity:1" d="M113.86 83.447v17.04l-14.757 8.52-14.757-8.52v-17.04l14.757-8.52z" transform="matrix(.83148 0 0 .83148 -18.402 32.53)"/><text xml:space="preserve" style="font-weight:700;font-size:20.938px;font-family:sans-serif;-inkscape-font-specification:'sans-serif, Bold';fill:#fff;stroke:none;stroke-width:.436209;stroke-linecap:round;stroke-linejoin:round;stroke-dasharray:none" x="56.767" y="116.632"><tspan x="56.767" y="116.632" style="fill:#000;stroke-width:.436209">E</tspan></text>
	</symbol>
	<symbol id="target.default" viewBox="0 0 128 128">
		<g transform="matrix(1.05065 0 0 1.05066 3.078 -2.101)"><circle cx="64" cy="52" r="49.5" fill="navy" stroke="#1a1a1a" stroke-linecap="round" stroke-linejoin="round"/><circle cx="64" cy="52" r="30" fill="#fff"/><circle cx="64" cy="52" r="15" fill="navy"/><path fill="#f86401" stroke="#fff" stroke-linecap="round" stroke-linejoin="round" stroke-width="2.975" d="m63.267 52.973-36.653 14.94 14.07 3.416-37.235 44.046s3.106-1.188 6.211 1.01c3.105 2.2 2.03 5.957 2.03 5.957l37.235-44.046 5.71 13.305z"/></g>
	</symbol>
	<symbol id="team.default" viewBox="0 0 128 128">
		<g stroke-linejoin="round" transform="translate(0 -.048)"><circle cx="58" cy="13" r="9.452" fill="#ffb380" stroke="#1a1a1a" stroke-linecap="round"/><path fill="#ffb380" stroke="#1a1a1a" stroke-linecap="round" d="M42.768 4.625 28.03 23.023s-1.344 1.653-1.274 3.348c.067 1.605 1.274 1.933 1.274 1.933l15.47 6.461s1.318-2.223 2.44-2.658c5.056-1.96 16.36-4.19 16.36-4.19l-14.579-.49-8.918-3.785 9.612-12.053 1.165-3.092s.526-2.827-1.851-4.14c-3-1.655-4.96.268-4.96.268z"/><path fill="#f86401" stroke="#000" d="M62.3 27.917s1.781.947 2.674 1.963c1.107 1.267 3.837 14.588 3.837 14.588l1.751.028-.134-6.86s.077-.854 1.865-.854S74 37.61 74 37.61v12.246l-14.705-.566c-4.718 1.001-4.673 7.205-.387 8.354l20.076 1.995c2.168-.096 3.08-1.31 3.563-2.902l-.208-19.344c-.36-5.166-2.45-9.094-9.141-9.736z"/><path fill="#ac9393" stroke="#000" d="m48.912 36.758 11.44-3.203 3.072 10.176s-3.862-.778-6.544.251c-2.682 1.03-5.054 4.925-5.054 4.925z"/><path fill="navy" stroke="#000" stroke-linecap="round" d="M45.512 41.326s.375 13.84 4.388 17.744c5.079 4.94 20.663 4.983 20.663 4.983l.024 17.363s-3.03-1.544-4.9-1.634c-1.637-.08-5.233.644-5.233.644l-.04-6.91h-4.356v8.957s-5.02 6.154-5.494 9.898c-.326 2.575 1.963 7.535 1.963 7.535l-4.107.23-2.848 1.701z"/><circle cx="21.617" cy="93.336" r="8.507" fill="#ac9393" stroke="#1a1a1a" stroke-linecap="round"/><circle cx="64.283" cy="93.336" r="8.507" fill="#520" stroke="#1a1a1a" stroke-linecap="round"/><circle cx="107.002" cy="93.336" r="8.507" fill="#d38d5f" stroke="#1a1a1a" stroke-linecap="round"/><path fill="#0000fa" stroke="#000" stroke-linecap="round" d="M1 123.779v-9.525C1 110.732 4.616 106 7.5 106H35c4.84 0 6.756 5.726 7.5 11 1.369-5.55 2.79-10.685 7.5-11h28c4.905 0 6.298 6.132 7.5 11 1.336-4.853 2.99-10.851 7.5-11h27.5c3.946 0 6.5 4.824 6.5 8.254v9.525h-6.5v-9.525H117v9.525H96.5v-9.525H93v9.525H78v-9.525h-3.5v9.525H54v-9.525h-4v9.525H35v-9.525h-3.5v9.525H11v-9.525H7.5v9.525z"/></g>
	</symbol>
	<symbol id="plan.default" viewBox="0 0 128 128">
		<path fill="none" stroke="#000" stroke-linejoin="round" stroke-width="3" d="M4.5 26 34 14l62 12 27.5-14v90L96 116l-62-12-29.5 12z"/><path fill="#333" stroke="#4b4b4b" stroke-linecap="round" d="M34 16v86m62-74v86"/><path fill="#e6e6e6" d="M6.138 70.342V27.066l13.39-5.449c7.366-2.997 13.49-5.487 13.612-5.535.175-.068.23 8.723.265 43.152l.045 43.238-.796.338c-.437.186-6.284 2.57-12.993 5.296a6507.528 6507.528 0 0 0-12.86 5.235l-.663.278z"/><path fill="#ccc" d="M96.647 70.937c0-23.57-.044-42.97-.1-43.113-.074-.195 1.821-1.234 7.646-4.192a5697.09 5697.09 0 0 0 12.74-6.487l4.993-2.555v86.406l-12.558 6.398c-6.907 3.518-12.595 6.397-12.64 6.397-.044 0-.08-19.284-.08-42.854z"/><path fill="#f9f9f9" d="M65.093 108.39c-16.626-3.219-30.309-5.885-30.406-5.926-.117-.05-.147-14.598-.088-43.393l.088-43.318 30.229 5.855c16.626 3.22 30.308 5.888 30.406 5.93.117.05.147 14.596.088 43.389l-.088 43.314z"/><path fill="#4d4d4d" stroke="#4b4b4b" stroke-linecap="round" stroke-width="3" d="m15.184 84.08 9.65-9.925m4.78-1.595 3.55 1.866 5.091 1.443"/><path fill="none" stroke="#000" d="m12.043 101.724 22.106-8.771 61.543 12.286 23.295-11.18"/><path fill="#4d4d4d" stroke="#4b4b4b" stroke-linecap="round" stroke-width="3" d="m44.674 75.181 13.531-10.86m6.043-1.318 12.566-.088m6.036.472 12.544 10.437 1.406.294 2.791.585m3.529-2.478 10.64-16.858"/><text xml:space="preserve" x="45.786" y="17.94" font-family="sans-serif" font-size="8" font-weight="400" style="line-height:1.25" transform="rotate(11.435)"><tspan x="45.786" y="17.94">Team Plan</tspan></text><text xml:space="preserve" x="-5.61" y="36.607" font-family="sans-serif" font-size="5.333" font-weight="400" style="line-height:1.25" transform="rotate(-26.57)"><tspan x="-5.61" y="36.607" font-weight="700" style="-inkscape-font-specification:&quot;sans-serif Bold&quot;">Targets</tspan></text><text xml:space="preserve" x="47.04" y="24.345" font-family="sans-serif" font-size="4" font-weight="400" style="line-height:1.25" transform="rotate(11.459)"><tspan x="47.04" y="24.345" style="-inkscape-font-specification:sans-serif"><tspan font-size="2.667">*</tspan><tspan font-size="2.667"> 1x1 Defense</tspan></tspan><tspan x="47.04" y="29.345" font-size="2.667" style="-inkscape-font-specification:sans-serif">* Dribbling</tspan><tspan x="47.04" y="34.345" font-size="2.667" style="-inkscape-font-specification:sans-serif">* Shooting</tspan><tspan x="47.04" y="39.345" font-size="2.667" style="-inkscape-font-specification:sans-serif">* Spacing</tspan></text><path fill="#4d4d4d" stroke="#f86401" stroke-linecap="round" stroke-width="3" d="m15.184 84.08 9.65-9.925m0 0 9.163 6.336 6.467 5.135m0 0 19.442-13.849"/><g fill="navy"><ellipse cx="11.705" cy="87.105" rx="2.277" ry="3.531" transform="rotate(-1.028)"/><ellipse cx="25.725" cy="72.33" rx="2.277" ry="3.531" transform="rotate(-1.028)"/><ellipse cx="47.638" cy="72.8" rx="3.001" ry="3.531" transform="rotate(4.717)"/><ellipse cx="66.229" cy="57.566" rx="3.001" ry="3.531" transform="rotate(4.717)"/><ellipse cx="85.265" cy="55.729" rx="3.001" ry="3.531" transform="rotate(4.717)"/><ellipse cx="107.209" cy="66.052" rx="1.73" ry="3.531" transform="rotate(4.717)"/><ellipse cx="118.846" cy="43.013" rx="1.73" ry="3.531" transform="rotate(4.717)"/></g>
	</symbol>
	<symbol id="time.default" viewBox="0 0 128 128">
		<g transform="rotate(-30 41.23 5.392)"><rect width="60" height="15" y="15" fill="navy" ry="4.579"/><rect width="60" height="15" y="105" fill="navy" ry="4.579"/><path fill="none" stroke="navy" stroke-linecap="round" stroke-linejoin="round" stroke-width="4" d="M12.074 30c-.867 8.019-4.04 17.711 0 25 3.049 5.5 12.95 4.5 16 10 .808 1.458.808 3.542 0 5-3.05 5.5-12.951 4.5-16 10-4.04 7.289-.633 16.667 0 25M50.65 30c.866 8.019 4.039 17.711 0 25-3.05 5.5-12.952 4.5-16 10-.809 1.458-.809 3.542 0 5 3.048 5.5 12.95 4.5 16 10 4.039 7.289.632 16.667 0 25"/></g><path fill="#f60" d="M37.174 56.604 72.15 44.14s.5-.206-.944 2.757c-1.446 2.967-4.418 5.25-6.104 7.796-.992 1.5-1.347 2.804-1.714 5.117-.242 1.523.609 4.588.609 4.588-2.53-1.789-3.46-3.21-6.625-3.543-2.84-.3-9.973 2.43-14.558.818-2.385-.838-4.013-2.689-5.641-5.068zM97.6 88.039l-29.868 17.295s-.422.275.318-2.819c.74-3.096 3.03-5.754 4.077-8.479.616-1.604 1.767-2.812 1.64-5.114-.085-1.516.007-4.666.007-4.666 2.704 1.363 3.852 2.606 6.849 2.46 2.69-.13 7.46-1.1 12.03-.215 2.378.46 2.96-.532 4.947 1.538z"/>
	</symbol>
	<symbol id="timetable.default" viewBox="0 0 128 128">
		<path fill="navy" d="M72.562 6.658c0-2.288 2.297-4.165 5.077-4.165s5.13 1.857 5.13 4.165v18.198c0 2.288-2.257 4.165-5.13 4.165-2.872 0-5.077-1.857-5.077-4.165zm-45.578 0c0-2.288 2.257-4.165 5.13-4.165 2.872 0 5.077 1.857 5.077 4.165v18.198c0 2.288-2.267 4.165-5.078 4.165-2.81 0-5.129-1.857-5.129-4.165zm76.25 35.637V21.337a2.524 2.524 0 0 0-.75-1.805 2.575 2.575 0 0 0-1.805-.749h-9.232c-3.748 0-3.748-5.621 0-5.621h9.232a8.207 8.207 0 0 1 8.207 8.206v33.257a42.059 42.059 0 0 0-5.704-1.528v-5.201H6.591v54.276a2.524 2.524 0 0 0 .749 1.806c.48.477 1.128.746 1.805.749h45.926a41.31 41.31 0 0 0 1.97 5.683H9.207A8.207 8.207 0 0 1 1 102.203V21.358a8.207 8.207 0 0 1 8.207-8.207h9.889c3.747 0 3.747 5.622 0 5.622h-9.89a2.524 2.524 0 0 0-1.805.749 2.575 2.575 0 0 0-.749 1.805v20.968zm-57.99-23.522c-3.748 0-3.748-5.622 0-5.622h18.865c3.747 0 3.747 5.622 0 5.622z"/><g fill="none" stroke="navy" stroke-linecap="round" stroke-linejoin="round" transform="translate(0 -.001) scale(1.00042)"><circle cx="94.447" cy="92.993" r="29.5" stroke-width="6"/><path stroke-width="7" d="m88.789 80.247 4.422 16.505 13.26-3.553"/></g><path fill="#0000d4" d="M37.065 58.46c-.427.426-.4.954-.4.954v8.584s-.029.522.403.953c.431.432.948.397.948.397H49.64s.526.028.95-.396c.426-.425.4-.954.4-.954v-8.584s.014-.54-.395-.952c-.408-.413-.955-.398-.955-.398H38.016s-.524-.031-.951.396z"/><path fill="teal" fill-opacity=".973" d="M14.846 58.46c-.427.427-.4.955-.4.955v8.583s-.029.523.403.954c.431.431.948.397.948.397h11.625s.526.028.95-.397c.426-.425.4-.954.4-.954v-8.583s.014-.54-.395-.953c-.408-.412-.955-.398-.955-.398H15.797s-.524-.03-.951.396z"/><path fill="#fe9e14" d="M14.806 82.98c-.427.427-.4.955-.4.955v8.584s-.029.522.403.953c.431.432.948.397.948.397h11.625s.526.028.95-.396c.426-.425.4-.954.4-.954v-8.584s.014-.54-.395-.953c-.408-.412-.955-.398-.955-.398H15.757s-.524-.03-.951.397z"/><path fill="teal" fill-opacity=".973" d="M37.065 82.98c-.427.427-.4.955-.4.955v8.584s-.028.522.403.953c.432.432.948.397.948.397h11.625s.527.028.951-.396c.425-.425.4-.954.4-.954v-8.584s.013-.54-.395-.953c-.409-.412-.956-.398-.956-.398H38.016s-.524-.03-.95.397z"/><path fill="#fe9e14" fill-opacity=".997" d="M59.325 58.46c-.427.427-.4.955-.4.955v8.583s-.029.523.403.954c.43.431.948.397.948.397h.916s.67-.972 1.04-1.431c.973-1.207 2.182-2.587 3.092-3.474 1.315-1.282 2.62-2.467 4.032-3.58 1.112-.876 2.082-1.524 3.484-2.43-.158-.154-.256-.213-.51-.3-.22-.076-.43-.07-.43-.07H60.276s-.524-.03-.951.396z"/>
	</symbol>
	<symbol id="user.default" viewBox="0 0 128 128">
		<path fill="#fe9e14" d="M124 64c0-33.083-26.917-60-60-60S4 30.917 4 64c0 17.474 7.514 33.225 19.475 44.2l-.057.05 1.946 1.64c.127.107.264.194.39.3a60.298 60.298 0 0 0 3.197 2.458c.354.255.707.51 1.067.76a61.097 61.097 0 0 0 3.583 2.286c.266.157.534.31.803.462a59.869 59.869 0 0 0 4.101 2.139l.31.14a59.46 59.46 0 0 0 14.512 4.592l.401.072c1.58.273 3.177.49 4.793.637.197.017.393.028.592.046 1.61.133 3.238.218 4.887.218 1.634 0 3.247-.085 4.848-.214l.609-.046a60.674 60.674 0 0 0 4.752-.626l.408-.074a59.457 59.457 0 0 0 14.306-4.484c.166-.076.334-.148.5-.227a60.302 60.302 0 0 0 4.909-2.594 60.03 60.03 0 0 0 3.45-2.182c.403-.274.798-.565 1.197-.853a59.72 59.72 0 0 0 2.812-2.144c.203-.164.421-.306.62-.474l1.996-1.667-.059-.05C116.414 97.386 124 81.564 124 64zM14 64c.876-34.58 26.43-50 50-50s49.615 16.661 50 50c.168 14.535-5.911 25.985-13.103 38.443a16.35 16.35 0 0 0-1.949-1.172l-18.473-6.086a4.837 4.837 0 0 1-2.688-4.349v-6.451c.428-.528.88-1.126 1.346-1.783a44.461 44.461 0 0 0 5.708-11.177 7.92 7.92 0 0 0 4.549-7.176v-7.735a7.938 7.938 0 0 0-1.935-5.169V41.163c.113-1.132.514-7.523-4.109-12.794-4.02-4.59-10.53-6.914-19.346-6.914-8.817 0-15.325 2.323-19.346 6.912-4.623 5.27-4.222 11.661-4.109 12.794v10.183a7.95 7.95 0 0 0-1.935 5.168v7.735a7.937 7.937 0 0 0 2.924 6.154c1.767 6.923 5.404 12.164 6.748 13.94v6.314c0 1.78-.972 3.42-2.535 4.272l-17.252 6.41c-.567.313-1.115.66-1.64 1.04C19.554 89.73 13.635 78.436 14 64zm80.31 43.619c-.362.235-.722.471-1.091.7a54.854 54.854 0 0 1-3.146 1.81c-.236.125-.474.243-.712.365a55.594 55.594 0 0 1-7.61 3.22l-.277.094a55.806 55.806 0 0 1-4.154 1.205l-.013.002c-1.416.348-2.846.64-4.285.877l-.118.022c-1.355.22-2.72.38-4.09.5-.243.022-.485.037-.73.055a54.092 54.092 0 0 1-4.084.168 55.345 55.345 0 0 1-4.135-.17c-.237-.018-.475-.033-.71-.055a56.427 56.427 0 0 1-4.124-.51l-.184-.032a55.43 55.43 0 0 1-8.487-2.118l-.257-.088a56.414 56.414 0 0 1-4.063-1.555l-.028-.013a56.929 56.929 0 0 1-3.72-1.78c-.16-.084-.321-.162-.478-.247a56.073 56.073 0 0 1-4.23-2.52 55.453 55.453 0 0 1-2.92-2.036l-.29-.227.21-.118 20.251-6.41a9.227 9.227 0 0 0 4.811-8.103l-.002-7.859-.502-.606c-.048-.055-4.765-5.793-6.548-13.563l-.198-.864-.744-.482a3.615 3.615 0 0 1-1.678-3.037V56.51c0-1.015.43-1.96 1.215-2.668l.72-.65V41.037l-.02-.286c-.006-.052-.65-4.3 3.046-8.512 3.155-3.596 5.562-4.422 13.065-4.422 7.475 0 9.864.81 13.028 4.38 3.692 4.17 3.087 8.515 3.083 8.559l-.02 12.438.72.65c.783.707 1.215 1.654 1.215 2.669v7.734a3.644 3.644 0 0 1-2.576 3.437l-1.085.334-.349 1.08a40.364 40.364 0 0 1-5.446 10.979 26.795 26.795 0 0 1-1.605 2.07l-.541.618v8.07a9.173 9.173 0 0 0 5.1 8.252l21.474 6.235.349.181c-.838.891-1.734 1.294-3.037 2.115z" style="stroke-width:2.18182;fill:maroon"/>
	</symbol>
	<symbol id="website.default" viewBox="0 0 128 128">
		<path d="M79.675 104.588c-3.653 4.046-7.86 8.062-12.623 12.048a67.82 67.82 0 0 0 3.844-.626c3.451-.696 6.77-1.715 9.98-3.108a59.392 59.392 0 0 0 2.431-1.11 11.593 11.593 0 0 0 1.978 1.998c.777.616 1.604 1.1 2.472 1.463a64.48 64.48 0 0 1-4.904 2.362 55.76 55.76 0 0 1-10.998 3.42c-3.774.767-7.679 1.15-11.695 1.15s-7.89-.383-11.694-1.15a54.464 54.464 0 0 1-10.858-3.35c-.03 0-.1-.03-.14-.07a62.849 62.849 0 0 1-9.91-5.378 54.987 54.987 0 0 1-8.586-7.054 53.333 53.333 0 0 1-7.053-8.586c-2.1-3.108-3.875-6.428-5.378-9.909A55.76 55.76 0 0 1 3.12 75.69 60.886 60.886 0 0 1 2 63.995c0-4.016.383-7.89 1.15-11.695A54.465 54.465 0 0 1 6.5 41.443c0-.03.03-.1.07-.141 1.504-3.522 3.32-6.811 5.379-9.909a54.987 54.987 0 0 1 7.053-8.586 53.333 53.333 0 0 1 8.587-7.054c3.108-2.098 6.417-3.874 9.908-5.378a55.76 55.76 0 0 1 10.999-3.42 59.289 59.289 0 0 1 11.684-1.14c4.016 0 7.89.383 11.695 1.15a54.464 54.464 0 0 1 10.857 3.35c.03 0 .101.03.141.07a62.849 62.849 0 0 1 9.909 5.378 54.987 54.987 0 0 1 8.587 7.054 53.333 53.333 0 0 1 7.053 8.586c2.099 3.108 3.875 6.428 5.378 9.909a55.76 55.76 0 0 1 3.42 10.998 57.95 57.95 0 0 1 .939 6.539l-5.277-1.403a50.89 50.89 0 0 0-.646-4.127c-.696-3.45-1.715-6.77-3.108-9.979a52.705 52.705 0 0 0-2.936-5.903H89.16c3.027 5.177 5.206 10.323 6.528 15.459l-5.731-1.524c-1.494-4.601-3.744-9.243-6.77-13.935H62.732v9.475a9.008 9.008 0 0 0-1.08.747 8.324 8.324 0 0 0-1.746 1.847 9.152 9.152 0 0 0-1.069 2.128 9.204 9.204 0 0 0-.494 2.311c-.05.646-.03 1.312.07 1.968.081.545.202 1.08.384 1.604l.05.141c.04.111.081.222.122.323.06.172.11.273.13.323l.02-.01 3.664 8.244h-.06v24.015h10.715l2.26 5.095H62.733v17.94c5.701-4.681 10.595-9.404 14.671-14.136zm38.504.08a3.951 3.951 0 0 1-1.17.798 4.243 4.243 0 0 1-1.393.363c-.514.04-1.04-.01-1.544-.171a4.018 4.018 0 0 1-1.362-.747l-11.19-9.495-3.844 9.434a12.595 12.595 0 0 1-1.14 2.17 8.699 8.699 0 0 1-1.453 1.695 6.165 6.165 0 0 1-1.342.908 4.825 4.825 0 0 1-1.464.454c-.585.08-1.17.04-1.735-.12a4.707 4.707 0 0 1-1.574-.818c-.404-.313-.777-.717-1.13-1.2a8.835 8.835 0 0 1-.888-1.575c-7.285-16.417-15.973-34.085-22.471-50.613a3.165 3.165 0 0 1-.02-2.17c.09-.251.212-.504.363-.726.08-.11.161-.222.262-.312.081-.081.172-.162.273-.233.181-.14.373-.262.575-.363l.05-.02c.192-.09.394-.161.585-.202l.091-.02c.182-.04.364-.06.545-.07.212-.01.414.01.616.04l.212.03c17.799 4.42 35.699 9.465 53.458 14.177.635.171 1.2.383 1.695.625a6.07 6.07 0 0 1 1.362.919c.464.423.817.908 1.06 1.422.252.535.383 1.11.393 1.706v.01a4.88 4.88 0 0 1-.212 1.513 5.834 5.834 0 0 1-.686 1.463 8.586 8.586 0 0 1-1.443 1.706 12.658 12.658 0 0 1-1.967 1.473c-2.917 1.715-5.823 3.531-8.718 5.287l11.15 9.556c.403.353.726.766.948 1.22l.03.081c.212.454.343.929.383 1.423a4.12 4.12 0 0 1-.161 1.513 4.11 4.11 0 0 1-.696 1.353c-1.705 2.098-4.561 5.771-6.448 7.517zm-2.926-3.662 5.398-6.337-13.117-11.24-.07-.07a2.931 2.931 0 0 1-.182-.193 1.624 1.624 0 0 1-.212-.302 2.282 2.282 0 0 1-.263-1.746c.142-.575.505-1.1 1.05-1.423 3.794-2.088 7.709-4.702 11.452-6.952a7.44 7.44 0 0 0 1.14-.847 4.43 4.43 0 0 0 .727-.838c.07-.11.121-.202.151-.292a1.613 1.613 0 0 0-.302-.172 4.754 4.754 0 0 0-.737-.252l-50.169-13.3 21.069 47.455c.12.263.242.495.373.686l.03.05c.07.092.131.172.182.223.08-.04.161-.111.262-.202.242-.212.485-.504.707-.848.242-.363.464-.797.655-1.281l5.046-12.39.05-.102c.04-.08.08-.161.121-.232l.03-.05a1.76 1.76 0 0 1 .182-.242 2.313 2.313 0 0 1 3.26-.262zm-61.904 15.63c-8.233-6.912-14.832-13.894-19.716-20.978H17.529c1.534 2.099 3.249 4.046 5.095 5.903a50.6 50.6 0 0 0 7.82 6.417c2.795 1.887 5.833 3.522 9.112 4.924.03.03.07.03.1.071 3.18 1.322 6.459 2.371 9.88 3.037a68.97 68.97 0 0 0 3.833.626zM14.18 90.563h16.195c-4.5-7.891-6.942-15.913-7.225-24.015H7.166c.141 2.795.454 5.479.979 8.133.696 3.45 1.705 6.77 3.108 9.979a54.433 54.433 0 0 0 2.926 5.903zm-7.013-29.11H23.26c.595-7.962 3.25-15.953 7.961-24.016H14.18a55.434 55.434 0 0 0-2.936 5.903c-.03.03-.03.07-.071.101C9.85 46.62 8.801 49.9 8.135 53.32c-.515 2.654-.868 5.338-.969 8.133zM17.5 32.341h17c4.853-6.983 11.24-13.995 19.201-21.048a49.665 49.665 0 0 0-4.187.665c-3.45.697-6.77 1.716-9.98 3.108a56.293 56.293 0 0 0-9.11 4.924 51.789 51.789 0 0 0-7.82 6.418c-1.847 1.846-3.563 3.804-5.096 5.903zm49.18-21.048c7.991 7.053 14.378 14.065 19.201 21.048h17.002c-1.533-2.099-3.249-4.046-5.095-5.903a51.253 51.253 0 0 0-7.82-6.427c-2.795-1.887-5.832-3.522-9.112-4.925-.03-.03-.07-.03-.1-.07-3.179-1.322-6.458-2.371-9.879-3.037-1.392-.283-2.795-.485-4.187-.666v-.02Zm-3.946 3.32v17.728h16.891c-4.43-5.863-10.05-11.765-16.89-17.729Zm-5.095 98.985v-17.94h-17.77c4.572 6.003 10.505 12.007 17.77 17.94zm0-23.036V66.548H28.245c.313 8.062 3.037 16.053 8.062 24.015zm0-29.11V37.436H37.185c-5.237 8.133-8.163 16.125-8.83 24.015zm0-29.111V14.613c-6.842 5.974-12.462 11.866-16.891 17.729Z"/>
	</symbol>
	<symbol id="yes.default" viewBox="0 0 128 128">
		<path style="fill:none;stroke:green;stroke-width:20;stroke-linecap:round;stroke-linejoin:round;stroke-dasharray:none;stroke-opacity:1" d="m32 74 22 34s12.32-37.145 22-54c5.445-9.481 20-26 20-26"/>
	</symbol>
</svg>