<svg width="128" height="128" xmlns="http://www.w3.org/2000/svg"><path fill="#2ca02c" stroke="#000" stroke-linecap="round" stroke-linejoin="round" d="M64.479 3c-4.742 0-10.23 2.324-12.724 6.358-7.435 12.024 0 42.413 0 42.413s-30.373-7.422-42.393.004C5.33 54.27 3 59.753 3 64.5c0 4.738 2.324 10.23 6.362 12.724 12.016 7.431 42.393 0 42.393 0s-7.431 30.381 0 42.41c2.494 4.033 6.896 6.234 12.724 6.362 5.827.14 10.23-2.329 12.724-6.362 7.43-12.029 0-42.41 0-42.41s30.402 7.436 42.435 0C123.668 74.73 126 69.237 126 64.5c0-4.746-2.333-10.23-6.362-12.724-12.033-7.43-42.435 0-42.435 0s7.435-30.389 0-42.413C74.709 5.33 69.22 3.004 64.479 3.004z" style="stroke-width:3.99997;stroke-dasharray:none"/></svg>