<svg xmlns="http://www.w3.org/2000/svg" viewBox="0 0 30 30">
  <path fill="#2ca02c" stroke="#000" stroke-linecap="round" stroke-linejoin="round" d="M14.995.5c-1.118 0-2.412.548-3 1.499-1.753 2.835 0 10 0 10S4.834 10.249 2 12c-.951.588-1.5 1.881-1.5 3 0 1.117.548 2.412 1.5 3 2.833 1.752 9.995 0 9.995 0s-1.752 7.163 0 9.999c.588.951 1.626 1.47 3 1.5 1.374.033 2.412-.549 3-1.5 1.752-2.836 0-9.999 0-9.999S25.163 19.753 28 18c.95-.588 1.5-1.883 1.5-3 0-1.119-.55-2.412-1.5-3-2.837-1.752-10.005 0-10.005 0s1.753-7.165 0-10c-.588-.951-1.882-1.499-3-1.499Z"/>
</svg>