<svg xmlns="http://www.w3.org/2000/svg" viewBox="0 0 128 128">
  <path fill="none" stroke="navy" stroke-width="2" d="M27.79 72.752h14.53c.752 0 1.36-.61 1.36-1.362V56.86a1.36 1.36 0 0 0-1.36-1.362H27.79c-.753 0-1.362.61-1.362 1.362v14.53c0 .752.609 1.362 1.361 1.362zm28.944 0h14.533c.75 0 1.36-.61 1.36-1.362V56.86c0-.752-.61-1.362-1.36-1.362H56.734c-.75 0-1.361.61-1.361 1.362v14.53c0 .752.61 1.362 1.361 1.362zm28.947 0h14.53a1.36 1.36 0 0 0 1.361-1.362V56.86a1.36 1.36 0 0 0-1.36-1.362h-14.53c-.754 0-1.362.61-1.362 1.362v14.53a1.36 1.36 0 0 0 1.361 1.362zM27.79 101.698h14.53c.752 0 1.36-.61 1.36-1.363V85.806c0-.752-.608-1.363-1.36-1.363H27.79c-.753 0-1.362.61-1.362 1.363v14.53c0 .752.609 1.362 1.361 1.362zm28.944 0h14.533c.75 0 1.36-.61 1.36-1.363V85.806c0-.752-.61-1.363-1.36-1.363H56.734c-.75 0-1.361.61-1.361 1.363v14.53c0 .752.61 1.362 1.361 1.362zm28.947 0h14.53c.753 0 1.361-.61 1.361-1.363V85.806c0-.752-.608-1.363-1.36-1.363h-14.53c-.754 0-1.362.61-1.362 1.363v14.53a1.36 1.36 0 0 0 1.361 1.362z"/>
  <path fill="navy" d="M123.596 3.384H108.1v3.77a7.814 7.814 0 0 1-7.814 7.814h-1.172A7.814 7.814 0 0 1 91.3 7.154v-3.77H72.4v3.77a7.814 7.814 0 0 1-7.814 7.814h-1.172A7.814 7.814 0 0 1 55.6 7.154v-3.77H36.7v3.77a7.814 7.814 0 0 1-7.814 7.814h-1.172A7.814 7.814 0 0 1 19.9 7.154v-3.77H4.405A3.405 3.405 0 0 0 1 6.789v114.422a3.405 3.405 0 0 0 3.405 3.406h119.19A3.405 3.405 0 0 0 127 121.21V6.79a3.404 3.404 0 0 0-3.404-3.405ZM116.783 114.4H11.217V42.546h105.566z"/>
  <path fill="#009f00" stroke="#009f00" stroke-width=".206" d="M29.18 61.216s2.23 3.247 3.24 4.926c.775 1.287 0 0 2.16 3.94 1.08.985 1.985.637 2.16 0 1.08-3.94 1.106-4.07 2.16-5.91 2.59-4.532 2.59-4.532 9.717-12.806 1.043-1.21-.885-1.576-4.772-.985-5.183 4.137-8.639 10.835-10.293 14.864-.218.53 3.727 1.881 2.648.896l-3.24-5.91c-.864-1.182-4.427-.197-3.78.985z"/>
  <path fill="none" d="M11.243 78.453V42.592H116.7v71.722H11.243Zm31.99 22.959c.36-.361.417-1.487.417-8.28 0-6.944-.051-7.92-.44-8.35-.406-.448-1.014-.485-8.042-.485-6.452 0-7.693.062-8.194.413-.587.412-.59.453-.59 8.28 0 6.948.051 7.924.44 8.353.406.45 1.02.486 8.215.486 6.715 0 7.834-.057 8.194-.417zm28.886-.023c.45-.407.486-1.021.486-8.28 0-6.923-.051-7.897-.44-8.326-.406-.45-1.014-.486-8.042-.486-6.452 0-7.693.063-8.194.413-.588.412-.59.453-.59 8.28 0 6.948.05 7.924.44 8.353.406.45 1.017.486 8.147.486 6.799 0 7.765-.052 8.193-.44zm28.955 0c.45-.407.486-1.021.486-8.28 0-6.923-.052-7.897-.44-8.326-.406-.45-1.014-.486-8.043-.486-6.452 0-7.693.063-8.194.413-.587.412-.59.453-.59 8.28 0 6.948.051 7.924.44 8.353.406.45 1.017.486 8.147.486 6.8 0 7.765-.052 8.194-.44zM43.233 72.457c.355-.355.417-1.323.417-6.484v-6.067l1.116-1.419c.614-.78 2.287-2.781 3.719-4.447s2.603-3.237 2.603-3.491c0-.643-.526-.785-2.909-.785-2.005 0-2.108.032-3.365 1.034-.713.57-1.936 1.824-2.717 2.79l-1.421 1.754H34.12c-5.503 0-6.65.067-7.146.414-.587.411-.59.452-.59 8.28 0 6.947.051 7.924.44 8.353.406.45 1.02.485 8.215.485 6.715 0 7.834-.057 8.194-.417zm28.955 0c.36-.36.417-1.493.417-8.353 0-7.898-.003-7.937-.59-8.348-.5-.35-1.728-.414-8.043-.414-6.315 0-7.543.063-8.043.414-.588.411-.59.452-.59 8.28 0 6.947.05 7.924.44 8.353.406.45 1.019.485 8.215.485 6.715 0 7.833-.057 8.194-.417zm28.886-.022c.45-.407.486-1.024.486-8.353 0-7.876-.003-7.915-.59-8.326-.501-.35-1.729-.414-8.044-.414s-7.542.063-8.043.414c-.587.411-.59.452-.59 8.28 0 6.947.051 7.924.44 8.353.406.449 1.017.485 8.147.485 6.8 0 7.765-.051 8.194-.44z"/>
  <path fill="#009f00" stroke="#009f00" stroke-width=".206" d="M57.981 61.216s2.23 3.247 3.24 4.926c.774 1.287 0 0 2.16 3.94 1.079.985 1.984.637 2.159 0 1.08-3.94 1.107-4.07 2.16-5.91 2.591-4.532 2.591-4.532 9.718-12.806 1.042-1.21-.885-1.576-4.773-.985-5.183 4.137-8.638 10.835-10.293 14.864-.218.53 3.728 1.881 2.648.896l-3.24-5.91c-.863-1.182-4.427-.197-3.779.985z"/>
  <path fill="#a00" d="M85 55c0-3.074 3.074-3.074 3.074-3.074S90.3 53.825 91.147 55c1.34 1.859 3.074 6.147 3.074 6.147S95.955 56.86 97.295 55c.847-1.175 1.625-3.074 3.074-3.074 1.449 0 3.073 1.625 3.073 3.074 0 1.449-2.226 1.898-3.073 3.074-1.34 1.858-3.074 6.147-3.074 6.147s1.734 4.29 3.074 6.148c.847 1.175 3.073 3.073 3.073 3.073.525 2.29.826 4.398-3.073 3.074 0 0-2.227-1.898-3.074-3.074-1.34-1.858-3.074-6.147-3.074-6.147s-1.734 4.289-3.074 6.147c-.847 1.176-3.073 3.074-3.073 3.074-4.135 1.35-3.443-.985-3.074-3.074 0 0 2.227-1.898 3.074-3.073 1.34-1.859 3.073-6.148 3.073-6.148l-3.073-6.147C88.074 57.049 85 56.024 85 55"/>
</svg>
