<?xml version="1.0" encoding="UTF-8" standalone="no"?>
<svg
   xmlns:dc="http://purl.org/dc/elements/1.1/"
   xmlns:cc="http://creativecommons.org/ns#"
   xmlns:rdf="http://www.w3.org/1999/02/22-rdf-syntax-ns#"
   xmlns:svg="http://www.w3.org/2000/svg"
   xmlns="http://www.w3.org/2000/svg"
   xmlns:sodipodi="http://sodipodi.sourceforge.net/DTD/sodipodi-0.dtd"
   xmlns:inkscape="http://www.inkscape.org/namespaces/inkscape"
   version="1.1"
   id="Capa_1"
   x="0px"
   y="0px"
   viewBox="0 0 128 128"
   xml:space="preserve"
   sodipodi:docname="calendar.svg"
   inkscape:version="1.0.2 (e86c870879, 2021-01-15)"
   width="128"
   height="128"><metadata
   id="metadata67"><rdf:RDF><cc:Work
       rdf:about=""><dc:format>image/svg+xml</dc:format><dc:type
         rdf:resource="http://purl.org/dc/dcmitype/StillImage" /><dc:title></dc:title></cc:Work></rdf:RDF></metadata><defs
   id="defs65" /><sodipodi:namedview
   pagecolor="#ffffff"
   bordercolor="#666666"
   borderopacity="1"
   objecttolerance="10"
   gridtolerance="10"
   guidetolerance="10"
   inkscape:pageopacity="0"
   inkscape:pageshadow="2"
   inkscape:window-width="1920"
   inkscape:window-height="1016"
   id="namedview63"
   showgrid="false"
   inkscape:zoom="1.8282918"
   inkscape:cx="128.89865"
   inkscape:cy="177.57522"
   inkscape:window-x="0"
   inkscape:window-y="27"
   inkscape:window-maximized="1"
   inkscape:current-layer="Capa_1"
   inkscape:document-rotation="0" />
<g
   id="g30"
   transform="matrix(0.4200014,0,0,0.4200014,1,1.0000721)">
	<g
   id="g4"
   style="fill:#008080;fill-opacity:0.972549">
		<path
   d="m 63.784,170.838 h 34.595 c 1.792,0 3.241,-1.452 3.241,-3.244 V 133 c 0,-1.792 -1.449,-3.244 -3.241,-3.244 H 63.784 c -1.792,0 -3.242,1.452 -3.242,3.244 v 34.594 c 0,1.792 1.45,3.244 3.242,3.244 z"
   id="path2"
   style="fill:#008080;fill-opacity:0.972549" />
	</g>
	<g
   id="g8"
   style="fill:#0000d4">
		<path
   d="m 132.7,170.838 h 34.601 c 1.785,0 3.241,-1.452 3.241,-3.244 V 133 c 0,-1.792 -1.456,-3.244 -3.241,-3.244 H 132.7 c -1.787,0 -3.242,1.452 -3.242,3.244 v 34.594 c 0,1.792 1.455,3.244 3.242,3.244 z"
   id="path6"
   style="fill:#0000d4" />
	</g>
	<g
   id="g12"
   style="fill:#008000">
		<path
   d="m 201.621,170.838 h 34.595 c 1.792,0 3.241,-1.452 3.241,-3.244 V 133 c 0,-1.792 -1.449,-3.244 -3.241,-3.244 h -34.595 c -1.792,0 -3.241,1.452 -3.241,3.244 v 34.594 c 0,1.792 1.449,3.244 3.241,3.244 z"
   id="path10"
   style="fill:#008000" />
	</g>
	<g
   id="g16"
   style="fill:#000080">
		<path
   d="m 63.784,239.757 h 34.595 c 1.792,0 3.241,-1.453 3.241,-3.245 v -34.593 c 0,-1.792 -1.449,-3.245 -3.241,-3.245 H 63.784 c -1.792,0 -3.242,1.453 -3.242,3.245 v 34.593 c 0,1.792 1.45,3.245 3.242,3.245 z"
   id="path14"
   style="fill:#000080" />
	</g>
	<g
   id="g20"
   style="fill:#8080ff">
		<path
   d="m 132.7,239.757 h 34.601 c 1.785,0 3.241,-1.453 3.241,-3.245 v -34.593 c 0,-1.792 -1.456,-3.245 -3.241,-3.245 H 132.7 c -1.787,0 -3.242,1.453 -3.242,3.245 v 34.593 c 0,1.792 1.455,3.245 3.242,3.245 z"
   id="path18"
   style="fill:#8080ff;fill-opacity:0.972549" />
	</g>
	<g
   id="g24"
   style="fill:#0000aa;fill-opacity:0.972549">
		<path
   d="m 201.621,239.757 h 34.595 c 1.792,0 3.241,-1.453 3.241,-3.245 v -34.593 c 0,-1.792 -1.449,-3.245 -3.241,-3.245 h -34.595 c -1.792,0 -3.241,1.453 -3.241,3.245 v 34.593 c 0,1.792 1.449,3.245 3.241,3.245 z"
   id="path22"
   style="fill:#0000aa;fill-opacity:0.972549" />
	</g>
	<g
   id="g28"
   style="fill:#fe9e14;fill-opacity:1">
		<path
   d="M 291.894,5.676 H 255 v 8.976 c 0,10.275 -8.328,18.605 -18.605,18.605 h -2.79 C 223.329,33.257 215,24.928 215,14.652 V 5.676 h -45 v 8.976 c 0,10.275 -8.328,18.605 -18.605,18.605 h -2.79 C 138.329,33.257 130,24.928 130,14.652 V 5.676 H 85 v 8.976 c 0,10.275 -8.328,18.605 -18.605,18.605 h -2.79 C 53.328,33.256 45,24.927 45,14.651 V 5.676 H 8.106 C 3.629,5.676 0,9.307 0,13.783 v 272.433 c 0,4.478 3.629,8.108 8.106,8.108 h 283.787 c 4.478,0 8.106,-3.631 8.106,-8.108 V 13.783 C 300,9.307 296.371,5.676 291.894,5.676 Z M 275.674,270 H 24.326 V 98.918 h 251.348 z"
   id="path26"
   style="fill:#fe9e14;fill-opacity:1" />
	</g>
</g>
<g
   id="g32">
</g>
<g
   id="g34">
</g>
<g
   id="g36">
</g>
<g
   id="g38">
</g>
<g
   id="g40">
</g>
<g
   id="g42">
</g>
<g
   id="g44">
</g>
<g
   id="g46">
</g>
<g
   id="g48">
</g>
<g
   id="g50">
</g>
<g
   id="g52">
</g>
<g
   id="g54">
</g>
<g
   id="g56">
</g>
<g
   id="g58">
</g>
<g
   id="g60">
</g>
</svg>
