<?xml version="1.0" encoding="UTF-8" standalone="no"?>
<!-- Generator: Adobe Illustrator 18.0.0, SVG Export Plug-In . SVG Version: 6.00 Build 0)  -->

<svg
   xmlns:dc="http://purl.org/dc/elements/1.1/"
   xmlns:cc="http://creativecommons.org/ns#"
   xmlns:rdf="http://www.w3.org/1999/02/22-rdf-syntax-ns#"
   xmlns:svg="http://www.w3.org/2000/svg"
   xmlns="http://www.w3.org/2000/svg"
   xmlns:sodipodi="http://sodipodi.sourceforge.net/DTD/sodipodi-0.dtd"
   xmlns:inkscape="http://www.inkscape.org/namespaces/inkscape"
   version="1.1"
   id="Capa_1"
   x="0px"
   y="0px"
   viewBox="0 0 300 300"
   style="enable-background:new 0 0 300 300;"
   xml:space="preserve"
   sodipodi:docname="calendar-small-page-svgrepo-com.svg"
   inkscape:version="0.92.4 (5da689c313, 2019-01-14)"><metadata
   id="metadata67"><rdf:RDF><cc:Work
       rdf:about=""><dc:format>image/svg+xml</dc:format><dc:type
         rdf:resource="http://purl.org/dc/dcmitype/StillImage" /></cc:Work></rdf:RDF></metadata><defs
   id="defs65" /><sodipodi:namedview
   pagecolor="#ffffff"
   bordercolor="#666666"
   borderopacity="1"
   objecttolerance="10"
   gridtolerance="10"
   guidetolerance="10"
   inkscape:pageopacity="0"
   inkscape:pageshadow="2"
   inkscape:window-width="1920"
   inkscape:window-height="986"
   id="namedview63"
   showgrid="false"
   inkscape:zoom="0.39333333"
   inkscape:cx="369.69146"
   inkscape:cy="178.34342"
   inkscape:window-x="-11"
   inkscape:window-y="-11"
   inkscape:window-maximized="1"
   inkscape:current-layer="Capa_1" />
<g
   id="g30">
	<g
   id="g4"
   style="fill:#008080;fill-opacity:0.97254902">
		<path
   d="M63.784,170.838h34.595c1.792,0,3.241-1.452,3.241-3.244V133c0-1.792-1.449-3.244-3.241-3.244H63.784    c-1.792,0-3.242,1.452-3.242,3.244v34.594C60.542,169.386,61.992,170.838,63.784,170.838z"
   id="path2"
   style="fill:#008080;fill-opacity:0.97254902" />
	</g>
	<g
   id="g8"
   style="fill:#0000d4">
		<path
   d="M132.7,170.838h34.601c1.785,0,3.241-1.452,3.241-3.244V133c0-1.792-1.456-3.244-3.241-3.244H132.7    c-1.787,0-3.242,1.452-3.242,3.244v34.594C129.458,169.386,130.913,170.838,132.7,170.838z"
   id="path6"
   style="fill:#0000d4" />
	</g>
	<g
   id="g12"
   style="fill:#008000">
		<path
   d="M201.621,170.838h34.595c1.792,0,3.241-1.452,3.241-3.244V133c0-1.792-1.449-3.244-3.241-3.244h-34.595    c-1.792,0-3.241,1.452-3.241,3.244v34.594C198.38,169.386,199.829,170.838,201.621,170.838z"
   id="path10"
   style="fill:#008000" />
	</g>
	<g
   id="g16"
   style="fill:#000080">
		<path
   d="M63.784,239.757h34.595c1.792,0,3.241-1.453,3.241-3.245v-34.593c0-1.792-1.449-3.245-3.241-3.245H63.784    c-1.792,0-3.242,1.453-3.242,3.245v34.593C60.542,238.304,61.992,239.757,63.784,239.757z"
   id="path14"
   style="fill:#000080" />
	</g>
	<g
   id="g20"
   style="fill:#8080ff">
		<path
   d="M132.7,239.757h34.601c1.785,0,3.241-1.453,3.241-3.245v-34.593c0-1.792-1.456-3.245-3.241-3.245H132.7    c-1.787,0-3.242,1.453-3.242,3.245v34.593C129.458,238.304,130.913,239.757,132.7,239.757z"
   id="path18"
   style="fill:#8080ff;fill-opacity:0.97254902" />
	</g>
	<g
   id="g24"
   style="fill:#0000aa;fill-opacity:0.97254902">
		<path
   d="M201.621,239.757h34.595c1.792,0,3.241-1.453,3.241-3.245v-34.593c0-1.792-1.449-3.245-3.241-3.245h-34.595    c-1.792,0-3.241,1.453-3.241,3.245v34.593C198.38,238.304,199.829,239.757,201.621,239.757z"
   id="path22"
   style="fill:#0000aa;fill-opacity:0.97254902" />
	</g>
	<g
   id="g28"
   style="fill:#fe9e14;fill-opacity:1">
		<path
   d="M291.894,5.676H255v8.976c0,10.275-8.328,18.605-18.605,18.605h-2.79c-10.276,0-18.605-8.329-18.605-18.605V5.676h-45    v8.976c0,10.275-8.328,18.605-18.605,18.605h-2.79c-10.276,0-18.605-8.329-18.605-18.605V5.676H85v8.976    c0,10.275-8.328,18.605-18.605,18.605h-2.79C53.328,33.256,45,24.927,45,14.651V5.676H8.106C3.629,5.676,0,9.307,0,13.783v272.433    c0,4.478,3.629,8.108,8.106,8.108h283.787c4.478,0,8.106-3.631,8.106-8.108V13.783C300,9.307,296.371,5.676,291.894,5.676z     M275.674,270H24.326V98.918h251.348V270z"
   id="path26"
   style="fill:#fe9e14;fill-opacity:1" />
	</g>
</g>
<g
   id="g32">
</g>
<g
   id="g34">
</g>
<g
   id="g36">
</g>
<g
   id="g38">
</g>
<g
   id="g40">
</g>
<g
   id="g42">
</g>
<g
   id="g44">
</g>
<g
   id="g46">
</g>
<g
   id="g48">
</g>
<g
   id="g50">
</g>
<g
   id="g52">
</g>
<g
   id="g54">
</g>
<g
   id="g56">
</g>
<g
   id="g58">
</g>
<g
   id="g60">
</g>
</svg>