<svg xmlns="http://www.w3.org/2000/svg" xml:space="preserve" viewBox="0 0 128 128">
  <path fill="teal" fill-opacity=".973" d="M27.79 72.752h14.53c.752 0 1.36-.61 1.36-1.362V56.86a1.36 1.36 0 0 0-1.36-1.362H27.79c-.753 0-1.362.61-1.362 1.362v14.53c0 .752.609 1.362 1.361 1.362z"/>
  <path fill="#0000d4" d="M56.734 72.752h14.533c.75 0 1.36-.61 1.36-1.362V56.86c0-.752-.61-1.362-1.36-1.362H56.734c-.75 0-1.361.61-1.361 1.362v14.53c0 .752.61 1.362 1.361 1.362z"/>
  <path fill="green" d="M85.681 72.752h14.53a1.36 1.36 0 0 0 1.361-1.362V56.86a1.36 1.36 0 0 0-1.36-1.362h-14.53c-.754 0-1.362.61-1.362 1.362v14.53a1.36 1.36 0 0 0 1.361 1.362z"/>
  <path fill="navy" d="M27.79 101.698h14.53c.752 0 1.36-.61 1.36-1.363V85.806c0-.752-.608-1.363-1.36-1.363H27.79c-.753 0-1.362.61-1.362 1.363v14.53c0 .752.609 1.362 1.361 1.362z"/>
  <path fill="#8080ff" fill-opacity=".973" d="M56.734 101.698h14.533c.75 0 1.36-.61 1.36-1.363V85.806c0-.752-.61-1.363-1.36-1.363H56.734c-.75 0-1.361.61-1.361 1.363v14.53c0 .752.61 1.362 1.361 1.362z"/>
  <path fill="#00a" fill-opacity=".973" d="M85.681 101.698h14.53c.753 0 1.361-.61 1.361-1.363V85.806c0-.752-.608-1.363-1.36-1.363h-14.53c-.754 0-1.362.61-1.362 1.363v14.53a1.36 1.36 0 0 0 1.361 1.362z"/>
  <path fill="#fe9e14" d="M123.596 3.384H108.1v3.77a7.814 7.814 0 0 1-7.814 7.814h-1.172A7.814 7.814 0 0 1 91.3 7.154v-3.77H72.4v3.77a7.814 7.814 0 0 1-7.814 7.814h-1.172A7.814 7.814 0 0 1 55.6 7.154v-3.77H36.7v3.77a7.814 7.814 0 0 1-7.814 7.814h-1.172A7.814 7.814 0 0 1 19.9 7.154v-3.77H4.405A3.405 3.405 0 0 0 1 6.789v114.422a3.405 3.405 0 0 0 3.405 3.406h119.19A3.405 3.405 0 0 0 127 121.21V6.79a3.404 3.404 0 0 0-3.404-3.405ZM116.783 114.4H11.217V42.546h105.566z"/>
</svg>
