<svg xmlns="http://www.w3.org/2000/svg" viewBox="0 0 128 128">
  <g fill="#3eb500" image-rendering="optimizeQuality" shape-rendering="geometricPrecision" text-rendering="geometricPrecision">
    <g fill="navy" stroke-width="1.88">
      <path stroke="navy" stroke-linecap="round" stroke-linejoin="round" stroke-width="2.455" d="M37.498 45.093c-15.997 9.237 8.412 54.997 25.917 44.89 3.11 5.384 13.123 22.728 16.231 28.112-7.386 4.264-13.638 6.953-22.2 2.058-24.367-9.134-49.961-50.085-49.201-85.931.258-9.387 5.789-13.065 13.023-17.242L37.5 45.093z" class="fil0"/>
      <path d="M45.662 44.173a3.631 3.631 0 0 1-4.95-1.327L25.41 16.343a3.632 3.632 0 0 1 1.326-4.95l8.042-4.644a3.632 3.632 0 0 1 4.952 1.327l15.3 26.502a3.632 3.632 0 0 1-1.326 4.951l-8.042 4.643zm41.802 72.401a3.631 3.631 0 0 1-4.95-1.326L67.211 88.745a3.631 3.631 0 0 1 1.326-4.95l8.042-4.644a3.632 3.632 0 0 1 4.952 1.327l15.302 26.502a3.632 3.632 0 0 1-1.326 4.951l-8.042 4.643z" class="fil0"/>
    </g>
    <g fill="none" stroke="navy" stroke-linecap="round" stroke-width="6.001">
      <path d="M66.527 28.48c17.48 4.685 30.278 26.85 25.593 44.331"/>
      <path d="M72.332 17.74c21.852 5.855 37.848 33.562 31.993 55.414"/>
      <path d="M78.138 7c26.221 7.026 45.417 40.274 38.39 66.495"/>
    </g>
  </g>
</svg>
