<svg xmlns="http://www.w3.org/2000/svg" xml:space="preserve" viewBox="0 0 128 128">
  <path fill="#ce0909" d="M128 82.787C128 107.767 107.768 128 82.787 128H45.213C20.233 128 0 107.768 0 82.787V45.213C0 20.233 20.232 0 45.213 0h37.574C107.767 0 128 20.232 128 45.213Z"/>
  <path fill="#b70000" d="M0 45.213C0 20.233 20.232 0 45.213 0h37.574C107.767 0 128 20.232 128 45.213v37.574C128 107.767 107.768 128 82.787 128"/>
  <g fill="#960000">
    <path d="M82.787 0C107.767 0 128 20.232 128 45.213v37.574C128 107.767 107.768 128 82.787 128"/>
    <path d="m68.335 67.716 17.342-17.342c1.24-1.239 1.24-3.097 0-4.335-1.238-1.239-3.096-1.239-4.335 0L64 63.38 46.658 46.039c-1.239-1.239-3.097-1.239-4.335 0-1.24 1.238-1.24 3.096 0 4.335l17.342 17.342-17.342 17.342c-1.24 1.239-1.24 3.097 0 4.336.619.619 1.445.825 2.064.825.62 0 1.445-.206 2.065-.825l17.342-17.342 17.341 17.342c.62.619 1.446.825 2.065.825.62 0 1.445-.206 2.065-.825 1.238-1.24 1.238-3.097 0-4.336z"/>
  </g>
  <path fill="#fff" d="m68.335 64 17.342-17.342c1.24-1.239 1.24-3.097 0-4.335-1.238-1.24-3.096-1.24-4.335 0L64 59.665 46.658 42.323c-1.239-1.24-3.097-1.24-4.335 0-1.24 1.238-1.24 3.096 0 4.335L59.665 64 42.323 81.342c-1.24 1.239-1.24 3.097 0 4.335.619.62 1.445.826 2.064.826.62 0 1.445-.206 2.065-.826l17.342-17.342 17.341 17.342c.62.62 1.446.826 2.065.826.62 0 1.445-.206 2.065-.826 1.238-1.238 1.238-3.096 0-4.335z"/>
</svg>
