<svg xmlns="http://www.w3.org/2000/svg" xml:space="preserve" viewBox="0 0 128 128">
  <path fill="#ececec" d="M25 37.5v81c0 2.587 1.402 4 4 4h70c2.51 0 4-1.702 4-4v-81c0-2.688-1.524-4-4-4H29c-2.385 0-4 1.497-4 4z"/>
  <text xml:space="preserve" x="43.136" y="62.369" font-family="sans-serif" font-size="4" font-weight="400" letter-spacing="0" style="line-height:1.25;white-space:pre;inline-size:59.9132" transform="translate(-6.16 -11.83)" word-spacing="0"><tspan x="43.136" y="62.369"><tspan style="-inkscape-font-specification:sans-serif">Aliquam tincidunt mauris eu </tspan></tspan><tspan x="43.136" y="67.369"><tspan style="-inkscape-font-specification:sans-serif">risus.</tspan></tspan></text>
  <text xml:space="preserve" x="36.978" y="63.539" font-family="sans-serif" font-size="4" letter-spacing="0" style="line-height:1.25" word-spacing="0"><tspan x="36.978" y="63.539">Vestibulum auctor dapibus</tspan><tspan x="36.978" y="68.539">neque.</tspan></text>
  <text xml:space="preserve" x="36.978" y="76.539" font-family="sans-serif" font-size="4" letter-spacing="0" style="line-height:1.25" word-spacing="0"><tspan x="36.978" y="76.539">Nunc dignissim risus id metus.</tspan></text>
  <text xml:space="preserve" x="36.978" y="86.539" font-family="sans-serif" font-size="4" letter-spacing="0" style="line-height:1.25" word-spacing="0"><tspan x="36.978" y="86.539">Cras ornare tristique elit.</tspan></text>
  <text xml:space="preserve" x="36.978" y="95.039" font-family="sans-serif" font-size="4" letter-spacing="0" style="line-height:1.25;white-space:pre;inline-size:64.3061" transform="translate(0 1.5)" word-spacing="0"><tspan x="36.978" y="95.039"><tspan>Vivamus vestibulum ntulla nec </tspan></tspan><tspan x="36.978" y="100.039"><tspan>ante.</tspan></tspan></text>
  <text xml:space="preserve" x="36.784" y="108.039" font-family="sans-serif" font-size="4" letter-spacing="0" style="line-height:1.25;white-space:pre;inline-size:62.2875" transform="translate(0 1.5)" word-spacing="0"><tspan x="36.784" y="108.039"><tspan>Praesent placerat risus quis </tspan></tspan><tspan x="36.784" y="113.039"><tspan>eros.</tspan></tspan></text>
  <circle cx="33.12" cy="49.167" r="1.167" fill="navy"/>
  <circle cx="33.12" cy="62.167" r="1.167" fill="navy"/>
  <circle cx="33.12" cy="75.167" r="1.167" fill="navy"/>
  <circle cx="33.12" cy="85.167" r="1.167" fill="navy"/>
  <circle cx="33.12" cy="95.167" r="1.167" fill="navy"/>
  <circle cx="33.12" cy="108.167" r="1.167" fill="navy"/>
  <text xml:space="preserve" x="43.136" y="62.369" font-family="sans-serif" font-size="4" font-weight="400" letter-spacing="0" style="line-height:1.25;white-space:pre;inline-size:59.9132" transform="translate(-6.16 -21.83)" word-spacing="0"><tspan x="43.136" y="62.369"><tspan>Lorem ipsum dolor</tspan></tspan></text>
  <circle cx="33.12" cy="39.167" r="1.167" fill="navy"/>
  <path fill="#520" d="M74.226 68.375s37.02-51.633 37.708-58.268c.687-6.634-4.057-9.814-9.945-7.185-5.887 2.628-43.674 53.955-43.674 53.955Z"/>
  <path fill="#f4e3d7" stroke="#000" stroke-linecap="round" stroke-linejoin="round" stroke-width=".912" d="M37.703 51.962s1.334 9.148 4.476 12.092c4.713 4.416 18.576 5.56 18.576 5.56S54.99 88.24 47.18 92.431c-7.812 4.193-26.615-1.246-26.615-1.246s6.657-12.157 5.539-18.503c-.745-4.23-7.692-10.366-7.692-10.366z" transform="matrix(.58527 1.20714 -1.21457 .58354 111.33 6.334)"/>
  <path fill="none" stroke="#000" stroke-linecap="round" stroke-linejoin="round" stroke-width=".912" d="M28.818 68.119s3.601 8.33 3.818 12.762c.2 4.066-2.343 11.982-2.343 11.982m6.563-29.058s5.247 7.45 8.897 10.036c3.332 2.361 11.346 4.635 11.346 4.635M33.337 68.8s3.89 8.268 5.158 12.635C39.68 85.514 40.75 93.97 40.75 93.97m-5.805-26.033s4.805 7.777 7.774 11.232c2.772 3.226 9.284 8.761 9.284 8.761" transform="matrix(.58527 1.20714 -1.21457 .58354 111.33 6.334)"/>
  <path fill="#520" d="M73.195 84.27s4.04-4.013 2.668-8.872c-1.372-4.86-19.62-17.813-24.71-17.856-5.09-.044-7.611 5.302-7.611 5.302z"/>
  <path fill="none" stroke="#000" stroke-linecap="round" stroke-linejoin="round" stroke-width="4" d="M68.732 32H31.3c-3.708 0-6.98 3.419-6.98 8v38M70 124h27.432c3.708 0 6.98-3.419 6.98-8V40"/>
</svg>
