<?xml version="1.0" encoding="UTF-8" standalone="no"?>
<svg
   xmlns:dc="http://purl.org/dc/elements/1.1/"
   xmlns:cc="http://creativecommons.org/ns#"
   xmlns:rdf="http://www.w3.org/1999/02/22-rdf-syntax-ns#"
   xmlns:svg="http://www.w3.org/2000/svg"
   xmlns="http://www.w3.org/2000/svg"
   xmlns:sodipodi="http://sodipodi.sourceforge.net/DTD/sodipodi-0.dtd"
   xmlns:inkscape="http://www.inkscape.org/namespaces/inkscape"
   version="1.1"
   id="Layer_1"
   x="0px"
   y="0px"
   viewBox="0 0 128 128"
   xml:space="preserve"
   sodipodi:docname="clear.svg"
   width="128"
   height="128"
   inkscape:version="1.0.2 (e86c870879, 2021-01-15)"><metadata
   id="metadata49"><rdf:RDF><cc:Work
       rdf:about=""><dc:format>image/svg+xml</dc:format><dc:type
         rdf:resource="http://purl.org/dc/dcmitype/StillImage" /><dc:title></dc:title></cc:Work></rdf:RDF></metadata><defs
   id="defs47" /><sodipodi:namedview
   pagecolor="#ffffff"
   bordercolor="#666666"
   borderopacity="1"
   objecttolerance="10"
   gridtolerance="10"
   guidetolerance="10"
   inkscape:pageopacity="0"
   inkscape:pageshadow="2"
   inkscape:window-width="1920"
   inkscape:window-height="1016"
   id="namedview45"
   showgrid="false"
   inkscape:zoom="4.5243785"
   inkscape:cx="7.3921714"
   inkscape:cy="57.910558"
   inkscape:window-x="0"
   inkscape:window-y="36"
   inkscape:window-maximized="1"
   inkscape:current-layer="Layer_1"
   inkscape:document-rotation="0" />




<path
   style="fill:#ececec;fill-opacity:1;stroke:none;stroke-width:1px;stroke-linecap:round;stroke-linejoin:round;stroke-opacity:1"
   d="m 24.999798,37.5 3.97e-4,81 c 0,2.58655 1.40222,4 3.999805,4 h 70 c 2.5105,0 4,-1.70234 4,-4 v -81 c 0,-2.687676 -1.5235,-4 -4,-4 H 29 c -2.384827,0 -4.000214,1.497124 -4.000202,4 z"
   id="path1121"
   sodipodi:nodetypes="ccccccccc" /><text
   xml:space="preserve"
   style="font-style:normal;font-weight:normal;font-size:4px;line-height:1.25;font-family:sans-serif;letter-spacing:0px;word-spacing:0px;white-space:pre;inline-size:59.9132;fill:#000000;fill-opacity:1;stroke:none"
   x="43.136318"
   y="62.369263"
   id="text1193-5-3"
   transform="translate(-6.1592864,-11.8302)"><tspan
     x="43.136318"
     y="62.369263"><tspan
       style="font-style:normal;font-variant:normal;font-weight:normal;font-stretch:normal;font-size:4px;font-family:sans-serif;-inkscape-font-specification:sans-serif;stroke:none">Aliquam tincidunt mauris eu </tspan></tspan><tspan
     x="43.136318"
     y="67.369263"><tspan
       style="font-style:normal;font-variant:normal;font-weight:normal;font-stretch:normal;font-size:4px;font-family:sans-serif;-inkscape-font-specification:sans-serif;stroke:none">risus.</tspan></tspan></text><text
   xml:space="preserve"
   style="font-size:4px;line-height:1.25;font-family:sans-serif;letter-spacing:0px;word-spacing:0px;stroke:none"
   x="36.977749"
   y="63.539059"
   id="text1279"><tspan
     sodipodi:role="line"
     id="tspan1277"
     x="36.977749"
     y="63.539059"
     style="font-size:4px;stroke:none">Vestibulum auctor dapibus</tspan><tspan
     sodipodi:role="line"
     x="36.977749"
     y="68.539062"
     style="font-size:4px;stroke:none"
     id="tspan1463">neque.</tspan></text><text
   xml:space="preserve"
   style="font-size:4px;line-height:1.25;font-family:sans-serif;letter-spacing:0px;word-spacing:0px;stroke:none"
   x="36.977753"
   y="76.539062"
   id="text1279-9"><tspan
     sodipodi:role="line"
     id="tspan1277-8"
     x="36.977753"
     y="76.539062"
     style="font-size:4px;stroke:none">Nunc dignissim risus id metus.</tspan></text><text
   xml:space="preserve"
   style="font-size:4px;line-height:1.25;font-family:sans-serif;letter-spacing:0px;word-spacing:0px;stroke:none"
   x="36.977753"
   y="86.539062"
   id="text1279-9-4"><tspan
     sodipodi:role="line"
     id="tspan1277-8-8"
     x="36.977753"
     y="86.539062"
     style="font-size:4px;stroke:none">Cras ornare tristique elit.</tspan></text><text
   xml:space="preserve"
   style="font-size:4px;line-height:1.25;font-family:sans-serif;letter-spacing:0px;word-spacing:0px;white-space:pre;inline-size:64.3061;stroke:none"
   x="36.977749"
   y="95.039062"
   id="text1279-9-4-1"
   transform="translate(0,1.5)"><tspan
     x="36.977749"
     y="95.039062"><tspan
       style="font-size:4px;stroke:none">Vivamus vestibulum ntulla nec </tspan></tspan><tspan
     x="36.977749"
     y="100.03906"><tspan
       style="font-size:4px;stroke:none">ante.</tspan></tspan></text><text
   xml:space="preserve"
   style="font-size:4px;line-height:1.25;font-family:sans-serif;letter-spacing:0px;word-spacing:0px;white-space:pre;inline-size:62.2875;stroke:none"
   x="36.784389"
   y="108.03906"
   id="text1279-9-4-1-3"
   transform="translate(0,1.5)"><tspan
     x="36.784389"
     y="108.03906"><tspan
       style="font-size:4px;stroke:none">Praesent placerat risus quis </tspan></tspan><tspan
     x="36.784389"
     y="113.03906"><tspan
       style="font-size:4px;stroke:none">eros.</tspan></tspan></text><ellipse
   style="fill:#000080;fill-opacity:1;stroke:none;stroke-width:1;stroke-linecap:round;stroke-linejoin:round;stroke-miterlimit:4;stroke-dasharray:none"
   id="path1187"
   cx="33.120197"
   cy="49.167336"
   rx="1.1673393"
   ry="1.1673392" /><ellipse
   style="fill:#000080;fill-opacity:1;stroke:none;stroke-width:1;stroke-linecap:round;stroke-linejoin:round;stroke-miterlimit:4;stroke-dasharray:none"
   id="path1187-5"
   cx="33.120342"
   cy="62.167339"
   rx="1.1673393"
   ry="1.1673392" /><ellipse
   style="fill:#000080;fill-opacity:1;stroke:none;stroke-width:1;stroke-linecap:round;stroke-linejoin:round;stroke-miterlimit:4;stroke-dasharray:none"
   id="path1187-6"
   cx="33.120342"
   cy="75.167336"
   rx="1.1673393"
   ry="1.1673392" /><ellipse
   style="fill:#000080;fill-opacity:1;stroke:none;stroke-width:1;stroke-linecap:round;stroke-linejoin:round;stroke-miterlimit:4;stroke-dasharray:none"
   id="path1187-5-1"
   cx="33.12048"
   cy="85.167336"
   rx="1.1673393"
   ry="1.1673392" /><ellipse
   style="fill:#000080;fill-opacity:1;stroke:none;stroke-width:1;stroke-linecap:round;stroke-linejoin:round;stroke-miterlimit:4;stroke-dasharray:none"
   id="path1187-6-4"
   cx="33.120342"
   cy="95.167336"
   rx="1.1673393"
   ry="1.1673392" /><ellipse
   style="fill:#000080;fill-opacity:1;stroke:none;stroke-width:1;stroke-linecap:round;stroke-linejoin:round;stroke-miterlimit:4;stroke-dasharray:none"
   id="path1187-5-1-4"
   cx="33.12048"
   cy="108.16734"
   rx="1.1673393"
   ry="1.1673392" /><text
   xml:space="preserve"
   style="font-style:normal;font-weight:normal;font-size:4px;line-height:1.25;font-family:sans-serif;letter-spacing:0px;word-spacing:0px;white-space:pre;inline-size:59.9132;fill:#000000;fill-opacity:1;stroke:none"
   x="43.136318"
   y="62.369263"
   id="text1193-5-3-7"
   transform="matrix(1.0000039,0,0,1.0000039,-6.1592924,-21.830432)"><tspan
     x="43.136318"
     y="62.369263"><tspan>Lorem ipsum dolor</tspan></tspan></text><ellipse
   style="fill:#000080;fill-opacity:1;stroke:none;stroke-width:1;stroke-linecap:round;stroke-linejoin:round;stroke-miterlimit:4;stroke-dasharray:none"
   id="path1187-4"
   cx="33.120342"
   cy="39.167343"
   rx="1.1673439"
   ry="1.1673437" /><g
   id="g14"
   transform="translate(0,-368)">
</g>
<g
   id="g16"
   transform="translate(0,-368)">
</g>
<g
   id="g18"
   transform="translate(0,-368)">
</g>
<g
   id="g20"
   transform="translate(0,-368)">
</g>
<g
   id="g22"
   transform="translate(0,-368)">
</g>
<g
   id="g24"
   transform="translate(0,-368)">
</g>
<g
   id="g26"
   transform="translate(0,-368)">
</g>
<g
   id="g28"
   transform="translate(0,-368)">
</g>
<g
   id="g30"
   transform="translate(0,-368)">
</g>
<g
   id="g32"
   transform="translate(0,-368)">
</g>
<g
   id="g34"
   transform="translate(0,-368)">
</g>
<g
   id="g36"
   transform="translate(0,-368)">
</g>
<g
   id="g38"
   transform="translate(0,-368)">
</g>
<g
   id="g40"
   transform="translate(0,-368)">
</g>
<g
   id="g42"
   transform="translate(0,-368)">
</g>


<g
   id="g1867"
   transform="matrix(0.5852698,1.2071395,-1.2145696,0.58353678,111.3302,6.3343806)"><path
     style="fill:#552200;stroke:none;stroke-width:0.912273px;stroke-linecap:butt;stroke-linejoin:round;stroke-opacity:1"
     d="m 29.706926,44.864189 c 0,0 -22.7412478,-41.4390115 -26.9770737,-44.04564484 C -1.5059736,-1.7880892 -5.1741684,0.35013622 -5.3083783,5.1327478 -5.4425882,9.9153591 16.845756,51.766915 16.845756,51.766915 Z"
     id="path1757"
     sodipodi:nodetypes="czzcc" /><path
     style="fill:#f4e3d7;fill-opacity:1;stroke:#000000;stroke-width:0.912273;stroke-linecap:round;stroke-linejoin:round;stroke-miterlimit:4;stroke-dasharray:none;stroke-opacity:1"
     d="m 37.702698,51.961677 c 0,0 1.33479,9.148324 4.4766,12.092329 4.712715,4.416008 18.576183,5.560289 18.576183,5.560289 0,0 -5.764986,18.624452 -13.576743,22.817105 -7.811757,4.192652 -26.614414,-1.246086 -26.614414,-1.246086 0,0 6.65642,-12.157522 5.538511,-18.5029 -0.745272,-4.230252 -7.691892,-10.366648 -7.691892,-10.366648 z"
     id="path1790"
     sodipodi:nodetypes="cacacac" /><path
     style="fill:none;stroke:#000000;stroke-width:0.912273;stroke-linecap:round;stroke-linejoin:round;stroke-miterlimit:4;stroke-dasharray:none;stroke-opacity:1"
     d="m 28.818184,68.118993 c 0,0 3.601056,8.330177 3.818007,12.761754 0.199078,4.066484 -2.343577,11.982163 -2.343577,11.982163"
     id="path1792"
     sodipodi:nodetypes="cac" /><path
     style="fill:none;stroke:#000000;stroke-width:0.912273;stroke-linecap:round;stroke-linejoin:round;stroke-miterlimit:4;stroke-dasharray:none;stroke-opacity:1"
     d="m 36.856416,63.804789 c 0,0 5.246219,7.44957 8.896186,10.036241 3.332114,2.361414 11.346637,4.63448 11.346637,4.63448"
     id="path1792-7"
     sodipodi:nodetypes="cac" /><path
     style="fill:none;stroke:#000000;stroke-width:0.912273;stroke-linecap:round;stroke-linejoin:round;stroke-miterlimit:4;stroke-dasharray:none;stroke-opacity:1"
     d="m 33.337244,68.799631 c 0,0 3.889328,8.268832 5.158248,12.635801 1.184976,4.078079 2.253941,12.534684 2.253941,12.534684"
     id="path1792-8"
     sodipodi:nodetypes="cac" /><path
     style="fill:none;stroke:#000000;stroke-width:0.912273;stroke-linecap:round;stroke-linejoin:round;stroke-miterlimit:4;stroke-dasharray:none;stroke-opacity:1"
     d="m 34.944892,67.936793 c 0,0 4.804742,7.77752 7.773617,11.232105 2.772473,3.226053 9.28445,8.761336 9.28445,8.761336"
     id="path1792-8-5"
     sodipodi:nodetypes="cac" /><path
     style="fill:#552200;stroke:none;stroke-width:0.83851px;stroke-linecap:butt;stroke-linejoin:round;stroke-opacity:1"
     d="m 40.054374,50.699507 c 0,0 -1.392378,-3.997864 -5.100305,-4.654918 -3.707926,-0.657053 -18.301874,7.335488 -19.974016,10.720266 -1.672142,3.384779 1.105518,6.798962 1.105518,6.798962 z"
     id="path1757-1"
     sodipodi:nodetypes="czzcc" /></g><path
   style="fill:none;stroke:#000000;stroke-width:4;stroke-linecap:round;stroke-linejoin:round;stroke-miterlimit:4;stroke-dasharray:none;stroke-opacity:1"
   d="M 68.731707,32 H 31.299579 c -3.7075,0 -6.979179,3.418735 -6.979179,8 l 0,38"
   id="path1952"
   sodipodi:nodetypes="cccc" /><path
   style="fill:none;stroke:#000000;stroke-width:4;stroke-linecap:round;stroke-linejoin:round;stroke-miterlimit:4;stroke-dasharray:none;stroke-opacity:1"
   d="m 70,124 h 27.432129 c 3.707501,0 6.979181,-3.41873 6.979181,-8 V 40"
   id="path1952-1"
   sodipodi:nodetypes="cccc" /></svg>
