<?xml version="1.0" encoding="UTF-8" standalone="no"?>
<svg
   xmlns:dc="http://purl.org/dc/elements/1.1/"
   xmlns:cc="http://creativecommons.org/ns#"
   xmlns:rdf="http://www.w3.org/1999/02/22-rdf-syntax-ns#"
   xmlns:svg="http://www.w3.org/2000/svg"
   xmlns="http://www.w3.org/2000/svg"
   xmlns:sodipodi="http://sodipodi.sourceforge.net/DTD/sodipodi-0.dtd"
   xmlns:inkscape="http://www.inkscape.org/namespaces/inkscape"
   version="1.1"
   id="Layer_1"
   x="0px"
   y="0px"
   viewBox="0 0 1558.3783 496"
   xml:space="preserve"
   sodipodi:docname="close.svg"
   width="1558.3783"
   height="496"
   inkscape:version="1.0.2 (e86c870879, 2021-01-15)"><metadata
   id="metadata49"><rdf:RDF><cc:Work
       rdf:about=""><dc:format>image/svg+xml</dc:format><dc:type
         rdf:resource="http://purl.org/dc/dcmitype/StillImage" /><dc:title /></cc:Work></rdf:RDF></metadata><defs
   id="defs47" /><sodipodi:namedview
   pagecolor="#ffffff"
   bordercolor="#666666"
   borderopacity="1"
   objecttolerance="10"
   gridtolerance="10"
   guidetolerance="10"
   inkscape:pageopacity="0"
   inkscape:pageshadow="2"
   inkscape:window-width="1920"
   inkscape:window-height="1016"
   id="namedview45"
   showgrid="false"
   inkscape:zoom="0.1954835"
   inkscape:cx="568.02665"
   inkscape:cy="656.18131"
   inkscape:window-x="0"
   inkscape:window-y="27"
   inkscape:window-maximized="1"
   inkscape:current-layer="Layer_1"
   inkscape:document-rotation="0" />



<g
   id="g65"><path
     id="path2"
     d="M 496,320.8 C 496,417.6 417.6,496 320.8,496 H 175.2 C 78.4,496 0,417.6 0,320.8 V 175.2 C 0,78.4 78.4,0 175.2,0 H 320.8 C 417.6,0 496,78.4 496,175.2 Z"
     style="fill:#ce0909"
     inkscape:connector-curvature="0" /><path
     id="path4"
     d="M 0,175.2 C 0,78.4 78.4,0 175.2,0 H 320.8 C 417.6,0 496,78.4 496,175.2 V 320.8 C 496,417.6 417.6,496 320.8,496"
     style="fill:#b70000"
     inkscape:connector-curvature="0" /><g
     id="g10">
	<path
   id="path6"
   d="M 320.8,0 C 417.6,0 496,78.4 496,175.2 V 320.8 C 496,417.6 417.6,496 320.8,496"
   style="fill:#960000"
   inkscape:connector-curvature="0" />
	<path
   id="path8"
   d="M 264.8,262.4 332,195.2 c 4.8,-4.8 4.8,-12 0,-16.8 -4.8,-4.8 -12,-4.8 -16.8,0 L 248,245.6 180.8,178.4 c -4.8,-4.8 -12,-4.8 -16.8,0 -4.8,4.8 -4.8,12 0,16.8 l 67.2,67.2 -67.2,67.2 c -4.8,4.8 -4.8,12 0,16.8 2.4,2.4 5.6,3.2 8,3.2 2.4,0 5.6,-0.8 8,-3.2 l 67.2,-67.2 67.2,67.2 c 2.4,2.4 5.6,3.2 8,3.2 2.4,0 5.6,-0.8 8,-3.2 4.8,-4.8 4.8,-12 0,-16.8 z"
   style="fill:#960000"
   inkscape:connector-curvature="0" />
</g><path
     id="path12"
     d="M 264.8,248 332,180.8 c 4.8,-4.8 4.8,-12 0,-16.8 -4.8,-4.8 -12,-4.8 -16.8,0 L 248,231.2 180.8,164 c -4.8,-4.8 -12,-4.8 -16.8,0 -4.8,4.8 -4.8,12 0,16.8 L 231.2,248 164,315.2 c -4.8,4.8 -4.8,12 0,16.8 2.4,2.4 5.6,3.2 8,3.2 2.4,0 5.6,-0.8 8,-3.2 l 67.2,-67.2 67.2,67.2 c 2.4,2.4 5.6,3.2 8,3.2 2.4,0 5.6,-0.8 8,-3.2 4.8,-4.8 4.8,-12 0,-16.8 z"
     style="fill:#ffffff"
     inkscape:connector-curvature="0" /></g>
<g
   id="g14">
</g>
<g
   id="g16">
</g>
<g
   id="g18">
</g>
<g
   id="g20">
</g>
<g
   id="g22">
</g>
<g
   id="g24">
</g>
<g
   id="g26">
</g>
<g
   id="g28">
</g>
<g
   id="g30">
</g>
<g
   id="g32">
</g>
<g
   id="g34">
</g>
<g
   id="g36">
</g>
<g
   id="g38">
</g>
<g
   id="g40">
</g>
<g
   id="g42">
</g>
<text
   xml:space="preserve"
   style="font-style:normal;font-variant:normal;font-weight:bold;font-stretch:normal;font-size:359.348px;line-height:1.25;font-family:Constantia;-inkscape-font-specification:'Constantia, Bold';font-variant-ligatures:normal;font-variant-caps:normal;font-variant-numeric:normal;font-feature-settings:normal;text-align:start;letter-spacing:0px;word-spacing:0px;writing-mode:lr-tb;text-anchor:start;fill:#aa0000;fill-opacity:1;stroke:none;stroke-width:7.48636"
   x="532.62915"
   y="369.68201"
   id="text4531"><tspan
     sodipodi:role="line"
     id="tspan4529"
     x="532.62915"
     y="369.68201"
     style="font-style:normal;font-variant:normal;font-weight:bold;font-stretch:normal;font-size:359.348px;font-family:Constantia;-inkscape-font-specification:'Constantia, Bold';font-variant-ligatures:normal;font-variant-caps:normal;font-variant-numeric:normal;font-feature-settings:normal;text-align:start;writing-mode:lr-tb;text-anchor:start;fill:#aa0000;fill-opacity:1;stroke-width:7.48636">Cerrar</tspan></text>

</svg>
