<?xml version="1.0" encoding="UTF-8" standalone="no"?>
<svg
   xmlns:dc="http://purl.org/dc/elements/1.1/"
   xmlns:cc="http://creativecommons.org/ns#"
   xmlns:rdf="http://www.w3.org/1999/02/22-rdf-syntax-ns#"
   xmlns:svg="http://www.w3.org/2000/svg"
   xmlns="http://www.w3.org/2000/svg"
   xmlns:sodipodi="http://sodipodi.sourceforge.net/DTD/sodipodi-0.dtd"
   xmlns:inkscape="http://www.inkscape.org/namespaces/inkscape"
   width="66.26947mm"
   height="20mm"
   viewBox="0 0 66.269471 20"
   version="1.1"
   id="svg8"
   inkscape:version="1.0.2 (e86c870879, 2021-01-15)"
   sodipodi:docname="clublogo-name.svg"
   inkscape:export-filename="C:\Users\SESA219410\Source\rails\bclub\app\assets\images\clublogo-name.png"
   inkscape:export-xdpi="90"
   inkscape:export-ydpi="90">
  <defs
     id="defs2" />
  <sodipodi:namedview
     id="base"
     pagecolor="#ffffff"
     bordercolor="#666666"
     borderopacity="1.0"
     inkscape:pageopacity="0.0"
     inkscape:pageshadow="2"
     inkscape:zoom="0.88041387"
     inkscape:cx="183.70353"
     inkscape:cy="231.92284"
     inkscape:document-units="mm"
     inkscape:current-layer="layer1"
     showgrid="false"
     inkscape:window-width="1920"
     inkscape:window-height="1016"
     inkscape:window-x="0"
     inkscape:window-y="27"
     inkscape:window-maximized="1"
     inkscape:document-rotation="0" />
  <metadata
     id="metadata5">
    <rdf:RDF>
      <cc:Work
         rdf:about="">
        <dc:format>image/svg+xml</dc:format>
        <dc:type
           rdf:resource="http://purl.org/dc/dcmitype/StillImage" />
        <dc:title />
      </cc:Work>
    </rdf:RDF>
  </metadata>
  <g
     inkscape:label="Layer 1"
     inkscape:groupmode="layer"
     id="layer1"
     transform="translate(-13.909526,-15.138089)">
    <text
       xml:space="preserve"
       style="font-style:normal;font-variant:normal;font-weight:bold;font-stretch:normal;font-size:16.7184px;line-height:1.25;font-family:Constantia;-inkscape-font-specification:'Constantia, Bold';font-variant-ligatures:normal;font-variant-caps:normal;font-variant-numeric:normal;font-feature-settings:normal;text-align:start;letter-spacing:0px;word-spacing:0px;writing-mode:lr-tb;text-anchor:start;fill:#fe9e14;fill-opacity:1;stroke:none;stroke-width:0.348299"
       x="37.101364"
       y="30.844213"
       id="text4531"><tspan
         sodipodi:role="line"
         id="tspan4529"
         x="37.101364"
         y="30.844213"
         style="font-style:normal;font-variant:normal;font-weight:bold;font-stretch:normal;font-size:16.7184px;font-family:Constantia;-inkscape-font-specification:'Constantia, Bold';font-variant-ligatures:normal;font-variant-caps:normal;font-variant-numeric:normal;font-feature-settings:normal;text-align:start;writing-mode:lr-tb;text-anchor:start;fill:#fe9e14;fill-opacity:1;stroke-width:0.348299">bClub</tspan></text>
    <g
       id="g909"
       transform="matrix(0.15873016,0,0,0.15873016,3.0714694,10.073842)">
      <circle
         style="fill:none;fill-opacity:1;stroke:#fe9e14;stroke-width:8.23393;stroke-linecap:square;stroke-linejoin:round;stroke-miterlimit:4;stroke-dasharray:none;stroke-opacity:1"
         id="path826-36"
         cx="131.27975"
         cy="94.904755"
         r="58.883034" />
      <circle
         style="fill:#ffffff;fill-opacity:1;stroke:none;stroke-width:0.291684;stroke-linecap:square;stroke-linejoin:round;stroke-miterlimit:4;stroke-dasharray:none;stroke-opacity:1"
         id="path826-3-7"
         cx="131.50117"
         cy="95.125084"
         r="55.121391" />
      <g
         id="g895"
         transform="matrix(0.74999896,0,0,0.74999896,-45.696615,35.384219)">
        <path
           d="m 298.25095,75.297763 c 0.29028,-0.35414 0.57814,-0.70828 0.84488,-1.06458 4.85777,-6.5219 8.57426,-19.2329 -14.47537,-19.2329 -6.45368,0 -14.78895,1.43367 -23.4507,3.82098 -0.14111,-13.74785 -6.7971,-25.904147 -17.01411,-33.605843 -0.29835,-0.253915 -0.58702,-0.514201 -0.91737,-0.731751 0.0484,0.04516 0.083,0.09604 0.12982,0.140787 -7.00199,-5.030632 -15.56344,-8.025973 -24.84599,-8.025973 -4.15385,0 -8.1561,0.622976 -11.95362,1.730214 -0.0161,-0.0043 -0.0403,-0.01048 -0.0565,-0.01532 0.0161,0.0043 0.0242,0.0129 0.0403,0.01935 -7.06166,2.060892 -13.3702,5.881874 -18.40085,10.980778 0,-0.0043 0,-0.0089 -0.004,-0.0129 0,0.0043 0.002,0.01048 0.004,0.01532 -7.3646,7.464883 -11.96645,17.632828 -12.24593,28.880288 -0.0161,-0.0258 -0.0242,-0.0492 -0.0403,-0.075 0.008,0.0427 0.0242,0.0853 0.0323,0.13014 -0.004,0.33705 -0.0484,0.66991 -0.0484,1.01551 0,14.58415 7.33041,27.44663 18.49253,35.14405 -0.008,-0.002 -0.0242,-0.002 -0.0323,-0.002 0.008,0.002 0.0242,0.002 0.0323,0.006 6.87395,4.73195 15.19438,7.520347 24.16972,7.520347 2.79903,0 5.52558,-0.28802 8.17319,-0.80214 -0.002,0.002 -0.002,0.002 -0.002,0.002 5.61735,6.92939 8.85165,13.28489 10.57334,18.78914 -3.40927,3.89566 -7.53103,7.92572 -12.54032,11.9131 -1.04114,0.83417 -1.16701,2.29557 -0.27093,3.26629 0.89609,0.97497 2.46627,1.09232 3.51168,0.25383 4.08337,-3.24921 7.5886,-6.5155 10.64156,-9.72419 1.47204,9.37431 -1.28006,15.23699 -1.49124,15.66794 -0.47977,0.95151 -0.21368,2.0865 0.65474,2.76066 0.45881,0.35842 1.0305,0.54186 1.6001,0.54186 0.50315,0 1.00485,-0.14079 1.43794,-0.42244 7.0873,-4.64875 13.04597,-9.20577 18.08299,-13.61558 1.36537,6.80992 0.36931,11.07039 0.3435,11.16639 -0.24512,0.92591 0.14111,1.89236 0.97495,2.44492 0.433,0.28585 0.93656,0.42672 1.44221,0.42672 0.47574,0 0.94938,-0.12587 1.36755,-0.37551 6.09736,-3.69512 11.51836,-7.43929 16.26317,-11.224 0.40317,5.10104 -0.49912,8.27986 -0.60798,8.63827 -0.38381,1.22673 0.37576,2.50892 1.69605,2.86947 0.2282,0.0621 0.46526,0.0918 0.69748,0.0918 1.07525,0 2.07156,-0.65499 2.38733,-1.66621 0.14756,-0.46719 1.68758,-5.70054 0.33705,-13.74998 1.83256,-1.63207 3.56707,-3.26842 5.15217,-4.91329 0.0403,0.51202 0.22416,1.02191 0.63136,1.42513 0.94511,0.9323 2.51956,0.97711 3.52232,0.1045 0.11289,-0.10022 6.38321,-5.79654 6.42377,-15.90047 1.99471,-3.89352 3.30678,-7.81264 3.92766,-11.755227 1.83474,-11.60374 -2.98046,-19.79399 -5.20135,-22.8512 m -13.63049,-13.74998 c 10.17009,0 8.64466,3.33669 5.6621,6.84406 -6.44505,7.58222 -24.08642,15.92181 -40.05092,19.35877 -0.004,0.002 -0.008,0.006 -0.008,0.0105 5.37408,-5.97575 9.0692,-13.46196 10.38764,-21.75888 8.75779,-2.70093 17.47075,-4.45461 24.01183,-4.45461 m -4.38421,27.11594 c -0.56928,4.10472 -2.24009,10.23834 -6.75654,17.698957 -2.63269,-3.53083 -5.88191,-7.191797 -9.87142,-10.925307 5.74749,-1.82836 11.43515,-4.12393 16.62796,-6.77365 m -29.66966,10.0954 c -0.41204,1.03045 -0.90027,2.154767 -1.4635,3.347357 -0.79182,-0.88964 -1.61292,-1.78355 -2.48763,-2.685987 1.29498,-0.18772 2.61777,-0.40962 3.95113,-0.66136 m -10.50931,-7.71449 c -2.34249,-0.92165 -4.53783,-2.14197 -6.60084,-3.55857 -0.004,-0.004 -0.008,-0.009 -0.0161,-0.0129 0.38382,-0.23465 0.78054,-0.44591 1.15637,-0.69547 1.57446,-1.06458 3.04441,-2.2849 4.43324,-3.58843 0.42656,0.2923 0.87262,0.55895 1.34836,0.78722 2.2188,1.01552 4.56766,1.13286 6.80355,0.7574 -2.11212,2.37664 -4.4888,4.51435 -7.12786,6.3107 m 16.86696,-31.7775 c 0,9.43618 -3.43483,18.07659 -9.10548,24.76917 -2.41724,0.1707 -4.80029,-0.1195 -6.73098,-1.37393 -0.30318,-0.18772 -0.58459,-0.3968 -0.8598,-0.61234 1.5297,-1.56807 2.92918,-3.25989 4.15804,-5.07331 5.17572,-7.76996 7.25583,-17.17627 6.94224,-26.24762 -0.14756,-4.55275 -0.88544,-9.07776 -2.2679,-13.400101 -0.28383,-0.851242 -0.61201,-1.685413 -0.94938,-2.51532 5.50002,6.647781 8.81326,15.170851 8.81326,24.453411 m -38.4018,-38.4018 c 10.81862,0 20.58764,4.51435 27.57463,11.736018 0.63781,1.674746 1.12218,3.413499 1.5318,5.128779 0.99203,4.269003 1.37819,8.663863 1.31844,13.018213 -0.17498,8.68307 -2.29984,17.42375 -7.10649,24.52381 -1.07945,1.64914 -2.31903,3.17028 -3.6673,4.58902 -1.14573,-1.59154 -1.97988,-3.47536 -2.65188,-5.37412 -1.10936,-3.27909 -1.89022,-6.72885 -2.56013,-10.21701 l -2.06946,-10.53703 c -1.5318,-7.01473 -3.36863,-14.18947 -7.09794,-20.604705 -1.84966,-3.191611 -4.22416,-6.129355 -7.12141,-8.422795 -1.65339,-1.267255 -3.45612,-2.314776 -5.33779,-3.142546 2.33185,-0.44163 4.72981,-0.697642 7.18753,-0.697642 m -8.2265,0.910975 c 5.03913,2.905741 8.90277,7.390216 11.39887,12.493387 3.08924,6.242426 4.74691,13.150486 6.20404,20.099076 1.55526,6.93579 2.60068,14.10413 5.40189,20.97806 0.85125,2.02889 1.96488,4.12606 3.50305,5.85413 -1.78354,1.67475 -3.73777,3.16816 -5.82853,4.46742 -1.94996,-1.45501 -3.85082,-2.97827 -5.66637,-4.59755 -5.13516,-4.64875 -9.87779,-9.74766 -14.29829,-15.10471 -4.45888,-5.33145 -8.59346,-10.93812 -12.41235,-16.74959 -1.89021,-2.91854 -3.71213,-5.88401 -5.33569,-8.96255 -1.19048,-2.186769 -2.25928,-4.439675 -3.09561,-6.792857 5.26103,-5.775204 12.231,-9.952465 20.12899,-11.684816 M 180.1108,59.266173 c 0,-9.71992 3.65884,-18.58007 9.6325,-25.35159 0.49913,2.372373 1.30562,4.693551 2.14833,6.96566 1.32916,3.29615 2.90571,6.48563 4.65305,9.57058 3.48176,6.18696 7.59287,11.98989 12.09658,17.46855 4.55274,5.43172 9.50865,10.56903 15.11536,14.97884 1.72378,1.3654 3.52442,2.63905 5.38907,3.81885 -2.46626,1.35259 -5.07549,2.47905 -7.78494,3.31535 -0.0484,0.0153 -0.0919,0.0234 -0.13466,0.0363 -1.71314,-1.12431 -3.54571,-2.03316 -5.38262,-2.82466 -5.26958,-2.25504 -10.63728,-3.85725 -15.61246,-6.19763 -5.00502,-2.25077 -9.61323,-5.22691 -13.44495,-9.11829 -2.49182,-2.52385 -4.59112,-5.43812 -6.44723,-8.5508 -0.14514,-1.35473 -0.22819,-2.72226 -0.22819,-4.11113 m 0.90245,8.20305 c 1.13073,2.13131 2.43216,4.1858 4.00871,6.05682 3.72076,4.51008 8.69594,7.88731 13.92705,10.30022 5.2632,2.40864 10.77387,3.90845 16.03063,5.64506 1.20757,0.41817 2.40441,0.85337 3.57142,1.3462 -5.9502,1.51261 -12.17552,2.09077 -18.43504,2.1441 -9.59831,-5.26104 -16.70053,-14.50734 -19.10277,-25.4924 m 37.49726,30.19875 c -6.0227,0 -11.70407,-1.43366 -16.78375,-3.91698 6.63075,0.58669 13.39157,0.32431 19.97539,-1.3526 0.24109,0.14506 0.49509,0.27521 0.73377,0.43099 1.60009,1.00911 2.95909,2.37665 4.00443,4.00445 -2.56012,0.54186 -5.21192,0.83418 -7.92992,0.83418 m 5.07968,-5.80934 c 2.8908,-0.85338 5.70483,-2.0097 8.35881,-3.49243 0.24754,0.13442 0.48864,0.27948 0.73377,0.40744 2.17396,1.07525 4.45033,2.0289 6.79709,2.62199 -3.76769,2.46626 -7.98757,4.2818 -12.51257,5.30372 -0.71442,-1.81982 -1.88812,-3.50309 -3.37726,-4.84076 m 8.44839,8.188117 c 1.45713,0.096 3.02312,0.14506 4.70635,0.14506 1.17983,0 2.40224,-0.0427 3.65674,-0.1216 2.36386,2.26998 4.44396,4.50795 6.27016,6.69259 -1.5318,2.69879 -3.41992,5.62586 -5.75386,8.6916 -1.83902,-4.72982 -4.65515,-9.90339 -8.87939,-15.40765 m 11.53973,36.48811 c 0.61201,-3.82525 0.74667,-9.12683 -0.86616,-15.4994 2.93772,-3.5223 5.30376,-6.90805 7.22599,-10.0634 3.75906,5.24825 6.1101,10.12101 7.54167,14.36654 -3.93622,3.62257 -8.51879,7.36462 -13.9015,11.19626 m 17.87819,-15.03644 c -1.82192,-4.61035 -4.62313,-9.75406 -8.87721,-15.22205 1.76225,-3.42416 2.96765,-6.425897 3.75915,-8.785477 0.62088,-0.1536 1.24377,-0.31148 1.86675,-0.47791 5.33779,4.738357 9.38068,9.342307 12.4059,13.683847 -2.41934,3.39855 -5.42746,7.01685 -9.15459,10.80157 m 3.18519,16.12235 c 0.0403,-2.76706 -0.25399,-6.5219 -1.46777,-10.98504 4.13675,-3.97459 7.52675,-7.80198 10.28958,-11.43094 2.58786,4.54634 4.10257,8.71721 4.94527,12.33765 -4.00871,3.37722 -8.59346,6.73951 -13.76708,10.07833 M 282.5344,123.8452 c -1.17766,-3.93405 -3.06787,-8.31185 -5.99069,-12.99261 6.0889,-9.23777 8.14764,-16.896787 8.74925,-21.967957 6.63075,7.93637 8.99025,14.558547 9.31674,19.770517 -2.72228,5.08397 -6.75445,10.15515 -12.0753,15.19005 m 15.95595,-26.251887 c -0.15804,0.98564 -0.38381,1.97129 -0.64184,2.954797 -1.68323,-4.817287 -4.82149,-10.242617 -10.11461,-16.216227 2.62414,-1.71954 5.00292,-3.53937 7.06811,-5.43599 1.9798,3.07642 5.15225,9.64952 3.68867,18.69742"
           id="path2"
           style="stroke-width:2.13343" />
        <path
           style="fill:#fe9e14;fill-opacity:1;stroke:none;stroke-width:8.95748;stroke-linecap:round;stroke-linejoin:round;stroke-miterlimit:4;stroke-dasharray:none;stroke-opacity:1"
           d="m 493.23251,228.37894 c -22.44236,-15.07919 -39.18166,-33.77734 -50.5886,-56.50856 -3.95228,-7.87592 -9.73964,-22.93136 -9.73964,-25.33704 0,-0.72108 2.3427,2.18428 5.20599,6.45636 10.33744,15.42362 28.72851,31.36805 48.69332,42.21546 12.76012,6.93292 24.13434,11.39327 55.5663,21.7901 l 27.78315,9.18991 -6.11229,1.41536 c -12.46598,2.88663 -29.91875,4.9953 -46.12003,5.57229 l -16.66989,0.59368 z"
           id="path859"
           transform="matrix(0.26458333,0,0,0.26458333,67.279762,30.904755)" />
        <path
           style="fill:#fe9e14;fill-opacity:1;stroke:none;stroke-width:9.95468;stroke-linecap:round;stroke-linejoin:round;stroke-miterlimit:4;stroke-dasharray:none;stroke-opacity:1"
           d="m 574.63373,218.56476 c -3.64792,-2.092 -12.39961,-6.05349 -19.4482,-8.80329 -57.67806,-22.50139 -62.87499,-24.86097 -80.10333,-36.36952 -13.85977,-9.25836 -30.79066,-26.24077 -40.29535,-40.41798 l -7.45055,-11.11326 0.006,-13.97357 c 0.0135,-33.258723 10.89506,-64.846371 30.93705,-89.805968 l 3.91172,-4.871522 4.26775,13.206467 c 13.2882,41.120142 48.90317,96.378303 88.59566,137.460003 15.90788,16.46464 33.90469,32.26374 46.80574,41.08997 l 8.81032,6.02755 -8.58966,4.01758 c -9.1756,4.29164 -17.52514,7.44577 -19.56482,7.39084 -0.68719,-0.0185 -4.23408,-1.74528 -7.88199,-3.8373 z"
           id="path861"
           transform="matrix(0.26458333,0,0,0.26458333,67.279762,30.904755)" />
        <path
           style="fill:#fe9e14;fill-opacity:1;stroke:none;stroke-width:9.95468;stroke-linecap:round;stroke-linejoin:round;stroke-miterlimit:4;stroke-dasharray:none;stroke-opacity:1"
           d="M 607.93811,197.76719 C 594.18976,186.85952 564.1092,156.34559 547.37085,136.32732 513.19167,95.450647 482.31263,49.435771 469.35308,20.067923 l -4.46156,-10.1104114 4.28807,-4.4622484 c 6.17335,-6.42409334 22.83631,-19.1599192 31.1532,-23.8109892 9.34463,-5.225811 22.50897,-10.739048 32.17165,-13.473509 l 7.75424,-2.194388 6.05657,4.015479 c 8.08782,5.362193 21.86172,19.117756 27.39682,27.3603403 10.23179,15.2366777 19.18915,36.7652607 25.89356,62.2339807 1.76994,6.723673 6.48269,27.483846 10.4728,46.133703 9.77967,45.71052 15.86192,64.52133 25.41411,78.59913 l 3.94949,5.82065 -5.75002,4.84385 c -5.83734,4.9174 -14.12783,10.76834 -15.17644,10.71065 -0.31654,-0.0174 -5.07639,-3.60255 -10.57746,-7.96697 z"
           id="path863"
           transform="matrix(0.26458333,0,0,0.26458333,67.279762,30.904755)" />
        <path
           style="fill:#fe9e14;fill-opacity:1;stroke:none;stroke-width:9.95468;stroke-linecap:round;stroke-linejoin:round;stroke-miterlimit:4;stroke-dasharray:none;stroke-opacity:1"
           d="m 640.87088,174.49212 c -5.95381,-12.35251 -9.82977,-26.70929 -16.7594,-62.07768 -6.7876,-34.643546 -11.77886,-55.134581 -17.33374,-71.161649 -11.82836,-34.127486 -28.32817,-57.338196 -50.33552,-70.80826 l -9.26551,-5.671151 5.37587,-0.895325 c 8.20189,-1.365987 33.25054,-0.993283 42.60529,0.633931 26.42746,4.596934 52.12776,17.173166 73.49295,35.96316979 6.04181,5.31358861 6.83921,6.56397701 9.37329,14.69825621 12.92778,41.497395 9.76557,93.947158 -8.00252,132.733288 -4.38323,9.56821 -16.44936,28.06838 -21.326,32.69771 l -3.34715,3.17741 z"
           id="path865"
           transform="matrix(0.26458333,0,0,0.26458333,67.279762,30.904755)" />
        <path
           style="fill:#fe9e14;fill-opacity:1;stroke:none;stroke-width:9.95468;stroke-linecap:round;stroke-linejoin:round;stroke-miterlimit:4;stroke-dasharray:none;stroke-opacity:1"
           d="m 664.23606,198.11139 c -9.52659,-3.32983 -9.79856,-4.11977 -3.86911,-11.23811 16.58897,-19.91515 27.04786,-42.68001 32.80186,-71.39669 2.10327,-10.49689 2.49842,-15.993412 2.45714,-34.17928 -0.0524,-23.086596 -1.40477,-33.768568 -6.50411,-51.374284 -1.4629,-5.05075 -2.51115,-9.331852 -2.32944,-9.51356 0.1817,-0.181709 2.96339,3.774252 6.18151,8.791023 10.22158,15.934541 16.97141,32.828567 20.73383,51.894312 2.35603,11.939015 2.61404,38.401999 0.48956,50.212179 -3.61808,20.11316 -14.34839,45.16326 -25.94424,60.56727 l -5.8561,7.77928 -6.1123,0.26638 c -3.75034,0.16346 -8.40623,-0.53541 -12.0486,-1.80852 z"
           id="path867"
           transform="matrix(0.26458333,0,0,0.26458333,67.279762,30.904755)" />
        <path
           style="fill:#fe9e14;fill-opacity:1;stroke:none;stroke-width:9.95468;stroke-linecap:round;stroke-linejoin:round;stroke-miterlimit:4;stroke-dasharray:none;stroke-opacity:1"
           d="m 642.38922,221.56763 c -4.2786,-2.27897 -8.89968,-4.93503 -10.26906,-5.90235 l -2.48977,-1.75877 5.26809,-3.77658 c 2.89745,-2.07712 7.14599,-5.46955 9.44121,-7.53874 l 4.17313,-3.76217 5.75613,2.47623 c 3.55868,1.5309 9.09711,2.70521 14.50765,3.07606 l 8.7515,0.59984 -4.23353,4.36179 c -7.06152,7.27546 -18.79886,16.42855 -21.02713,16.39751 -1.15441,-0.0161 -5.59961,-1.89385 -9.87822,-4.17282 z"
           id="path869"
           transform="matrix(0.26458333,0,0,0.26458333,67.279762,30.904755)" />
        <path
           style="fill:#fe9e14;fill-opacity:1;stroke:none;stroke-width:9.95468;stroke-linecap:round;stroke-linejoin:round;stroke-miterlimit:4;stroke-dasharray:none;stroke-opacity:1"
           d="m 600.94581,242.16175 c -1.82316,-3.20895 -4.6293,-7.05425 -6.23588,-8.54511 l -2.92105,-2.71064 8.21665,-2.99563 c 4.51916,-1.6476 11.34447,-4.49684 15.16736,-6.33165 l 6.95071,-3.33602 6.24317,2.78951 c 3.43374,1.53423 9.4474,3.92204 13.36368,5.30624 l 7.12051,2.51674 -4.89786,3.09215 c -7.01034,4.42583 -19.2809,9.84866 -29.81493,13.17636 -5.00121,1.57988 -9.2696,2.87251 -9.48532,2.87251 -0.21571,0 -1.88388,-2.62551 -3.70704,-5.83446 z"
           id="path871"
           transform="matrix(0.26458333,0,0,0.26458333,67.279762,30.904755)" />
        <path
           style="fill:#fe9e14;fill-opacity:1;stroke:none;stroke-width:9.95468;stroke-linecap:round;stroke-linejoin:round;stroke-miterlimit:4;stroke-dasharray:none;stroke-opacity:1"
           d="m 546.87613,249.53677 c -7.89912,-1.42598 -29.61115,-8.02341 -33.43224,-10.15874 -0.81501,-0.45545 5.06018,-0.65091 13.05598,-0.43435 15.44795,0.41839 33.91885,-1.08596 47.43001,-3.86291 4.52219,-0.92945 9.41085,-1.39156 10.8637,-1.02692 1.45285,0.36464 5.75112,3.77257 9.55172,7.57317 l 6.91018,6.91018 -7.21628,1.34462 c -9.73141,1.81327 -36.28328,1.61901 -47.16307,-0.34505 z"
           id="path873"
           transform="matrix(0.26458333,0,0,0.26458333,67.279762,30.904755)" />
      </g>
    </g>
  </g>
</svg>
