<?xml version="1.0" encoding="UTF-8" standalone="no"?>
<!-- Created with Inkscape (http://www.inkscape.org/) -->

<svg
   xmlns:dc="http://purl.org/dc/elements/1.1/"
   xmlns:cc="http://creativecommons.org/ns#"
   xmlns:rdf="http://www.w3.org/1999/02/22-rdf-syntax-ns#"
   xmlns:svg="http://www.w3.org/2000/svg"
   xmlns="http://www.w3.org/2000/svg"
   xmlns:sodipodi="http://sodipodi.sourceforge.net/DTD/sodipodi-0.dtd"
   xmlns:inkscape="http://www.inkscape.org/namespaces/inkscape"
   width="128px"
   height="128px"
   viewBox="0 0 128 128"
   version="1.1"
   id="SVGRoot"
   inkscape:version="0.92.4 (5da689c313, 2019-01-14)"
   sodipodi:docname="clublogo.svg">
  <defs
     id="defs817">
    <path
       style="fill:none;stroke:none;stroke-width:1px;stroke-linecap:butt;stroke-linejoin:miter;stroke-opacity:1"
       d="m 24,52 c 1.256604,-18.521149 19.000794,-32.25 40,-32 20.999206,0.25 36.00091,12.457893 40,32"
       id="path1451-9"
       inkscape:connector-curvature="0"
       sodipodi:nodetypes="czc" />
    <path
       style="fill:none;stroke:none;stroke-width:1px;stroke-linecap:butt;stroke-linejoin:miter;stroke-opacity:1"
       d="m 24,52 c 1.256604,-18.521149 19.000794,-32.25 40,-32 20.999206,0.25 36.00091,12.457893 40,32"
       id="path1451-6"
       inkscape:connector-curvature="0"
       sodipodi:nodetypes="czc" />
  </defs>
  <sodipodi:namedview
     id="base"
     pagecolor="#ffffff"
     bordercolor="#666666"
     borderopacity="1.0"
     inkscape:pageopacity="0.0"
     inkscape:pageshadow="2"
     inkscape:zoom="3.3203125"
     inkscape:cx="137.28672"
     inkscape:cy="34.679292"
     inkscape:document-units="px"
     inkscape:current-layer="g1588"
     showgrid="false"
     inkscape:window-width="1920"
     inkscape:window-height="1017"
     inkscape:window-x="1912"
     inkscape:window-y="-8"
     inkscape:window-maximized="1"
     inkscape:grid-bbox="true" />
  <metadata
     id="metadata820">
    <rdf:RDF>
      <cc:Work
         rdf:about="">
        <dc:format>image/svg+xml</dc:format>
        <dc:type
           rdf:resource="http://purl.org/dc/dcmitype/StillImage" />
        <dc:title />
      </cc:Work>
    </rdf:RDF>
  </metadata>
  <g
     inkscape:label="Layer 1"
     inkscape:groupmode="layer"
     id="layer1">
    <text
       xml:space="preserve"
       style="font-style:normal;font-weight:normal;font-size:40px;line-height:1.25;font-family:sans-serif;letter-spacing:0px;word-spacing:0px;fill:#000000;fill-opacity:1;stroke:none"
       x="63.25"
       y="113.25"
       id="text1428"><tspan
         sodipodi:role="line"
         id="tspan1426"
         x="63.25"
         y="148.64062" /></text>
    <g
       id="g1588"
       transform="translate(-99.999992)">
      <ellipse
         ry="64"
         rx="64.000038"
         cy="64"
         cx="164.00003"
         id="path1465"
         style="fill:#ffffff;fill-opacity:1;stroke:none;stroke-width:1.04938745;stroke-linecap:round;stroke-linejoin:round;stroke-miterlimit:4;stroke-dasharray:none;stroke-dashoffset:0;stroke-opacity:1" />
      <g
         transform="matrix(1.6666667,0,0,1.6666667,57.333324,-42.66667)"
         id="g1509">
        <path
           d="m 52.422156,34 c -0.536316,0.0054 -1.057284,0.16869 -1.501992,0.484068 -1.838484,1.303968 -2.734944,5.312262 1.387986,8.955521 -0.109986,2.92524 5.258226,3.454482 3.12642,-0.85203 1.934748,-5.723501 -0.687702,-8.609951 -3.01254,-8.587427 z m 32.119923,1.224108 c -0.77931,0.0012 -1.635504,0.369126 -2.11155,1.103928 -2.913126,4.495302 0.235944,6.785567 3.256045,1.911666 1.241124,-2.003058 0.154776,-3.017388 -1.144369,-3.01572 z m -5.24955,8.123333 c -7.980585,7.280508 -13.971687,17.718431 -31.168341,10.35933 2.337804,6.846497 -0.851664,9.098879 -3.940339,9.763148 -1.113156,-0.781245 -2.202528,-1.816569 -3.19299,-3.107613 l -2.426394,-3.163938 0.330324,3.99972 c 0.64605,7.879761 3.470082,13.701947 8.151979,17.454894 4.682022,3.752955 11.092044,5.40378 18.781194,5.40378 12.003351,0 22.873414,-7.795297 26.874156,-18.942669 l 0.672472,-1.875966 -1.938892,0.279792 c -0.671972,0.09689 -1.200494,0.06963 -1.612232,-0.03582 l 3.987527,-7.69955 c -1.802498,0.785225 -3.693947,1.739783 -5.533055,2.591819 0.217698,-1.70535 0.723564,-3.857645 1.600644,-6.435641 l 1.297638,-3.823728 -3.1341,2.488014 c -3.204198,2.543184 -6.649243,5.582076 -10.039291,8.095427 -1.125996,-2.286173 -0.959634,-6.921107 1.289574,-15.350975 z m -43.272238,5.835618 c -1.117182,-0.0012 -2.266579,1.467546 -1.974132,2.903856 0.774654,3.804924 4.504212,2.712132 3.629646,-0.991926 -0.326298,-1.381662 -0.985302,-1.911414 -1.65564,-1.91193 z m 50.503853,5.747562 c -0.781824,3.088679 -0.965802,5.507969 -0.495294,7.403513 0.323772,1.304607 1.039164,2.394069 2.084118,3.007785 0.514668,0.302052 1.079682,0.48675 1.683066,0.572118 -3.762528,2.649792 -9.251797,0.846024 -6.736063,-5.979735 C 72.340158,74.607827 61.201182,76.104175 57.62124,64.941947 55.782384,76.029805 44.367065,73.57648 41.797223,64.642193 c 2.769672,2.342232 5.951845,3.43323 8.891149,2.847804 1.969728,-0.392424 3.772218,-1.586328 5.064942,-3.511824 0.753768,-1.122477 1.336644,-2.491215 1.738188,-4.095711 1.63689,2.781504 3.523692,4.582335 5.639016,5.515647 2.884188,1.27248 6.005826,0.846396 9.021012,-0.412134 4.933569,-2.058861 9.860217,-6.289983 14.372866,-10.055228 z m -0.755022,22.998446 c 1.434036,0.977588 2.277024,2.074988 2.277024,3.215768 0,4.194525 -10.767889,7.623532 -23.956246,7.623532 -13.188234,0 -23.885527,-3.428872 -23.885527,-7.623532 0,-1.106475 0.776418,-2.188635 2.131434,-3.139613 -5.00832,1.70202 -8.159784,3.995873 -8.159784,6.50322 C 34.176023,89.758637 47.583594,94 64.090026,94 80.596461,94 94,89.758765 94,84.50857 94,81.975242 90.867664,79.640057 85.769374,77.929067 Z"
           id="path2"
           style="fill:#552200;fill-opacity:1;stroke:none;stroke-width:0.12690951;stroke-opacity:1"
           inkscape:connector-curvature="0" />
      </g>
    </g>
  </g>
</svg>
