<svg xmlns="http://www.w3.org/2000/svg" viewBox="0 0 128 128">
  <circle cx="64" cy="19" r="10.334" fill="#fca" stroke="#000" stroke-linecap="round" stroke-linejoin="round" stroke-width="1.332"/>
  <path fill="#d45500" stroke="#000" stroke-linecap="round" stroke-linejoin="round" d="M52.793 11.43c6.41-6.149-1.088-10.655-6.01-6.008l-18.03 17.022c-1.453 1.37-1.874 5.326 0 6.007l22.036 8.01V66.5h27.046V36.462l21.035-8.01c1.863-.71 2.463-3.684 0-6.008L80.84 5.422c-5.041-4.76-11.755.265-6.01 6.007 12.316 12.312 13.162 11.403 13.162 11.403s-9.651 6.314-15.166 7.622c-5.514 1.307-11.385 1.063-17.028 0-5.643-1.064-16.23-6.342-16.23-6.342z"/>
  <path fill="navy" stroke="#000" stroke-linecap="round" stroke-linejoin="round" d="M77.835 66.5H50.789v50.426c0 2.867 2.133 7 5 7s5.04-4.133 5-7c-.384-26.94-.313-9.468 1-43.232.47-.85 1.025-1.694 2.375-1.694s2.614.641 2.671 1.694c1.74 32.077.639 18.954 1 43.232.043 2.867 2.133 7 5 7s5-4.133 5-7V66.5z"/>
  <rect width="18.153" height="23.157" x="-42.284" y="67.931" fill="#d38d5f" stroke="#000" stroke-linecap="round" stroke-linejoin="round" ry="3.385" transform="rotate(-45.334)"/>
  <rect width="18.153" height="23.157" x="104.308" y="2.152" fill="#ac9393" stroke="#000" stroke-linecap="round" stroke-linejoin="round" ry="3.385" transform="rotate(28)"/>
  <rect width="18.153" height="23.157" x="89.798" y="-108.485" fill="#803300" stroke="#000" stroke-linecap="round" stroke-linejoin="round" ry="3.385" transform="rotate(91.862)"/>
</svg>
