<svg xmlns="http://www.w3.org/2000/svg" xmlns:xlink="http://www.w3.org/1999/xlink" data-name="Layer 1" viewBox="0 0 128 128">
  <defs>
    <path id="a" d="M.5 6.497v69c16.34-.867 32.76-10.896 49 0v-69c-16.333-9.737-32.667-.75-49 0z"/>
    <path id="b" d="M.5 4.996v69c16.34-.867 32.76-10.895 49 0v-69c-16.333-9.736-32.667-.75-49 0z"/>
    <path id="c" d="M.5 3.497v69c16.34-.867 32.76-10.896 49 0v-69c-16.333-9.737-32.667-.75-49 0z"/>
    <path id="d" d="M.5 1.996v69c16.34-.867 32.76-10.895 49 0v-69c-16.333-9.736-32.667-.75-49 0z"/>
  </defs>
  <g stroke="#000" transform="rotate(23.378 30.329 12.074) scale(.64018)">
    <g fill="#fff" transform="matrix(-1.5659 .46328 .56122 1.2926 79.334 .037)">
      <use xlink:href="#a"/>
      <use xlink:href="#b"/>
      <use xlink:href="#c"/>
      <use xlink:href="#d"/>
    </g>
    <ellipse cx="3.12" cy="52.572" fill="#1a1a1a" stroke-width="1.517" rx=".408" ry=".352" transform="matrix(.95891 -.2837 .39826 .91727 0 0)"/>
    <path fill="none" stroke-linecap="round" stroke-linejoin="round" stroke-width="1.511" d="M54.19 38.143s-5.146.18-7.612.728c-2.047.456-3.903.83-5.83 2.098m-10.755 3.76 4.558-1.585m25.493-5.314s6.8-.38 10.147-.877c2.004-.298 5.917-1.257 5.917-1.257"/>
    <ellipse cx="3.239" cy="65.378" fill="#1a1a1a" stroke-width="1.517" rx=".408" ry=".352" transform="matrix(.95891 -.2837 .39826 .91727 0 0)"/>
    <path fill="none" stroke-linecap="round" stroke-linejoin="round" stroke-width="1.511" d="M64.737 50.512s-4.372.692-6.582.89c-2.393.214-7.211.32-7.211.32m20.462-2.152 4.913-.465m10.355 12.671 4.914-.464"/>
    <ellipse cx="3.717" cy="78.673" fill="#1a1a1a" stroke-width="1.517" rx=".408" ry=".352" transform="matrix(.95891 -.2837 .39826 .91727 0 0)"/>
    <path fill="none" stroke-linecap="round" stroke-linejoin="round" stroke-width="1.511" d="m40.418 69.413 4.739-1.168"/>
    <path fill="none" stroke-linecap="round" stroke-linejoin="round" stroke-width="1.469" d="M46.028 53.743s-4.664.273-6.797.983c-1.956.65-5.247 2.916-5.247 2.916"/>
  </g>
  <g fill="#fff" stroke="navy" stroke-width="2.067" transform="matrix(-1.03785 -.12553 .00145 .90214 125.004 53.514)">
    <use xlink:href="#a"/>
    <use xlink:href="#b"/>
    <use xlink:href="#c"/>
    <use xlink:href="#d"/>
  </g>
  <ellipse cx="80.695" cy="82.205" fill="navy" stroke="navy" stroke-width="1.832" rx=".261" ry=".225" transform="matrix(.99276 .12008 .0016 1 0 0)"/>
  <path fill="none" stroke="navy" stroke-linecap="round" stroke-linejoin="round" stroke-width="1.825" d="M100.361 94.177s-3.07-1.2-4.658-1.505c-1.319-.252-2.504-.503-3.96-.248m-6.113-.231 3.081.226m11.838-22.899s-3.07-1.202-4.658-1.506c-1.319-.252-2.504-.503-3.96-.248m12.138 3.057s4.092 1.504 6.185 2.062c1.254.334 3.797.765 3.797.765m-10.71 21.808s4.093 1.505 6.186 2.062c1.253.335 3.796.765 3.796.765"/>
  <ellipse cx="81.001" cy="65.718" fill="navy" stroke="navy" stroke-width="1.832" rx=".261" ry=".225" transform="matrix(.99276 .12008 .0016 1 0 0)"/>
  <path fill="none" stroke="navy" stroke-linecap="round" stroke-linejoin="round" stroke-width="1.825" d="M103.605 79.467s-2.745-.703-4.094-1.148c-1.46-.482-4.319-1.645-4.319-1.645m12.571 3.934 3.006.975m-6.309 6.258 3.005.976m6.17 2.843 3.005.974"/>
  <ellipse cx="81.307" cy="74.229" fill="navy" stroke="navy" stroke-width="1.832" rx=".261" ry=".225" transform="matrix(.99276 .12008 .0016 1 0 0)"/>
  <path fill="none" stroke="navy" stroke-linecap="round" stroke-linejoin="round" stroke-width="1.774" d="M91.79 76.614s-2.81-1.024-4.244-1.15c-1.314-.114-3.824.382-3.824.382m15.792 10.198s-2.81-1.024-4.244-1.149c-1.314-.114-3.824.381-3.824.381"/>
  <path fill="#f60" d="m86.587 53.538-.153 1.173q-.43-.263-.85-.424-.421-.16-.807-.21-.513-.067-.776.042-.263.109-.302.406-.029.223.118.37.151.144.574.29l.593.202q.9.306 1.24.735.34.43.25 1.127-.12.917-.724 1.295-.6.375-1.717.23-.527-.07-1.045-.238-.517-.17-1.023-.436l.157-1.206q.494.351.97.56.478.206.939.266.467.06.736-.063.27-.123.307-.413.034-.26-.119-.423-.148-.163-.639-.34l-.537-.194q-.808-.287-1.143-.727-.332-.439-.246-1.1.108-.827.7-1.203.593-.376 1.595-.246.457.06.93.193.474.13.972.334zm1.641.036 3.856.502-.14 1.08-2.428-.316-.134 1.032 2.283.298-.14 1.08-2.284-.297-.165 1.269 2.51.327-.141 1.08-3.938-.513zm9.026 1.353-.152 1.173q-.43-.264-.85-.424-.422-.16-.808-.211-.512-.067-.775.042-.264.11-.302.406-.03.223.118.37.15.145.573.29l.593.202q.9.306 1.24.735.341.43.25 1.128-.119.916-.723 1.295-.6.374-1.717.229-.527-.069-1.045-.238-.518-.17-1.023-.435l.157-1.206q.494.35.969.56.479.206.94.265.467.061.736-.062.269-.124.307-.413.033-.26-.119-.423-.149-.163-.639-.34l-.537-.195q-.808-.286-1.144-.726-.331-.44-.245-1.1.108-.828.7-1.204t1.595-.245q.456.06.93.193.473.13.971.334zm5.134.668-.153 1.173q-.43-.264-.85-.424-.421-.16-.807-.21-.513-.068-.776.042-.263.109-.302.406-.029.222.118.37.151.144.574.29l.593.201q.9.306 1.24.736.34.429.25 1.127-.12.917-.724 1.295-.6.375-1.717.23-.527-.07-1.045-.239-.517-.17-1.023-.435l.157-1.206q.495.351.97.56.478.206.939.266.467.06.736-.063.27-.124.307-.413.034-.26-.119-.423-.148-.163-.639-.34l-.537-.194q-.808-.287-1.143-.727-.332-.44-.246-1.1.108-.828.7-1.204.593-.375 1.595-.245.457.06.93.193.474.13.972.334zm1.641.036 1.429.186-.721 5.542-1.43-.186zm5.238 1.633q-.653-.085-1.076.35-.423.436-.537 1.312-.114.873.184 1.402.297.53.95.614.657.086 1.08-.35.423-.435.536-1.308.114-.876-.183-1.405-.297-.53-.954-.615zm.135-1.035q1.336.173 1.994 1.037.657.863.482 2.21-.175 1.344-1.032 2.01-.856.666-2.193.492-1.332-.173-1.993-1.037-.658-.863-.483-2.207.175-1.347 1.032-2.013.86-.666 2.193-.492zm3.918.611 1.596.208 1.52 4.063.495-3.8 1.355.176-.721 5.542-1.596-.208-1.521-4.063-.495 3.8-1.355-.176zM15.258 10.386l-.153 1.173q-.43-.264-.85-.424-.422-.16-.808-.211-.512-.067-.775.043-.263.109-.302.406-.03.222.118.37.15.144.574.29l.592.201q.9.306 1.24.736.341.429.25 1.127-.119.917-.723 1.295-.6.375-1.717.23-.527-.07-1.045-.239-.518-.17-1.023-.435l.157-1.206q.494.35.97.56.478.206.938.266.468.06.737-.063.269-.124.307-.413.034-.26-.119-.423-.149-.163-.639-.34l-.537-.195q-.808-.286-1.143-.726-.332-.44-.246-1.1.108-.828.7-1.204.593-.375 1.595-.245.456.06.93.193.474.13.972.334zm1.641.036 3.856.502-.14 1.08-2.428-.316-.134 1.032 2.283.297-.141 1.08-2.283-.297-.165 1.27 2.51.326-.141 1.08-3.939-.512zm9.026 1.352-.152 1.173q-.43-.263-.851-.424-.42-.16-.807-.21-.512-.067-.775.042-.264.11-.302.406-.03.223.117.37.152.145.574.29l.593.202q.9.306 1.24.735.341.43.25 1.127-.12.917-.723 1.295-.6.375-1.717.23-.527-.069-1.045-.238-.518-.17-1.023-.435l.157-1.207q.494.351.969.56.479.206.94.266.467.061.736-.062.269-.124.306-.414.034-.26-.118-.423-.149-.162-.64-.34l-.536-.194q-.809-.286-1.144-.726-.331-.44-.245-1.1.107-.828.7-1.204.592-.376 1.594-.246.457.06.93.193.474.13.972.334zm5.134.669-.153 1.172q-.43-.263-.85-.424-.421-.16-.807-.21-.513-.067-.776.042-.263.11-.302.406-.029.223.118.37.151.145.574.29l.592.202q.9.306 1.241.735.34.43.25 1.127-.12.917-.724 1.295-.6.375-1.717.23-.527-.069-1.045-.238-.518-.17-1.023-.435l.157-1.207q.494.352.97.56.478.206.938.266.468.061.737-.062.27-.124.307-.413.034-.26-.119-.423-.148-.163-.639-.34l-.537-.195q-.808-.286-1.143-.726-.332-.44-.246-1.1.108-.828.7-1.204.593-.376 1.595-.245.456.06.93.192.474.13.972.335zm1.641.036 1.429.186-.722 5.541-1.429-.186zm5.238 1.633q-.653-.085-1.076.35-.423.436-.537 1.312-.114.872.184 1.402.297.53.95.614.657.086 1.08-.35.423-.436.536-1.308.114-.876-.183-1.405-.297-.53-.954-.615zm.135-1.036q1.336.174 1.994 1.037.657.863.482 2.21-.175 1.345-1.032 2.01-.857.667-2.193.493-1.332-.174-1.994-1.037-.657-.864-.482-2.207.175-1.348 1.032-2.014.86-.665 2.193-.492zm3.917.612 1.596.208 1.521 4.063.495-3.8 1.355.175-.722 5.542-1.596-.208-1.52-4.063-.495 3.801-1.355-.176z" aria-label="SESSION" font-size="15.949" font-weight="700" style="line-height:1.25;-inkscape-font-specification:&quot;sans-serif Bold&quot;"/>
  <path fill="#f60" stroke="navy" stroke-linecap="round" stroke-linejoin="round" stroke-width="2.909" d="M30.873 39.851 57.49 51.588l-.2-17.575L81.606 65.4c1.871 2.556-.177 6.295-2.934 6.655L39.1 75.272l13.11-11.706-26.62-11.737c8.673-2.856 6.288-7.463 5.282-11.978z"/>
</svg>
