<svg xmlns="http://www.w3.org/2000/svg" xml:space="preserve" viewBox="0 0 120.567 128">
  <path fill="#f2ebd9" d="m4.636 86.924 19.008-20.22 33.978 36.144-19.008 20.22z"/>
  <path fill="#6da8d6" d="m66.222 74.444 38.612-41.072-15.875-16.886-53.547 56.96 15.874 16.886 9.504-10.11a1.84 1.84 0 0 1 2.716-.001l2.715-2.889a2.136 2.136 0 0 1 0-2.888z"/>
  <path fill="#185f8d" d="M68.937 77.333a1.857 1.857 0 0 1-1.358.598c-.491 0-.983-.2-1.357-.598l-2.716 2.888c.75.798.75 2.091 0 2.889l-9.504 10.11 8.146 8.666 53.548-56.96-8.147-8.666zM24.551 61.89 78.097 4.93l8.146 8.666-53.545 56.958z"/>
  <path fill="#082947" d="M119.77 43.481 79.454.598A1.863 1.863 0 0 0 78.097 0c-.509 0-.997.215-1.357.598L20.477 60.447a2.135 2.135 0 0 0 0 2.888l.452.482L.562 85.482a2.135 2.135 0 0 0 0 2.888l36.694 39.032c.375.399.866.598 1.358.598.49 0 .982-.2 1.357-.598l20.367-21.665.453.482a1.86 1.86 0 0 0 1.357.598c.492 0 .983-.2 1.358-.598L119.77 46.37a2.11 2.11 0 0 0 .562-1.444 2.11 2.11 0 0 0-.562-1.445zm-57.622 58.405-8.146-8.666 9.504-10.11c.75-.798.75-2.091 0-2.889a1.84 1.84 0 0 0-2.715 0l-9.505 10.11-15.874-16.886 53.548-56.96 15.874 16.886-38.612 41.073c-.75.797-.75 2.09 0 2.888.375.4.866.599 1.358.599.491 0 .982-.2 1.357-.599L107.55 36.26l8.147 8.666zm24.096-88.29-53.548 56.96-8.146-8.665 53.547-56.96Zm-28.622 89.252-19.008 20.22L4.636 86.927l19.009-20.22Z"/>
  <g transform="matrix(.4379 0 0 .4658 -41.338 5.154)">
    <path fill="#d40000" d="m322.002 202.431 9.64-9.64c3.99-3.993 3.99-10.467-.002-14.459-3.994-3.992-10.465-3.992-14.46 0l-9.64 9.64-9.64-9.64c-3.993-3.992-10.464-3.992-14.458 0-3.993 3.993-3.993 10.466 0 14.459l9.64 9.64-9.64 9.64c-3.993 3.993-3.993 10.466 0 14.459a10.194 10.194 0 0 0 7.23 2.994c2.617 0 5.233-.998 7.23-2.994l9.64-9.64 9.64 9.64a10.194 10.194 0 0 0 7.23 2.994c2.617 0 5.233-.998 7.23-2.994 3.993-3.993 3.993-10.466 0-14.459z"/>
    <circle cx="308.009" cy="202.006" r="49.835" fill="none" stroke="#d40000" stroke-linecap="square" stroke-linejoin="round" stroke-width="23.772"/>
  </g>
</svg>
