<?xml version="1.0" encoding="UTF-8" standalone="no"?>
<!-- Generator: Adobe Illustrator 19.0.0, SVG Export Plug-In . SVG Version: 6.00 Build 0)  -->

<svg
   xmlns:dc="http://purl.org/dc/elements/1.1/"
   xmlns:cc="http://creativecommons.org/ns#"
   xmlns:rdf="http://www.w3.org/1999/02/22-rdf-syntax-ns#"
   xmlns:svg="http://www.w3.org/2000/svg"
   xmlns="http://www.w3.org/2000/svg"
   xmlns:sodipodi="http://sodipodi.sourceforge.net/DTD/sodipodi-0.dtd"
   xmlns:inkscape="http://www.inkscape.org/namespaces/inkscape"
   version="1.1"
   id="Layer_1"
   x="0px"
   y="0px"
   viewBox="0 0 120.56651 128"
   xml:space="preserve"
   sodipodi:docname="delete.svg"
   inkscape:version="0.92.4 (5da689c313, 2019-01-14)"
   width="120.56651"
   height="128"><metadata
   id="metadata49"><rdf:RDF><cc:Work
       rdf:about=""><dc:format>image/svg+xml</dc:format><dc:type
         rdf:resource="http://purl.org/dc/dcmitype/StillImage" /><dc:title /></cc:Work></rdf:RDF></metadata><defs
   id="defs47" /><sodipodi:namedview
   pagecolor="#ffffff"
   bordercolor="#666666"
   borderopacity="1"
   objecttolerance="10"
   gridtolerance="10"
   guidetolerance="10"
   inkscape:pageopacity="0"
   inkscape:pageshadow="2"
   inkscape:window-width="1920"
   inkscape:window-height="1017"
   id="namedview45"
   showgrid="false"
   inkscape:zoom="1.84375"
   inkscape:cx="7.9752694"
   inkscape:cy="113.94925"
   inkscape:window-x="-8"
   inkscape:window-y="-8"
   inkscape:window-maximized="1"
   inkscape:current-layer="Layer_1" />




<g
   id="g14"
   transform="translate(2.499975e-4,-384)">
</g>
<g
   id="g16"
   transform="translate(2.499975e-4,-384)">
</g>
<g
   id="g18"
   transform="translate(2.499975e-4,-384)">
</g>
<g
   id="g20"
   transform="translate(2.499975e-4,-384)">
</g>
<g
   id="g22"
   transform="translate(2.499975e-4,-384)">
</g>
<g
   id="g24"
   transform="translate(2.499975e-4,-384)">
</g>
<g
   id="g26"
   transform="translate(2.499975e-4,-384)">
</g>
<g
   id="g28"
   transform="translate(2.499975e-4,-384)">
</g>
<g
   id="g30"
   transform="translate(2.499975e-4,-384)">
</g>
<g
   id="g32"
   transform="translate(2.499975e-4,-384)">
</g>
<g
   id="g34"
   transform="translate(2.499975e-4,-384)">
</g>
<g
   id="g36"
   transform="translate(2.499975e-4,-384)">
</g>
<g
   id="g38"
   transform="translate(2.499975e-4,-384)">
</g>
<g
   id="g40"
   transform="translate(2.499975e-4,-384)">
</g>
<g
   id="g42"
   transform="translate(2.499975e-4,-384)">
</g>
<g
   id="g844"
   transform="matrix(0.23502233,0,0,0.25,5.8755582e-5,0)"><rect
     id="rect2"
     height="204.46001"
     width="114.382"
     style="fill:#f2ebd9"
     transform="matrix(0.7071,-0.7071,0.7071,0.7071,-229.5849,204.8263)"
     y="277.31699"
     x="75.264" /><path
     id="path4"
     d="m 281.767,297.776 164.291,-164.29 -67.544,-67.544 -227.84,227.84 67.544,67.544 40.44,-40.44 c 3.19,-3.19 8.362,-3.191 11.553,-0.002 l 11.555,-11.555 c -3.19,-3.191 -3.189,-8.363 10e-4,-11.553 z"
     style="fill:#6da8d6"
     inkscape:connector-curvature="0" /><g
     id="g10">
	<path
   id="path6"
   d="m 293.321,309.331 c -1.595,1.595 -3.686,2.393 -5.777,2.393 -2.091,0 -4.182,-0.797 -5.777,-2.393 -10e-4,-0.002 -11.556,11.553 -11.556,11.553 3.193,3.192 3.193,8.365 0.002,11.556 l -40.44,40.44 34.663,34.664 227.84,-227.84 -34.664,-34.663 z"
   style="fill:#185f8d"
   inkscape:connector-curvature="0" />
	
		<rect
   id="rect8"
   height="49.021"
   width="322.20801"
   style="fill:#185f8d"
   transform="matrix(0.7071,-0.7071,0.7071,0.7071,-37.7149,210.8935)"
   y="126.462"
   x="74.609001" />
</g><path
     id="path12"
     d="M 509.607,173.926 338.073,2.393 C 336.542,0.861 334.463,0 332.297,0 330.13,0 328.052,0.861 326.52,2.393 L 87.126,241.787 c -3.191,3.191 -3.191,8.364 0,11.554 l 1.926,1.926 -86.659,86.659 c -3.191,3.191 -3.191,8.364 0,11.554 L 158.52,509.607 c 1.595,1.595 3.686,2.393 5.777,2.393 2.09,0 4.182,-0.797 5.777,-2.393 l 86.659,-86.659 1.926,1.926 c 1.595,1.595 3.686,2.393 5.777,2.393 2.091,0 4.182,-0.797 5.777,-2.393 L 509.607,185.48 c 1.533,-1.532 2.393,-3.61 2.393,-5.777 0,-2.166 -0.861,-4.245 -2.393,-5.777 z m -245.171,233.617 -34.663,-34.664 40.44,-40.44 c 3.191,-3.191 3.191,-8.364 0,-11.554 -3.193,-3.191 -8.364,-3.19 -11.554,0 l -40.44,40.44 -67.544,-67.544 227.84,-227.84 67.544,67.544 -164.292,164.29 c -3.191,3.19 -3.191,8.362 -10e-4,11.553 1.597,1.597 3.688,2.394 5.779,2.394 2.091,0 4.182,-0.797 5.777,-2.393 l 164.291,-164.29 34.664,34.663 z M 366.96,54.387 139.12,282.227 104.457,247.564 332.297,19.724 Z M 245.178,411.394 164.297,492.275 19.725,347.702 100.606,266.821 Z"
     style="fill:#082947"
     inkscape:connector-curvature="0" /><g
     transform="matrix(1.8632321,0,0,1.8632321,-175.89169,20.616397)"
     id="g878"><path
       inkscape:connector-curvature="0"
       style="fill:#d40000"
       id="path4-9"
       d="m 322.00175,202.431 9.64,-9.64 c 3.991,-3.993 3.991,-10.467 -0.002,-14.459 -3.994,-3.992 -10.465,-3.992 -14.459,0 l -9.64,9.64 -9.64,-9.64 c -3.994,-3.992 -10.465,-3.992 -14.459,0 -3.993,3.993 -3.993,10.466 0,14.459 l 9.64,9.64 -9.64,9.64 c -3.993,3.993 -3.993,10.466 0,14.459 1.997,1.996 4.613,2.994 7.23,2.994 2.617,0 5.233,-0.998 7.23,-2.994 l 9.64,-9.64 9.64,9.64 c 1.997,1.996 4.613,2.994 7.23,2.994 2.617,0 5.233,-0.998 7.23,-2.994 3.993,-3.993 3.993,-10.466 0,-14.459 z" /><circle
       r="49.834618"
       cy="202.00575"
       cx="308.0087"
       id="path860"
       style="fill:none;fill-opacity:0.98431373;stroke:#d40000;stroke-width:23.77217674;stroke-linecap:square;stroke-linejoin:round;stroke-miterlimit:4;stroke-dasharray:none;stroke-opacity:1" /></g></g></svg>