<svg xmlns="http://www.w3.org/2000/svg" viewBox="0 0 128 128">
  <path fill="none" stroke="#000" stroke-linejoin="round" stroke-width="3" d="M5 16v97c0 1.509.765 2 2 2h114c1.306 0 2-.757 2-2V15c0-1.123-.82-2-2-2H8c-1.959 0-3 1.603-3 3Z"/>
  <path fill="#b3b3b3" stroke="#000" stroke-linecap="round" stroke-linejoin="round" d="M47 14v49h33V14Z"/>
  <path fill="none" stroke="#000" stroke-linecap="round" stroke-width="3" d="M58 22.448h12"/>
  <circle cx="64" cy="26.5" r="2" fill="#fff" stroke="#000" stroke-linecap="round" stroke-linejoin="round"/>
  <path fill="none" stroke="#000" d="M14 14.25V30c0 11.49 8.078 54.972 50 55 41.922.028 50.492-42.784 50-55V14.25Z"/>
  <path fill="none" stroke="#000" d="M47 63c0 9.834 7.982 16.55 17 16.414 9.018-.137 16-7.342 16-16.414M56 26c0 3.69 2.697 8.08 8 8 5.303-.08 8-5.415 8-8m-25 88.916c0-9.834 7.982-16.55 17-16.414 9.018.137 16 7.342 16 16.414"/>
  <path fill="#7e4d07" stroke="#000" stroke-linecap="round" stroke-width="5.096" d="m42.637 68.286-8.318-8.318m0 8.318 8.318-8.318M98.27 29.223l-8.32-8.318m0 8.318 8.32-8.318"/>
  <circle cx="15.755" cy="27.515" r="7.838" fill="#666"/>
  <circle cx="29.888" cy="94.297" r="7.838" fill="#666"/>
  <path fill="navy" d="M53.932 47.78c-2.718 1.167-6.12-.604-7.54-3.905-1.419-3.303-.412-7.04 2.329-8.22l21.617-9.29c2.717-1.17 6.099.553 7.565 3.966 1.467 3.41.387 6.98-2.355 8.158z"/>
  <g fill="#d7eef4" stroke="navy" stroke-linecap="round" stroke-linejoin="round" transform="translate(-38.83 -36.32) scale(1.29346)">
    <circle cx="94.447" cy="92.993" r="29.5" stroke-width="6"/>
    <path stroke-width="7" d="m88.789 80.247 4.422 16.505 13.26-3.553"/>
  </g>
</svg>
