<svg xmlns="http://www.w3.org/2000/svg" viewBox="0 0 128 128">
  <path fill="none" stroke="#000" stroke-linejoin="round" stroke-width="3" d="M5 16v97c0 1.509.765 2 2 2h114c1.306 0 2-.757 2-2V15c0-1.123-.82-2-2-2H8c-1.959 0-3 1.603-3 3Z"/>
  <path fill="#f60" stroke="#000" stroke-linecap="round" stroke-linejoin="round" d="M47 14v49h33V14Z"/>
  <path fill="none" stroke="#000" stroke-linecap="round" stroke-width="3" d="M58 22.448h12"/>
  <circle cx="64" cy="26.5" r="2" fill="#fff" stroke="#000" stroke-linecap="round" stroke-linejoin="round"/>
  <path fill="none" stroke="#000" d="M14 14.25V30c0 11.49 8.078 54.972 50 55 41.922.028 50.492-42.784 50-55V14.25Z"/>
  <path fill="none" stroke="#000" d="M47 63c0 9.834 7.982 16.55 17 16.414 9.018-.137 16-7.342 16-16.414M56 26c0 3.69 2.697 8.08 8 8 5.303-.08 8-5.415 8-8m-25 88.916c0-9.834 7.982-16.55 17-16.414 9.018.137 16 7.342 16 16.414"/>
  <path fill="#7e4d07" stroke="#000" stroke-linecap="round" stroke-width="5.096" d="m42.637 68.286-8.318-8.318m0 8.318 8.318-8.318M98.27 29.223l-8.32-8.318m0 8.318 8.32-8.318"/>
  <circle cx="15.755" cy="27.515" r="7.838" fill="navy" stroke="navy" stroke-linecap="round" stroke-linejoin="round" stroke-width="2"/>
  <circle cx="29.888" cy="94.297" r="7.838" fill="navy" stroke="navy" stroke-linecap="round" stroke-linejoin="round" stroke-width="2"/>
</svg>
