<?xml version="1.0" encoding="UTF-8" standalone="no"?>
<!-- Generator: Adobe Illustrator 19.0.0, SVG Export Plug-In . SVG Version: 6.00 Build 0)  -->

<svg
   xmlns:dc="http://purl.org/dc/elements/1.1/"
   xmlns:cc="http://creativecommons.org/ns#"
   xmlns:rdf="http://www.w3.org/1999/02/22-rdf-syntax-ns#"
   xmlns:svg="http://www.w3.org/2000/svg"
   xmlns="http://www.w3.org/2000/svg"
   xmlns:sodipodi="http://sodipodi.sourceforge.net/DTD/sodipodi-0.dtd"
   xmlns:inkscape="http://www.inkscape.org/namespaces/inkscape"
   version="1.1"
   id="Capa_1"
   x="0px"
   y="0px"
   viewBox="0 0 128 128"
   xml:space="preserve"
   sodipodi:docname="edit.svg"
   inkscape:version="0.92.4 (5da689c313, 2019-01-14)"
   inkscape:export-filename="C:\Users\SESA219410\Source\rails\bclub\app\assets\images\edit.png"
   inkscape:export-xdpi="90"
   inkscape:export-ydpi="90"
   width="128"
   height="128"><metadata
   id="metadata39"><rdf:RDF><cc:Work
       rdf:about=""><dc:format>image/svg+xml</dc:format><dc:type
         rdf:resource="http://purl.org/dc/dcmitype/StillImage" /></cc:Work></rdf:RDF></metadata><defs
   id="defs37" /><sodipodi:namedview
   pagecolor="#ffffff"
   bordercolor="#666666"
   borderopacity="1"
   objecttolerance="10"
   gridtolerance="10"
   guidetolerance="10"
   inkscape:pageopacity="0"
   inkscape:pageshadow="2"
   inkscape:window-width="1920"
   inkscape:window-height="1017"
   id="namedview35"
   showgrid="false"
   inkscape:zoom="6.640625"
   inkscape:cx="64"
   inkscape:cy="64"
   inkscape:window-x="-8"
   inkscape:window-y="-8"
   inkscape:window-maximized="1"
   inkscape:current-layer="Capa_1" />

<g
   id="g4"
   transform="translate(0,72.749001)">
</g>
<g
   id="g6"
   transform="translate(0,72.749001)">
</g>
<g
   id="g8"
   transform="translate(0,72.749001)">
</g>
<g
   id="g10"
   transform="translate(0,72.749001)">
</g>
<g
   id="g12"
   transform="translate(0,72.749001)">
</g>
<g
   id="g14"
   transform="translate(0,72.749001)">
</g>
<g
   id="g16"
   transform="translate(0,72.749001)">
</g>
<g
   id="g18"
   transform="translate(0,72.749001)">
</g>
<g
   id="g20"
   transform="translate(0,72.749001)">
</g>
<g
   id="g22"
   transform="translate(0,72.749001)">
</g>
<g
   id="g24"
   transform="translate(0,72.749001)">
</g>
<g
   id="g26"
   transform="translate(0,72.749001)">
</g>
<g
   id="g28"
   transform="translate(0,72.749001)">
</g>
<g
   id="g30"
   transform="translate(0,72.749001)">
</g>
<g
   id="g32"
   transform="translate(0,72.749001)">
</g>
<g
   id="g840"
   transform="scale(2.3167578,2.3167002)"><path
     id="path2"
     d="m 52.618,2.631 c -3.51,-3.508 -9.219,-3.508 -12.729,0 L 3.827,38.693 C 3.81,38.71 3.8,38.731 3.785,38.749 3.764,38.773 3.746,38.799 3.727,38.825 3.674,38.899 3.633,38.978 3.602,39.064 3.593,39.09 3.58,39.113 3.573,39.139 3.57,39.149 3.564,39.159 3.561,39.169 L 0.026,54.019 C 0.01,54.086 0.006,54.154 0.004,54.221 0.004,54.234 0,54.246 0,54.259 c 0.001,0.114 0.026,0.225 0.065,0.332 0.009,0.025 0.019,0.047 0.03,0.071 0.049,0.107 0.11,0.21 0.196,0.296 0.095,0.095 0.207,0.168 0.328,0.218 0.121,0.05 0.25,0.075 0.379,0.075 0.077,0 0.155,-0.009 0.231,-0.027 l 14.85,-3.535 c 0.027,-0.006 0.051,-0.021 0.077,-0.03 0.034,-0.011 0.066,-0.024 0.099,-0.039 0.072,-0.033 0.139,-0.074 0.201,-0.123 0.024,-0.019 0.049,-0.033 0.072,-0.054 0.008,-0.008 0.018,-0.012 0.026,-0.02 L 52.617,15.36 c 3.51,-3.51 3.51,-9.22 0.001,-12.729 z m -1.414,1.414 c 2.488,2.489 2.7,6.397 0.65,9.137 L 42.067,3.395 c 2.741,-2.05 6.649,-1.838 9.137,0.65 z m -4.95,14.85 -9.9,-9.9 1.414,-1.414 9.9,9.9 z M 4.961,50.288 c -0.391,-0.391 -1.023,-0.391 -1.414,0 L 2.79,51.045 5.344,40.317 9.766,39.826 9.197,44.948 c -0.004,0.038 0.01,0.073 0.01,0.11 0,0.038 -0.014,0.072 -0.01,0.11 0.004,0.033 0.021,0.06 0.028,0.092 0.012,0.058 0.029,0.111 0.05,0.165 0.026,0.065 0.057,0.124 0.095,0.181 0.031,0.046 0.062,0.087 0.1,0.127 0.048,0.051 0.1,0.094 0.157,0.134 0.045,0.031 0.088,0.06 0.138,0.084 0.066,0.031 0.135,0.049 0.207,0.066 0.038,0.009 0.069,0.03 0.108,0.035 0.036,0.004 0.072,0.006 0.109,0.006 0,0 10e-4,0 10e-4,0 0,0 0.001,0 0.001,0 h 10e-4 c 0,0 10e-4,0 10e-4,0 0.036,0 0.073,-0.002 0.109,-0.006 l 5.122,-0.569 -0.491,4.422 -10.729,2.554 0.757,-0.757 c 0.39,-0.39 0.39,-1.023 0,-1.414 z M 17.511,44.809 39.889,22.43 c 0.391,-0.391 0.391,-1.023 0,-1.414 -0.391,-0.391 -1.023,-0.391 -1.414,0 l -22.378,22.379 -4.773,0.53 0.53,-4.773 22.38,-22.378 c 0.391,-0.391 0.391,-1.023 0,-1.414 -0.391,-0.391 -1.023,-0.391 -1.414,0 L 10.44,37.738 7.257,38.092 34.94,10.409 l 9.9,9.9 -27.683,27.683 z m 31.571,-28.742 -9.9,-9.9 1.415,-1.415 9.9,9.9 z"
     inkscape:connector-curvature="0" /><path
     inkscape:connector-curvature="0"
     id="path848"
     d="M 46.989743,8.2563002 42.111373,3.3776678 42.59694,3.0788471 c 2.049916,-1.2615292 4.54464,-1.3857914 6.701318,-0.3337927 2.003077,0.977074 3.41572,2.8327792 3.806458,5.0003164 0.121294,0.6728494 0.121311,1.8330069 3.6e-5,2.4775282 -0.17106,0.909113 -0.528628,1.804237 -1.040919,2.605796 l -0.19572,0.306237 z"
     style="fill:#ff5555;fill-opacity:0.98431373;stroke:none;stroke-width:1.52171612;stroke-linecap:square;stroke-linejoin:round;stroke-miterlimit:4;stroke-dasharray:none;stroke-opacity:1" /><path
     inkscape:connector-curvature="0"
     id="path850"
     d="m 17.249329,47.553439 c 0.03264,-0.160951 0.117517,-0.845723 0.188619,-1.521716 l 0.129275,-1.229079 11.282723,-11.295815 c 7.412853,-7.421456 11.308235,-11.401901 11.357106,-11.60511 0.160899,-0.669041 -0.657118,-1.423126 -1.302201,-1.200428 -0.122491,0.04229 -5.305828,5.152429 -11.518527,11.355872 l -11.295815,11.278986 -1.989937,0.235234 c -1.094465,0.129378 -2.150899,0.235471 -2.34763,0.235763 l -0.357694,5.3e-4 0.256018,-2.297133 0.256018,-2.297134 11.309701,-11.311941 c 10.876625,-10.87878 11.3097,-11.328328 11.3097,-11.739903 0,-0.235379 -0.03272,-0.513231 -0.07271,-0.617448 -0.11565,-0.30138 -0.728821,-0.561395 -1.141373,-0.484 -0.292536,0.05488 -2.637499,2.34004 -11.649643,11.352547 L 10.379574,37.6965 9.0598886,37.838654 c -0.7258272,0.07819 -1.3767284,0.12314 -1.4464473,0.0999 -0.069719,-0.02324 6.0495797,-6.218428 13.5984417,-13.767085 l 13.725202,-13.72483 4.915668,4.916712 4.915666,4.916712 L 30.979203,34.06307 C 21.697692,43.3404 17.209384,47.750413 17.249329,47.553439 Z"
     style="fill:#d4aa00;fill-opacity:0.98431373;stroke:none;stroke-width:3.04343224;stroke-linecap:square;stroke-linejoin:round;stroke-miterlimit:4;stroke-dasharray:none;stroke-opacity:1" /><path
     inkscape:connector-curvature="0"
     id="path852"
     d="M 5.0794689,51.626304 C 5.3771988,51.121689 5.3912221,50.999385 5.1976568,50.595525 5.0768636,50.343498 4.7736892,50.06543 4.5239361,49.977597 4.1542882,49.847599 3.9773418,49.886286 3.5724608,50.185628 c -0.2735583,0.20225 -0.4973787,0.288127 -0.4973787,0.190838 0,-0.282891 2.1470863,-9.316664 2.3027514,-9.688727 0.1237029,-0.295668 0.3907447,-0.36207 2.1725672,-0.540222 1.1173407,-0.111714 2.0509599,-0.183498 2.0747094,-0.159519 0.023749,0.02398 -0.058939,0.900274 -0.1837522,1.94732 -0.3077892,2.582017 -0.3030475,3.556466 0.018873,3.878386 0.3228377,0.322838 0.9117491,0.323802 3.6118711,0.0059 1.173605,-0.13817 2.162393,-0.222652 2.197306,-0.187738 0.07624,0.07624 -0.377078,4.075196 -0.472817,4.170936 -0.0651,0.0651 -9.7465995,2.396038 -9.9518848,2.396038 -0.056677,0 0.048966,-0.257647 0.2347629,-0.572549 z"
     style="fill:#ffeeaa;fill-opacity:0.98431373;stroke:none;stroke-width:4.30406332;stroke-linecap:square;stroke-linejoin:round;stroke-miterlimit:4;stroke-dasharray:none;stroke-opacity:1" /><path
     inkscape:connector-curvature="0"
     id="path854"
     d="m 44.129267,10.932712 -4.793386,-4.7976684 0.64238,-0.6423803 0.64238,-0.6423803 4.846001,4.8460006 4.846,4.8460004 -0.558078,0.594048 c -0.306944,0.326726 -0.619691,0.594048 -0.694995,0.594048 -0.0753,0 -2.293939,-2.158951 -4.930302,-4.797668 z"
     style="fill:#c8beb7;fill-opacity:0.98431373;stroke:none;stroke-width:6.08686447;stroke-linecap:square;stroke-linejoin:round;stroke-miterlimit:4;stroke-dasharray:none;stroke-opacity:1" /><path
     inkscape:connector-curvature="0"
     id="path856"
     d="m 41.326384,13.748479 -4.786947,-4.7912229 0.564977,-0.6013903 0.564977,-0.6013902 4.861616,4.8574814 4.861616,4.857481 -0.50273,0.535132 c -0.276502,0.294323 -0.564342,0.535132 -0.639646,0.535132 -0.0753,0 -2.291042,-2.15605 -4.923863,-4.791223 z"
     style="fill:#e3dedb;fill-opacity:0.98431373;stroke:none;stroke-width:6.08686447;stroke-linecap:square;stroke-linejoin:round;stroke-miterlimit:4;stroke-dasharray:none;stroke-opacity:1" /><path
     inkscape:connector-curvature="0"
     id="path858"
     d="m 44.1723,10.854803 -4.76222,-4.764345 0.587729,-0.5696493 0.587729,-0.5696494 4.823223,4.8232228 4.823222,4.8232229 -0.510771,0.510771 c -0.280924,0.280924 -0.572853,0.510772 -0.648731,0.510772 -0.07588,0 -2.28096,-2.143956 -4.900181,-4.764345 z"
     style="fill:#e3dedb;fill-opacity:0.98431373;stroke:none;stroke-width:4.30406332;stroke-linecap:square;stroke-linejoin:round;stroke-miterlimit:4;stroke-dasharray:none;stroke-opacity:1" /></g></svg>