<svg xmlns="http://www.w3.org/2000/svg" xml:space="preserve" viewBox="0 0 128 128">
  <path d="M121.903 6.095c-8.132-8.127-21.358-8.127-29.49 0L8.866 89.64c-.04.04-.062.088-.097.13-.049.055-.09.116-.134.176a2.253 2.253 0 0 0-.29.554c-.02.06-.051.113-.067.173-.007.023-.021.047-.028.07L.06 125.146a2.297 2.297 0 0 0-.05.468c0 .03-.01.058-.01.088a2.304 2.304 0 0 0 .22.933c.114.248.255.487.454.686a2.332 2.332 0 0 0 1.638.679c.179 0 .36-.02.535-.063l34.404-8.19c.063-.013.118-.048.179-.069a2.281 2.281 0 0 0 .695-.375c.055-.044.113-.076.166-.125.019-.019.042-.028.06-.046l83.55-83.547c8.132-8.132 8.132-21.36.002-29.49zm-3.276 3.276c5.764 5.766 6.256 14.82 1.506 21.168L97.46 7.865c6.35-4.749 15.404-4.258 21.168 1.506zM107.16 43.774 84.223 20.84l3.276-3.276 22.936 22.935zm-95.666 72.728a2.314 2.314 0 0 0-3.275 0l-1.754 1.754 5.917-24.854 10.244-1.137-1.318 11.866c-.009.088.023.17.023.255 0 .088-.032.167-.023.255.01.076.049.139.065.213a2.353 2.353 0 0 0 .336.801 2.194 2.194 0 0 0 .595.605c.105.072.204.14.32.195.153.072.313.113.48.153.088.02.16.07.25.08.083.01.167.015.252.015h.01c.083 0 .169-.005.252-.014l11.867-1.319-1.138 10.245-24.856 5.917 1.753-1.754a2.318 2.318 0 0 0 0-3.276zM40.57 103.81l51.844-51.845a2.314 2.314 0 0 0 0-3.276 2.314 2.314 0 0 0-3.276 0l-51.844 51.845-11.058 1.228 1.228-11.058L79.312 38.86a2.314 2.314 0 0 0 0-3.275 2.314 2.314 0 0 0-3.276 0L24.187 87.428l-7.374.82 64.135-64.133 22.935 22.935-64.134 64.133zm73.142-66.587L90.775 14.287l3.278-3.278 22.936 22.935z"/>
  <path fill="#f55" fill-opacity=".984" d="M108.864 19.127 97.562 7.825l1.125-.692c4.749-2.923 10.529-3.21 15.525-.774 4.64 2.264 7.914 6.563 8.819 11.585.28 1.558.28 4.246 0 5.74a17.196 17.196 0 0 1-2.412 6.036l-.453.71z"/>
  <path fill="#d4aa00" fill-opacity=".984" d="M39.963 110.167c.075-.373.272-1.96.437-3.525l.299-2.848 26.14-26.169C84.011 60.432 93.036 51.21 93.15 50.74c.373-1.55-1.522-3.297-3.017-2.781-.284.098-12.292 11.936-26.686 26.308l-26.17 26.13-4.61.545c-2.535.3-4.983.545-5.438.546l-.829.001.593-5.322.593-5.321 26.202-26.207C78.987 39.436 79.99 38.395 79.99 37.442c0-.546-.076-1.19-.168-1.43-.268-.7-1.689-1.302-2.645-1.122-.678.127-6.11 5.42-26.99 26.3l-26.14 26.141-3.057.33c-1.682.181-3.19.285-3.352.231-.161-.054 14.016-14.406 31.505-31.894L80.94 24.202l11.388 11.39 11.389 11.39L71.77 78.915c-21.503 21.493-31.901 31.71-31.808 31.253Z"/>
  <path fill="#fea" fill-opacity=".984" d="M11.768 119.603c.69-1.17.722-1.453.274-2.388-.28-.584-.983-1.228-1.561-1.432-.857-.301-1.266-.211-2.204.482-.634.469-1.153.668-1.153.442 0-.655 4.974-21.584 5.335-22.446.287-.685.905-.839 5.033-1.251 2.59-.259 4.752-.425 4.807-.37.055.056-.136 2.086-.426 4.512-.713 5.981-.702 8.239.044 8.985.748.748 2.112.75 8.368.013 2.719-.32 5.01-.516 5.09-.435.177.177-.873 9.441-1.095 9.663-.15.151-22.58 5.551-23.056 5.551-.131 0 .113-.597.544-1.326z"/>
  <path fill="#c8beb7" fill-opacity=".984" d="M102.237 25.328 91.132 14.213l1.488-1.488 1.488-1.488 11.227 11.226 11.227 11.227-1.293 1.376c-.71.757-1.435 1.377-1.61 1.377-.174 0-5.314-5.002-11.422-11.115z"/>
  <path fill="#e3dedb" fill-opacity=".984" d="m95.743 31.851-11.09-11.1 1.309-1.393 1.309-1.393 11.263 11.253 11.263 11.253-1.164 1.24c-.641.682-1.308 1.24-1.482 1.24-.175 0-5.308-4.995-11.408-11.1zm6.594-6.704L91.304 14.11l1.361-1.32 1.362-1.32L105.2 22.644l11.174 11.174-1.183 1.184c-.65.65-1.327 1.183-1.503 1.183-.176 0-5.284-4.967-11.352-11.038z"/>
</svg>
