<svg xmlns="http://www.w3.org/2000/svg" viewBox="0 0 33.867 33.867">
  <text xml:space="preserve" x="9.728" y="22.089" fill="navy" stroke-width=".362" font-family="sans-serif" font-size="14.482" font-weight="400" letter-spacing="0" style="line-height:1.25" word-spacing="0"><tspan x="9.728" y="22.089" font-weight="700" style="-inkscape-font-specification:&quot;sans-serif Bold&quot;">@</tspan></text>
  <path fill="none" stroke="navy" stroke-linecap="round" stroke-linejoin="round" stroke-width="2.117" d="M32.28 5.689 1.586 5.79v22.387H32.28z"/>
  <path fill="none" stroke="navy" stroke-linecap="round" stroke-width="2.117" d="m1.587 5.79 8.707 6.243M32.28 5.689l-8.707 6.242"/>
  <path fill="navy" d="M18.942 16.542s-.681-.727-1.135-.882c-.731-.25-1.626-.337-2.317.007-.68.337-1.167 1.082-1.38 1.81-.214.738-.167 1.618.195 2.295.315.586.93 1.04 1.565 1.241.612.194 1.345.17 1.921-.111.43-.211.945-1.084.945-1.084l-.513-.857s-.255.55-.498.705c-.332.212-.78.308-1.162.213a1.396 1.396 0 0 1-.84-.662c-.267-.479-.389-1.123-.19-1.634.186-.477.654-.952 1.163-1.004.602-.06 1.144.445 1.584.885.104.104.662-.922.662-.922z"/>
</svg>
