<?xml version="1.0" encoding="UTF-8" standalone="no"?>
<svg
   xmlns:dc="http://purl.org/dc/elements/1.1/"
   xmlns:cc="http://creativecommons.org/ns#"
   xmlns:rdf="http://www.w3.org/1999/02/22-rdf-syntax-ns#"
   xmlns:svg="http://www.w3.org/2000/svg"
   xmlns="http://www.w3.org/2000/svg"
   xmlns:sodipodi="http://sodipodi.sourceforge.net/DTD/sodipodi-0.dtd"
   xmlns:inkscape="http://www.inkscape.org/namespaces/inkscape"
   width="128"
   height="128"
   viewBox="0 0 33.866666 33.866668"
   version="1.1"
   id="svg8"
   inkscape:version="1.0.2 (e86c870879, 2021-01-15)"
   sodipodi:docname="at.svg">
  <defs
     id="defs2" />
  <sodipodi:namedview
     id="base"
     pagecolor="#ffffff"
     bordercolor="#666666"
     borderopacity="1.0"
     inkscape:pageopacity="0.0"
     inkscape:pageshadow="2"
     inkscape:zoom="1.5996094"
     inkscape:cx="166.06593"
     inkscape:cy="48.106171"
     inkscape:document-units="px"
     inkscape:current-layer="layer1"
     inkscape:document-rotation="0"
     showgrid="false"
     units="px"
     showguides="false"
     inkscape:window-width="1920"
     inkscape:window-height="1016"
     inkscape:window-x="0"
     inkscape:window-y="36"
     inkscape:window-maximized="1" />
  <metadata
     id="metadata5">
    <rdf:RDF>
      <cc:Work
         rdf:about="">
        <dc:format>image/svg+xml</dc:format>
        <dc:type
           rdf:resource="http://purl.org/dc/dcmitype/StillImage" />
        <dc:title></dc:title>
      </cc:Work>
    </rdf:RDF>
  </metadata>
  <g
     inkscape:label="Capa 1"
     inkscape:groupmode="layer"
     id="layer1">
    <g
       id="g844" />
    <text
       xml:space="preserve"
       style="font-style:normal;font-weight:normal;font-size:14.482px;line-height:1.25;font-family:sans-serif;letter-spacing:0px;word-spacing:0px;fill:#000080;fill-opacity:1;stroke:none;stroke-width:0.362047;"
       x="9.727664"
       y="22.088907"
       id="text839"><tspan
         sodipodi:role="line"
         id="tspan837"
         x="9.727664"
         y="22.088907"
         style="font-style:normal;font-variant:normal;font-weight:bold;font-stretch:normal;font-family:sans-serif;-inkscape-font-specification:'sans-serif Bold';stroke-width:0.362047;fill:#000080;">@</tspan></text>
    <path
       style="fill:none;stroke:#000080;stroke-width:2.11667;stroke-linecap:round;stroke-linejoin:round;stroke-miterlimit:4;stroke-dasharray:none;stroke-opacity:1"
       d="M 32.279167,5.6885414 1.5875,5.7905383 V 28.178125 h 30.691667 z"
       id="path841"
       sodipodi:nodetypes="ccccc" />
    <path
       style="fill:none;stroke:#000080;stroke-width:2.11667;stroke-linecap:round;stroke-linejoin:miter;stroke-miterlimit:4;stroke-dasharray:none;stroke-opacity:1"
       d="m 1.5875,5.7905383 8.706064,6.2428757"
       id="path848"
       sodipodi:nodetypes="cc" />
    <path
       style="fill:none;stroke:#000080;stroke-width:2.11667;stroke-linecap:round;stroke-linejoin:miter;stroke-miterlimit:4;stroke-dasharray:none;stroke-opacity:1"
       d="M 32.279167,5.6885414 23.573103,11.931417"
       id="path848-4"
       sodipodi:nodetypes="cc" />
    <path
       style="fill:#000080;fill-opacity:1;stroke:none;stroke-width:0.0879372px;stroke-linecap:round;stroke-linejoin:round;stroke-opacity:1"
       d="m 18.942319,16.542303 c 0,0 -0.681648,-0.727576 -1.135233,-0.882398 -0.731061,-0.249534 -1.625746,-0.337302 -2.317415,0.0066 -0.679396,0.33786 -1.166978,1.08257 -1.378872,1.81115 -0.2143,0.73685 -0.168057,1.617652 0.194666,2.293894 0.314791,0.58688 0.930039,1.041134 1.565019,1.241938 0.611504,0.19338 1.344958,0.170407 1.920797,-0.11198 0.430153,-0.210943 0.94465,-1.083232 0.94465,-1.083232 L 18.22295,18.960866 c 0,0 -0.255301,0.550414 -0.497778,0.705421 -0.331962,0.212212 -0.780245,0.308125 -1.162614,0.213119 -0.345734,-0.08591 -0.665079,-0.351275 -0.838779,-0.662304 -0.267343,-0.478708 -0.389641,-1.122855 -0.190737,-1.633807 0.185767,-0.477204 0.653464,-0.952028 1.162922,-1.003847 0.601651,-0.0612 1.144251,0.445013 1.583938,0.884702 0.103635,0.103634 0.66242,-0.9219 0.662419,-0.9219 z"
       id="path841-0"
       sodipodi:nodetypes="caaaaaaccaaaaascc" />
  </g>
</svg>
