<svg width="128" height="128" xmlns="http://www.w3.org/2000/svg"><g stroke="#000" stroke-linecap="round" style="fill:navy"><path stroke-width="8" d="M15 10.476v110" style="fill:navy" transform="translate(-2.5 -.476)"/><path fill="none" stroke-linejoin="round" stroke-width="4" d="M16 23.476s21.902-13.933 34-13c13.397 1.033 21.66 18.386 35 20 12.046 1.458 35-10 35-10V90s-22.307 14.012-35 12.476c-12.693-1.536-22.253-19.017-35-20-12.747-.983-34 13-34 13z" style="fill:navy" transform="translate(-2.5 -.476)"/></g><path style="fill:none;stroke:#fff;stroke-width:3.35425;stroke-linecap:round;stroke-linejoin:round;stroke-dasharray:none;stroke-opacity:1" d="M46.757 53.587c-.33-3.576 1.142-7.465 3.47-10.2 2.38-2.798 6.066-4.913 9.73-5.17 3.791-.268 7.72 1.55 10.72 3.884 3.791 2.95 7.306 7.187 8.09 11.927.679 4.094-.4 9.031-3.294 12.005-3.004 3.085-8.057 3.88-12.361 3.751-3.26-.098-6.693-1.28-9.172-3.398-3.719-3.178-6.735-7.927-7.183-12.799z"/><path style="fill:#fff;stroke:#fff;stroke-width:.893453;stroke-linecap:round;stroke-linejoin:round;stroke-dasharray:none;stroke-opacity:1" d="M48.6 75.177s2.877-15.405 4.972-22.945c1.979-7.12 4.197-14.108 7.157-20.985.454-1.055 1.52.625 1.876 1.18 3.985 6.21 6.35 12.993 8.048 19.965 1.652 6.781 1.98 20.844 1.98 20.844s-.894-15.229-6.87-15.928C55.53 55.527 51.437 70.264 48.6 75.177z"/><circle style="fill:#fff;stroke:none;stroke-width:1.28587;stroke-linecap:round;stroke-linejoin:round;stroke-dasharray:none;stroke-opacity:1" cx="88.225" cy="90.851" r="2.5"/><circle style="fill:#fff;stroke:none;stroke-width:1.28587;stroke-linecap:round;stroke-linejoin:round;stroke-dasharray:none;stroke-opacity:1" cx="83.656" cy="74.613" r="2.5"/><circle style="fill:#fff;stroke:none;stroke-width:1.28587;stroke-linecap:round;stroke-linejoin:round;stroke-dasharray:none;stroke-opacity:1" cx="87.984" cy="53.371" r="2.5"/><circle style="fill:#fff;stroke:none;stroke-width:1.28587;stroke-linecap:round;stroke-linejoin:round;stroke-dasharray:none;stroke-opacity:1" cx="84.242" cy="45.258" r="2.5"/><circle style="fill:#fff;stroke:none;stroke-width:1.28587;stroke-linecap:round;stroke-linejoin:round;stroke-dasharray:none;stroke-opacity:1" cx="90.202" cy="63.922" r="2.5"/><ellipse style="fill:#fff;stroke:none;stroke-width:1.54048;stroke-linecap:round;stroke-linejoin:round;stroke-dasharray:none;stroke-opacity:1" cx="82.811" cy="72.881" rx="2.5" ry="2.034" transform="rotate(-15)"/><ellipse style="fill:#fff;stroke:none;stroke-width:1.54048;stroke-linecap:round;stroke-linejoin:round;stroke-dasharray:none;stroke-opacity:1" cx="42.242" cy="115.64" rx="2.5" ry="2.034" transform="rotate(-30)"/><ellipse style="fill:#fff;stroke:none;stroke-width:1.54048;stroke-linecap:round;stroke-linejoin:round;stroke-dasharray:none;stroke-opacity:1" cx="80.88" cy="91.025" rx="2.5" ry="2.034" transform="rotate(-15)"/><ellipse style="fill:#fff;stroke:none;stroke-width:1.54048;stroke-linecap:round;stroke-linejoin:round;stroke-dasharray:none;stroke-opacity:1" cx="74.133" cy="86.891" rx="2.5" ry="2.034" transform="rotate(-30)"/><ellipse style="fill:#fff;stroke:none;stroke-width:1.54048;stroke-linecap:round;stroke-linejoin:round;stroke-dasharray:none;stroke-opacity:1" cx="50.376" cy="126.973" rx="2.5" ry="2.034" transform="rotate(-30)"/><ellipse style="fill:#fff;stroke:none;stroke-width:1.54048;stroke-linecap:round;stroke-linejoin:round;stroke-dasharray:none;stroke-opacity:1" cx="13.485" cy="49.183" rx="2.5" ry="2.034" transform="rotate(-15)"/><ellipse style="fill:#fff;stroke:none;stroke-width:1.54048;stroke-linecap:round;stroke-linejoin:round;stroke-dasharray:none;stroke-opacity:1" cx="10.023" cy="69.217" rx="2.5" ry="2.034" transform="rotate(-15)"/><ellipse style="fill:#fff;stroke:none;stroke-width:1.54048;stroke-linecap:round;stroke-linejoin:round;stroke-dasharray:none;stroke-opacity:1" cx=".627" cy="81.001" rx="2.5" ry="2.034" transform="rotate(-15)"/><ellipse style="fill:#fff;stroke:none;stroke-width:1.54048;stroke-linecap:round;stroke-linejoin:round;stroke-dasharray:none;stroke-opacity:1" cx="18.871" cy="48.472" rx="2.5" ry="2.034" transform="rotate(-30)"/><ellipse style="fill:#fff;stroke:none;stroke-width:1.54048;stroke-linecap:round;stroke-linejoin:round;stroke-dasharray:none;stroke-opacity:1" cx="9.824" cy="58.986" rx="2.5" ry="2.034" transform="rotate(-30)"/><ellipse style="fill:#fff;stroke:none;stroke-width:1.54048;stroke-linecap:round;stroke-linejoin:round;stroke-dasharray:none;stroke-opacity:1" cx="100.826" cy="35.085" rx="2.5" ry="2.034" transform="rotate(30)"/></svg>