<?xml version="1.0" encoding="UTF-8" standalone="no"?>
<svg
   xmlns:dc="http://purl.org/dc/elements/1.1/"
   xmlns:cc="http://creativecommons.org/ns#"
   xmlns:rdf="http://www.w3.org/1999/02/22-rdf-syntax-ns#"
   xmlns:svg="http://www.w3.org/2000/svg"
   xmlns="http://www.w3.org/2000/svg"
   xmlns:sodipodi="http://sodipodi.sourceforge.net/DTD/sodipodi-0.dtd"
   xmlns:inkscape="http://www.inkscape.org/namespaces/inkscape"
   id="Layer_1"
   data-name="Layer 1"
   viewBox="0 0 128 128"
   version="1.1"
   sodipodi:docname="gmaps.svg"
   width="128"
   height="128"
   inkscape:version="1.0.2 (e86c870879, 2021-01-15)">
  <metadata
     id="metadata11">
    <rdf:RDF>
      <cc:Work
         rdf:about="">
        <dc:format>image/svg+xml</dc:format>
        <dc:type
           rdf:resource="http://purl.org/dc/dcmitype/StillImage" />
        <dc:title>timetable</dc:title>
      </cc:Work>
    </rdf:RDF>
  </metadata>
  <defs
     id="defs9" />
  <sodipodi:namedview
     pagecolor="#ffffff"
     bordercolor="#666666"
     borderopacity="1"
     objecttolerance="10"
     gridtolerance="10"
     guidetolerance="10"
     inkscape:pageopacity="0"
     inkscape:pageshadow="2"
     inkscape:window-width="1920"
     inkscape:window-height="1016"
     id="namedview7"
     showgrid="false"
     showguides="true"
     inkscape:zoom="2.3240997"
     inkscape:cx="-13.261081"
     inkscape:cy="6.9246808"
     inkscape:window-x="0"
     inkscape:window-y="27"
     inkscape:window-maximized="1"
     inkscape:current-layer="Layer_1"
     inkscape:guide-bbox="true"
     inkscape:document-rotation="0" />
  <title
     id="title2">timetable</title>
  <g
     transform="matrix(0.3322507,0,0,0.3322509,13.201735,40.897864)"
     id="g842-7-3">
    <path
       style="opacity:1;fill:#34a853;fill-opacity:1;stroke:none;stroke-width:0.0429998;stroke-linecap:butt;stroke-linejoin:miter;stroke-miterlimit:4;stroke-dasharray:none;stroke-dashoffset:0;stroke-opacity:1"
       d="m 93.545844,160.92035 c 11.727516,14.71542 23.644866,33.08303 29.884886,44.07484 7.62216,14.44715 10.79878,24.25365 16.36944,41.66479 3.41613,9.62541 6.50375,12.48796 13.13951,12.48796 7.23088,0 10.50971,-4.8817 13.06089,-12.44293 5.26609,-16.44319 9.38949,-28.99132 15.90993,-40.84983 12.7863,-22.90355 28.68094,-43.24174 44.28982,-62.77976 4.23083,-5.53405 31.55637,-37.76985 43.85983,-63.209736 0,0 15.12289,-27.935985 15.12289,-66.95689 0,-36.500534 -14.90788,-61.827618 -14.90788,-61.827618 l -42.93701,11.50494 -26.07772,68.689752 -6.44998,9.459958 -1.28999,1.719988 -1.71999,2.149997 -3.01,3.439992 -4.29998,4.299978 -23.21991,18.919931 -58.04977,33.515048 z"
       id="path835-6-9"
       inkscape:connector-curvature="0"
       sodipodi:nodetypes="cccccccccccccccccccc" />
    <path
       style="opacity:1;fill:#fbbc04;fill-opacity:1;stroke:none;stroke-width:0.0429998;stroke-linecap:butt;stroke-linejoin:miter;stroke-miterlimit:4;stroke-dasharray:none;stroke-dashoffset:0;stroke-opacity:1"
       d="m 33.561081,75.135697 c 14.1749,32.363243 41.486161,60.809133 59.984765,85.784653 L 191.80047,44.605811 c 0,0 -13.82638,18.087493 -38.91509,18.087493 -27.95462,0 -50.52841,-22.322935 -50.52841,-50.45638 0,-19.301695 11.61379,-32.56086 11.61379,-32.56086 L 47.321026,-2.4651894 Z"
       id="path833-6-0"
       inkscape:connector-curvature="0"
       sodipodi:nodetypes="cccccccc" />
    <path
       style="opacity:1;fill:#4285f4;fill-opacity:1;stroke:none;stroke-width:0.0429998;stroke-linecap:butt;stroke-linejoin:miter;stroke-miterlimit:4;stroke-dasharray:none;stroke-dashoffset:0;stroke-opacity:1"
       d="m 192.87547,-114.06357 c 32.6125,10.50617 60.52472,32.590627 77.39969,65.14475 l -78.47469,93.524631 c 0,0 11.60994,-13.49004 11.60994,-32.679867 0,-28.797984 -24.25217,-50.30981 -50.45185,-50.30981 -24.7668,0 -38.9878,18.05993 -38.9878,18.05993 v -58.909769 z"
       id="path831-3-6"
       inkscape:connector-curvature="0"
       sodipodi:nodetypes="cccccccc" />
    <path
       style="opacity:1;fill:#1a73e8;fill-opacity:1;stroke:none;stroke-width:0.0429998;stroke-linecap:butt;stroke-linejoin:miter;stroke-miterlimit:4;stroke-dasharray:none;stroke-dashoffset:0;stroke-opacity:1"
       d="m 51.62101,-72.78373 c 19.479184,-23.302014 53.76202,-47.29981 101.0496,-47.29981 22.92393,0 40.20486,6.01997 40.20486,6.01997 l -78.90471,93.739634 H 58.070983 Z"
       id="path829-6-3"
       inkscape:connector-curvature="0"
       sodipodi:nodetypes="cccccc" />
    <path
       style="opacity:1;fill:#ea4335;fill-opacity:1;stroke:none;stroke-width:0.0429998;stroke-linecap:butt;stroke-linejoin:miter;stroke-miterlimit:4;stroke-dasharray:none;stroke-dashoffset:0;stroke-opacity:1"
       d="m 33.561081,75.135697 c 0,0 -12.961379,-25.520383 -12.961379,-62.495644 0,-34.953788 13.594647,-65.504165 31.021308,-85.423783 l 62.34975,52.459794 z"
       id="path827-8-8"
       inkscape:connector-curvature="0"
       sodipodi:nodetypes="ccccc" />
  </g>
</svg>
