<svg xmlns="http://www.w3.org/2000/svg" data-name="Layer 1" viewBox="0 0 128 128">
  <path fill="#34a853" d="M44.282 94.364c3.897 4.889 7.856 10.992 9.93 14.644 2.532 4.8 3.588 8.058 5.438 13.843 1.135 3.198 2.161 4.149 4.366 4.149 2.403 0 3.492-1.622 4.34-4.134 1.75-5.463 3.12-9.633 5.286-13.573 4.248-7.61 9.529-14.367 14.715-20.858 1.406-1.839 10.485-12.55 14.572-21.002 0 0 5.025-9.281 5.025-22.246 0-12.128-4.953-20.542-4.953-20.542l-14.266 3.822-8.664 22.822-2.143 3.143-.429.572-.571.714-1 1.143-1.43 1.429-7.714 6.286-19.287 11.135z"/>
  <path fill="#fbbc04" d="M24.352 65.862c4.71 10.752 13.784 20.204 19.93 28.502l32.646-38.646s-4.594 6.01-12.93 6.01c-9.288 0-16.788-7.417-16.788-16.764 0-6.413 3.859-10.819 3.859-10.819L28.924 40.08Z"/>
  <path fill="#4285f4" d="M77.285 3C88.12 6.49 97.395 13.828 103 24.645L76.928 55.718s3.857-4.482 3.857-10.858c0-9.568-8.058-16.715-16.763-16.715-8.228 0-12.953 6-12.953 6V14.572z"/>
  <path fill="#1a73e8" d="M30.353 16.715C36.825 8.973 48.215 1 63.927 1c7.616 0 13.358 2 13.358 2L51.069 34.145H32.496Z"/>
  <path fill="#ea4335" d="M24.352 65.862s-4.306-8.48-4.306-20.764c0-11.614 4.517-21.764 10.307-28.383l20.716 17.43z"/>
</svg>
