<?xml version="1.0" encoding="UTF-8" standalone="no"?>
<!-- Created with Inkscape (http://www.inkscape.org/) -->

<svg
   width="16.933334mm"
   height="16.933334mm"
   viewBox="0 0 16.933334 16.933334"
   version="1.1"
   id="svg5"
   inkscape:version="1.2.2 (b0a8486541, 2022-12-01)"
   sodipodi:docname="id_back.svg"
   xmlns:inkscape="http://www.inkscape.org/namespaces/inkscape"
   xmlns:sodipodi="http://sodipodi.sourceforge.net/DTD/sodipodi-0.dtd"
   xmlns="http://www.w3.org/2000/svg"
   xmlns:svg="http://www.w3.org/2000/svg">
  <sodipodi:namedview
     id="namedview7"
     pagecolor="#ffffff"
     bordercolor="#000000"
     borderopacity="0.25"
     inkscape:showpageshadow="2"
     inkscape:pageopacity="0.0"
     inkscape:pagecheckerboard="0"
     inkscape:deskcolor="#d1d1d1"
     inkscape:document-units="mm"
     showgrid="false"
     inkscape:zoom="4.228078"
     inkscape:cx="100.04546"
     inkscape:cy="48.012359"
     inkscape:window-width="1920"
     inkscape:window-height="1011"
     inkscape:window-x="0"
     inkscape:window-y="32"
     inkscape:window-maximized="1"
     inkscape:current-layer="g5888" />
  <defs
     id="defs2" />
  <g
     inkscape:label="Capa 1"
     inkscape:groupmode="layer"
     id="layer1"
     transform="translate(0.02500056,2.7104607)">
    <g
       id="g5888">
      <g
         id="g6780"
         transform="matrix(0.19776156,0,0,0.19776156,-0.02005641,-0.05184653)">
        <circle
           id="path333"
           style="fill:#550000;stroke:#000000;stroke-width:0.264583"
           cx="0.11907881"
           cy="0.079452045"
           r="0.011787876" />
        <path
           style="fill:#ac9d93;stroke:none;stroke-width:0.264408"
           d="M 1,0 C 0.52859548,0 0,0.52859548 0,1 c 0,0 0,34.253593 0,51.98 0,0.471405 0.52859548,1 1,1 29.031914,0 56.262009,0 83.6,0 0.471405,0 1,-0.528595 1,-1 0,-16.516826 0,-51.98 0,-51.98 0,-0.47140452 -0.528595,-1 -1,-1 z"
           id="path389"
           sodipodi:nodetypes="sssssssss" />
        <text
           xml:space="preserve"
           style="font-size:3.175px;fill:#000000;stroke:none;stroke-width:0.264583"
           x="4.6633921"
           y="19.63339"
           id="text1274-3-56"><tspan
             sodipodi:role="line"
             id="tspan1272-6-2"
             style="fill:#000000;stroke-width:0.264583"
             x="4.6633921"
             y="19.63339">FISTRO</tspan></text>
        <text
           xml:space="preserve"
           style="font-size:3.17505px;fill:#000000;stroke:none;stroke-width:0.264587"
           x="4.6633129"
           y="23.633751"
           id="text1274-3-56-9"
           transform="scale(1.0000153,0.99998471)"><tspan
             sodipodi:role="line"
             id="tspan1272-6-2-1"
             style="fill:#000000;stroke-width:0.264587"
             x="4.6633129"
             y="23.633751">DIODENARL</tspan></text>
        <text
           xml:space="preserve"
           style="font-size:3.175px;fill:#ac9d93;stroke:none;stroke-width:0.264583"
           x="4.9221468"
           y="10.24996"
           id="text1270"><tspan
             sodipodi:role="line"
             id="tspan1268"
             style="stroke-width:0.264583"
             x="4.9221468"
             y="10.24996">NBAM</tspan></text>
        <text
           xml:space="preserve"
           style="font-size:3.175px;fill:#000000;stroke:none;stroke-width:0.264583"
           x="4.6633921"
           y="11.591533"
           id="text1274"><tspan
             sodipodi:role="line"
             id="tspan1272"
             style="fill:#000000;stroke-width:0.264583"
             x="4.6633921"
             y="11.591533">NAME</tspan></text>
        <text
           xml:space="preserve"
           style="font-size:3.175px;fill:#000000;stroke:none;stroke-width:0.264583"
           x="4.7657099"
           y="15.63339"
           id="text1274-3"><tspan
             sodipodi:role="line"
             id="tspan1272-6"
             style="fill:#000000;stroke-width:0.264583"
             x="4.7657099"
             y="15.63339">SURNAME</tspan></text>
        <g
           transform="matrix(0.66666667,0,0,0.66666667,12.308332,-14.731294)"
           id="g1509">
          <path
             d="m 52.422156,34 c -0.536316,0.0054 -1.057284,0.16869 -1.501992,0.484068 -1.838484,1.303968 -2.734944,5.312262 1.387986,8.955521 -0.109986,2.92524 5.258226,3.454482 3.12642,-0.85203 1.934748,-5.723501 -0.687702,-8.609951 -3.01254,-8.587427 z m 32.119923,1.224108 c -0.77931,0.0012 -1.635504,0.369126 -2.11155,1.103928 -2.913126,4.495302 0.235944,6.785567 3.256045,1.911666 1.241124,-2.003058 0.154776,-3.017388 -1.144369,-3.01572 z m -5.24955,8.123333 c -7.980585,7.280508 -13.971687,17.718431 -31.168341,10.35933 2.337804,6.846497 -0.851664,9.098879 -3.940339,9.763148 -1.113156,-0.781245 -2.202528,-1.816569 -3.19299,-3.107613 l -2.426394,-3.163938 0.330324,3.99972 c 0.64605,7.879761 3.470082,13.701947 8.151979,17.454894 4.682022,3.752955 11.092044,5.40378 18.781194,5.40378 12.003351,0 22.873414,-7.795297 26.874156,-18.942669 l 0.672472,-1.875966 -1.938892,0.279792 c -0.671972,0.09689 -1.200494,0.06963 -1.612232,-0.03582 l 3.987527,-7.69955 c -1.802498,0.785225 -3.693947,1.739783 -5.533055,2.591819 0.217698,-1.70535 0.723564,-3.857645 1.600644,-6.435641 l 1.297638,-3.823728 -3.1341,2.488014 c -3.204198,2.543184 -6.649243,5.582076 -10.039291,8.095427 -1.125996,-2.286173 -0.959634,-6.921107 1.289574,-15.350975 z m -43.272238,5.835618 c -1.117182,-0.0012 -2.266579,1.467546 -1.974132,2.903856 0.774654,3.804924 4.504212,2.712132 3.629646,-0.991926 -0.326298,-1.381662 -0.985302,-1.911414 -1.65564,-1.91193 z m 50.503853,5.747562 c -0.781824,3.088679 -0.965802,5.507969 -0.495294,7.403513 0.323772,1.304607 1.039164,2.394069 2.084118,3.007785 0.514668,0.302052 1.079682,0.48675 1.683066,0.572118 -3.762528,2.649792 -9.251797,0.846024 -6.736063,-5.979735 C 72.340158,74.607827 61.201182,76.104175 57.62124,64.941947 55.782384,76.029805 44.367065,73.57648 41.797223,64.642193 c 2.769672,2.342232 5.951845,3.43323 8.891149,2.847804 1.969728,-0.392424 3.772218,-1.586328 5.064942,-3.511824 0.753768,-1.122477 1.336644,-2.491215 1.738188,-4.095711 1.63689,2.781504 3.523692,4.582335 5.639016,5.515647 2.884188,1.27248 6.005826,0.846396 9.021012,-0.412134 4.933569,-2.058861 9.860217,-6.289983 14.372866,-10.055228 z m -0.755022,22.998446 c 1.434036,0.977588 2.277024,2.074988 2.277024,3.215768 0,4.194525 -10.767889,7.623532 -23.956246,7.623532 -13.188234,0 -23.885527,-3.428872 -23.885527,-7.623532 0,-1.106475 0.776418,-2.188635 2.131434,-3.139613 -5.00832,1.70202 -8.159784,3.995873 -8.159784,6.50322 C 34.176023,89.758637 47.583594,94 64.090026,94 80.596461,94 94,89.758765 94,84.50857 94,81.975242 90.867664,79.640057 85.769374,77.929067 Z"
             id="path2"
             style="fill:#552200;fill-opacity:1;stroke:none;stroke-width:0.12691;stroke-opacity:1"
             inkscape:connector-curvature="0" />
        </g>
        <text
           xml:space="preserve"
           style="font-size:5.64444px;fill:#000000;stroke:none;stroke-width:0.264583"
           x="4.5065107"
           y="48.536526"
           id="text1274-3-5"><tspan
             sodipodi:role="line"
             id="tspan1272-6-3"
             style="font-style:normal;font-variant:normal;font-weight:bold;font-stretch:normal;font-size:5.64444px;font-family:FreeMono;-inkscape-font-specification:'FreeMono Bold';fill:#000000;stroke-width:0.264583"
             x="4.5065107"
             y="48.536526">11223344J</tspan></text>
      </g>
      <circle
         id="path969"
         style="fill:#aa0000;stroke:#000000;stroke-width:0.264583"
         cx="8.8657207"
         cy="13.60477"
         r="0.023575749" />
    </g>
  </g>
</svg>
