<svg xmlns="http://www.w3.org/2000/svg" viewBox="0 0 16.933 16.933">
  <g transform="translate(.025 2.71)">
    <g transform="translate(-.02 -.052) scale(.19776)">
      <circle cx=".119" cy=".079" r=".012" fill="#500" stroke="#000" stroke-width=".265"/>
      <path fill="#ac9d93" d="M1 0C.529 0 0 .529 0 1v51.98c0 .471.529 1 1 1h83.6c.471 0 1-.529 1-1V1c0-.471-.529-1-1-1z"/>
      <text xml:space="preserve" x="4.663" y="19.633" stroke-width=".265" font-size="3.175"><tspan x="4.663" y="19.633">FISTRO</tspan></text>
      <text xml:space="preserve" x="4.663" y="23.634" stroke-width=".265" font-size="3.175" transform="scale(1.00002 .99998)"><tspan x="4.663" y="23.634">DIODENARL</tspan></text>
      <text xml:space="preserve" x="4.922" y="10.25" fill="#ac9d93" stroke-width=".265" font-size="3.175"><tspan x="4.922" y="10.25">NBAM</tspan></text>
      <text xml:space="preserve" x="4.663" y="11.592" stroke-width=".265" font-size="3.175"><tspan x="4.663" y="11.592">NAME</tspan></text>
      <text xml:space="preserve" x="4.766" y="15.633" stroke-width=".265" font-size="3.175"><tspan x="4.766" y="15.633">SURNAME</tspan></text>
      <path fill="#520" d="M47.256 7.935a1.753 1.753 0 0 0-1 .323c-1.227.87-1.824 3.542.924 5.97-.073 1.95 3.506 2.303 2.085-.568 1.29-3.815-.459-5.74-2.009-5.725zm21.414.816c-.52.001-1.09.247-1.408.736-1.942 2.997.157 4.524 2.17 1.275.828-1.336.104-2.012-.762-2.01zm-3.5 5.416c-5.32 4.854-9.314 11.812-20.779 6.906 1.559 4.565-.568 6.066-2.627 6.509a9.82 9.82 0 0 1-2.128-2.072l-1.618-2.109.22 2.666c.43 5.254 2.314 9.135 5.435 11.637 3.121 2.502 7.395 3.603 12.52 3.603 8.003 0 15.25-5.197 17.917-12.629l.448-1.25-1.293.186c-.448.065-.8.046-1.074-.024l2.658-5.133c-1.202.524-2.463 1.16-3.689 1.728.145-1.137.483-2.572 1.067-4.29l.865-2.55-2.089 1.659c-2.136 1.696-4.433 3.721-6.693 5.397-.75-1.524-.64-4.614.86-10.234zm-28.848 3.89c-.745 0-1.511.979-1.316 1.936.516 2.537 3.003 1.808 2.42-.661-.218-.921-.657-1.274-1.104-1.275zm33.67 3.832c-.522 2.06-.645 3.672-.331 4.936.216.87.693 1.596 1.39 2.005.342.201.72.324 1.121.381-2.508 1.767-6.168.564-4.49-3.986-7.147 9.782-14.573 10.78-16.96 3.338-1.225 7.392-8.836 5.757-10.549-.2 1.847 1.562 3.968 2.29 5.928 1.899 1.313-.262 2.514-1.058 3.376-2.341.503-.748.891-1.661 1.159-2.73 1.091 1.854 2.35 3.054 3.76 3.676 1.922.849 4.003.565 6.013-.274 3.29-1.373 6.574-4.194 9.582-6.704zm-.504 15.332c.956.652 1.518 1.384 1.518 2.144 0 2.797-7.179 5.083-15.971 5.083S39.11 42.162 39.11 39.365c0-.737.518-1.459 1.421-2.093-3.339 1.135-5.44 2.664-5.44 4.336 0 3.5 8.939 6.327 19.943 6.327 11.004 0 19.94-2.827 19.94-6.327 0-1.69-2.088-3.246-5.487-4.387Z"/>
      <text xml:space="preserve" x="4.507" y="48.537" stroke-width=".265" font-size="5.644"><tspan x="4.507" y="48.537" font-family="FreeMono" font-weight="700" style="-inkscape-font-specification:&quot;FreeMono Bold&quot;">11223344J</tspan></text>
    </g>
    <circle cx="8.866" cy="13.605" r=".024" fill="#a00" stroke="#000" stroke-width=".265"/>
  </g>
</svg>
