<svg width="128" height="84" xmlns="http://www.w3.org/2000/svg"><path fill="#ac9d93" d="M1.6-1.123c-.465 0-.986.517-.986.977v50.774c0 .46.521.977.985.977h82.318c.464 0 .985-.517.985-.977V-.146c0-.46-.52-.977-.985-.977z" style="stroke-width:.980724" transform="matrix(1.49488 0 0 1.51724 .081 2.704)"/><text xml:space="preserve" x="5.216" y="18.271" stroke-width=".262" font-size="3.138" transform="matrix(1.51276 0 0 1.4993 .081 2.704)"><tspan x="5.216" y="18.271" style="stroke-width:.261946">FISTRO</tspan></text><text xml:space="preserve" x="5.216" y="22.225" stroke-width=".262" font-size="3.138" transform="matrix(1.51279 0 0 1.49928 .081 2.704)"><tspan x="5.216" y="22.225" style="stroke-width:.261946">DIODENARL</tspan></text><text xml:space="preserve" x="5.473" y="8.996" fill="#ac9d93" stroke-width=".262" font-size="3.138" transform="matrix(1.51276 0 0 1.4993 .081 2.704)"><tspan x="5.473" y="8.996" style="stroke-width:.261946">NBAM</tspan></text><text xml:space="preserve" x="5.216" y="10.322" stroke-width=".262" font-size="3.138" transform="matrix(1.51276 0 0 1.4993 .081 2.704)"><tspan x="5.216" y="10.322" style="stroke-width:.261946">NAME</tspan></text><text xml:space="preserve" x="5.318" y="14.317" stroke-width=".262" font-size="3.138" transform="matrix(1.51276 0 0 1.4993 .081 2.704)"><tspan x="5.318" y="14.317" style="stroke-width:.261946">SURNAME</tspan></text><path fill="#520" d="M47.885 6.628a1.754 1.712 0 0 0-1 .316c-1.228.85-1.825 3.46.924 5.831-.073 1.905 3.507 2.25 2.085-.555 1.29-3.726-.459-5.607-2.01-5.592zm21.42.797c-.52.001-1.09.241-1.408.72-1.943 2.927.157 4.418 2.17 1.244.828-1.305.104-1.965-.762-1.963zm-3.501 5.29c-5.322 4.742-9.317 11.538-20.785 6.746 1.56 4.46-.568 5.925-2.628 6.358a9.823 9.592 0 0 1-2.129-2.024l-1.618-2.06.22 2.604c.43 5.132 2.315 8.923 5.436 11.367 3.122 2.444 7.398 3.52 12.524 3.52 8.006 0 15.255-5.077 17.923-12.336l.448-1.221-1.294.181c-.448.064-.8.045-1.074-.023l2.659-5.014c-1.203.512-2.464 1.133-3.69 1.688.145-1.11.483-2.512 1.067-4.19l.865-2.491-2.09 1.62c-2.136 1.657-4.434 3.635-6.694 5.272-.75-1.489-.64-4.507.86-9.997zm-28.857 3.8c-.745 0-1.511.956-1.316 1.891.516 2.478 3.004 1.766 2.42-.645-.217-.9-.657-1.245-1.104-1.246zm33.68 3.743c-.522 2.012-.645 3.587-.33 4.822.215.85.692 1.559 1.39 1.958.342.197.72.317 1.121.372-2.509 1.726-6.17.551-4.491-3.893-7.15 9.555-14.578 10.53-16.965 3.26-1.226 7.22-8.839 5.624-10.553-.195 1.848 1.526 3.97 2.237 5.93 1.855 1.314-.256 2.515-1.033 3.377-2.287.503-.73.891-1.622 1.16-2.666 1.09 1.81 2.35 2.983 3.76 3.59 1.923.83 4.005.552 6.015-.267 3.291-1.341 6.576-4.097 9.585-6.549zm-.504 14.976c.956.637 1.519 1.352 1.519 2.095 0 2.732-7.182 4.965-15.976 4.965-8.795 0-15.93-2.233-15.93-4.965 0-.72.518-1.425 1.422-2.045-3.34 1.109-5.442 2.602-5.442 4.236 0 3.418 8.942 6.18 19.949 6.18 11.007 0 19.946-2.762 19.946-6.18 0-1.651-2.089-3.171-5.489-4.286z" style="stroke-width:.988477" transform="matrix(1.49488 0 0 1.51724 .081 2.704)"/><text xml:space="preserve" x="5.062" y="46.841" stroke-width=".262" font-size="5.579" transform="matrix(1.51276 0 0 1.4993 .081 2.704)"><tspan x="5.062" y="46.841" font-family="FreeMono" font-weight="700" style="-inkscape-font-specification:'FreeMono Bold';stroke-width:.261985">11223344J</tspan></text></svg>