<?xml version="1.0" encoding="UTF-8" standalone="no"?>
<!-- Created with Inkscape (http://www.inkscape.org/) -->

<svg
   width="16.933334mm"
   height="16.933334mm"
   viewBox="0 0 16.933334 16.933334"
   version="1.1"
   id="svg5"
   inkscape:version="1.2.2 (b0a8486541, 2022-12-01)"
   sodipodi:docname="id_front.svg"
   xmlns:inkscape="http://www.inkscape.org/namespaces/inkscape"
   xmlns:sodipodi="http://sodipodi.sourceforge.net/DTD/sodipodi-0.dtd"
   xmlns="http://www.w3.org/2000/svg"
   xmlns:svg="http://www.w3.org/2000/svg">
  <sodipodi:namedview
     id="namedview7"
     pagecolor="#ffffff"
     bordercolor="#000000"
     borderopacity="0.25"
     inkscape:showpageshadow="2"
     inkscape:pageopacity="0.0"
     inkscape:pagecheckerboard="0"
     inkscape:deskcolor="#d1d1d1"
     inkscape:document-units="mm"
     showgrid="false"
     inkscape:zoom="1.4948513"
     inkscape:cx="147.84079"
     inkscape:cy="105.69613"
     inkscape:window-width="1920"
     inkscape:window-height="1011"
     inkscape:window-x="0"
     inkscape:window-y="32"
     inkscape:window-maximized="1"
     inkscape:current-layer="layer1" />
  <defs
     id="defs2" />
  <g
     inkscape:label="Capa 1"
     inkscape:groupmode="layer"
     id="layer1"
     transform="translate(0.02500056,2.7104607)">
    <g
       id="g5888"
       transform="matrix(0.19776156,0,0,0.19776156,-0.02005641,-0.05184652)">
      <circle
         id="path333"
         style="fill:#550000;stroke:#000000;stroke-width:0.264583"
         cx="0.11907881"
         cy="0.079452045"
         r="0.011787876" />
      <path
         style="fill:#ac9d93;stroke:none;stroke-width:0.264408"
         d="M 1,0 C 0.52859548,0 0,0.52859548 0,1 c 0,0 0,34.253593 0,51.98 0,0.471405 0.52859548,1 1,1 29.031914,0 56.262009,0 83.6,0 0.471405,0 1,-0.528595 1,-1 0,-16.516826 0,-51.98 0,-51.98 0,-0.47140452 -0.528595,-1 -1,-1 z"
         id="path389"
         sodipodi:nodetypes="sssssssss" />
      <text
         xml:space="preserve"
         style="font-size:3.175px;fill:#000000;stroke:none;stroke-width:0.264583"
         x="34.663391"
         y="19.63339"
         id="text1274-3-56"><tspan
           sodipodi:role="line"
           id="tspan1272-6-2"
           style="fill:#000000;stroke-width:0.264583"
           x="34.663391"
           y="19.63339">FISTRO</tspan></text>
      <text
         xml:space="preserve"
         style="font-size:3.17505px;fill:#000000;stroke:none;stroke-width:0.264587"
         x="34.662853"
         y="23.633751"
         id="text1274-3-56-9"
         transform="scale(1.0000153,0.99998471)"><tspan
           sodipodi:role="line"
           id="tspan1272-6-2-1"
           style="fill:#000000;stroke-width:0.264587"
           x="34.662853"
           y="23.633751">DIODENARL</tspan></text>
      <path
         style="fill:#e3dedb;stroke:none;stroke-width:0.110657"
         d="M 5.4568937,5 C 5.3167708,5 5.1596392,5.311454 5.1596392,5.5892202 c 0,0 0,20.1829758 0,30.6277668 0,0.277773 0.1571227,0.58922 0.2972545,0.58922 8.6298593,0 16.7241223,0 24.8504573,0 0.140126,0 0.297254,-0.311454 0.297254,-0.58922 0,-9.732081 0,-30.6277668 0,-30.6277668 C 30.604605,5.3114464 30.447477,5 30.307351,5 Z"
         id="path389-7"
         sodipodi:nodetypes="sssssssss" />
      <text
         xml:space="preserve"
         style="font-size:3.175px;fill:#ac9d93;stroke:none;stroke-width:0.264583"
         x="34.922146"
         y="10.24996"
         id="text1270"><tspan
           sodipodi:role="line"
           id="tspan1268"
           style="stroke-width:0.264583"
           x="34.922146"
           y="10.24996">NBAM</tspan></text>
      <text
         xml:space="preserve"
         style="font-size:3.175px;fill:#000000;stroke:none;stroke-width:0.264583"
         x="34.663391"
         y="11.591533"
         id="text1274"><tspan
           sodipodi:role="line"
           id="tspan1272"
           style="fill:#000000;stroke-width:0.264583"
           x="34.663391"
           y="11.591533">NAME</tspan></text>
      <text
         xml:space="preserve"
         style="font-size:3.175px;fill:#000000;stroke:none;stroke-width:0.264583"
         x="34.765709"
         y="15.63339"
         id="text1274-3"><tspan
           sodipodi:role="line"
           id="tspan1272-6"
           style="fill:#000000;stroke-width:0.264583"
           x="34.765709"
           y="15.63339">SURNAME</tspan></text>
      <text
         xml:space="preserve"
         style="font-size:5.64444px;fill:#000000;stroke:none;stroke-width:0.264583"
         x="4.5065107"
         y="48.536526"
         id="text1274-3-5"><tspan
           sodipodi:role="line"
           id="tspan1272-6-3"
           style="font-style:normal;font-variant:normal;font-weight:bold;font-stretch:normal;font-size:5.64444px;font-family:FreeMono;-inkscape-font-specification:'FreeMono Bold';fill:#000000;stroke-width:0.264583"
           x="4.5065107"
           y="48.536526">11223344J</tspan></text>
      <g
         id="g825"
         transform="matrix(0.39537441,0,0,0.39537441,-13.295645,9.8993995)">
        <circle
           style="fill:#ffccaa;fill-opacity:1;stroke:#000000;stroke-width:2.13495;stroke-linecap:round;stroke-linejoin:round;stroke-miterlimit:4;stroke-dasharray:none;stroke-opacity:1"
           id="path817"
           cx="79.08107"
           cy="21.624611"
           r="16.557138" />
        <path
           style="fill:#d45500;fill-opacity:1;stroke:#000000;stroke-width:1.60219;stroke-linecap:round;stroke-linejoin:round;stroke-miterlimit:4;stroke-dasharray:none;stroke-opacity:1"
           d="m 46.840223,67.743057 c 0,0 -4.330692,-0.364469 3.125486,-0.711609 11.621193,-0.541052 7.010248,1.219031 7.062558,0.197958 0.655014,-12.785388 0.886293,-17.627324 0.886293,-17.627324 v 17.528345 h 43.33335 V 49.602082 l 0.70226,17.590015 c 8.32274,2.077456 10.6705,-15.503152 7.01016,-22.427912 -2.56236,-4.847559 -6.90222,-6.882924 -15.737116,-4.787872 -8.8349,2.09505 -18.242381,1.703722 -27.283963,0 -9.041583,-1.703724 -12.2795,1.048575 -15.849444,5.329064 -4.840335,5.803732 -3.249584,22.43768 -3.249584,22.43768 z"
           id="path819"
           inkscape:connector-curvature="0"
           sodipodi:nodetypes="csscccccazzac" />
      </g>
      <g
         transform="matrix(0.33333333,0,0,0.33333333,52.19658,-9.6783807)"
         id="g1509">
        <path
           d="m 52.422156,34 c -0.536316,0.0054 -1.057284,0.16869 -1.501992,0.484068 -1.838484,1.303968 -2.734944,5.312262 1.387986,8.955521 -0.109986,2.92524 5.258226,3.454482 3.12642,-0.85203 1.934748,-5.723501 -0.687702,-8.609951 -3.01254,-8.587427 z m 32.119923,1.224108 c -0.77931,0.0012 -1.635504,0.369126 -2.11155,1.103928 -2.913126,4.495302 0.235944,6.785567 3.256045,1.911666 1.241124,-2.003058 0.154776,-3.017388 -1.144369,-3.01572 z m -5.24955,8.123333 c -7.980585,7.280508 -13.971687,17.718431 -31.168341,10.35933 2.337804,6.846497 -0.851664,9.098879 -3.940339,9.763148 -1.113156,-0.781245 -2.202528,-1.816569 -3.19299,-3.107613 l -2.426394,-3.163938 0.330324,3.99972 c 0.64605,7.879761 3.470082,13.701947 8.151979,17.454894 4.682022,3.752955 11.092044,5.40378 18.781194,5.40378 12.003351,0 22.873414,-7.795297 26.874156,-18.942669 l 0.672472,-1.875966 -1.938892,0.279792 c -0.671972,0.09689 -1.200494,0.06963 -1.612232,-0.03582 l 3.987527,-7.69955 c -1.802498,0.785225 -3.693947,1.739783 -5.533055,2.591819 0.217698,-1.70535 0.723564,-3.857645 1.600644,-6.435641 l 1.297638,-3.823728 -3.1341,2.488014 c -3.204198,2.543184 -6.649243,5.582076 -10.039291,8.095427 -1.125996,-2.286173 -0.959634,-6.921107 1.289574,-15.350975 z m -43.272238,5.835618 c -1.117182,-0.0012 -2.266579,1.467546 -1.974132,2.903856 0.774654,3.804924 4.504212,2.712132 3.629646,-0.991926 -0.326298,-1.381662 -0.985302,-1.911414 -1.65564,-1.91193 z m 50.503853,5.747562 c -0.781824,3.088679 -0.965802,5.507969 -0.495294,7.403513 0.323772,1.304607 1.039164,2.394069 2.084118,3.007785 0.514668,0.302052 1.079682,0.48675 1.683066,0.572118 -3.762528,2.649792 -9.251797,0.846024 -6.736063,-5.979735 C 72.340158,74.607827 61.201182,76.104175 57.62124,64.941947 55.782384,76.029805 44.367065,73.57648 41.797223,64.642193 c 2.769672,2.342232 5.951845,3.43323 8.891149,2.847804 1.969728,-0.392424 3.772218,-1.586328 5.064942,-3.511824 0.753768,-1.122477 1.336644,-2.491215 1.738188,-4.095711 1.63689,2.781504 3.523692,4.582335 5.639016,5.515647 2.884188,1.27248 6.005826,0.846396 9.021012,-0.412134 4.933569,-2.058861 9.860217,-6.289983 14.372866,-10.055228 z m -0.755022,22.998446 c 1.434036,0.977588 2.277024,2.074988 2.277024,3.215768 0,4.194525 -10.767889,7.623532 -23.956246,7.623532 -13.188234,0 -23.885527,-3.428872 -23.885527,-7.623532 0,-1.106475 0.776418,-2.188635 2.131434,-3.139613 -5.00832,1.70202 -8.159784,3.995873 -8.159784,6.50322 C 34.176023,89.758637 47.583594,94 64.090026,94 80.596461,94 94,89.758765 94,84.50857 94,81.975242 90.867664,79.640057 85.769374,77.929067 Z"
           id="path2"
           style="fill:#552200;fill-opacity:1;stroke:none;stroke-width:0.12691;stroke-opacity:1"
           inkscape:connector-curvature="0" />
      </g>
      <g
         id="g5861">
        <path
           style="fill:#000000;stroke:#000000;stroke-width:0.264583;stroke-opacity:1"
           id="path5849"
           d="m 53.962029,47.079924 c 1.784527,-0.232243 3.590428,-0.21639 5.386417,-0.207111 1.216908,-0.03754 2.459662,0.149855 3.668514,-0.06803 0.616476,-0.111112 0.704852,-0.192051 1.250984,-0.444709 0.434084,-0.264081 0.823193,-0.584478 1.102585,-1.013759 0.218218,-0.335283 0.342471,-0.722088 0.475676,-1.095428 0.102296,-0.292124 0.19214,-0.588177 0.278389,-0.885328 0,0 -3.404261,-1.834261 -3.404261,-1.834261 v 0 c -0.0526,0.296175 -0.109816,0.591662 -0.204941,0.877912 -0.116742,0.336417 -0.21935,0.698791 -0.400683,1.008213 -0.224776,0.38355 -0.552042,0.670277 -0.926756,0.902719 -0.167997,0.07773 -0.329538,0.171293 -0.503994,0.233182 -0.696484,0.247084 -1.43543,0.259107 -2.164469,0.28058 -0.640548,0.01886 -1.281514,0.02125 -1.922015,0.04221 -1.94414,0.02908 -3.887851,0.01939 -5.830057,-0.08319 0,0 3.194611,2.286995 3.194611,2.286995 z" />
        <g
           id="g5855"
           transform="matrix(0.71081026,0,0,0.71081026,20.172903,11.317877)">
          <path
             style="fill:#000000;stroke:#000000;stroke-width:0.264583;stroke-opacity:1"
             id="path5847"
             d="m 42.483037,36.20525 c 0.425516,0.381772 0.841909,0.774088 1.216683,1.206788 0.323078,0.373012 0.440532,0.548883 0.729229,0.941858 0.42373,0.577181 0.758743,1.204373 0.949772,1.894282 0.08769,0.407723 0.08628,0.828011 0.09479,1.243124 0.01466,0.61133 -0.05143,1.212098 -0.226119,1.797724 -0.159223,0.396349 -0.301781,0.810604 -0.536749,1.170088 -0.206883,0.271772 -0.481449,0.480857 -0.729758,0.712785 -0.312661,0.229479 -0.688523,0.3428 -1.032883,0.513734 -0.195461,0.120928 -0.411774,0.195506 -0.623086,0.281059 0,0 3.281204,2.193623 3.281204,2.193623 v 0 c 0.214241,-0.0895 0.414668,-0.204033 0.614354,-0.321926 0.368565,-0.186614 0.750073,-0.356415 1.078831,-0.610659 0.280815,-0.247298 0.575082,-0.491797 0.787461,-0.802883 0.243596,-0.401294 0.371943,-0.85479 0.530672,-1.294202 0.181819,-0.613822 0.276998,-1.240975 0.301125,-1.881116 0.01516,-0.442968 0.04412,-0.889473 -0.0421,-1.327766 -0.182523,-0.772446 -0.59943,-1.458119 -1.054545,-2.100326 -0.526499,-0.727075 -1.069543,-1.441649 -1.680517,-2.100845 0,0 -3.658356,-1.515342 -3.658356,-1.515342 z" />
          <path
             style="fill:#000000;stroke:#000000;stroke-width:0.264583;stroke-opacity:1"
             id="path5851"
             d="m 52.106832,39.004422 c 0.157684,-0.151432 0.304295,-0.315309 0.473051,-0.454297 1.729216,-1.424189 3.791675,-2.386725 5.918766,-3.055618 0.577406,-0.181573 1.171583,-0.30472 1.757376,-0.457081 3.804327,0.971101 0.05976,-0.960527 -0.05152,-0.739796 -0.297373,0.589846 0.815253,1.050671 1.109022,1.642322 0.670359,1.350094 1.003001,2.913438 1.216409,4.390657 0.0941,0.651362 0.11638,1.311092 0.174567,1.96664 0.0045,0.534249 0.04167,1.069216 0.0136,1.602748 -0.01836,0.349186 -0.0649,0.699349 -0.152527,1.037862 -0.04048,0.156353 -0.102161,0.325562 -0.226965,0.428075 -0.04827,0.03965 -0.186764,-0.161605 -0.130519,-0.134445 3.321458,1.603793 3.851836,2.751224 3.141462,1.38622 -0.188307,-1.421955 -0.0024,-0.395462 -3.523385,-1.693174 -0.13861,-0.05109 0.220062,0.205772 0.287668,0.337119 0.11896,0.231105 0.199777,0.481899 0.263602,0.733867 0.237747,0.938596 0.153212,0.914371 0.05268,1.879965 -0.135877,0.308853 -0.221988,0.644797 -0.407633,0.926557 -0.450392,0.683567 -1.079741,1.119608 -1.798574,1.485551 -0.836663,0.425932 -1.795153,0.697145 -2.705616,0.897199 -0.458092,0.100653 -0.924383,0.159475 -1.386573,0.239216 -0.352639,0.04006 -1.782762,0.220678 -2.211646,0.206724 -0.235358,-0.0077 -0.8997,-0.241007 -0.69554,-0.123659 0.925005,0.531678 1.840304,1.173944 2.886538,1.383012 0.266356,0.05323 -0.07141,-0.54429 -0.03878,-0.813946 0.0461,-0.380907 0.181745,-0.745543 0.272619,-1.118314 0.28658,-0.716981 0.53781,-1.453687 0.964046,-2.106565 0.189704,-0.290576 0.391827,-0.583837 0.657339,-0.807275 0.875022,-0.736365 2.126961,-1.027851 3.189367,-1.244024 1.062172,-0.216124 2.144064,-0.320415 3.216097,-0.48062 3.722201,-0.409671 7.467119,-0.453684 11.206742,-0.472877 1.239311,-0.0064 3.768648,0.07439 5.094994,-0.190127 0.578313,-0.115334 1.111009,-0.395801 1.666512,-0.593701 0.356952,-0.368758 0.806633,-0.66629 1.070851,-1.106271 0.61653,-1.026654 0.661863,-2.352773 0.698728,-3.492489 0.0204,-0.630907 -0.0072,-1.262608 -0.02772,-1.893512 -0.04454,-1.369473 -0.09521,-1.753603 -0.210828,-3.057131 -0.0636,-0.307834 -0.07377,-0.631769 -0.190809,-0.923501 -0.07429,-0.185187 -0.194591,-0.37424 -0.368829,-0.471469 -1.222206,-0.682001 -2.463427,-1.349211 -3.774057,-1.840294 -0.201038,-0.07533 -0.413662,0.117637 -0.613402,0.196348 -0.388929,0.153267 -0.682082,0.338859 -1.041426,0.545642 -0.165291,0.119057 -0.337161,0.22947 -0.495869,0.357172 -0.519287,0.417832 -0.994952,0.887407 -1.504453,1.317114 -1.147016,0.96738 -2.352759,1.855549 -3.558881,2.746669 -1.33963,0.988197 -2.72194,1.921335 -4.026056,2.957094 -0.06971,0.05867 -0.139411,0.117332 -0.209119,0.175998 0,0 3.29524,2.019731 3.29524,2.019731 v 0 c 0.05379,-0.06461 0.107583,-0.129222 0.161375,-0.193833 1.046938,-1.2005 2.252451,-2.25279 3.502086,-3.23668 0.397798,-0.303855 0.790929,-0.613923 1.193395,-0.911572 1.538023,-1.137451 3.140559,-2.183071 4.755716,-3.206615 0.30144,-0.168711 0.632021,-0.375869 0.967687,-0.47449 0.176313,-0.0518 0.680458,0.02823 0.543227,-0.09399 -0.777052,-0.692028 -1.740427,-1.141362 -2.59574,-1.733942 -0.194924,-0.135046 0.468058,0.173033 0.613307,0.360477 0.214482,0.276788 0.276079,0.643614 0.41412,0.965419 0.08616,0.476004 0.191294,0.94896 0.258472,1.428012 0.153813,1.096833 0.270044,2.454436 0.212537,3.557159 -0.05726,1.097973 -0.204438,2.24495 -0.774359,3.218108 -0.232733,0.397397 -0.602276,0.696863 -0.903414,1.045295 -0.476353,0.220594 -0.925695,0.512792 -1.42906,0.661786 -1.246169,0.368864 -3.359295,0.459902 -4.566692,0.537859 -3.720555,0.24022 -7.446815,0.386527 -11.172545,0.516011 -1.218139,0.06753 -2.439283,0.09361 -3.654414,0.202608 -1.491866,0.133818 -2.740483,0.08717 -3.903697,1.043749 -0.284083,0.233619 -0.471265,0.568296 -0.661916,0.882833 -0.28489,0.470008 -0.770104,1.672497 -0.976725,2.161807 -0.143851,0.370319 -0.310306,0.732636 -0.431559,1.110959 -0.10014,0.312457 -0.462725,0.72436 -0.231154,0.956807 0.977583,0.981282 2.256388,1.617546 3.466759,2.291035 0.177662,0.09886 0.40748,-1.03e-4 0.609518,-0.02286 0.384003,-0.04326 1.742146,-0.302649 2.042327,-0.358164 1.423003,-0.306318 2.873846,-0.564112 4.193328,-1.212178 0.826048,-0.405714 1.478772,-0.826132 2.012087,-1.588595 0.212305,-0.303519 0.320704,-0.667784 0.481058,-1.001675 0.06016,-0.341882 0.157342,-0.679284 0.180464,-1.025647 0.03805,-0.569958 -0.08766,-1.070967 -0.151543,-1.626743 -0.01833,-0.15947 0.103286,-0.400611 -0.03611,-0.480203 -1.161746,-0.663339 -2.415378,-1.15819 -3.665855,-1.633567 -0.08083,-0.03073 0.02808,0.170654 0.04212,0.255982 0.314542,1.648304 0.03736,0.657432 3.605893,2.40112 0.08954,0.04375 0.122409,-0.167264 0.136684,-0.265893 0.02969,-0.205134 0.0021,-0.414747 -0.0082,-0.621755 -0.02,-0.39707 -0.0479,-0.793808 -0.08302,-1.189828 -0.05036,-0.567994 -0.115594,-1.134573 -0.173389,-1.701858 -0.210315,-1.523603 -0.351377,-2.779028 -0.699323,-4.29006 -0.167669,-0.728134 -0.335486,-1.460733 -0.597585,-2.160445 -0.220499,-0.58865 -0.357852,-1.287497 -0.843465,-1.686629 -1.208427,-0.993227 -2.609125,-1.771515 -4.063757,-2.346698 -0.447418,-0.176913 -0.955297,0.115483 -1.432944,0.173223 -0.563819,0.17639 -1.132705,0.337328 -1.691454,0.529167 -0.901023,0.30935 -2.873243,1.072488 -3.740735,1.446461 -1.173247,0.50578 -2.303007,1.104582 -3.461083,1.642597 0,0 3.281045,2.086136 3.281045,2.086136 z" />
        </g>
      </g>
    </g>
    <circle
       id="path969"
       style="fill:#aa0000;stroke:#000000;stroke-width:0.264583"
       cx="-8.0176125"
       cy="2.0923574"
       r="0.023575749"
       transform="scale(-1)" />
  </g>
</svg>
