<svg width="128" height="82" xmlns="http://www.w3.org/2000/svg"><path fill="#ac9d93" d="M2.472 1C1.779 1 1 1.784 1 2.482v77.036C1 80.216 1.779 81 2.472 81h123.056c.693 0 1.472-.784 1.472-1.482V2.482c0-.698-.779-1.482-1.472-1.482z"/><text xml:space="preserve" x="34.663" y="19.633" stroke-width=".265" font-size="3.175" transform="matrix(1.47196 0 0 1.48203 1 1)"><tspan x="34.663" y="19.633">FISTRO</tspan></text><text xml:space="preserve" x="34.663" y="23.634" stroke-width=".265" font-size="3.175" transform="matrix(1.472 0 0 1.482 1 1)"><tspan x="34.663" y="23.634">DIODENARL</tspan></text><path fill="#e3dedb" d="M9.033 8.41c-.207 0-.438.461-.438.875v45.39c0 .412.231.874.438.874H45.61c.206 0 .438-.462.438-.874V9.283c0-.412-.232-.873-.438-.873z"/><text xml:space="preserve" x="34.922" y="10.25" fill="#ac9d93" stroke-width=".265" font-size="3.175" transform="matrix(1.47196 0 0 1.48203 1 1)"><tspan x="34.922" y="10.25">NBAM</tspan></text><text xml:space="preserve" x="34.663" y="11.592" stroke-width=".265" font-size="3.175" transform="matrix(1.47196 0 0 1.48203 1 1)"><tspan x="34.663" y="11.592">NAME</tspan></text><text xml:space="preserve" x="34.766" y="15.633" stroke-width=".265" font-size="3.175" transform="matrix(1.47196 0 0 1.48203 1 1)"><tspan x="34.766" y="15.633">SURNAME</tspan></text><text xml:space="preserve" x="4.507" y="48.537" stroke-width=".265" font-size="5.644" transform="matrix(1.47196 0 0 1.48203 1 1)"><tspan x="4.507" y="48.537" font-family="FreeMono" font-weight="700" style="-inkscape-font-specification:'FreeMono Bold'">11223344J</tspan></text><g stroke="#000" stroke-linecap="round" stroke-linejoin="round" transform="matrix(.58197 0 0 .58595 -18.571 15.672)"><circle cx="79.081" cy="21.625" r="16.557" fill="#fca" stroke-width="2.135"/><path fill="#d45500" stroke-width="1.602" d="M46.84 67.743s-4.33-.364 3.126-.712c11.62-.54 7.01 1.22 7.062.198.655-12.785.887-17.627.887-17.627V67.13h43.333V49.602l.702 17.59c8.323 2.078 10.67-15.503 7.01-22.428-2.562-4.847-6.902-6.883-15.737-4.788-8.835 2.095-18.242 1.704-27.284 0-9.041-1.703-12.28 1.049-15.85 5.33-4.84 5.803-3.249 22.437-3.249 22.437z"/></g><path fill="#520" d="M103.552 3.453a1.29 1.298 0 0 0-.736.238c-.903.645-1.343 2.625.681 4.424-.054 1.447 2.58 1.708 1.534-.42.95-2.827-.339-4.254-1.478-4.242zm15.76.604a1.247 1.255 0 0 0-1.036.546c-1.428 2.22.117 3.352 1.598.944.608-.989.075-1.491-.562-1.49zm-2.576 4.014c-3.915 3.597-6.855 8.753-15.292 5.117 1.148 3.382-.418 4.495-1.933 4.823a7.227 7.277 0 0 1-1.568-1.536l-1.19-1.562.162 1.976c.318 3.893 1.703 6.768 4 8.622 2.297 1.854 5.442 2.67 9.215 2.67 5.89 0 11.224-3.85 13.186-9.358l.33-.926-.951.137a2.017 2.03 0 0 1-.79-.017l1.955-3.803c-.883.388-1.812.86-2.714 1.28.106-.843.353-1.906.785-3.179l.637-1.89-1.538 1.23c-1.572 1.256-3.262 2.757-4.925 4-.554-1.13-.471-3.42.632-7.584zm-21.232 2.882c-.547 0-1.11.727-.968 1.435.381 1.88 2.21 1.34 1.78-.49-.16-.682-.482-.945-.812-.945zm24.78 2.84c-.382 1.526-.473 2.72-.242 3.658.159.644.51 1.182 1.023 1.485.252.148.53.241.824.283-1.845 1.308-4.538.418-3.304-2.954-5.26 7.247-10.725 7.988-12.482 2.473-.901 5.478-6.502 4.266-7.764-.148 1.359 1.156 2.92 1.696 4.363 1.408.966-.195 1.85-.785 2.485-1.735.37-.555.656-1.23.854-2.025.802 1.376 1.728 2.265 2.767 2.726 1.413.628 2.945.418 4.425-.203 2.421-1.019 4.838-3.108 7.052-4.968zm-.37 11.361c.704.483 1.119 1.026 1.119 1.589 0 2.072-5.285 3.766-11.755 3.766-6.471 0-11.72-1.694-11.72-3.766 0-.547.381-1.082 1.045-1.552-2.457.842-4.004 1.974-4.004 3.213 0 2.594 6.58 4.69 14.679 4.69 8.098 0 14.675-2.096 14.675-4.69 0-1.25-1.537-2.405-4.039-3.25z"/><g stroke="#000" stroke-width=".265"><path d="M53.962 47.08c1.785-.232 3.59-.216 5.386-.207 1.217-.038 2.46.15 3.669-.068.616-.111.705-.192 1.25-.445.435-.264.824-.584 1.104-1.014.218-.335.342-.722.475-1.095.103-.292.192-.588.279-.885L62.72 41.53c-.052.296-.11.592-.205.878-.116.337-.219.699-.4 1.008-.225.384-.552.67-.927.903-.168.078-.33.171-.504.233-.697.247-1.435.26-2.165.28-.64.02-1.281.022-1.922.043-1.944.03-3.887.02-5.83-.083l3.195 2.287z" transform="matrix(1.47196 0 0 1.48203 1 1)"/><path stroke-width=".188" d="M50.37 37.053c.303.271.599.55.865.858.23.265.313.39.518.67.302.41.54.855.676 1.346.062.29.06.588.067.883.01.435-.037.862-.16 1.278-.114.282-.215.576-.382.832-.147.193-.343.342-.519.507-.222.163-.49.243-.734.365-.14.086-.293.139-.443.2l2.332 1.559c.152-.064.295-.145.437-.23.262-.132.533-.252.767-.433.2-.176.409-.35.56-.57.173-.286.264-.608.377-.92a5.4 5.4 0 0 0 .214-1.338c.01-.315.031-.632-.03-.944-.13-.549-.426-1.036-.75-1.493a15.84 15.84 0 0 0-1.194-1.493l-2.6-1.077zm6.841 1.99c.112-.108.216-.225.336-.323 1.23-1.013 2.695-1.697 4.207-2.172.41-.13.833-.217 1.25-.325 2.704.69.042-.683-.037-.526-.211.42.58.747.788 1.167.477.96.713 2.071.865 3.121.067.463.083.932.124 1.398.003.38.03.76.01 1.14a3.73 3.73 0 0 1-.109.737c-.029.111-.072.232-.161.304-.034.029-.133-.114-.093-.095 2.361 1.14 2.738 1.955 2.233.985-.134-1.01-.002-.28-2.504-1.203-.099-.037.156.146.204.24a2.4 2.4 0 0 1 .187.521c.17.667.11.65.038 1.336-.097.22-.158.459-.29.659-.32.486-.767.796-1.278 1.056-.595.303-1.276.495-1.924.638-.325.071-.657.113-.985.17-.25.028-1.267.156-1.572.147-.167-.006-.64-.172-.495-.088.658.378 1.309.834 2.052.983.19.038-.05-.387-.027-.579.032-.27.129-.53.193-.795.204-.51.383-1.033.686-1.497.135-.207.278-.415.467-.574.622-.523 1.512-.73 2.267-.884.755-.154 1.524-.228 2.286-.342 2.646-.291 5.308-.322 7.966-.336.88-.005 2.679.053 3.621-.135.412-.082.79-.281 1.185-.422.254-.262.573-.474.761-.786.438-.73.47-1.673.497-2.483.014-.448-.005-.897-.02-1.346-.032-.973-.068-1.246-.15-2.173-.045-.219-.052-.449-.135-.656a.666.666 0 0 0-.262-.336c-.87-.484-1.752-.959-2.683-1.308-.143-.053-.294.084-.436.14-.277.109-.485.24-.74.388-.118.084-.24.163-.353.254-.369.297-.707.63-1.07.936-.815.688-1.672 1.319-2.529 1.952-.952.703-1.935 1.366-2.862 2.102l-.148.125 2.342 1.436.115-.138c.744-.853 1.6-1.601 2.489-2.3.283-.216.562-.437.848-.648 1.093-.809 2.233-1.552 3.38-2.28.215-.12.45-.267.688-.337.126-.037.484.02.387-.067-.553-.492-1.237-.811-1.845-1.232-.139-.096.332.123.435.256.153.197.197.457.295.686.061.338.136.675.184 1.015.109.78.192 1.745.15 2.529-.04.78-.145 1.595-.55 2.287-.165.283-.428.495-.642.743-.339.157-.658.365-1.016.47-.886.263-2.388.327-3.246.383-2.644.17-5.293.275-7.941.367-.866.048-1.734.066-2.598.144-1.06.095-1.948.062-2.775.742-.202.166-.335.403-.47.627-.203.334-.548 1.189-.694 1.537-.103.263-.221.52-.307.79-.071.221-.33.514-.165.68.695.697 1.604 1.15 2.465 1.628.126.07.29 0 .433-.016.273-.031 1.238-.215 1.452-.255 1.011-.218 2.042-.4 2.98-.861.587-.289 1.051-.588 1.43-1.13.151-.215.228-.474.342-.712.043-.243.112-.483.129-.729.027-.405-.063-.761-.108-1.156-.013-.113.073-.285-.026-.341-.825-.472-1.717-.824-2.605-1.162-.058-.021.02.122.03.182.223 1.172.026.468 2.563 1.707.063.031.087-.119.097-.189.02-.146.001-.295-.006-.442a22.24 22.24 0 0 0-.059-.846c-.036-.403-.082-.806-.123-1.21-.15-1.082-.25-1.975-.497-3.049-.12-.517-.239-1.038-.425-1.535-.157-.419-.254-.915-.6-1.2-.859-.705-1.854-1.258-2.888-1.667-.318-.126-.68.082-1.019.123-.4.125-.805.24-1.202.376-.64.22-2.042.762-2.659 1.028-.834.36-1.637.785-2.46 1.168z" transform="matrix(1.47196 0 0 1.48203 1 1)"/></g></svg>