<svg width="128" height="128" xmlns="http://www.w3.org/2000/svg"><g transform="matrix(1.47152 0 0 1.48024 1.038 24.048)"><circle cx=".119" cy=".079" r=".012" fill="#500" stroke="#000" stroke-width=".265"/><path fill="#ac9d93" d="M.975 0c-.471 0-1 .53-1 1.001v52.043c0 .472.529 1.001 1 1.001H84.6c.47 0 1-.53 1-1V1C85.6.53 85.07 0 84.6 0z" style="stroke-width:1.00075"/><text xml:space="preserve" x="34.663" y="19.633" stroke-width=".265" font-size="3.175"><tspan x="34.663" y="19.633">FISTRO</tspan></text><text xml:space="preserve" x="34.663" y="23.634" stroke-width=".265" font-size="3.175" transform="scale(1.00002 .99998)"><tspan x="34.663" y="23.634">DIODENARL</tspan></text><path fill="#e3dedb" d="M5.457 5c-.14 0-.297.311-.297.59v30.627c0 .278.157.59.297.59h24.85c.14 0 .298-.312.298-.59V5.589c0-.278-.158-.589-.298-.589z"/><text xml:space="preserve" x="34.922" y="10.25" fill="#ac9d93" stroke-width=".265" font-size="3.175"><tspan x="34.922" y="10.25">NBAM</tspan></text><text xml:space="preserve" x="34.663" y="11.592" stroke-width=".265" font-size="3.175"><tspan x="34.663" y="11.592">NAME</tspan></text><text xml:space="preserve" x="34.766" y="15.633" stroke-width=".265" font-size="3.175"><tspan x="34.766" y="15.633">SURNAME</tspan></text><text xml:space="preserve" x="4.507" y="48.537" stroke-width=".265" font-size="5.644"><tspan x="4.507" y="48.537" font-family="FreeMono" font-weight="700" style="-inkscape-font-specification:'FreeMono Bold'">11223344J</tspan></text><g stroke="#000" stroke-linecap="round" stroke-linejoin="round" transform="translate(-13.296 9.9) scale(.39537)"><circle cx="79.081" cy="21.625" r="16.557" fill="#fca" stroke-width="2.135"/><path fill="#d45500" stroke-width="1.602" d="M46.84 67.743s-4.33-.364 3.126-.712c11.62-.54 7.01 1.22 7.062.198.655-12.785.887-17.627.887-17.627V67.13h43.333V49.602l.702 17.59c8.323 2.078 10.67-15.503 7.01-22.428-2.562-4.847-6.902-6.883-15.737-4.788-8.835 2.095-18.242 1.704-27.284 0-9.041-1.703-12.28 1.049-15.85 5.33-4.84 5.803-3.249 22.437-3.249 22.437z"/></g><path fill="#520" d="M69.67 1.655a.876.876 0 0 0-.5.161c-.613.435-.912 1.771.463 2.985-.037.976 1.752 1.152 1.042-.284.645-1.907-.23-2.87-1.004-2.862zm10.707.408a.847.847 0 0 0-.704.368c-.97 1.498.08 2.262 1.086.637.413-.667.051-1.006-.382-1.005zm-1.75 2.708c-2.66 2.427-4.657 5.906-10.389 3.453.78 2.282-.284 3.033-1.313 3.254a4.91 4.91 0 0 1-1.065-1.036l-.809-1.054.11 1.333c.216 2.627 1.157 4.567 2.718 5.818 1.56 1.251 3.697 1.802 6.26 1.802 4.001 0 7.625-2.599 8.958-6.315l.224-.625-.646.093a1.37 1.37 0 0 1-.537-.012l1.329-2.566c-.6.262-1.231.58-1.844.864.072-.569.24-1.286.533-2.145l.433-1.275-1.045.83c-1.068.847-2.216 1.86-3.346 2.698-.376-.762-.32-2.307.43-5.117zM64.203 6.716c-.372 0-.755.49-.658.968.259 1.268 1.502.904 1.21-.33-.109-.461-.328-.638-.552-.638zm16.835 1.916c-.26 1.03-.322 1.836-.165 2.468.108.435.346.798.695 1.002.171.1.36.163.56.191-1.254.883-3.083.282-2.245-1.993-3.573 4.89-7.286 5.39-8.48 1.669-.612 3.696-4.417 2.878-5.274-.1.923.78 1.984 1.144 2.964.95.656-.132 1.257-.53 1.688-1.171.251-.374.446-.83.58-1.366.545.928 1.174 1.528 1.88 1.839.96.424 2.001.282 3.006-.137 1.645-.687 3.287-2.097 4.791-3.352zm-.252 7.666c.478.326.76.692.76 1.072 0 1.398-3.59 2.541-7.986 2.541s-7.962-1.143-7.962-2.541c0-.369.259-.73.71-1.047-1.669.568-2.72 1.332-2.72 2.168 0 1.75 4.47 3.164 9.972 3.164s9.97-1.414 9.97-3.164c0-.844-1.044-1.623-2.744-2.193z"/><g stroke="#000" stroke-width=".265"><path d="M53.962 47.08c1.785-.232 3.59-.216 5.386-.207 1.217-.038 2.46.15 3.669-.068.616-.111.705-.192 1.25-.445.435-.264.824-.584 1.104-1.014.218-.335.342-.722.475-1.095.103-.292.192-.588.279-.885L62.72 41.53c-.052.296-.11.592-.205.878-.116.337-.219.699-.4 1.008-.225.384-.552.67-.927.903-.168.078-.33.171-.504.233-.697.247-1.435.26-2.165.28-.64.02-1.281.022-1.922.043-1.944.03-3.887.02-5.83-.083l3.195 2.287z"/><path stroke-width=".188" d="M50.37 37.053c.303.271.599.55.865.858.23.265.313.39.518.67.302.41.54.855.676 1.346.062.29.06.588.067.883.01.435-.037.862-.16 1.278-.114.282-.215.576-.382.832-.147.193-.343.342-.519.507-.222.163-.49.243-.734.365-.14.086-.293.139-.443.2l2.332 1.559c.152-.064.295-.145.437-.23.262-.132.533-.252.767-.433.2-.176.409-.35.56-.57.173-.286.264-.608.377-.92a5.4 5.4 0 0 0 .214-1.338c.01-.315.031-.632-.03-.944-.13-.549-.426-1.036-.75-1.493a15.84 15.84 0 0 0-1.194-1.493l-2.6-1.077zm6.841 1.99c.112-.108.216-.225.336-.323 1.23-1.013 2.695-1.697 4.207-2.172.41-.13.833-.217 1.25-.325 2.704.69.042-.683-.037-.526-.211.42.58.747.788 1.167.477.96.713 2.071.865 3.121.067.463.083.932.124 1.398.003.38.03.76.01 1.14a3.73 3.73 0 0 1-.109.737c-.029.111-.072.232-.161.304-.034.029-.133-.114-.093-.095 2.361 1.14 2.738 1.955 2.233.985-.134-1.01-.002-.28-2.504-1.203-.099-.037.156.146.204.24a2.4 2.4 0 0 1 .187.521c.17.667.11.65.038 1.336-.097.22-.158.459-.29.659-.32.486-.767.796-1.278 1.056-.595.303-1.276.495-1.924.638-.325.071-.657.113-.985.17-.25.028-1.267.156-1.572.147-.167-.006-.64-.172-.495-.088.658.378 1.309.834 2.052.983.19.038-.05-.387-.027-.579.032-.27.129-.53.193-.795.204-.51.383-1.033.686-1.497.135-.207.278-.415.467-.574.622-.523 1.512-.73 2.267-.884.755-.154 1.524-.228 2.286-.342 2.646-.291 5.308-.322 7.966-.336.88-.005 2.679.053 3.621-.135.412-.082.79-.281 1.185-.422.254-.262.573-.474.761-.786.438-.73.47-1.673.497-2.483.014-.448-.005-.897-.02-1.346-.032-.973-.068-1.246-.15-2.173-.045-.219-.052-.449-.135-.656a.666.666 0 0 0-.262-.336c-.87-.484-1.752-.959-2.683-1.308-.143-.053-.294.084-.436.14-.277.109-.485.24-.74.388-.118.084-.24.163-.353.254-.369.297-.707.63-1.07.936-.815.688-1.672 1.319-2.529 1.952-.952.703-1.935 1.366-2.862 2.102l-.148.125 2.342 1.436.115-.138c.744-.853 1.6-1.601 2.489-2.3.283-.216.562-.437.848-.648 1.093-.809 2.233-1.552 3.38-2.28.215-.12.45-.267.688-.337.126-.037.484.02.387-.067-.553-.492-1.237-.811-1.845-1.232-.139-.096.332.123.435.256.153.197.197.457.295.686.061.338.136.675.184 1.015.109.78.192 1.745.15 2.529-.04.78-.145 1.595-.55 2.287-.165.283-.428.495-.642.743-.339.157-.658.365-1.016.47-.886.263-2.388.327-3.246.383-2.644.17-5.293.275-7.941.367-.866.048-1.734.066-2.598.144-1.06.095-1.948.062-2.775.742-.202.166-.335.403-.47.627-.203.334-.548 1.189-.694 1.537-.103.263-.221.52-.307.79-.071.221-.33.514-.165.68.695.697 1.604 1.15 2.465 1.628.126.07.29 0 .433-.016.273-.031 1.238-.215 1.452-.255 1.011-.218 2.042-.4 2.98-.861.587-.289 1.051-.588 1.43-1.13.151-.215.228-.474.342-.712.043-.243.112-.483.129-.729.027-.405-.063-.761-.108-1.156-.013-.113.073-.285-.026-.341-.825-.472-1.717-.824-2.605-1.162-.058-.021.02.122.03.182.223 1.172.026.468 2.563 1.707.063.031.087-.119.097-.189.02-.146.001-.295-.006-.442a22.24 22.24 0 0 0-.059-.846c-.036-.403-.082-.806-.123-1.21-.15-1.082-.25-1.975-.497-3.049-.12-.517-.239-1.038-.425-1.535-.157-.419-.254-.915-.6-1.2-.859-.705-1.854-1.258-2.888-1.667-.318-.126-.68.082-1.019.123-.4.125-.805.24-1.202.376-.64.22-2.042.762-2.659 1.028-.834.36-1.637.785-2.46 1.168z"/></g></g><path fill="#a00" d="M13.495 12.078c-1.233-.59-3.342-1.466 2.306 1.051.179.08-.345-.176-.515-.267-.252-.135-.631-.35-.882-.493a9.034 9.033 0 0 1-1.984-1.513 19.08 19.078 0 0 0-1.588-1.605c-.482-.383-.89-.81-1.29-1.247-.571-.624-1.194-1.214-1.82-1.803-.672-.636-1.403-1.234-1.986-1.927-.348-.479-.68-.966-.987-1.463A5.294 5.293 0 0 1 4.2 1.404c-.035-.35-.165-.681-.299-1.013-.079-.235-.04-.492.03-.727.088-.29.117-.355.455-.478L.754-2.71c-.384.193-.548.358-.642.712a2.588 2.588 0 0 0-.137.902c.116.328.328.635.337.983C.424.4.595.901.84 1.384c.275.518.644 1 .958 1.504.561.743 1.35 1.34 2.05 1.999a34.78 34.78 0 0 1 1.73 1.75c.422.44.79.911 1.307 1.286.576.501 1.134 1.017 1.61 1.582a8.435 8.434 0 0 0 1.95 1.615c2.058 1.156 4.2 2.224 6.465 3.103z" style="stroke-width:1.00006" transform="matrix(7.43987 0 0 7.4411 1.193 21.165)"/><path fill="#a00" d="M106.128 1.004c-7.834 3.795-12.707 12.486-17.87 19.92-7.589 10.864-14.486 22.338-21.606 33.61-4.04 6.162-7.588 12.8-11.948 18.656a120.414 120.434 0 0 1-10.885 12.419c-4.337 3.572-8.801 6.972-13.414 10.045-4.449 2.783-9.054 5.172-13.69 7.479-2.38.81-4.44 2.47-6.717 3.557-1.392.67-2.827 1.19-4.241 1.823-3.2 1.265-1.615.602-4.747 1.964l20.891 16.52c3.088-1.325 1.51-.67 4.732-1.98 3.817-1.555 7.462-3.527 11.153-5.432a239.34 239.38 0 0 0 13.644-7.895c4.732-3.192 9.404-6.57 13.712-10.507 3.906-4.04 7.812-8.088 11.182-12.769 4.204-6.087 7.537-12.932 11.465-19.257 6.718-11.512 13.652-22.86 21.256-33.59 4.791-6.488 10.282-15.678 17.945-17.278z"/></svg>