<svg xmlns="http://www.w3.org/2000/svg" xml:space="preserve" viewBox="0 0 128 128">
  <path fill="#87de87" d="M128 82.787C128 107.767 107.768 128 82.787 128H45.213C20.233 128 0 107.768 0 82.787V45.213C0 20.233 20.232 0 45.213 0h37.574C107.767 0 128 20.232 128 45.213Z"/>
  <path fill="#37c837" d="M0 45.213C0 20.233 20.232 0 45.213 0h37.574C107.767 0 128 20.232 128 45.213v37.574C128 107.767 107.768 128 82.787 128"/>
  <path fill="#217821" d="M82.787 0C107.767 0 128 20.232 128 45.213v37.574C128 107.767 107.768 128 82.787 128"/>
  <g stroke-width="10.522" font-family="Constantia" font-size="505.066" font-weight="700" letter-spacing="0" word-spacing="0">
    <text xml:space="preserve" x="101.726" y="435.26" fill="#217821" style="line-height:1.25;-inkscape-font-specification:&quot;Constantia, Bold&quot;;font-variant-ligatures:normal;font-variant-caps:normal;font-variant-numeric:normal;font-feature-settings:normal;text-align:start" transform="translate(-19.355) scale(.25806)"><tspan x="101.726" y="435.26" style="-inkscape-font-specification:&quot;Constantia, Bold&quot;;font-variant-ligatures:normal;font-variant-caps:normal;font-variant-numeric:normal;font-feature-settings:normal;text-align:start">X</tspan></text>
    <text xml:space="preserve" x="101.726" y="420.26" fill="#fff" style="line-height:1.25;-inkscape-font-specification:&quot;Constantia, Bold&quot;;font-variant-ligatures:normal;font-variant-caps:normal;font-variant-numeric:normal;font-feature-settings:normal;text-align:start" transform="translate(-19.355) scale(.25806)"><tspan x="101.726" y="420.26" style="-inkscape-font-specification:&quot;Constantia, Bold&quot;;font-variant-ligatures:normal;font-variant-caps:normal;font-variant-numeric:normal;font-feature-settings:normal;text-align:start">X</tspan></text>
  </g>
  <path fill="none" stroke="#217821" stroke-linecap="round" stroke-linejoin="round" stroke-width="12" d="M76.983 62.984h43.369l-11.71-11.71m11.71 11.71-11.71 11.336"/>
  <path fill="none" stroke="#fff" stroke-linecap="round" stroke-linejoin="round" stroke-width="12" d="M78.57 60.403h43.368l-11.71-11.71m11.71 11.71-11.71 11.336"/>
</svg>
