<svg viewBox="0 0 128 128" xmlns="http://www.w3.org/2000/svg"><path fill="none" stroke="navy" stroke-linecap="round" stroke-linejoin="round" stroke-width="8.574" d="M120.495 33.57c1.397 4.197 1.62 11.434 0 16.79-1.948 6.437-6.014 12.487-11.178 16.788-5.455 4.544-12.521 7.546-19.565 8.395-5.624.678-12.815-.82-16.768-2.798-6.666 6.702-11.204 11.215-15.395 15.414 0 0-4.904-3.47-9.07.696-4.163 4.169-.695 9.082-.695 9.082l-8.387 8.393s-4.911-3.457-9.065.7-.7 9.08-.7 9.08l-5.597 5.603H6.287v-17.807l47.43-49.466c-4.243-17.403-.944-26.634 6.69-36.259 6.161-7.769 17.34-11.862 27.249-11.894 8.872-.026 20.264 6.3 24.458 10.496l-8.386 8.395c-2.794-2.798-5.445-3.007-8.383-2.798-2.079.147-4.118 1.325-5.59 2.798-1.471 1.474-2.648 3.517-2.795 5.597-.209 2.942.711 6.31 2.794 8.394 2.083 2.086 5.446 3.007 8.386 2.798 2.077-.147 4.191-1.398 5.588-2.798"/></svg>