<svg xmlns="http://www.w3.org/2000/svg" viewBox="0 0 64 64">
  <path fill="none" stroke="navy" stroke-linecap="round" stroke-linejoin="round" stroke-width="5.967" d="M60.446 16.7c.703 2.11.815 5.749 0 8.442-.98 3.236-3.026 6.278-5.624 8.44-2.745 2.285-6.3 3.794-9.844 4.221-2.83.341-6.448-.412-8.437-1.407-3.354 3.37-5.637 5.639-7.746 7.75 0 0-2.467-1.745-4.563.35-2.095 2.096-.35 4.566-.35 4.566l-4.22 4.22s-2.471-1.738-4.561.352-.352 4.565-.352 4.565l-2.816 2.817h-8.95v-8.953l23.864-24.87c-2.135-8.75-.475-13.391 3.366-18.23 3.1-3.906 8.725-5.964 13.71-5.98C48.387 2.97 54.119 6.15 56.229 8.26l-4.219 4.221c-1.406-1.407-2.74-1.512-4.218-1.407-1.046.074-2.072.666-2.813 1.407-.74.741-1.332 1.768-1.406 2.814-.105 1.479.358 3.172 1.406 4.22 1.048 1.049 2.74 1.512 4.219 1.407 1.045-.074 2.109-.703 2.812-1.407"/>
</svg>
