<svg viewBox="0 0 128 128" xmlns="http://www.w3.org/2000/svg"><path style="fill:none;fill-opacity:1;stroke:#000;stroke-width:2;stroke-linecap:round;stroke-linejoin:round;stroke-dasharray:none;stroke-opacity:1" d="M15 66h98v58H15zM64 124V67"/><path fill="navy" d="M48.351 78.098c3.092 3.88 6.235 8.724 7.88 11.622 2.01 3.81 2.848 6.396 4.317 10.987.9 2.538 1.715 3.293 3.464 3.293 1.907 0 2.772-1.287 3.444-3.281 1.389-4.336 2.476-7.645 4.196-10.772 3.371-6.04 7.563-11.402 11.678-16.554 1.116-1.46 8.322-9.96 11.566-16.668 0 0 3.988-7.367 3.988-17.656 0-9.625-3.931-16.303-3.931-16.303L83.63 25.799l-6.876 18.113-1.7 2.495-.34.453-.454.567-.794.907-1.134 1.134-6.123 4.99-15.307 8.837z"/><path fill="teal" fill-opacity=".973" d="M32.534 55.478c3.737 8.533 10.939 16.034 15.817 22.62l25.909-30.67s-3.646 4.769-10.262 4.769c-7.371 0-13.324-5.887-13.324-13.305 0-5.09 3.063-8.586 3.063-8.586l-17.575 4.709z"/><path fill="teal" fill-opacity=".973" d="M74.543 5.587c8.6 2.77 15.96 8.594 20.41 17.179L74.26 47.427s3.061-3.557 3.061-8.617c0-7.594-6.395-13.267-13.304-13.267-6.53 0-10.28 4.763-10.28 4.763V14.772z"/><path fill="#f60" d="M37.296 16.473C42.432 10.328 51.472 4 63.941 4c6.045 0 10.603 1.587 10.603 1.587L53.737 30.306h-14.74z"/><path fill="navy" d="M32.534 55.478s-3.418-6.73-3.418-16.48c0-9.217 3.584-17.273 8.18-22.525l16.44 13.833z"/><path style="fill:#e6e6e6;fill-opacity:1;stroke:#000;stroke-width:.858579;stroke-linecap:round;stroke-linejoin:round;stroke-dasharray:none;stroke-opacity:1" d="M15.429 83.53h23.138v22.939H15.429z"/><path style="fill:#e6e6e6;fill-opacity:1;stroke:#000;stroke-width:.862923;stroke-linecap:round;stroke-linejoin:round;stroke-dasharray:none;stroke-opacity:1" d="M89.331 83.533h23.133v22.935H89.331z"/><path style="fill:none;fill-opacity:1;stroke:#000;stroke-width:.995694;stroke-linecap:round;stroke-linejoin:round;stroke-dasharray:none;stroke-opacity:1" d="M15 72.073h9s11.885 1.21 16 4.957c4.773 4.347 7.294 11.42 7.352 17.846.06 6.718-2.31 14.304-7.352 18.792-4.11 3.657-16 4.258-16 4.258h-9M112.553 72.074h-9s-11.884 1.21-16 4.957c-4.773 4.346-7.36 11.034-7.351 17.845.007 6.771 2.253 14.456 7.351 18.962 4.112 3.633 16 4.089 16 4.089h9"/></svg>