<svg xmlns="http://www.w3.org/2000/svg" xmlns:xlink="http://www.w3.org/1999/xlink" data-name="Layer 1" viewBox="0 0 128 128">
  <defs>
    <path id="a" fill="none" stroke-linejoin="round" stroke-width="3" d="M5 16v97c0 1.509.765 2 2 2h114c1.306 0 2-.757 2-2V15c0-1.123-.82-2-2-2H8c-1.959 0-3 1.603-3 3Z"/>
    <path id="b" fill="#f60" stroke-linecap="round" stroke-linejoin="round" d="M47 14v49h33V14Z"/>
    <path id="c" fill="none" stroke-linecap="round" stroke-width="3" d="M58 22.448h12"/>
    <path id="d" fill="none" d="M14 14.25V30c0 11.49 8.078 54.972 50 55 41.922.028 50.492-42.784 50-55V14.25Z"/>
    <path id="e" fill="none" d="M47 63c0 9.834 7.982 16.55 17 16.414 9.018-.137 16-7.342 16-16.414M56 26c0 3.69 2.697 8.08 8 8 5.303-.08 8-5.415 8-8m-25 88.916c0-9.834 7.982-16.55 17-16.414 9.018.137 16 7.342 16 16.414"/>
  </defs>
  <g stroke="#000">
    <g transform="rotate(-90 65.053 56.614) scale(.48349)">
      <use xlink:href="#a" stroke-linejoin="round" stroke-width="3"/>
      <use xlink:href="#b" stroke-linecap="round" stroke-linejoin="round"/>
      <use xlink:href="#c" stroke-linecap="round" stroke-width="3"/>
      <circle cx="64" cy="26.5" r="2" fill="#fff" stroke-linecap="round" stroke-linejoin="round"/>
      <use xlink:href="#d"/>
      <use xlink:href="#e"/>
    </g>
    <g transform="matrix(0 -.48349 -.48349 0 119.56 121.667)">
      <use xlink:href="#a" stroke-linejoin="round" stroke-width="3"/>
      <use xlink:href="#b" stroke-linecap="round" stroke-linejoin="round"/>
      <use xlink:href="#c" stroke-linecap="round" stroke-width="3"/>
      <circle cx="64" cy="26.5" r="2" fill="#fff" stroke-linecap="round" stroke-linejoin="round"/>
      <use xlink:href="#d"/>
      <use xlink:href="#e"/>
    </g>
  </g>
  <path fill="navy" d="M47.837 74.098c3.092 3.88 6.235 8.724 7.88 11.622 2.01 3.81 2.848 6.396 4.317 10.987.9 2.538 1.715 3.293 3.464 3.293 1.907 0 2.772-1.287 3.444-3.281 1.389-4.336 2.476-7.645 4.196-10.772 3.371-6.04 7.563-11.402 11.678-16.554 1.116-1.46 8.322-9.96 11.566-16.668 0 0 3.988-7.367 3.988-17.656 0-9.625-3.931-16.303-3.931-16.303l-11.323 3.033-6.876 18.113-1.7 2.495-.34.453-.454.567-.794.907-1.134 1.134-6.123 4.99-15.307 8.837z"/>
  <path fill="teal" fill-opacity=".973" d="M32.02 51.478c3.737 8.533 10.939 16.034 15.817 22.62l25.909-30.67s-3.646 4.769-10.262 4.769c-7.371 0-13.324-5.887-13.324-13.305 0-5.09 3.063-8.586 3.063-8.586l-17.575 4.709Z"/>
  <path fill="teal" fill-opacity=".973" d="M74.029 1.587c8.6 2.77 15.96 8.594 20.41 17.179L73.746 43.427s3.061-3.557 3.061-8.617c0-7.594-6.395-13.267-13.304-13.267-6.53 0-10.28 4.763-10.28 4.763V10.772z"/>
  <path fill="#f60" d="M36.782 12.473C41.918 6.328 50.958 0 63.427 0 69.472 0 74.03 1.587 74.03 1.587L53.223 26.306h-14.74Z"/>
  <path fill="navy" d="M32.02 51.478s-3.418-6.73-3.418-16.48c0-9.217 3.584-17.273 8.18-22.525l16.44 13.833z"/>
</svg>
