<svg viewBox="0 0 128 128" xml:space="preserve" xmlns="http://www.w3.org/2000/svg"><path style="fill:#000;stroke:#000;stroke-width:1.9369;stroke-linecap:round;stroke-linejoin:bevel" d="M102.998 105.964H64.92c-3.638 0-7.305-3.296-7.305-6.934V61.549c0-4.734 4.874-5.063 8.77-5.063h51.387c3.422 0 7.26 3.837 7.26 7.26v36.428c-1.833 9.294-17.225 19.612-18.803 18.803-1.573-.993-1.468-2.543-1.468-2.543 1.949-5.041 2.476-10.052-1.763-10.47z"/><path style="fill:navy;stroke:navy;stroke-width:1.9369;stroke-linecap:round;stroke-linejoin:round" d="M4.968 53.74V17.27c0-2.812 2.797-6.3 5.609-6.3h57.267c2.991 0 6.853 2.802 6.853 5.793v28.873h-17.27c-3.381 0-5.921 3.328-6.372 4.562-.347.95-3.316-.572-6.436-2.4 2.119-3.108 6.42-8.156 7.06-14.438 2.88 0 4.723.156 4.723-3.99 0-4.144-2.558-3.874-11.727-3.874 0-4.558.277-8.05-4.64-8.05-4.919 0-4.076 2.98-4.076 8.05-7.56-.34-12.007-1.04-12.007 4.918s16.018 2.946 19.73 2.946c-.775 3.865-3.13 8.407-3.13 8.407-4.26-4.505-5.928-7.305-8.776-5.204-1.876 1.384-1.2 5.054 3.591 8.766l-7.082 1.345c-1.73.756-4.877 1.951-4.028 5.118.848 3.167 7.103 1.254 14.704-1.025 4.648 3.787 8.016 5.327 11.039 5.242v5.033l-20.834 2.626s-5.24 2.433-.259 9.432c1.075 1.51-4.744.013-5.545-1.659-5.087-10.615-18.394-8.733-18.394-17.7z"/><text xml:space="preserve" style="font-weight:700;font-size:46.4855px;font-family:sans-serif;-inkscape-font-specification:'sans-serif, Bold';fill:#000;stroke:#000;stroke-width:1.9369;stroke-linecap:round;stroke-linejoin:bevel" x="73.335" y="96.81"><tspan x="73.335" y="96.81" style="fill:#fff;stroke:#fff;stroke-width:1.9369;stroke-linecap:round;stroke-linejoin:round">A</tspan></text></svg>