<?xml version="1.0" encoding="UTF-8" standalone="no"?>
<svg
   xmlns:dc="http://purl.org/dc/elements/1.1/"
   xmlns:cc="http://creativecommons.org/ns#"
   xmlns:rdf="http://www.w3.org/1999/02/22-rdf-syntax-ns#"
   xmlns:svg="http://www.w3.org/2000/svg"
   xmlns="http://www.w3.org/2000/svg"
   xmlns:sodipodi="http://sodipodi.sourceforge.net/DTD/sodipodi-0.dtd"
   xmlns:inkscape="http://www.inkscape.org/namespaces/inkscape"
   width="33.866589mm"
   height="33.866737mm"
   viewBox="0 0 33.866589 33.866738"
   version="1.1"
   id="svg8"
   inkscape:version="1.0.2 (e86c870879, 2021-01-15)"
   sodipodi:docname="login.svg">
  <defs
     id="defs2" />
  <sodipodi:namedview
     id="base"
     pagecolor="#ffffff"
     bordercolor="#666666"
     borderopacity="1.0"
     inkscape:pageopacity="0.0"
     inkscape:pageshadow="2"
     inkscape:zoom="6.3984241"
     inkscape:cx="63.999852"
     inkscape:cy="62.087058"
     inkscape:document-units="mm"
     inkscape:current-layer="layer1"
     inkscape:document-rotation="0"
     showgrid="false"
     inkscape:window-width="1920"
     inkscape:window-height="1016"
     inkscape:window-x="0"
     inkscape:window-y="27"
     inkscape:window-maximized="1"
     showguides="false" />
  <metadata
     id="metadata5">
    <rdf:RDF>
      <cc:Work
         rdf:about="">
        <dc:format>image/svg+xml</dc:format>
        <dc:type
           rdf:resource="http://purl.org/dc/dcmitype/StillImage" />
        <dc:title />
      </cc:Work>
    </rdf:RDF>
  </metadata>
  <g
     inkscape:label="Capa 1"
     inkscape:groupmode="layer"
     id="layer1"
     transform="translate(1.6466324e-6,6.3446613e-5)">
    <path
       style="fill:#ffffff;fill-opacity:1;stroke:#ffffff;stroke-width:0.933239;stroke-linecap:round;stroke-linejoin:round;stroke-miterlimit:4;stroke-dasharray:none;stroke-opacity:1"
       d="m 12.783285,22.24376 v 8.84255 c 0,0.854482 0.359653,0.933211 0.919042,0.933213 l 16.345922,5.8e-5 c 0.439711,0.01455 0.932357,-0.260998 0.933239,-0.933271 0.0053,-4.015531 0.01287,-20.013627 0,-27.0406817 -8.82e-4,-0.5564012 -0.612351,-0.9332407 -0.933239,-0.933239 l -16.331725,1.094e-4 c -0.532274,3.5e-6 -0.933239,0.4932229 -0.933239,0.9331296 0,0 0,0 0,6.9992817 0,0.560817 0.158155,1.399857 0.933293,1.399857 0.775137,0 0.933243,-0.83905 0.933243,-1.399857 0,-5.1327961 0,-5.1327961 0,-5.1327961 0,-0.4399323 0.47911,-0.9332381 0.919042,-0.9332381 h 12.612961 c 0.347792,0 0.933239,0.4933058 0.933239,0.9332381 V 29.219826 c 0,0.439933 -0.493308,0.933241 -0.933239,0.933241 H 15.58306 c -0.439932,0 -0.933239,-0.493308 -0.933239,-0.933241 0,0 0,0 0,-6.976066 0,-0.439933 -0.493304,-0.933231 -0.933243,-0.933237 -0.43994,-6e-6 -0.933293,0.685614 -0.933293,0.933237 z"
       id="path1131"
       sodipodi:nodetypes="sssccccccssssssssssssss" />
    <g
       id="g1129"
       transform="translate(-11.208896,12.517674)"
       style="fill:none;stroke:#00ffff;stroke-opacity:1;fill-opacity:1">
      <path
         style="fill:none;fill-opacity:1;stroke:#ffffff;stroke-width:2.64583;stroke-linecap:round;stroke-linejoin:round;stroke-miterlimit:4;stroke-dasharray:none;stroke-opacity:1"
         d="m 31.581811,-0.611424 6.085415,5.0270833 -6.085415,5.0270834"
         id="path1121"
         sodipodi:nodetypes="ccc" />
      <path
         style="fill:none;fill-opacity:1;stroke:#ffffff;stroke-width:4.23333;stroke-linecap:round;stroke-linejoin:round;stroke-miterlimit:4;stroke-dasharray:none;stroke-opacity:1"
         d="M 35.242156,4.4156593 H 15.325894"
         id="path1125"
         sodipodi:nodetypes="cc" />
    </g>
  </g>
</svg>
