<svg xmlns="http://www.w3.org/2000/svg" viewBox="0 0 33.867 33.867">
  <g stroke="#fff" stroke-linecap="round" stroke-linejoin="round">
    <path fill="#fff" stroke-width=".933" d="M12.783 22.244v8.842c0 .855.36.934.92.934h16.345c.44.014.933-.261.933-.934.006-4.015.013-20.013 0-27.04 0-.557-.612-.934-.933-.934H13.717c-.533 0-.934.494-.934.934v6.999c0 .56.158 1.4.934 1.4.775 0 .933-.84.933-1.4V5.912c0-.44.479-.933.919-.933h12.613c.348 0 .933.493.933.933V29.22c0 .44-.493.933-.933.933H15.583c-.44 0-.933-.493-.933-.933v-6.976c0-.44-.493-.933-.933-.933-.44 0-.934.685-.934.933z"/>
    <g fill="none">
      <path stroke-width="2.646" d="m20.373 11.906 6.085 5.027-6.085 5.027"/>
      <path stroke-width="4.233" d="M24.033 16.933H4.117"/>
    </g>
  </g>
</svg>
