<?xml version="1.0" encoding="UTF-8" standalone="no"?>
<svg
   viewBox="0 0 128.00018 128.00044"
   version="1.1"
   id="svg785"
   sodipodi:docname="login.svg"
   width="128.00018"
   height="128.00044"
   inkscape:version="1.2.2 (b0a8486541, 2022-12-01)"
   xmlns:inkscape="http://www.inkscape.org/namespaces/inkscape"
   xmlns:sodipodi="http://sodipodi.sourceforge.net/DTD/sodipodi-0.dtd"
   xmlns="http://www.w3.org/2000/svg"
   xmlns:svg="http://www.w3.org/2000/svg">
  <defs
     id="defs789" />
  <sodipodi:namedview
     id="namedview787"
     pagecolor="#ffffff"
     bordercolor="#000000"
     borderopacity="0.25"
     inkscape:showpageshadow="2"
     inkscape:pageopacity="0.0"
     inkscape:pagecheckerboard="0"
     inkscape:deskcolor="#d1d1d1"
     showgrid="false"
     inkscape:zoom="2.8862904"
     inkscape:cx="-14.898016"
     inkscape:cy="40.882927"
     inkscape:window-width="1920"
     inkscape:window-height="1011"
     inkscape:window-x="0"
     inkscape:window-y="0"
     inkscape:window-maximized="1"
     inkscape:current-layer="g783" />
  <g
     stroke="#ffffff"
     stroke-linecap="round"
     stroke-linejoin="round"
     id="g783"
     transform="matrix(4.3455423,0,0,4.2893389,-8.6930717,-11.347446)">
    <path
       fill="#ffffff"
       stroke-width="0.874702"
       d="m 13.029933,21.951624 v 8.28934 c 0,0.80156 0.337513,0.875623 0.862532,0.875623 h 15.324018 c 0.412516,0.01312 0.874721,-0.244688 0.874721,-0.875623 0.0057,-3.764046 0.01219,-18.76211 0,-25.3498959 0,-0.5221852 -0.573772,-0.8756214 -0.874721,-0.8756214 H 13.905592 c -0.499707,0 -0.875659,0.4631232 -0.875659,0.8756214 v 6.5615369 c 0,0.524998 0.14813,1.312494 0.875659,1.312494 0.726589,0 0.87472,-0.787496 0.87472,-1.312494 V 6.6404362 c 0,-0.4124985 0.449079,-0.8746841 0.861596,-0.8746841 h 11.825135 c 0.326262,0 0.87472,0.4621856 0.87472,0.8746841 V 28.491598 c 0,0.412497 -0.462206,0.874684 -0.87472,0.874684 H 15.655032 c -0.412515,0 -0.87472,-0.462187 -0.87472,-0.874684 v -6.539974 c 0,-0.412499 -0.462206,-0.874684 -0.87472,-0.874684 -0.412517,0 -0.875659,0.642185 -0.875659,0.874684 z"
       id="path775" />
    <g
       fill="none"
       id="g781"
       style="stroke:#ffffff;stroke-opacity:1"
       transform="matrix(0.93753545,0,0,0.93749618,1.0454163,1.0979587)">
      <path
         stroke-width="2.646"
         d="m 20.373,11.906 6.085,5.027 -6.085,5.027"
         id="path777"
         style="stroke:#ffffff;stroke-opacity:1" />
      <path
         stroke-width="4.233"
         d="M 24.033,16.933 H 4.117"
         id="path779"
         style="stroke:#ffffff;stroke-opacity:1" />
    </g>
  </g>
</svg>
