<svg width="128" height="128" xmlns="http://www.w3.org/2000/svg"><g stroke="#fff" stroke-linecap="round" stroke-linejoin="round"><path fill="#fff" stroke-width=".875" d="M13.03 21.952v8.289c0 .802.337.876.862.876h15.324c.413.013.875-.245.875-.876.006-3.764.012-18.762 0-25.35 0-.522-.574-.876-.875-.876h-15.31c-.5 0-.876.464-.876.876v6.562c0 .525.148 1.312.876 1.312.726 0 .874-.787.874-1.312V6.64c0-.412.45-.874.862-.874h11.825c.326 0 .875.462.875.874v21.852c0 .412-.462.874-.875.874H15.655c-.412 0-.875-.462-.875-.874v-6.54c0-.413-.462-.875-.874-.875-.413 0-.876.642-.876.875z" transform="matrix(4.34554 0 0 4.28934 -8.693 -11.347)"/><g fill="none" style="stroke:#fff;stroke-opacity:1"><path stroke-width="2.646" d="m20.373 11.906 6.085 5.027-6.085 5.027" style="stroke:#fff;stroke-opacity:1" transform="matrix(4.0741 0 0 4.02124 -4.15 -6.638)"/><path stroke-width="4.233" d="M24.033 16.933H4.117" style="stroke:#fff;stroke-opacity:1" transform="matrix(4.0741 0 0 4.02124 -4.15 -6.638)"/></g></g></svg>