<?xml version="1.0" encoding="UTF-8" standalone="no"?>
<svg
   viewBox="0 0 128.0001 127.9999"
   version="1.1"
   id="svg918"
   sodipodi:docname="logout.svg"
   width="128.00011"
   height="127.9999"
   inkscape:version="1.2.2 (b0a8486541, 2022-12-01)"
   xmlns:inkscape="http://www.inkscape.org/namespaces/inkscape"
   xmlns:sodipodi="http://sodipodi.sourceforge.net/DTD/sodipodi-0.dtd"
   xmlns="http://www.w3.org/2000/svg"
   xmlns:svg="http://www.w3.org/2000/svg">
  <defs
     id="defs922" />
  <sodipodi:namedview
     id="namedview920"
     pagecolor="#ffffff"
     bordercolor="#000000"
     borderopacity="0.25"
     inkscape:showpageshadow="2"
     inkscape:pageopacity="0.0"
     inkscape:pagecheckerboard="0"
     inkscape:deskcolor="#d1d1d1"
     showgrid="false"
     inkscape:zoom="5.7725809"
     inkscape:cx="19.921765"
     inkscape:cy="55.607709"
     inkscape:window-width="1920"
     inkscape:window-height="1011"
     inkscape:window-x="0"
     inkscape:window-y="0"
     inkscape:window-maximized="1"
     inkscape:current-layer="svg918" />
  <g
     stroke-linecap="round"
     stroke-linejoin="round"
     id="g916"
     transform="matrix(3.5424874,0,0,3.6643455,4.0269068,1.9961381)">
    <path
       stroke="#000000"
       stroke-width="1.058"
       d="m 21.167,22.225 v 10.028 c 0,0.969 -0.408,1.058 -1.043,1.058 H 1.588 C 1.088,33.328 0.53,33.015 0.529,32.253 0.523,27.699 0.515,9.556 0.53,1.587 0.53,0.957 1.224,0.53 1.588,0.53 h 18.52 c 0.604,0 1.059,0.56 1.059,1.058 v 7.938 c 0,0 0.028,1.587 -0.53,1.587 -0.557,0 -0.529,-1.587 -0.529,-1.587 v -6.88 c 0,-0.498 -0.543,-1.058 -1.042,-1.058 H 2.646 c -0.395,0 -1.058,0.56 -1.058,1.059 v 28.548 c 0,0.5 0.559,1.059 1.058,1.059 H 19.05 c 0.499,0 1.058,-0.56 1.058,-1.059 v -8.97 c 0,0 0.135,-1.057 0.53,-1.057 0.394,0 0.522,0.777 0.529,1.058 z"
       id="path908" />
    <g
       fill="none"
       stroke="#800000"
       id="g914">
      <path
         stroke-width="2.646"
         d="m 26.458,11.906 6.086,5.027 -6.086,5.027"
         id="path910" />
      <path
         stroke-width="4.233"
         d="M 29.104,16.933 H 11.906"
         id="path912" />
    </g>
  </g>
</svg>
