<svg width="128" height="128" xmlns="http://www.w3.org/2000/svg"><g stroke-linecap="round" stroke-linejoin="round"><path stroke="#000" stroke-width="1.058" d="M21.167 22.225v10.028c0 .969-.408 1.058-1.043 1.058H1.588c-.5.017-1.058-.296-1.059-1.058C.523 27.699.515 9.556.53 1.587.53.957 1.224.53 1.588.53h18.52c.604 0 1.059.56 1.059 1.058v7.938s.028 1.587-.53 1.587c-.557 0-.529-1.587-.529-1.587v-6.88c0-.498-.543-1.058-1.042-1.058H2.646c-.395 0-1.058.56-1.058 1.059v28.548c0 .5.559 1.059 1.058 1.059H19.05c.499 0 1.058-.56 1.058-1.059v-8.97s.135-1.057.53-1.057c.394 0 .522.777.529 1.058z" transform="matrix(3.54249 0 0 3.66435 4.027 1.996)"/><g fill="none" stroke="maroon"><path stroke-width="2.646" d="m26.458 11.906 6.086 5.027-6.086 5.027" transform="matrix(3.54249 0 0 3.66435 4.027 1.996)"/><path stroke-width="4.233" d="M29.104 16.933H11.906" transform="matrix(3.54249 0 0 3.66435 4.027 1.996)"/></g></g></svg>