<svg xmlns="http://www.w3.org/2000/svg" viewBox="0 0 128 128">
  <g transform="translate(-100)">
    <circle cx="164" cy="64" r="64" fill="#fff"/>
    <path fill="#520" d="M144.704 14a4.382 4.382 0 0 0-2.504.807c-3.064 2.173-4.558 8.854 2.314 14.926-.184 4.875 8.763 5.757 5.21-1.42 3.225-9.54-1.146-14.35-5.02-14.313zm53.533 2.04c-1.3.002-2.726.615-3.52 1.84-4.855 7.492.394 11.31 5.427 3.186 2.069-3.338.258-5.029-1.907-5.026zm-8.75 13.54c-13.3 12.133-23.286 29.53-51.947 17.265 3.897 11.41-1.42 15.164-6.567 16.272-1.855-1.303-3.67-3.028-5.322-5.18l-4.044-5.273.551 6.666c1.077 13.133 5.783 22.837 13.587 29.092 7.803 6.255 18.486 9.006 31.302 9.006 20.005 0 38.122-12.992 44.79-31.571l1.12-3.127-3.23.467c-1.12.161-2.002.116-2.688-.06l6.646-12.833c-3.004 1.309-6.157 2.9-9.222 4.32.363-2.842 1.206-6.43 2.668-10.726l2.163-6.373-5.224 4.147c-5.34 4.238-11.082 9.303-16.732 13.492-1.877-3.81-1.6-11.535 2.15-25.585zm-72.12 9.725c-1.862-.002-3.777 2.446-3.29 4.84 1.291 6.341 7.507 4.52 6.05-1.653-.544-2.303-1.643-3.186-2.76-3.187zm84.173 9.58c-1.303 5.147-1.61 9.18-.825 12.339.54 2.174 1.732 3.99 3.473 5.013.858.503 1.8.81 2.805.953-6.27 4.416-15.42 1.41-11.226-9.966-17.867 24.456-36.432 26.95-42.398 8.346-3.065 18.48-22.09 14.39-26.374-.5 4.616 3.904 9.92 5.722 14.819 4.747 3.283-.654 6.287-2.644 8.442-5.853 1.256-1.871 2.227-4.152 2.896-6.827 2.729 4.636 5.873 7.638 9.399 9.193 4.807 2.121 10.01 1.41 15.035-.687 8.222-3.431 16.434-10.483 23.955-16.758zm-1.258 38.33c2.39 1.63 3.795 3.458 3.795 5.36 0 6.99-17.947 12.706-39.927 12.706s-39.81-5.715-39.81-12.706c0-1.844 1.295-3.648 3.553-5.233-8.347 2.837-13.6 6.66-13.6 10.839 0 8.75 22.346 15.819 49.857 15.819 27.51 0 49.85-7.069 49.85-15.82 0-4.221-5.22-8.113-13.718-10.965Z"/>
  </g>
</svg>
