<svg xmlns="http://www.w3.org/2000/svg" xml:space="preserve" viewBox="0 0 496 496">
  <path fill="#ce0909" d="M496 320.8c0 96.8-78.4 175.2-175.2 175.2H175.2C78.4 496 0 417.6 0 320.8V175.2C0 78.4 78.4 0 175.2 0h145.6C417.6 0 496 78.4 496 175.2Z"/>
  <path fill="#b70000" d="M0 175.2C0 78.4 78.4 0 175.2 0h145.6C417.6 0 496 78.4 496 175.2v145.6c0 96.8-78.4 175.2-175.2 175.2"/>
  <g fill="#960000">
    <path d="M320.8 0C417.6 0 496 78.4 496 175.2v145.6c0 96.8-78.4 175.2-175.2 175.2"/>
    <path d="m264.8 262.4 67.2-67.2c4.8-4.8 4.8-12 0-16.8-4.8-4.8-12-4.8-16.8 0L248 245.6l-67.2-67.2c-4.8-4.8-12-4.8-16.8 0-4.8 4.8-4.8 12 0 16.8l67.2 67.2-67.2 67.2c-4.8 4.8-4.8 12 0 16.8 2.4 2.4 5.6 3.2 8 3.2 2.4 0 5.6-.8 8-3.2l67.2-67.2 67.2 67.2c2.4 2.4 5.6 3.2 8 3.2 2.4 0 5.6-.8 8-3.2 4.8-4.8 4.8-12 0-16.8z"/>
  </g>
  <path fill="#fff" d="m264.8 248 67.2-67.2c4.8-4.8 4.8-12 0-16.8-4.8-4.8-12-4.8-16.8 0L248 231.2 180.8 164c-4.8-4.8-12-4.8-16.8 0-4.8 4.8-4.8 12 0 16.8l67.2 67.2-67.2 67.2c-4.8 4.8-4.8 12 0 16.8 2.4 2.4 5.6 3.2 8 3.2 2.4 0 5.6-.8 8-3.2l67.2-67.2 67.2 67.2c2.4 2.4 5.6 3.2 8 3.2 2.4 0 5.6-.8 8-3.2 4.8-4.8 4.8-12 0-16.8z"/>
</svg>
