<svg xml:space="preserve" width="128" height="128" xmlns="http://www.w3.org/2000/svg"><rect style="fill:#d40000;stroke-width:8;stroke-linecap:round;stroke-linejoin:round" width="120" height="120" x="4" y="4" rx="20" ry="20"/><path fill="#fff" d="m79.3 63.98 30.745-30.774c4.042-4.047 5.633-11.67.96-16.35-4.674-4.677-12.31-3.063-16.333.963L63.929 48.594 33.185 17.819c-4.111-4.116-11.718-5.581-16.333-.962-4.614 4.62-3.145 12.24.962 16.35L48.557 63.98S27.554 85.014 17.814 94.754c-4.106 4.105-5.532 11.779-.961 16.35 4.57 4.57 12.041 3.329 16.332-.962A99348.14 99348.14 0 0 0 63.93 79.367l30.743 30.775c3.53 3.533 11.197 6.093 16.333.962 5.136-5.132 2.895-12.49-.96-16.35z" style="fill:#fff;stroke:none;stroke-width:4;stroke-dasharray:none;stroke-opacity:1;fill-opacity:1"/></svg>