<svg width="128" height="128" xmlns="http://www.w3.org/2000/svg"><path fill="none" stroke="#6e311e" stroke-linecap="round" stroke-linejoin="round" stroke-width="11.556" d="M119.004 34.356c1.361 4.088 1.578 11.14 0 16.357-1.897 6.27-5.857 12.164-10.886 16.353-5.313 4.428-12.194 7.351-19.054 8.179-5.478.66-12.48-.798-16.33-2.726-6.493 6.53-10.912 10.926-14.994 15.016 0 0-4.775-3.381-8.832.678-4.055 4.061-.678 8.847-.678 8.847l-8.168 8.177s-4.783-3.368-8.828.682c-4.046 4.05-.682 8.845-.682 8.845l-5.45 5.458H7.778v-17.347l46.191-48.188c-4.132-16.954-.919-25.946 6.516-35.322 6-7.569 16.888-11.556 26.537-11.587 8.64-.025 19.736 6.136 23.82 10.225l-8.167 8.178c-2.721-2.726-5.303-2.93-8.164-2.726-2.025.143-4.01 1.29-5.445 2.726-1.432 1.436-2.578 3.426-2.721 5.453-.204 2.865.693 6.146 2.721 8.176 2.029 2.033 5.304 2.93 8.166 2.726 2.023-.143 4.083-1.362 5.443-2.726"/><g fill="none" stroke="#7b888c" stroke-linecap="round" stroke-linejoin="round"><path d="M37 34s-1.068 10.133-4 14c-3.074 4.055-8.444 5.735-13 8-5.765 2.865-18 7-18 7" transform="matrix(1.93549 0 0 4.00001 1.097 -130)"/><path d="M37 34s8.67.234 12.234 2.366c3.03 1.812 4.043 5.876 6.69 8.212C58.01 46.418 63 49 63 49s-5.809.34-8 2c-2.142 1.623-4 7-4 7s-5.868-3.86-9-3.255C38.928 55.34 35 61 35 61s-2.988-3.191-5-3.63C20.699 55.34 2 63 2 63" transform="matrix(1.93549 0 0 4.00001 1.097 -130)"/><path d="m55 44-6 7s-3.764-2.71-5.885-2.503C39.862 48.813 35 54 35 54l-5-3m22-11-3 5s-3.673-1.506-5.56-1.274C41.05 44.021 37 47 37 47l-2-4" transform="matrix(1.93549 0 0 4.00001 1.097 -130)"/><path d="m40 35-3 12-2 7v7m11-26 3 10v6l2 7m-8-3V44l-1-9" transform="matrix(1.93549 0 0 4.00001 1.097 -130)"/></g></svg>