<?xml version="1.0" encoding="UTF-8" standalone="no"?>
<!-- Created with Inkscape (http://www.inkscape.org/) -->

<svg
   width="128.0px"
   height="128.0px"
   viewBox="0 0 128.0 128.0"
   version="1.1"
   id="SVGRoot"
   sodipodi:docname="pdf.svg"
   inkscape:version="1.2.2 (b0a8486541, 2022-12-01)"
   xmlns:inkscape="http://www.inkscape.org/namespaces/inkscape"
   xmlns:sodipodi="http://sodipodi.sourceforge.net/DTD/sodipodi-0.dtd"
   xmlns="http://www.w3.org/2000/svg"
   xmlns:svg="http://www.w3.org/2000/svg">
  <sodipodi:namedview
     id="namedview3899"
     pagecolor="#ffffff"
     bordercolor="#000000"
     borderopacity="0.25"
     inkscape:showpageshadow="2"
     inkscape:pageopacity="0.0"
     inkscape:pagecheckerboard="0"
     inkscape:deskcolor="#d1d1d1"
     inkscape:document-units="px"
     showgrid="true"
     inkscape:zoom="3.1328125"
     inkscape:cx="92.089776"
     inkscape:cy="35.112219"
     inkscape:window-width="1920"
     inkscape:window-height="1011"
     inkscape:window-x="0"
     inkscape:window-y="32"
     inkscape:window-maximized="1"
     inkscape:current-layer="layer1">
    <inkscape:grid
       type="xygrid"
       id="grid4022" />
  </sodipodi:namedview>
  <defs
     id="defs3894" />
  <g
     inkscape:label="Capa 1"
     inkscape:groupmode="layer"
     id="layer1">
    <g
       transform="matrix(0.3613792,0,0,0.36137946,4.2042004,-4.7759279)"
       id="g1482">
		<polygon
   points="204.5,23.99 282.65,102.07 282.65,356.65 51.791,356.65 51.791,23.99 "
   fill="#ffffff"
   stroke-width="212.65"
   id="polygon1478" />

		<path
   d="m 201.19,31.99 73.46,73.393 v 243.26 H 59.79 V 31.983 h 141.4 m 6.623,-16 H 43.793 v 348.66 h 246.85 v -265.9 z"
   stroke-width="21.791"
   id="path1480" />

	</g>
    <g
       transform="matrix(0.3613792,0,0,0.36137946,4.2042004,-4.7759279)"
       id="g1488">
		<polygon
   points="51.791,356.65 51.791,23.99 204.5,23.99 206.31,25.8 206.31,100.33 280.9,100.33 282.65,102.07 282.65,356.65 "
   fill="#ffffff"
   stroke-width="212.65"
   id="polygon1484" />

		<path
   d="m 198.31,31.99 v 76.337 h 76.337 v 240.32 H 59.787 V 31.987 h 138.52 m 9.5,-16 H 43.787 v 348.66 h 246.85 v -265.9 l -6.43,-6.424 H 214.3 V 22.481 Z"
   stroke-width="21.791"
   id="path1486" />

	</g>
    <g
       transform="matrix(0.3613792,0,0,0.36137946,4.2042004,-4.7759279)"
       stroke-width="21.791"
       id="g1494">
		<polygon
   points="219.64,87.75 219.64,48.667 258.31,86.38 258.31,87.75 "
   id="polygon1490" />

		<path
   d="M 227.64,67.646 240.05,79.75 H 227.64 V 67.646 M 222.638,40.417 H 211.64 V 95.75 h 54.666 V 83.008 Z"
   id="path1492" />

	</g>
    <g
       transform="matrix(0.3613792,0,0,0.36137946,4.2042004,-4.7759279)"
       fill="#ed1c24"
       stroke-width="212.65"
       id="g1500">
		<polygon
   points="22.544,284.49 22.544,167.68 37.291,152.94 37.291,171.49 297.15,171.49 297.15,152.94 311.89,167.68 311.89,284.49 "
   id="polygon1496" />

		<path
   d="m 303.65,168.63 1.747,1.747 v 107.62 H 29.047 v -107.62 l 1.747,-1.747 v 9.362 h 272.85 v -9.362 m -12.999,-31.385 v 27.747 H 43.785 v -27.747 l -27.747,27.747 v 126 h 302.35 v -126 z"
   id="path1498" />

	</g>
    <rect
       x="23.030512"
       y="63.64275"
       width="84.135437"
       height="31.741388"
       fill="none"
       id="rect1502"
       style="stroke-width:7.87491" />
    <g
       transform="matrix(0.43269428,0,0,0.43269231,14.01229,96)"
       fill="#ffffff"
       stroke-width="21.791"
       id="g1510">
      <path
         d="M 9.216,0 V -83.2 H 39.68 q 6.784,0 12.928,1.408 6.144,1.28 10.752,4.608 4.608,3.2 7.296,8.576 2.816,5.248 2.816,13.056 0,7.68 -2.816,13.184 -2.688,5.504 -7.296,9.088 -4.608,3.456 -10.624,5.248 -6.016,1.664 -12.544,1.664 h -8.96 V 0 Z m 22.016,-43.776 h 7.936 q 6.528,0 9.6,-3.072 3.2,-3.072 3.2,-8.704 0,-5.632 -3.456,-7.936 -3.456,-2.304 -9.856,-2.304 h -7.424 z"
         id="path1504" />
      <path
         d="m 87.04,0 v -83.2 h 24.576 q 9.472,0 17.28,2.304 7.936,2.304 13.568,7.296 5.632,4.992 8.704,12.8 3.2,7.808 3.2,18.816 0,11.008 -3.072,18.944 -3.072,7.936 -8.704,13.056 -5.504,5.12 -13.184,7.552 Q 121.856,0 112.896,0 Z m 22.016,-17.664 h 1.28 q 4.48,0 8.448,-1.024 3.968,-1.152 6.784,-3.84 2.944,-2.688 4.608,-7.424 1.664,-4.736 1.664,-12.032 0,-7.296 -1.664,-11.904 -1.664,-4.608 -4.608,-7.168 -2.816,-2.56 -6.784,-3.456 -3.968,-1.024 -8.448,-1.024 h -1.28 z"
         id="path1506" />
      <path
         d="m 169.22,0 v -83.2 h 54.272 v 18.432 h -32.256 v 15.872 h 27.648 v 18.432 H 191.236 V 0 Z"
         id="path1508" />
    </g>
  </g>
</svg>
