<svg xmlns="http://www.w3.org/2000/svg" viewBox="0 0 128 128">
  <path fill="#fff" d="m78.106 3.894 28.242 28.216v92H22.92V3.894z"/>
  <path d="m76.91 6.785 26.547 26.522v87.91H25.811V6.781h51.1M79.302 1H20.03v125.999h89.207V30.908z"/>
  <path fill="#fff" d="M22.92 124.11V3.894h55.186l.654.654V31.48h26.956l.632.63v92z"/>
  <path d="M75.87 6.785V34.37h27.586v86.847H25.81V6.784h50.058M79.301 1H20.028v126h89.206V30.91l-2.323-2.322H81.648V3.348Z"/>
  <g stroke-width="21.791">
    <path d="M83.578 26.935V12.811L97.552 26.44v.495z"/>
    <path d="m86.469 19.67 4.484 4.374H86.47V19.67m-1.81-9.84h-3.975v19.996h19.756v-4.605Z"/>
  </g>
  <g fill="#ed1c24" stroke-width="212.65">
    <path d="M12.351 98.033V55.82l5.33-5.327v6.704h93.907v-6.704l5.327 5.327v42.213z"/>
    <path d="m113.937 56.163.631.632v38.891H14.701V56.795l.632-.632v3.384h98.602v-3.384m-4.698-11.341v10.027h-89.21V44.822L10 54.849v45.534h109.263V54.849z"/>
  </g>
  <path fill="none" d="M23.031 63.643h84.135v31.741H23.031z"/>
  <path fill="#fff" d="M18 96V60h13.182q2.935 0 5.593.61 2.659.553 4.653 1.993 1.994 1.385 3.157 3.71 1.218 2.272 1.218 5.65 0 3.323-1.218 5.705-1.163 2.381-3.157 3.932-1.994 1.495-4.597 2.27-2.603.72-5.428.72h-3.877V96Zm9.526-18.942h3.434q2.825 0 4.154-1.329 1.385-1.329 1.385-3.766 0-2.437-1.496-3.434-1.495-.997-4.264-.997h-3.213zM51.674 96V60h10.634q4.098 0 7.477.997 3.434.997 5.87 3.157 2.438 2.16 3.767 5.538 1.384 3.379 1.384 8.142t-1.329 8.197q-1.329 3.434-3.766 5.649-2.382 2.215-5.705 3.268Q66.74 96 62.862 96Zm9.526-7.643h.554q1.939 0 3.655-.443 1.717-.499 2.936-1.662 1.274-1.163 1.994-3.212.72-2.05.72-5.206 0-3.157-.72-5.15-.72-1.995-1.994-3.102-1.219-1.108-2.936-1.496-1.716-.443-3.655-.443H61.2zM87.233 96V60h23.483v7.975H96.759v6.868h11.963v7.975H96.76V96Z"/>
</svg>
