<svg xmlns="http://www.w3.org/2000/svg" viewBox="0 0 128 128">
  <g stroke="#000" stroke-linecap="round" stroke-linejoin="round" transform="translate(-10.772)">
    <circle cx="71.956" cy="18.297" r="13.431" fill="#fca" stroke-width="1.732"/>
    <path fill="#d45500" stroke-width="1.3" d="M35.793 69.946c1.826 8.598 7.182 31.163 13.074 28.236 8.452-4.198.195-18.505-1.314-28.306-1.51-9.817 7.233-28.885 7.233-28.885v39.04h35.151v-39.04l12.526 16.569c1.562 2.067-13.379 16.338-7.438 20.558 6.222 4.418 14.982-7.34 17.76-14.448 1.796-4.595 1.116-9.472-2.106-14.65-3.915-6.295-5.866-11.109-11.064-14-4.746-2.639-9.02-3.536-16.187-1.837-7.167 1.7-14.798 1.382-22.132 0-7.335-1.382-12.352-.006-16.397 3.892-8.188 7.889-9.106 32.87-9.106 32.87z"/>
    <path fill="navy" stroke-width="1.3" d="M89.937 80.032H54.785v34.615c1.46 12.852 12.85 10.246 12.998 0 1.3-25.265-.407 18.617 1.3-25.265.611-1.106 1.331-2.202 3.086-2.202s3.397.834 3.472 2.202c2.261 41.69 0 0 1.3 25.265 1.562 12.794 12.713 10.352 12.996 0z"/>
  </g>
</svg>
