<svg xmlns="http://www.w3.org/2000/svg" data-name="Layer 1" viewBox="0 0 128 128">
  <g stroke-linecap="round">
    <path fill="#d45500" stroke="#d45500" stroke-linejoin="round" stroke-width="2.243" d="M97.23 4.185c.28-.558 5.894 2.78 8.345 4.87 7.249 6.182 13.412 13.822 18.119 22.105 1.543 2.715 3.184 8.81 3.184 8.81L71.61 56.91z"/>
    <g stroke-width=".441">
      <path fill="teal" stroke="teal" d="M62.246 105.731c-.33.109-4.218-7.587-4.671-11.733-1.234-11.305.213-17.156 3.653-24.293 1.712-3.55 5.036-7.595 5.036-7.595l28.183 24.727z" transform="matrix(.42311 1.57286 -1.57907 .42145 159.11 -120.358)"/>
      <path fill="navy" stroke="navy" d="M130.564 98.553c.057.172-4.606 10.352-10.857 15.85-5.85 5.146-13.385 9.293-21.148 9.95-9.074.77-16.286-.57-26.325-7.303-7.118-4.774-9.988-11.319-9.988-11.319l32.2-18.894Z" transform="matrix(.42311 1.57286 -1.57907 .42145 159.11 -120.358)"/>
      <path fill="#fc0" stroke="#fc0" d="M94.447 49.428c.145-.108 10.573.188 18.298 4.715 6.72 3.939 12.941 10.574 16.02 17.73 3.952 10.413 3.386 15.64 1.799 26.68L94.447 86.837Z" transform="matrix(.42311 1.57286 -1.57907 .42145 159.11 -120.358)"/>
    </g>
  </g>
</svg>
