<svg xmlns="http://www.w3.org/2000/svg" viewBox="0 0 128 128">
  <g stroke="#000" transform="translate(3.821 -6.353) scale(1.03531)">
    <circle cx="68" cy="21" r="10.334" fill="#fca" stroke-linecap="round" stroke-linejoin="round" stroke-width="1.332"/>
    <circle cx="93.007" cy="69.067" r="10.334" fill="#d45500" stroke-linecap="round" stroke-linejoin="round" stroke-width="1.332"/>
    <path fill="#d45500" stroke-linecap="round" stroke-linejoin="round" d="M61.35 35.32s.955 2.018 1.154 3.104c.615 3.36.064 10.25.064 10.25s-.26-5.418-3.436-6.317-5.82 2.299-6.788 4.92c-1.587 4.303 3.12 12.246 5.1 17.925 2.114 6.063.767 3.865.767 3.865l-20.715 5.55s-5.184-27.421 2.237-41.284c1.89-3.53 5.803-6.574 9.788-6.96 6.244-.605 11.83 8.947 11.83 8.947z"/>
    <path fill="none" d="m38.296 80.484 20.715-5.55"/>
    <path fill="navy" stroke-linecap="round" stroke-linejoin="round" d="m37.496 74.617.104 19.25 12 3.2s-.787-9.44 2.667-10.667c3.35-1.19 4.978 6.339 8.533 6.4 4.66.08 11.467-8 11.467-8L58.21 69.067"/>
    <path fill="#fca" stroke-linecap="round" stroke-linejoin="round" d="M79.333 95.333c1.65 4.27.267 5.067-8.113 17.274-1.3 1.893-12.893 13.741-14.953 12.726-2.105-1.037-4.488-4.641-2.934-6.4l17.2-19.466-9.533-7 11.133-6.534Zm-31.4 16.4c-1.818 3.912-4.178 4.874-15.253-.3-2.081-.972-20.905-16.428-19.89-18.488 1.037-2.105 6.618-3.05 8.474-1.614l17.067 13.2-.731-10.664 12 3.2zM24.35 39.88c1.652 6.821 8.443 18.81 11.642 17.544-.036-4.427.282-5.94-.084-6.871l-5.32-10.711 7.242-2.308c1.466-3.846 4.015-7.91 9.3-10.604 0 0-2.602-.694-6.54 1.24-4.82 2.368-12.466 3.211-15.836 8.087-.691 1-.69 2.442-.403 3.623zm39.927 30.102c7.223-1.706 22.463-9.73 22.19-12.89-.274-3.16-2.517-2.28-6.228-.818-3.712 1.462-13.997 6.605-13.997 6.605l-3.674-13.561c-.739-7.944-7.979-10.672-10.331-1.432 0 0-.693 2.602 1.241 6.54 3.078 6.268 9.488 15.05 10.799 15.556z"/>
  </g>
</svg>
