<?xml version="1.0" encoding="UTF-8" standalone="no"?>
<!-- Created with Inkscape (http://www.inkscape.org/) -->

<svg
   xmlns:dc="http://purl.org/dc/elements/1.1/"
   xmlns:cc="http://creativecommons.org/ns#"
   xmlns:rdf="http://www.w3.org/1999/02/22-rdf-syntax-ns#"
   xmlns:svg="http://www.w3.org/2000/svg"
   xmlns="http://www.w3.org/2000/svg"
   xmlns:sodipodi="http://sodipodi.sourceforge.net/DTD/sodipodi-0.dtd"
   xmlns:inkscape="http://www.inkscape.org/namespaces/inkscape"
   version="1.1"
   id="svg2"
   width="128"
   height="128"
   viewBox="0 0 128 128"
   sodipodi:docname="player.svg"
   inkscape:version="0.92.4 (5da689c313, 2019-01-14)">
  <metadata
     id="metadata8">
    <rdf:RDF>
      <cc:Work
         rdf:about="">
        <dc:format>image/svg+xml</dc:format>
        <dc:type
           rdf:resource="http://purl.org/dc/dcmitype/StillImage" />
        <dc:title></dc:title>
      </cc:Work>
    </rdf:RDF>
  </metadata>
  <defs
     id="defs6" />
  <sodipodi:namedview
     pagecolor="#ffffff"
     bordercolor="#666666"
     borderopacity="1"
     objecttolerance="10"
     gridtolerance="10"
     guidetolerance="10"
     inkscape:pageopacity="0"
     inkscape:pageshadow="2"
     inkscape:window-width="960"
     inkscape:window-height="1017"
     id="namedview4"
     showgrid="false"
     inkscape:zoom="15"
     inkscape:cx="65.352764"
     inkscape:cy="102.17836"
     inkscape:window-x="-8"
     inkscape:window-y="-8"
     inkscape:window-maximized="0"
     inkscape:current-layer="g937" />
  <g
     id="g937"
     transform="matrix(1.0353123,0,0,1.0353123,3.8209995,-6.3531222)">
    <circle
       r="10.333761"
       cy="21"
       cx="68"
       id="path817"
       style="fill:#ffccaa;fill-opacity:1;stroke:#000000;stroke-width:1.33247828;stroke-linecap:round;stroke-linejoin:round;stroke-miterlimit:4;stroke-dasharray:none;stroke-opacity:1" />
    <circle
       r="10.333761"
       cy="69.066666"
       cx="93.006615"
       id="path817-4"
       style="fill:#d45500;fill-opacity:1;stroke:#000000;stroke-width:1.33247828;stroke-linecap:round;stroke-linejoin:round;stroke-miterlimit:4;stroke-dasharray:none;stroke-opacity:1" />
    <path
       sodipodi:nodetypes="caczssccssc"
       inkscape:connector-curvature="0"
       id="path882"
       d="m 61.350799,35.31969 c 0,0 0.954653,2.018137 1.153349,3.103837 0.6151,3.36099 0.06397,10.250236 0.06397,10.250236 0,0 -0.26008,-5.418187 -3.436195,-6.316967 -3.176115,-0.89878 -5.8202,2.299107 -6.787565,4.920898 -1.587518,4.302551 3.119835,12.245364 5.099828,17.924007 2.114022,6.063045 0.766838,3.864965 0.766838,3.864965 l -20.71488,5.550535 c 0,0 -5.184421,-27.421383 2.237186,-41.283867 1.88962,-3.529536 5.802979,-6.57477 9.787862,-6.96077 6.244145,-0.604846 11.829604,8.947126 11.829604,8.947126 z"
       style="fill:#d45500;fill-opacity:1;stroke:#000000;stroke-width:1px;stroke-linecap:round;stroke-linejoin:round;stroke-opacity:1" />
    <path
       inkscape:connector-curvature="0"
       id="path884"
       d="m 38.296147,80.483868 20.71488,-5.550535"
       style="fill:none;stroke:#000000;stroke-width:1px;stroke-linecap:butt;stroke-linejoin:miter;stroke-opacity:1" />
    <path
       sodipodi:nodetypes="cccaacc"
       inkscape:connector-curvature="0"
       id="path886"
       d="M 37.496147,74.617201 37.6,93.866667 l 12,3.2 c 0,0 -0.787095,-9.440441 2.666667,-10.666667 3.350641,-1.189614 4.978302,6.338958 8.533333,6.4 4.659838,0.08001 11.466667,-8 11.466667,-8 L 58.211027,69.066666"
       style="fill:#000080;fill-opacity:1;stroke:#000000;stroke-width:1px;stroke-linecap:round;stroke-linejoin:round;stroke-opacity:1" />
    <path
       sodipodi:nodetypes="cssscccc"
       inkscape:connector-curvature="0"
       id="path890"
       d="m 79.333333,95.333333 c 1.64879,4.269697 0.266666,5.066667 -8.112907,17.273677 -1.29978,1.89346 -12.893617,13.74143 -14.953759,12.72632 -2.105063,-1.03724 -4.48718,-4.64138 -2.933334,-6.4 l 17.2,-19.466667 L 61,92.466667 72.133333,85.933333 Z"
       style="fill:#ffccaa;fill-opacity:1;stroke:#000000;stroke-width:1px;stroke-linecap:round;stroke-linejoin:round;stroke-opacity:1" />
    <path
       sodipodi:nodetypes="cssscccc"
       inkscape:connector-curvature="0"
       id="path890-9"
       d="m 47.93334,111.73333 c -1.818399,3.91154 -4.178137,4.87385 -15.253776,-0.30018 -2.0808,-0.97205 -20.904483,-16.428236 -19.889373,-18.488375 1.03724,-2.10507 6.617883,-3.049137 8.47418,-1.613407 L 38.331041,104.53137 37.6,93.866667 l 12,3.2 z"
       style="fill:#ffccaa;fill-opacity:1;stroke:#000000;stroke-width:1px;stroke-linecap:round;stroke-linejoin:round;stroke-opacity:1" />
    <path
       sodipodi:nodetypes="acscccsaa"
       inkscape:connector-curvature="0"
       id="path890-2"
       d="m 24.35061,39.880087 c 1.651274,6.821368 8.44191,18.809803 11.641498,17.544101 -0.03587,-4.427055 0.281852,-5.939371 -0.08365,-6.871406 l -5.320025,-10.71126 7.241654,-2.30743 c 1.465846,-3.846098 4.015207,-7.909423 9.299893,-10.604521 0,0 -2.602471,-0.693252 -6.540847,1.241242 -4.819756,2.367419 -12.465541,3.210433 -15.835283,8.086038 -0.690918,0.999674 -0.68915,2.442147 -0.40324,3.623236 z"
       style="fill:#ffccaa;fill-opacity:1;stroke:#000000;stroke-width:1px;stroke-linecap:round;stroke-linejoin:round;stroke-opacity:1" />
    <path
       sodipodi:nodetypes="czzcccscc"
       inkscape:connector-curvature="0"
       id="path890-2-1"
       d="m 64.276718,69.982395 c 7.223563,-1.70615 22.46325,-9.730902 22.189536,-12.890293 -0.273714,-3.159392 -2.515867,-2.279783 -6.227478,-0.81785 -3.711611,1.461933 -13.997189,6.605201 -13.997189,6.605201 L 62.568121,49.317691 c -0.739025,-7.943338 -7.978814,-10.671866 -10.331266,-1.431677 0,0 -0.693252,2.602471 1.241242,6.540847 3.078164,6.266739 9.487656,15.049293 10.798621,15.555536 z"
       style="fill:#ffccaa;fill-opacity:1;stroke:#000000;stroke-width:1px;stroke-linecap:round;stroke-linejoin:round;stroke-opacity:1" />
  </g>
</svg>
