<?xml version="1.0" encoding="UTF-8" standalone="no"?>
<svg
   viewBox="0 0 128 128"
   version="1.1"
   id="svg36"
   sodipodi:docname="playbook.svg"
   inkscape:version="1.2.2 (b0a8486541, 2022-12-01)"
   xml:space="preserve"
   xmlns:inkscape="http://www.inkscape.org/namespaces/inkscape"
   xmlns:sodipodi="http://sodipodi.sourceforge.net/DTD/sodipodi-0.dtd"
   xmlns="http://www.w3.org/2000/svg"
   xmlns:svg="http://www.w3.org/2000/svg"><defs
     id="defs40" /><sodipodi:namedview
     id="namedview38"
     pagecolor="#ffffff"
     bordercolor="#000000"
     borderopacity="0.25"
     inkscape:showpageshadow="2"
     inkscape:pageopacity="0.0"
     inkscape:pagecheckerboard="0"
     inkscape:deskcolor="#d1d1d1"
     showgrid="false"
     inkscape:zoom="1"
     inkscape:cx="32"
     inkscape:cy="112"
     inkscape:window-width="1920"
     inkscape:window-height="1011"
     inkscape:window-x="0"
     inkscape:window-y="0"
     inkscape:window-maximized="1"
     inkscape:current-layer="svg36" /><path
     d="m 13.04348,17.500299 v 92.999411 c 0,8.93534 7.20842,16.09725 16.04144,16.45069 V 127 h 85.8685 v -4.64438 A 11.958219,11.958219 0 0 1 102.989,110.3912 11.958219,11.958219 0 0 1 114.95652,98.426776 V 1.000004 H 29.94063 c -9.13376,0 -16.89715,7.363435 -16.89715,16.500295 z m 85.30113,92.841291 c 0,4.694 2.01836,8.93534 5.14666,11.96442 H 29.7453 c -6.61314,0.0496 -12.01402,-5.35128 -12.01402,-11.96752 0,-6.25659 4.89552,-11.406354 11.056,-11.859004 l 74.86211,-0.15502 c -3.23061,3.032184 -5.30168,7.270424 -5.30168,12.017124 z"
     style="stroke-width:0.500004"
     id="path2" /><g
     id="g28"
     transform="matrix(4.5298589,0,0,4.5298589,-26.737613,-34.586821)" /><g
     id="g1991"
     transform="matrix(0.75000075,0,0,0.75000075,31,21)"><path
       d="m 224.139,210 40.776,40.776 c 36.787,-33.665 83.793,-54.3 134.218,-58.917 -3.965,-41.654 -21.431,-79.428 -47.967,-108.886 z m -28.285,0 -40.768,-40.768 c -36.785,33.663 -83.79,54.296 -134.215,58.912 3.964,41.652 21.426,79.424 47.958,108.881 z m 69.074,69.074 c -30.139,33.221 -48.696,75.509 -53.062,120.904 48.061,-0.466 91.908,-18.858 125.16,-48.806 z m -95.7,-123.985 40.768,40.768 127.027,-127.026 c -29.458,-26.53 -67.229,-43.992 -108.88,-47.957 -4.617,50.424 -25.25,97.43 -58.915,134.215 z M 250.772,264.918 209.996,224.142 82.971,351.168 c 29.459,26.535 67.233,43.999 108.887,47.962 4.618,-50.423 25.25,-97.427 58.914,-134.212 z M 155.073,140.934 C 185.212,107.711 203.77,65.422 208.136,20.027 160.074,20.491 116.226,38.884 82.974,68.835 Z M 68.831,82.977 C 38.882,116.229 20.49,160.076 20.023,208.136 65.419,203.772 107.708,185.215 140.93,155.076 Z M 351.169,337.03 c 29.953,-33.252 48.347,-77.101 48.812,-125.164 -45.396,4.365 -87.687,22.924 -120.91,53.065 z"
       style="fill:#ffac52"
       transform="scale(0.30476)"
       id="path1980" /><path
       d="M 33.6,0 C 15.072,0 0,15.073 0,33.6 0,52.128 15.073,67.2 33.6,67.2 52.127,67.2 67.2,52.128 67.2,33.6 67.2,15.074 52.128,0 33.6,0 Z M 3.203,33.302 c 0.074,-7.69 3.017,-14.705 7.81,-20.026 l 11.535,11.536 c -5.316,4.822 -12.082,7.791 -19.345,8.49 z M 33.302,3.204 c -0.699,7.263 -3.668,14.03 -8.49,19.345 L 13.276,11.013 c 5.32,-4.792 12.336,-7.735 20.026,-7.81 z m 30.695,30.694 c -0.075,7.69 -3.017,14.706 -7.81,20.027 L 44.65,42.389 c 5.316,-4.823 12.082,-7.792 19.346,-8.49 z M 42.387,40.124 35.861,33.6 56.185,13.275 a 30.289,30.289 0 0 1 7.675,17.422 c -8.068,0.74 -15.589,4.04 -21.475,9.427 z M 24.813,27.077 31.336,33.6 11.012,53.924 A 30.29,30.29 0 0 1 3.338,36.503 c 8.068,-0.739 15.59,-4.04 21.475,-9.426 z m 8.785,4.26 -6.523,-6.523 C 32.462,18.928 35.763,11.407 36.502,3.34 a 30.29,30.29 0 0 1 17.42,7.673 z m 0,4.526 6.524,6.524 c -5.386,5.886 -8.687,13.406 -9.426,21.474 A 30.288,30.288 0 0 1 13.274,56.187 Z m 8.79,8.789 11.535,11.536 c -5.32,4.791 -12.336,7.734 -20.026,7.809 0.699,-7.264 3.668,-14.03 8.49,-19.345 z"
       style="stroke-width:0.999999"
       transform="scale(1.90476)"
       id="path1982" /></g></svg>
