<svg xmlns="http://www.w3.org/2000/svg" viewBox="0 0 30 30">
  <path fill="#d40000" stroke="#000" stroke-linecap="round" stroke-linejoin="round" d="M28.04 1.957C27.033.952 25.364.23 23.993.607 19.575 1.82 15 11.005 15 11.005S10.432 1.825 6.016.612C4.646.236 2.977.955 1.972 1.96.966 2.965.246 4.635.622 6.006c1.21 4.416 10.384 8.993 10.384 8.993S1.832 19.567.619 23.981c-.377 1.37.14 2.783 1.348 4.047 1.206 1.263 2.675 1.723 4.047 1.347C10.427 28.164 15 18.995 15 18.995s4.58 9.175 8.998 10.386c1.371.375 3.042-.345 4.047-1.35 1.005-1.005 1.724-2.674 1.347-4.044C28.178 19.569 18.995 15 18.995 15s9.182-4.58 10.394-9c.376-1.37-.345-3.04-1.35-4.044Z"/>
</svg>
