<svg width="128" height="128" xmlns="http://www.w3.org/2000/svg"><path fill="#d40000" stroke="#000" stroke-linecap="round" stroke-linejoin="round" d="M120.76 9.23c-4.307-4.296-11.443-7.384-17.305-5.772-18.891 5.187-38.453 44.46-38.453 44.46S45.469 8.667 26.587 3.48C20.73 1.872 13.593 4.946 9.296 9.244c-4.302 4.297-7.38 11.438-5.773 17.3 5.174 18.882 44.4 38.452 44.4 38.452S8.698 84.528 3.51 103.402c-1.612 5.858.599 11.9 5.764 17.304 5.157 5.4 11.438 7.368 17.305 5.76 18.87-5.178 38.423-44.383 38.423-44.383s19.583 39.23 38.474 44.409c5.862 1.603 13.007-1.476 17.305-5.773 4.297-4.297 7.371-11.433 5.76-17.291C121.348 84.537 82.083 65 82.083 65s39.261-19.584 44.443-38.483c1.608-5.858-1.475-12.998-5.772-17.291z" style="stroke-width:4.00004;stroke-dasharray:none"/></svg>