<?xml version="1.0" encoding="UTF-8" standalone="no"?>
<!-- Created with Inkscape (http://www.inkscape.org/) -->

<svg
   xmlns:dc="http://purl.org/dc/elements/1.1/"
   xmlns:cc="http://creativecommons.org/ns#"
   xmlns:rdf="http://www.w3.org/1999/02/22-rdf-syntax-ns#"
   xmlns:svg="http://www.w3.org/2000/svg"
   xmlns="http://www.w3.org/2000/svg"
   xmlns:sodipodi="http://sodipodi.sourceforge.net/DTD/sodipodi-0.dtd"
   xmlns:inkscape="http://www.inkscape.org/namespaces/inkscape"
   version="1.1"
   id="svg2"
   width="30"
   height="30"
   viewBox="0 0 30 30"
   sodipodi:docname="remove.svg"
   inkscape:version="0.92.4 (5da689c313, 2019-01-14)">
  <metadata
     id="metadata8">
    <rdf:RDF>
      <cc:Work
         rdf:about="">
        <dc:format>image/svg+xml</dc:format>
        <dc:type
           rdf:resource="http://purl.org/dc/dcmitype/StillImage" />
        <dc:title></dc:title>
      </cc:Work>
    </rdf:RDF>
  </metadata>
  <defs
     id="defs6" />
  <sodipodi:namedview
     pagecolor="#ffffff"
     bordercolor="#666666"
     borderopacity="1"
     objecttolerance="10"
     gridtolerance="10"
     guidetolerance="10"
     inkscape:pageopacity="0"
     inkscape:pageshadow="2"
     inkscape:window-width="1920"
     inkscape:window-height="1017"
     id="namedview4"
     showgrid="false"
     inkscape:zoom="20.866667"
     inkscape:cx="12.728893"
     inkscape:cy="20.168931"
     inkscape:window-x="-8"
     inkscape:window-y="-8"
     inkscape:window-maximized="1"
     inkscape:current-layer="svg2" />
  <path
     style="fill:#d40000;fill-opacity:1;stroke:#000000;stroke-width:0.99996161;stroke-linecap:round;stroke-linejoin:round;stroke-miterlimit:4;stroke-dasharray:none;stroke-opacity:1"
     d="M 28.039195,1.956936 C 27.034137,0.95195328 25.365076,0.2312028 23.994393,0.60729666 19.57503,1.8199006 15.000145,11.005013 15.000145,11.005013 c 0,0 -4.568519,-9.179698 -8.984181,-10.39295418 C 4.6457457,0.23557485 2.976967,0.95491312 1.9716365,1.9598554 0.96630616,2.9647975 0.24582349,4.6347508 0.62163768,6.0059835 1.8319846,10.422173 11.005681,14.999442 11.005681,14.999442 c 0,0 -9.1739049,4.568011 -10.3867069,8.981525 -0.37670957,1.370885 0.14085422,2.782975 1.3476408,4.046605 1.20679,1.263626 2.6758376,1.72391 4.046903,1.347537 4.4136031,-1.211583 8.9868431,-10.38102 8.9868431,-10.38102 0,0 4.579958,9.17563 8.997629,10.386506 1.371392,0.375896 3.041836,-0.344222 4.046853,-1.349478 1.005016,-1.005255 1.724057,-2.674249 1.347478,-4.044443 -1.214025,-4.417266 -10.397499,-8.987123 -10.397499,-8.987123 0,0 9.182475,-4.578592 10.394115,-8.9981123 C 29.764718,4.6307579 29.044252,2.9619185 28.039195,1.956936 Z"
     id="path12"
     inkscape:connector-curvature="0"
     sodipodi:nodetypes="zacazacazacazacaz" />
</svg>
