<svg xmlns="http://www.w3.org/2000/svg" viewBox="0 0 128 128">
  <g transform="translate(3.888 -11.828) scale(1.03531)">
    <path fill="navy" d="M114.478 102.484c-29.385 3.028-88.99-5.518-110.555-17.458-5.003-1.75-9.49 6.708-3 11.196 6.49 4.488 78.767 18.81 110.555 17.458 7.971-.718 9.531-9.446 3-11.196z"/>
    <path fill="#fca" stroke="#000" stroke-linecap="round" stroke-linejoin="round" d="M33.198 52.946c-7.42-.156-24.184 3.798-24.71 6.926-.525 3.127 1.866 2.837 5.825 2.35 3.96-.486 15.205-2.891 15.205-2.891l.162 14.05c-1.273 7.875 5.054 12.329 9.644 3.971 0 0 1.323-2.346.436-6.643-1.412-6.838-5.42-16.945-6.562-17.763z"/>
    <path fill="none" stroke="#000" stroke-width=".966" d="m8.22 64.105 1.783-11.453"/>
    <circle cx="-60.364" cy="22.496" r="10.334" fill="#fca" stroke="#000" stroke-linecap="round" stroke-linejoin="round" stroke-width="1.332" transform="rotate(-81.148)"/>
    <path fill="#d45500" stroke="#000" stroke-linecap="round" stroke-linejoin="round" d="M29.151 67.971s2.352-.686 3.558-.654c2.825.075 8.245 1.972 8.245 1.972s-4.077 1.132-5.454 4.132c-1.376 3 1.64 3.93 4.081 5.29 4.007 2.23 12.58-1.199 18.495-2.281 6.316-1.156 3.937-.163 3.937-.163l2.297 21.322s-27.892.903-40.448-8.563c-3.196-2.41-5.603-6.746-5.371-10.743.363-6.262 10.66-10.312 10.66-10.312z"/>
    <path fill="#fca" stroke="#000" stroke-linecap="round" stroke-linejoin="round" d="M97.288 75.454c4.529.66 4.545 2.255 11.065 15.548 1.012 2.062 5.641 17.98 3.746 19.276-1.937 1.325-6.247 1.63-7.016-.587L96.568 85.15 85.79 90.018l-.226-12.907Z"/>
    <path fill="#fca" stroke="#000" stroke-linecap="round" stroke-linejoin="round" d="M102.59 92.987c3.585 2.399 4.173 4.879-2.643 15.026-1.281 1.907-19.45 18.128-21.33 16.808-1.92-1.35-1.994-7.009-.29-8.622l15.67-14.832-10.65-.919 5.008-11.364z"/>
    <path fill="navy" stroke="#000" stroke-linecap="round" stroke-linejoin="round" d="m64.31 97.589 19.036 2.86 5.009-11.365-9.512-1.191c8.048-.248 6.304 1.792 8.048-.248 2.3-2.69-1.327-10.534-1.327-10.534l-23.55-.844"/>
    <path fill="#fca" stroke="#000" stroke-linecap="round" stroke-linejoin="round" d="M47.272 96.982c7.217-1.731 22.43-9.808 22.145-12.967-.285-3.158-2.524-2.27-6.23-.796-3.707 1.475-13.975 6.653-13.975 6.653l-3.72-13.549c-.767-7.94-8.016-10.644-10.336-1.396 0 0-.685 2.605 1.263 6.537 3.1 6.256 9.54 15.016 10.853 15.518z"/>
  </g>
</svg>
