<?xml version="1.0" encoding="UTF-8" standalone="no"?>
<!-- Created with Inkscape (http://www.inkscape.org/) -->

<svg
   xmlns:dc="http://purl.org/dc/elements/1.1/"
   xmlns:cc="http://creativecommons.org/ns#"
   xmlns:rdf="http://www.w3.org/1999/02/22-rdf-syntax-ns#"
   xmlns:svg="http://www.w3.org/2000/svg"
   xmlns="http://www.w3.org/2000/svg"
   xmlns:sodipodi="http://sodipodi.sourceforge.net/DTD/sodipodi-0.dtd"
   xmlns:inkscape="http://www.inkscape.org/namespaces/inkscape"
   version="1.1"
   id="svg2"
   width="128"
   height="128"
   viewBox="0 0 128 128"
   sodipodi:docname="rest.svg"
   inkscape:version="0.92.4 (5da689c313, 2019-01-14)">
  <metadata
     id="metadata8">
    <rdf:RDF>
      <cc:Work
         rdf:about="">
        <dc:format>image/svg+xml</dc:format>
        <dc:type
           rdf:resource="http://purl.org/dc/dcmitype/StillImage" />
        <dc:title />
      </cc:Work>
    </rdf:RDF>
  </metadata>
  <defs
     id="defs6" />
  <sodipodi:namedview
     pagecolor="#ffffff"
     bordercolor="#666666"
     borderopacity="1"
     objecttolerance="10"
     gridtolerance="10"
     guidetolerance="10"
     inkscape:pageopacity="0"
     inkscape:pageshadow="2"
     inkscape:window-width="1920"
     inkscape:window-height="1017"
     id="namedview4"
     showgrid="false"
     inkscape:zoom="0.58695388"
     inkscape:cx="-298.7062"
     inkscape:cy="408.28112"
     inkscape:window-x="-8"
     inkscape:window-y="-8"
     inkscape:window-maximized="1"
     inkscape:current-layer="g937" />
  <g
     id="g937"
     transform="matrix(1.0353123,0,0,1.0353123,3.8209995,-6.3531222)">
    <g
       id="g1469"
       transform="translate(0.06454459,-5.2884309)">
      <path
         sodipodi:nodetypes="cczcc"
         inkscape:connector-curvature="0"
         id="path833"
         d="M 114.47828,102.48432 C 85.092813,105.51212 25.488795,96.966315 3.923248,85.02608 -1.0803671,83.276141 -5.5661849,91.733554 0.92335304,96.221841 7.412891,100.71013 79.690173,115.03251 111.47847,113.67976 c 7.97069,-0.71814 9.53068,-9.4455 2.99981,-11.19544 z"
         style="fill:#000080;fill-opacity:1;stroke:none;stroke-width:2.31652069;stroke-linecap:round;stroke-linejoin:round;stroke-miterlimit:4;stroke-dasharray:none;stroke-opacity:1" />
      <path
         style="fill:#ffccaa;fill-opacity:1;stroke:#000000;stroke-width:1px;stroke-linecap:round;stroke-linejoin:round;stroke-opacity:1"
         d="M 54.475639,69.883076 C 53.901331,62.48301 48.317154,46.190017 45.153274,45.974321 c -3.163891,-0.215697 -2.639767,2.135102 -1.766361,6.027465 0.873396,3.892361 4.372723,14.84686 4.372723,14.84686 l -13.965508,1.542903 c -7.962445,-0.492053 -11.772499,6.241662 -3.004339,9.987928 0,0 2.464802,1.085449 6.653937,-0.219991 6.665757,-2.077212 16.329978,-7.058955 17.031913,-8.27641 z"
         id="path890-2-1-6"
         inkscape:connector-curvature="0"
         sodipodi:nodetypes="czzcccscc" />
      <path
         sodipodi:nodetypes="cc"
         inkscape:connector-curvature="0"
         id="path823"
         d="M 8.2195696,64.104765 10.003085,52.6521"
         style="fill:none;stroke:#000000;stroke-width:0.96589214px;stroke-linecap:butt;stroke-linejoin:miter;stroke-opacity:1" />
      <circle
         transform="rotate(-81.148466)"
         style="fill:#ffccaa;fill-opacity:1;stroke:#000000;stroke-width:1.33247828;stroke-linecap:round;stroke-linejoin:round;stroke-miterlimit:4;stroke-dasharray:none;stroke-opacity:1"
         id="path817"
         cx="-60.363556"
         cy="22.496191"
         r="10.333761" />
      <path
         style="fill:#d45500;fill-opacity:1;stroke:#000000;stroke-width:1px;stroke-linecap:round;stroke-linejoin:round;stroke-opacity:1"
         d="m 29.151354,67.97139 c 0,0 2.141001,-0.632743 3.244345,-0.662011 3.41561,-0.0906 10.138007,1.514044 10.138007,1.514044 0,0 -5.393681,-0.576739 -6.77048,2.42325 -1.3768,2.999989 1.376147,6.104658 3.81786,7.463929 4.007029,2.230665 12.579585,-1.198429 18.495266,-2.281042 6.316135,-1.155895 3.936936,-0.162984 3.936936,-0.162984 l 2.296931,21.322259 c 0,0 -27.892552,0.903222 -40.447939,-8.563081 -3.19674,-2.410222 -5.603535,-6.745558 -5.371766,-10.742378 0.363169,-6.26285 10.660839,-10.311983 10.660839,-10.311983 z"
         id="path882"
         inkscape:connector-curvature="0"
         sodipodi:nodetypes="caczssccssc" />
      <path
         style="fill:#ffccaa;fill-opacity:1;stroke:#000000;stroke-width:1px;stroke-linecap:round;stroke-linejoin:round;stroke-opacity:1"
         d="m 97.287764,75.453899 c 4.529176,0.659815 4.544926,2.255176 11.065516,15.548412 1.01143,2.061949 5.64119,17.979139 3.74541,19.275539 -1.93712,1.32466 -6.24651,1.63046 -7.01572,-0.58663 L 96.568272,85.149607 85.789552,90.018243 85.563756,77.111481 Z"
         id="path890"
         inkscape:connector-curvature="0"
         sodipodi:nodetypes="cssscccc" />
      <path
         style="fill:#ffccaa;fill-opacity:1;stroke:#000000;stroke-width:1px;stroke-linecap:round;stroke-linejoin:round;stroke-opacity:1"
         d="m 102.59033,92.987172 c 3.58515,2.39863 4.1729,4.878341 -2.643774,15.025918 -1.280656,1.90645 -19.449246,18.12763 -21.328651,16.80761 -1.920394,-1.34881 -1.994501,-7.00825 -0.290233,-8.62152 l 15.66892,-14.83227 -10.650176,-0.91869 5.008385,-11.364685 z"
         id="path890-9"
         inkscape:connector-curvature="0"
         sodipodi:nodetypes="cssscccc" />
      <path
         style="fill:#000080;fill-opacity:1;stroke:#000000;stroke-width:1px;stroke-linecap:round;stroke-linejoin:round;stroke-opacity:1"
         d="m 64.31022,97.588832 19.036196,2.859388 5.008385,-11.364685 c 0,0 0,0 -9.512203,-1.190736 8.04824,-0.247401 6.304067,1.792645 8.04824,-0.247401 2.299824,-2.68994 -1.327082,-10.533917 -1.327082,-10.533917 L 62.013289,76.266573"
         id="path886"
         inkscape:connector-curvature="0"
         sodipodi:nodetypes="ccccacc" />
      <ellipse
         ry="9.6589136"
         rx="9.6591406"
         style="fill:#d45500;fill-opacity:1;stroke:#000000;stroke-width:1.33249295;stroke-linecap:round;stroke-linejoin:round;stroke-miterlimit:4;stroke-dasharray:none;stroke-opacity:1"
         id="path817-4"
         cx="48.042755"
         cy="48.165958" />
      <path
         style="fill:#ffccaa;fill-opacity:1;stroke:#000000;stroke-width:1px;stroke-linecap:round;stroke-linejoin:round;stroke-opacity:1"
         d="m 63.851469,70.414029 c -0.574308,-7.400066 -6.158485,-23.69306 -9.322365,-23.908756 -3.163891,-0.215697 -2.639767,2.135103 -1.766361,6.027465 0.873396,3.892361 4.372722,14.846861 4.372722,14.846861 l -13.965507,1.542904 c -7.962445,-0.492053 -11.7725,6.241662 -3.004339,9.987927 0,0 2.464801,1.085449 6.653936,-0.21999 6.665757,-2.077212 16.329979,-7.058956 17.031914,-8.276411 z"
         id="path890-2-1"
         inkscape:connector-curvature="0"
         sodipodi:nodetypes="czzcccscc" />
    </g>
  </g>
</svg>
