<svg xmlns="http://www.w3.org/2000/svg" xmlns:xlink="http://www.w3.org/1999/xlink" viewBox="0 0 128 126">
  <defs>
    <path id="a" fill="#ffb380" stroke="#1a1a1a" stroke-linecap="round" d="M42.768 4.625 28.03 23.023s-1.344 1.653-1.274 3.348c.067 1.605 1.274 1.933 1.274 1.933l15.47 6.461s1.318-2.223 2.44-2.658c5.056-1.96 16.36-4.19 16.36-4.19l-14.579-.49-8.918-3.785 9.612-12.053 1.165-3.092s.526-2.827-1.851-4.14c-3-1.655-4.96.268-4.96.268z"/>
    <path id="b" fill="#ac9393" stroke="#000" d="m48.912 36.758 11.44-3.203 3.072 10.176s-3.862-.778-6.544.251c-2.682 1.03-5.054 4.925-5.054 4.925z"/>
  </defs>
  <g stroke-linejoin="round" transform="translate(.827 20.944) scale(.34646)">
    <circle cx="58" cy="13" r="9.452" fill="#ffb380" stroke="#1a1a1a" stroke-linecap="round"/>
    <use xlink:href="#a" stroke-linecap="round"/>
    <path fill="green" stroke="#000" d="M62.3 27.917s1.781.947 2.674 1.963c1.107 1.267 3.837 14.588 3.837 14.588l1.751.028-.134-6.86s.077-.854 1.865-.854S74 37.61 74 37.61v12.246l-14.705-.566c-4.718 1.001-4.673 7.205-.387 8.354l20.076 1.995c2.168-.096 3.08-1.31 3.563-2.902l-.208-19.344c-.36-5.166-2.45-9.094-9.141-9.736z"/>
    <use xlink:href="#b"/>
    <path fill="#112b00" stroke="#000" stroke-linecap="round" d="M45.512 41.326s.375 13.84 4.388 17.744c5.079 4.94 20.663 4.983 20.663 4.983l.024 17.363s-3.03-1.544-4.9-1.634c-1.637-.08-5.233.644-5.233.644l-.04-6.91h-4.356v8.957s-5.02 6.154-5.494 9.898c-.326 2.575 1.963 7.535 1.963 7.535l-4.107.23-2.848 1.701z"/>
    <circle cx="21.617" cy="93.336" r="8.507" fill="#ac9393" stroke="#1a1a1a" stroke-linecap="round"/>
    <circle cx="64.283" cy="93.336" r="8.507" fill="#520" stroke="#1a1a1a" stroke-linecap="round"/>
    <circle cx="107.002" cy="93.336" r="8.507" fill="#d38d5f" stroke="#1a1a1a" stroke-linecap="round"/>
    <path fill="green" stroke="#000" stroke-linecap="round" d="M1 123.779v-9.525C1 110.732 4.616 106 7.5 106H35c4.84 0 6.756 5.726 7.5 11 1.369-5.55 2.79-10.685 7.5-11h28c4.905 0 6.298 6.132 7.5 11 1.336-4.853 2.99-10.851 7.5-11h27.5c3.946 0 6.5 4.824 6.5 8.254v9.525h-6.5v-9.525H117v9.525H96.5v-9.525H93v9.525H78v-9.525h-3.5v9.525H54v-9.525h-4v9.525H35v-9.525h-3.5v9.525H11v-9.525H7.5v9.525z"/>
  </g>
  <g stroke-linejoin="round" transform="translate(43.827 1.944) scale(.34646)">
    <circle cx="58" cy="13" r="9.452" fill="#ffb380" stroke="#1a1a1a" stroke-linecap="round"/>
    <use xlink:href="#a" stroke-linecap="round"/>
    <path fill="#504" stroke="#000" d="M62.3 27.917s1.781.947 2.674 1.963c1.107 1.267 3.837 14.588 3.837 14.588l1.751.028-.134-6.86s.077-.854 1.865-.854S74 37.61 74 37.61v12.246l-14.705-.566c-4.718 1.001-4.673 7.205-.387 8.354l20.076 1.995c2.168-.096 3.08-1.31 3.563-2.902l-.208-19.344c-.36-5.166-2.45-9.094-9.141-9.736z"/>
    <use xlink:href="#b"/>
    <path fill="#c6afe9" stroke="#000" stroke-linecap="round" d="M45.512 41.326s.375 13.84 4.388 17.744c5.079 4.94 20.663 4.983 20.663 4.983l.024 17.363s-3.03-1.544-4.9-1.634c-1.637-.08-5.233.644-5.233.644l-.04-6.91h-4.356v8.957s-5.02 6.154-5.494 9.898c-.326 2.575 1.963 7.535 1.963 7.535l-4.107.23-2.848 1.701z"/>
    <circle cx="21.617" cy="93.336" r="8.507" fill="#ac9393" stroke="#1a1a1a" stroke-linecap="round"/>
    <circle cx="64.283" cy="93.336" r="8.507" fill="#520" stroke="#1a1a1a" stroke-linecap="round"/>
    <circle cx="107.002" cy="93.336" r="8.507" fill="#d38d5f" stroke="#1a1a1a" stroke-linecap="round"/>
    <path fill="#504" stroke="#000" stroke-linecap="round" d="M1 123.779v-9.525C1 110.732 4.616 106 7.5 106H35c4.84 0 6.756 5.726 7.5 11 1.369-5.55 2.79-10.685 7.5-11h28c4.905 0 6.298 6.132 7.5 11 1.336-4.853 2.99-10.851 7.5-11h27.5c3.946 0 6.5 4.824 6.5 8.254v9.525h-6.5v-9.525H117v9.525H96.5v-9.525H93v9.525H78v-9.525h-3.5v9.525H54v-9.525h-4v9.525H35v-9.525h-3.5v9.525H11v-9.525H7.5v9.525z"/>
  </g>
  <g stroke-linejoin="round" transform="translate(81.827 20.944) scale(.34646)">
    <circle cx="58" cy="13" r="9.452" fill="#ffb380" stroke="#1a1a1a" stroke-linecap="round"/>
    <use xlink:href="#a" stroke-linecap="round"/>
    <path fill="#fc0" stroke="#000" d="M62.3 27.917s1.781.947 2.674 1.963c1.107 1.267 3.837 14.588 3.837 14.588l1.751.028-.134-6.86s.077-.854 1.865-.854S74 37.61 74 37.61v12.246l-14.705-.566c-4.718 1.001-4.673 7.205-.387 8.354l20.076 1.995c2.168-.096 3.08-1.31 3.563-2.902l-.208-19.344c-.36-5.166-2.45-9.094-9.141-9.736z"/>
    <use xlink:href="#b"/>
    <path fill="navy" stroke="#000" stroke-linecap="round" d="M45.512 41.326s.375 13.84 4.388 17.744c5.079 4.94 20.663 4.983 20.663 4.983l.024 17.363s-3.03-1.544-4.9-1.634c-1.637-.08-5.233.644-5.233.644l-.04-6.91h-4.356v8.957s-5.02 6.154-5.494 9.898c-.326 2.575 1.963 7.535 1.963 7.535l-4.107.23-2.848 1.701z"/>
    <circle cx="21.617" cy="93.336" r="8.507" fill="#ac9393" stroke="#1a1a1a" stroke-linecap="round"/>
    <circle cx="64.283" cy="93.336" r="8.507" fill="#520" stroke="#1a1a1a" stroke-linecap="round"/>
    <circle cx="107.002" cy="93.336" r="8.507" fill="#d38d5f" stroke="#1a1a1a" stroke-linecap="round"/>
    <path fill="#fc0" stroke="#000" stroke-linecap="round" d="M1 123.779v-9.525C1 110.732 4.616 106 7.5 106H35c4.84 0 6.756 5.726 7.5 11 1.369-5.55 2.79-10.685 7.5-11h28c4.905 0 6.298 6.132 7.5 11 1.336-4.853 2.99-10.851 7.5-11h27.5c3.946 0 6.5 4.824 6.5 8.254v9.525h-6.5v-9.525H117v9.525H96.5v-9.525H93v9.525H78v-9.525h-3.5v9.525H54v-9.525h-4v9.525H35v-9.525h-3.5v9.525H11v-9.525H7.5v9.525z"/>
  </g>
  <text xml:space="preserve" x="15.812" y="121.51" stroke-width="4.044" font-family="FreeMono" font-size="86.281" font-weight="700" style="-inkscape-font-specification:&quot;FreeMono Bold&quot;"><tspan x="15.812" y="121.51">VS</tspan></text>
</svg>
