<svg xmlns="http://www.w3.org/2000/svg" xml:space="preserve" viewBox="0 0 128 128">
  <g fill="navy">
    <path d="M67.117 25.658c-5.537-5.537-12.899-8.586-20.729-8.586s-15.192 3.05-20.729 8.586a3.988 3.988 0 1 0 5.64 5.64 21.198 21.198 0 0 1 15.09-6.25 21.2 21.2 0 0 1 15.088 6.25c8.32 8.32 8.32 21.857 0 30.176a3.988 3.988 0 1 0 5.64 5.64c11.43-11.429 11.43-30.027 0-41.456z"/>
    <path d="M120.792 105.273 83.098 67.581c9.352-16.205 7.108-37.322-6.737-51.166C68.355 8.409 57.711 4 46.388 4 35.066 4 24.422 8.409 16.415 16.415 8.41 24.421 4 35.065 4 46.386c0 11.322 4.41 21.966 12.416 29.972 8.263 8.263 19.118 12.394 29.972 12.394a42.403 42.403 0 0 0 21.196-5.658l37.694 37.692a10.897 10.897 0 0 0 7.757 3.214c2.93 0 5.685-1.141 7.757-3.213 4.277-4.277 4.277-11.236 0-15.514zM46.388 80.78c-8.81-.002-17.624-3.355-24.332-10.063-6.5-6.499-10.079-15.14-10.079-24.33 0-9.192 3.58-17.833 10.08-24.332 6.499-6.499 15.14-10.078 24.331-10.078 9.192 0 17.833 3.579 24.332 10.078 13.417 13.417 13.417 35.246 0 48.662-6.709 6.71-15.519 10.063-24.332 10.063zm68.764 34.367a2.974 2.974 0 0 1-2.117.877c-.8 0-1.55-.312-2.116-.877L74.17 78.399a42.9 42.9 0 0 0 2.192-2.041 42.715 42.715 0 0 0 2.041-2.192l36.75 36.748a2.997 2.997 0 0 1 0 4.233z"/>
  </g>
</svg>
