<?xml version="1.0" encoding="UTF-8" standalone="no"?>
<svg
   xmlns:dc="http://purl.org/dc/elements/1.1/"
   xmlns:cc="http://creativecommons.org/ns#"
   xmlns:rdf="http://www.w3.org/1999/02/22-rdf-syntax-ns#"
   xmlns:svg="http://www.w3.org/2000/svg"
   xmlns="http://www.w3.org/2000/svg"
   xmlns:sodipodi="http://sodipodi.sourceforge.net/DTD/sodipodi-0.dtd"
   xmlns:inkscape="http://www.inkscape.org/namespaces/inkscape"
   version="1.1"
   id="Layer_1"
   x="0px"
   y="0px"
   viewBox="0 0 128 128"
   xml:space="preserve"
   sodipodi:docname="search.svg"
   inkscape:version="1.0.2 (e86c870879, 2021-01-15)"
   width="128"
   height="128"><metadata
   id="metadata47"><rdf:RDF><cc:Work
       rdf:about=""><dc:format>image/svg+xml</dc:format><dc:type
         rdf:resource="http://purl.org/dc/dcmitype/StillImage" /><dc:title></dc:title></cc:Work></rdf:RDF></metadata><defs
   id="defs45" /><sodipodi:namedview
   pagecolor="#ffffff"
   bordercolor="#666666"
   borderopacity="1"
   objecttolerance="10"
   gridtolerance="10"
   guidetolerance="10"
   inkscape:pageopacity="0"
   inkscape:pageshadow="2"
   inkscape:window-width="1920"
   inkscape:window-height="1016"
   id="namedview43"
   showgrid="false"
   inkscape:zoom="0.65293025"
   inkscape:cx="278.69333"
   inkscape:cy="-203.69701"
   inkscape:window-x="0"
   inkscape:window-y="27"
   inkscape:window-maximized="1"
   inkscape:current-layer="g6"
   inkscape:document-rotation="0" />
<g
   id="g10"
   style="fill:#000080"
   transform="matrix(0.40405996,0,0,0.40404176,3.9971716,4)">
	<g
   id="g8"
   style="fill:#000080">
		<g
   id="g6"
   style="fill:#000080">
			<path
   d="M 156.215,53.603 C 142.511,39.899 124.291,32.352 104.913,32.352 c -19.38,0 -37.6,7.548 -51.302,21.251 -3.855,3.855 -3.855,10.105 0,13.96 3.856,3.854 10.104,3.854 13.96,0 9.974,-9.975 23.236,-15.469 37.342,-15.469 14.106,0 27.368,5.494 37.342,15.469 20.59,20.59 20.59,54.094 0,74.685 -3.855,3.855 -3.855,10.105 0,13.96 1.928,1.927 4.454,2.891 6.98,2.891 2.526,0 5.052,-0.964 6.98,-2.891 28.288,-28.288 28.288,-74.317 0,-102.605 z"
   id="path2"
   style="fill:#000080" />
			<path
   d="M 289.054,250.651 195.766,157.363 C 218.911,117.255 213.357,64.991 179.092,30.726 159.278,10.912 132.933,0 104.913,0 76.891,0 50.548,10.912 30.733,30.727 10.918,50.542 0.007,76.884 0.007,104.906 c 0,28.021 10.912,54.365 30.727,74.179 20.452,20.451 47.315,30.676 74.179,30.676 18.145,0 36.287,-4.672 52.456,-14.003 l 93.289,93.287 c 5.127,5.129 11.946,7.954 19.197,7.954 7.253,0 14.071,-2.824 19.198,-7.953 10.586,-10.585 10.586,-27.808 10e-4,-38.395 z M 104.913,190.029 C 83.107,190.026 61.294,181.726 44.694,165.125 28.608,149.04 19.749,127.654 19.749,104.906 c 0,-22.748 8.859,-44.134 24.945,-60.219 16.085,-16.086 37.471,-24.945 60.219,-24.945 22.748,0 44.133,8.859 60.219,24.945 33.205,33.205 33.205,87.233 0,120.438 -16.604,16.604 -38.408,24.906 -60.219,24.904 z m 170.181,85.059 c -1.4,1.399 -3.259,2.17 -5.238,2.17 -1.978,0 -3.838,-0.771 -5.237,-2.171 l -90.952,-90.951 c 1.852,-1.61 3.664,-3.289 5.426,-5.051 1.761,-1.761 3.441,-3.573 5.05,-5.425 l 90.951,90.951 c 2.888,2.889 2.888,7.588 0,10.477 z"
   id="path4"
   style="fill:#000080" />
		</g>
	</g>
</g>
<g
   id="g12">
</g>
<g
   id="g14">
</g>
<g
   id="g16">
</g>
<g
   id="g18">
</g>
<g
   id="g20">
</g>
<g
   id="g22">
</g>
<g
   id="g24">
</g>
<g
   id="g26">
</g>
<g
   id="g28">
</g>
<g
   id="g30">
</g>
<g
   id="g32">
</g>
<g
   id="g34">
</g>
<g
   id="g36">
</g>
<g
   id="g38">
</g>
<g
   id="g40">
</g>
</svg>
