<?xml version="1.0" encoding="UTF-8" standalone="no"?>
<!-- Created with Inkscape (http://www.inkscape.org/) -->

<svg
   version="1.1"
   id="svg2"
   width="128"
   height="128"
   viewBox="0 0 128 128"
   sodipodi:docname="sport.svg"
   inkscape:version="1.2.2 (b0a8486541, 2022-12-01)"
   xmlns:inkscape="http://www.inkscape.org/namespaces/inkscape"
   xmlns:sodipodi="http://sodipodi.sourceforge.net/DTD/sodipodi-0.dtd"
   xmlns="http://www.w3.org/2000/svg"
   xmlns:svg="http://www.w3.org/2000/svg"
   xmlns:rdf="http://www.w3.org/1999/02/22-rdf-syntax-ns#"
   xmlns:cc="http://creativecommons.org/ns#"
   xmlns:dc="http://purl.org/dc/elements/1.1/">
  <metadata
     id="metadata8">
    <rdf:RDF>
      <cc:Work
         rdf:about="">
        <dc:format>image/svg+xml</dc:format>
        <dc:type
           rdf:resource="http://purl.org/dc/dcmitype/StillImage" />
      </cc:Work>
    </rdf:RDF>
  </metadata>
  <defs
     id="defs6" />
  <sodipodi:namedview
     pagecolor="#ffffff"
     bordercolor="#666666"
     borderopacity="1"
     objecttolerance="10"
     gridtolerance="10"
     guidetolerance="10"
     inkscape:pageopacity="0"
     inkscape:pageshadow="2"
     inkscape:window-width="1920"
     inkscape:window-height="1011"
     id="namedview4"
     showgrid="false"
     inkscape:zoom="4.4304659"
     inkscape:cx="113.75779"
     inkscape:cy="74.258556"
     inkscape:window-x="0"
     inkscape:window-y="32"
     inkscape:window-maximized="1"
     inkscape:current-layer="svg2"
     inkscape:showpageshadow="2"
     inkscape:pagecheckerboard="0"
     inkscape:deskcolor="#d1d1d1"
     showguides="true">
    <sodipodi:guide
       position="28.558026,-9.7509391"
       orientation="0,-1"
       id="guide9255"
       inkscape:locked="false" />
  </sodipodi:namedview>
  <g
     id="g10082"
     transform="matrix(1.2394973,-0.36338579,0.36338579,1.2394973,-85.1326,-25.202729)">
    <g
       id="g10055"
       transform="matrix(1.4328358,0,0,1.4328358,43.984391,56.100234)">
      <g
         id="g9266">
        <path
           style="fill:#e6e6e6;stroke:#000000;stroke-width:1;stroke-linecap:round;stroke-linejoin:round;stroke-dasharray:none;stroke-opacity:1"
           d="M 60,30 H 30 V 0 c 16.913615,0 30,13.808021 30,30 z"
           id="path7096-1-4-9"
           sodipodi:nodetypes="cccc" />
      </g>
      <path
         style="fill:none;stroke:#000000;stroke-width:2;stroke-linecap:round;stroke-linejoin:miter;stroke-dasharray:none;stroke-opacity:1"
         d="M 39.768155,2.4922019 C 41.153596,12.429775 35.717681,20.506411 31.030907,28.787421 v 0"
         id="path8635-9"
         sodipodi:nodetypes="ccc" />
      <path
         style="fill:none;stroke:#000000;stroke-width:2;stroke-linecap:round;stroke-linejoin:miter;stroke-dasharray:none;stroke-opacity:1"
         d="M 57.189997,18.778297 C 47.19373,18.026985 38.736445,22.696101 30.827032,29.294874 v 0"
         id="path8635-2-2"
         sodipodi:nodetypes="ccc" />
    </g>
    <g
       id="g9270"
       transform="matrix(1.4328358,0,0,1.4328358,43.984391,56.100234)">
      <path
         style="fill:#1a1a1a;stroke:#000000;stroke-width:1;stroke-linecap:round;stroke-linejoin:round;stroke-dasharray:none;stroke-opacity:1"
         d="M 66,30 H 30 V 60 C 46.913615,60 66,46.191979 66,30 Z"
         id="path7096-1-4"
         sodipodi:nodetypes="cccc" />
      <path
         style="fill:#f9f9f9;stroke:none;stroke-width:0;stroke-linecap:butt;stroke-linejoin:miter;stroke-dasharray:none;stroke-opacity:1"
         d="m 30,33 h 30 c 4.401679,-0.744648 2.949653,4.76683 2,7 -4.726714,11.115173 -22.150423,14.506592 -32,17 z"
         id="path8633"
         sodipodi:nodetypes="ccacc" />
    </g>
    <g
       id="g10049"
       transform="matrix(1.4328358,0,0,1.4328358,43.984391,56.100234)">
      <g
         id="g9273">
        <path
           style="fill:#ffffff;stroke:#000000;stroke-width:1;stroke-linecap:round;stroke-linejoin:round;stroke-dasharray:none;stroke-opacity:1"
           d="M 30,60 V 30 H 0 c 0,16.913615 13.808021,30 30,30 z"
           id="path7096-1"
           sodipodi:nodetypes="cccc" />
      </g>
      <g
         id="g9158"
         transform="rotate(90,67.616308,59.317767)">
        <path
           style="fill:#000000;fill-opacity:1;stroke:none;stroke-width:0.319202;stroke-linecap:round;stroke-linejoin:round;stroke-dasharray:none;stroke-opacity:1"
           d="M 11.730673,49.783441 C 10.501746,48.728639 9.3705571,47.741225 9.216921,47.589187 8.954084,47.329085 8.9520877,47.195594 9.1831257,45.329408 9.3181743,44.238567 9.4438766,43.334406 9.462464,43.32016 c 0.1822029,-0.13964 5.784336,-1.160614 5.864215,-1.068737 0.05864,0.06745 0.756749,1.754828 1.551345,3.749722 l 1.44472,3.62708 -2.047722,1.041249 c -1.126247,0.572687 -2.10672,1.03912 -2.178828,1.036519 -0.07211,-0.0026 -1.136593,-0.867751 -2.365521,-1.922552 z"
           id="path9174"
           transform="rotate(-90,67.616308,59.317767)" />
        <path
           style="fill:#000000;fill-opacity:1;stroke:none;stroke-width:0.319202;stroke-linecap:round;stroke-linejoin:round;stroke-dasharray:none;stroke-opacity:1"
           d="m 14.747217,39.196781 c -0.407734,-1.061472 -0.83531,-2.081418 -0.950168,-2.266548 -0.190672,-0.307325 -0.08378,-0.508595 1.229024,-2.314214 0.790822,-1.087688 1.502677,-2.001098 1.5819,-2.0298 0.194701,-0.07054 6.242548,1.581627 6.494271,1.774121 0.142642,0.109079 0.199502,0.78207 0.199502,2.36128 v 2.20872 l -0.598504,0.164224 c -0.329177,0.09032 -2.087146,0.584511 -3.906597,1.098194 l -3.308093,0.93397 z"
           id="path9176"
           transform="rotate(-90,67.616308,59.317767)" />
        <path
           style="fill:#000000;fill-opacity:1;stroke:none;stroke-width:0.319202;stroke-linecap:round;stroke-linejoin:round;stroke-dasharray:none;stroke-opacity:1"
           d="M 22.543641,55.653968 19.950125,54.34868 v -1.957383 c 0,-1.828408 0.02033,-1.957382 0.308528,-1.957382 0.16969,0 1.870827,0.186313 3.780304,0.414029 l 3.471775,0.414029 0.920983,-1.012533 0.920982,-1.012532 0.0045,3.431421 c 0.0027,2.09279 -0.05152,3.342905 -0.139111,3.204521 -0.119094,-0.188167 -0.43895,-0.11324 -1.873645,0.438902 -0.95152,0.366192 -1.837416,0.661686 -1.96866,0.656654 -0.131243,-0.005 -1.405706,-0.59653 -2.83214,-1.314438 z"
           id="path9178"
           transform="rotate(-90,67.616308,59.317767)" />
        <path
           style="fill:#000000;fill-opacity:1;stroke:none;stroke-width:0.319202;stroke-linecap:round;stroke-linejoin:round;stroke-dasharray:none;stroke-opacity:1"
           d="M 1.8078949,36.692481 C 1.4394779,36.585837 1.2762287,36.426748 1.2085134,36.108371 0.96124256,34.945781 0.64018519,32.380748 0.63934485,31.561097 L 0.63840399,30.643392 H 2.3249697 c 1.5312343,0 1.6789785,0.02572 1.6041874,0.279301 -0.1032642,0.350117 -1.2159401,5.692336 -1.2159401,5.838015 0,0.136553 -0.2675274,0.116391 -0.9053221,-0.06823 z"
           id="path9180"
           transform="rotate(-90,67.616308,59.317767)" />
        <path
           style="fill:#2b0000;fill-opacity:1;stroke:none;stroke-width:0.319202;stroke-linecap:round;stroke-linejoin:round;stroke-dasharray:none;stroke-opacity:1"
           d="M 6.5472002,39.828386 C 5.1007787,38.562948 3.8917783,37.450896 3.8605325,37.357159 3.7407068,36.997681 4.8317132,32.24761 5.0101185,32.352041 c 0.097303,0.05696 1.9070786,1.275356 4.0217243,2.707554 l 3.8448102,2.603996 0.657502,1.709949 c 0.361625,0.940472 0.641811,1.725639 0.622635,1.744816 -0.0444,0.0444 -4.7158362,1.017241 -4.8669945,1.013567 -0.062006,-0.0015 -1.296174,-1.038099 -2.7425953,-2.303537 z"
           id="path9251"
           transform="rotate(-90,67.616308,59.317767)" />
        <path
           style="fill:#2b0000;fill-opacity:1;stroke:none;stroke-width:0.319202;stroke-linecap:round;stroke-linejoin:round;stroke-dasharray:none;stroke-opacity:1"
           d="m 22.583573,49.526444 c -1.755593,-0.21773 -3.198563,-0.407857 -3.206599,-0.422505 -0.15558,-0.283577 -2.779371,-7.020328 -2.746061,-7.050688 0.02606,-0.02376 1.771082,-0.525248 3.877815,-1.114424 2.106733,-0.589176 3.904876,-1.13178 3.995874,-1.205787 0.13821,-0.112403 4.681097,0.383479 4.776925,0.52143 0.01711,0.02463 -0.0014,1.689307 -0.04119,3.699282 l -0.0723,3.654499 -0.988527,1.133531 c -1.200152,1.376198 -1.024682,1.351593 -5.595939,0.784662 z"
           id="path9253"
           transform="rotate(-90,67.616308,59.317767)" />
      </g>
    </g>
    <g
       id="g9263"
       transform="matrix(1.4328358,0,0,1.4328358,43.984391,56.100234)">
      <path
         style="fill:none;stroke:#000000;stroke-width:1;stroke-linecap:round;stroke-linejoin:round;stroke-dasharray:none;stroke-opacity:1"
         d="M 30,0 V 30 H 0 C 0,13.086385 13.808021,0 30,0 Z"
         id="path7096"
         sodipodi:nodetypes="cccc" />
      <path
         style="fill:none;stroke:#000000;stroke-width:2;stroke-linecap:round;stroke-linejoin:miter;stroke-dasharray:none;stroke-opacity:1"
         d="m 2.6563961,20.436843 26.2952189,8.737248 v 0"
         id="path8635"
         sodipodi:nodetypes="ccc" />
      <path
         style="fill:none;stroke:#000000;stroke-width:2;stroke-linecap:round;stroke-linejoin:miter;stroke-dasharray:none;stroke-opacity:1"
         d="M 18.942491,3.0150009 29.459068,29.377966 v 0"
         id="path8635-2"
         sodipodi:nodetypes="ccc" />
      <path
         style="fill:#ff6600;fill-opacity:1;stroke:none;stroke-width:0.319202;stroke-linecap:round;stroke-linejoin:round;stroke-dasharray:none;stroke-opacity:1"
         d="M 14.815321,23.354751 2.5782731,19.291691 2.8209553,18.703202 C 5.3604135,12.545182 10.213748,7.2572446 16.321375,3.993858 l 1.517834,-0.810999 4.8062,12.014556 c 2.643411,6.608006 4.806148,12.06842 4.806082,12.134256 -6.5e-5,0.06583 -0.0899,0.11215 -0.199621,0.102922 -0.109725,-0.0092 -5.706173,-1.845159 -12.436549,-4.079842 z"
         id="path8733" />
      <path
         style="fill:#aa4400;fill-opacity:1;stroke:none;stroke-width:0.319202;stroke-linecap:round;stroke-linejoin:round;stroke-dasharray:none;stroke-opacity:1"
         d="m 0.63840399,28.38956 c 0,-1.931417 1.00906791,-7.130168 1.36833581,-7.049711 0.081331,0.01821 5.4984971,1.826039 12.0381482,4.017389 l 11.890274,3.984273 -12.648379,0.01254 -12.64837901,0.01254 z"
         id="path8942" />
      <path
         style="fill:#aa4400;fill-opacity:1;stroke:none;stroke-width:0.319202;stroke-linecap:round;stroke-linejoin:round;stroke-dasharray:none;stroke-opacity:1"
         d="M 24.590939,14.269143 C 22.020039,7.8089429 19.97799,2.467208 20.053051,2.3986214 20.219314,2.2467002 21.917245,1.6974452 23.221945,1.3735321 24.586879,1.0346651 27.415428,0.63840399 28.469361,0.63840399 h 0.897223 V 13.326683 c 0,6.978554 -0.02279,12.68828 -0.05064,12.68828 -0.02785,0 -2.154104,-5.285618 -4.725003,-11.74582 z"
         id="path9082" />
    </g>
  </g>
  <g
     id="g10167"
     transform="matrix(-1.1334095,-0.61950441,0.61950441,-1.1334095,49.655796,131.47788)"
     style="fill:#1a1a1a;stroke:#000000;stroke-opacity:1">
    <ellipse
       style="fill:#1a1a1a;fill-opacity:1;stroke:#000000;stroke-width:2;stroke-linecap:round;stroke-linejoin:round;stroke-dasharray:none;stroke-opacity:1"
       id="path10136"
       cx="18.128078"
       cy="44.388138"
       rx="12.857199"
       ry="6.4285994" />
    <ellipse
       style="fill:#1a1a1a;fill-opacity:1;stroke:#000000;stroke-width:2;stroke-linecap:round;stroke-linejoin:round;stroke-dasharray:none;stroke-opacity:1"
       id="path10136-6"
       cx="19.696852"
       cy="46.543331"
       rx="12.857199"
       ry="6.4285994" />
  </g>
</svg>
