<svg xmlns="http://www.w3.org/2000/svg" viewBox="0 0 128 128">
  <path fill="none" stroke="#000" stroke-linejoin="round" stroke-width="3" d="M4.5 26 34 14l62 12 27.5-14v90L96 116l-62-12-29.5 12z"/>
  <path fill="#333" stroke="#4b4b4b" stroke-linecap="round" d="M34 16v86m62-74v86"/>
  <path fill="#e6e6e6" d="M6.138 70.342V27.066l13.39-5.449c7.366-2.997 13.49-5.487 13.612-5.535.175-.068.23 8.723.265 43.152l.045 43.238-.796.338c-.437.186-6.284 2.57-12.993 5.296a6507.528 6507.528 0 0 0-12.86 5.235l-.663.278z"/>
  <path fill="#ccc" d="M96.647 70.937c0-23.57-.044-42.97-.1-43.113-.074-.195 1.821-1.234 7.646-4.192a5697.09 5697.09 0 0 0 12.74-6.487l4.993-2.555v86.406l-12.558 6.398c-6.907 3.518-12.595 6.397-12.64 6.397-.044 0-.08-19.284-.08-42.854z"/>
  <path fill="#f9f9f9" d="M65.093 108.39c-16.626-3.219-30.309-5.885-30.406-5.926-.117-.05-.147-14.598-.088-43.393l.088-43.318 30.229 5.855c16.626 3.22 30.308 5.888 30.406 5.93.117.05.147 14.596.088 43.389l-.088 43.314z"/>
  <path fill="#4d4d4d" stroke="#4b4b4b" stroke-linecap="round" stroke-width="3" d="m15.184 84.08 9.65-9.925m4.78-1.595 3.55 1.866 5.091 1.443"/>
  <path fill="none" stroke="#000" d="m12.043 101.724 22.106-8.771 61.543 12.286 23.295-11.18"/>
  <path fill="#4d4d4d" stroke="#4b4b4b" stroke-linecap="round" stroke-width="3" d="m44.674 75.181 13.531-10.86m6.043-1.318 12.566-.088m6.036.472 12.544 10.437 1.406.294 2.791.585m3.529-2.478 10.64-16.858"/>
  <text xml:space="preserve" x="45.786" y="17.94" font-family="sans-serif" font-size="8" font-weight="400" style="line-height:1.25" transform="rotate(11.435)"><tspan x="45.786" y="17.94">Team Plan</tspan></text>
  <text xml:space="preserve" x="-5.61" y="36.607" font-family="sans-serif" font-size="5.333" font-weight="400" style="line-height:1.25" transform="rotate(-26.57)"><tspan x="-5.61" y="36.607" font-weight="700" style="-inkscape-font-specification:&quot;sans-serif Bold&quot;">Targets</tspan></text>
  <text xml:space="preserve" x="47.04" y="24.345" font-family="sans-serif" font-size="4" font-weight="400" style="line-height:1.25" transform="rotate(11.459)"><tspan x="47.04" y="24.345" style="-inkscape-font-specification:sans-serif"><tspan font-size="2.667">*</tspan><tspan font-size="2.667"> 1x1 Defense</tspan></tspan><tspan x="47.04" y="29.345" font-size="2.667" style="-inkscape-font-specification:sans-serif">* Dribbling</tspan><tspan x="47.04" y="34.345" font-size="2.667" style="-inkscape-font-specification:sans-serif">* Shooting</tspan><tspan x="47.04" y="39.345" font-size="2.667" style="-inkscape-font-specification:sans-serif">* Spacing</tspan></text>
  <path fill="#4d4d4d" stroke="#f86401" stroke-linecap="round" stroke-width="3" d="m15.184 84.08 9.65-9.925m0 0 9.163 6.336 6.467 5.135m0 0 19.442-13.849"/>
  <g fill="navy">
    <ellipse cx="11.705" cy="87.105" rx="2.277" ry="3.531" transform="rotate(-1.028)"/>
    <ellipse cx="25.725" cy="72.33" rx="2.277" ry="3.531" transform="rotate(-1.028)"/>
    <ellipse cx="47.638" cy="72.8" rx="3.001" ry="3.531" transform="rotate(4.717)"/>
    <ellipse cx="66.229" cy="57.566" rx="3.001" ry="3.531" transform="rotate(4.717)"/>
    <ellipse cx="85.265" cy="55.729" rx="3.001" ry="3.531" transform="rotate(4.717)"/>
    <ellipse cx="107.209" cy="66.052" rx="1.73" ry="3.531" transform="rotate(4.717)"/>
    <ellipse cx="118.846" cy="43.013" rx="1.73" ry="3.531" transform="rotate(4.717)"/>
  </g>
</svg>
