<?xml version="1.0" encoding="UTF-8" standalone="no"?>
<svg
   xmlns:dc="http://purl.org/dc/elements/1.1/"
   xmlns:cc="http://creativecommons.org/ns#"
   xmlns:rdf="http://www.w3.org/1999/02/22-rdf-syntax-ns#"
   xmlns:svg="http://www.w3.org/2000/svg"
   xmlns="http://www.w3.org/2000/svg"
   xmlns:sodipodi="http://sodipodi.sourceforge.net/DTD/sodipodi-0.dtd"
   xmlns:inkscape="http://www.inkscape.org/namespaces/inkscape"
   version="1.1"
   id="svg2"
   width="128"
   height="126"
   viewBox="0 0 128 126"
   sodipodi:docname="team.svg"
   inkscape:version="1.0.2 (e86c870879, 2021-01-15)">
  <metadata
     id="metadata8">
    <rdf:RDF>
      <cc:Work
         rdf:about="">
        <dc:format>image/svg+xml</dc:format>
        <dc:type
           rdf:resource="http://purl.org/dc/dcmitype/StillImage" />
        <dc:title></dc:title>
      </cc:Work>
    </rdf:RDF>
  </metadata>
  <defs
     id="defs6" />
  <sodipodi:namedview
     pagecolor="#ffffff"
     bordercolor="#666666"
     borderopacity="1"
     objecttolerance="10"
     gridtolerance="10"
     guidetolerance="10"
     inkscape:pageopacity="0"
     inkscape:pageshadow="2"
     inkscape:window-width="1920"
     inkscape:window-height="1016"
     id="namedview4"
     showgrid="false"
     inkscape:zoom="6.5067044"
     inkscape:cx="67.541771"
     inkscape:cy="89.116533"
     inkscape:window-x="0"
     inkscape:window-y="27"
     inkscape:window-maximized="1"
     inkscape:current-layer="g10" />
  <g
     inkscape:groupmode="layer"
     inkscape:label="Image"
     id="g10">
    <g
       id="g940"
       transform="translate(0,-0.04760456)">
      <circle
         style="fill:#ffb380;fill-opacity:1;stroke:#1a1a1a;stroke-width:1;stroke-linecap:round;stroke-linejoin:round;stroke-miterlimit:4;stroke-dasharray:none;stroke-opacity:1"
         id="path841"
         cx="58"
         cy="13"
         r="9.4523954" />
      <path
         style="fill:#ffb380;fill-opacity:1;stroke:#1a1a1a;stroke-width:1px;stroke-linecap:round;stroke-linejoin:round;stroke-opacity:1"
         d="M 42.768425,4.6250654 28.029322,23.023114 c 0,0 -1.344191,1.652773 -1.273873,3.348275 0.06654,1.60451 1.273873,1.933007 1.273873,1.933007 l 15.469729,6.460574 c 0,0 1.318131,-2.223142 2.439359,-2.657664 5.05655,-1.959624 16.361207,-4.190647 16.361207,-4.190647 L 47.720451,27.42678 38.802338,23.642062 48.4138,11.589074 49.57901,8.4970289 c 0,0 0.526456,-2.8271405 -1.851503,-4.1395817 -2.99894,-1.6551722 -4.959082,0.2676182 -4.959082,0.2676182 z"
         id="path843"
         sodipodi:nodetypes="scsccscccccss" />
      <path
         style="fill:#f86401;fill-opacity:1;stroke:#000000;stroke-width:1px;stroke-linecap:butt;stroke-linejoin:round;stroke-opacity:1"
         d="m 62.299617,27.916659 c 0,0 1.781381,0.946984 2.673934,1.963014 1.107855,1.266921 3.837844,14.588578 3.837844,14.588578 l 1.751058,0.02765 -0.134091,-6.85998 c 0,0 0.0762,-0.853921 1.864432,-0.853921 C 74.081024,36.782 74,37.6102 74,37.6102 V 49.855751 L 59.295344,49.290236 c -4.71824,1.001217 -4.673555,7.204771 -0.386921,8.353746 l 20.075303,1.995391 c 2.168521,-0.09669 3.079935,-1.309468 3.563036,-2.902517 l -0.20823,-19.344347 c -0.358793,-5.165316 -2.449874,-9.093277 -9.141023,-9.735456 z"
         id="path845"
         sodipodi:nodetypes="ccccczccccccccc" />
      <path
         style="fill:#ac9393;fill-opacity:1;stroke:#000000;stroke-width:1px;stroke-linecap:butt;stroke-linejoin:round;stroke-opacity:1"
         d="m 48.912284,36.757763 11.439563,-3.203021 3.071985,10.176676 c 0,0 -3.861829,-0.777951 -6.543981,0.250979 -2.682152,1.02893 -5.053916,4.924108 -5.053916,4.924108 z"
         id="path847"
         sodipodi:nodetypes="ccczcc" />
      <path
         style="fill:#000080;fill-opacity:1;stroke:#000000;stroke-width:1px;stroke-linecap:round;stroke-linejoin:round;stroke-opacity:1"
         d="m 45.512071,41.326115 c 0,0 0.374935,13.8406 4.387722,17.743777 5.078844,4.940116 20.663071,4.983181 20.663071,4.983181 L 70.587044,81.416 c 0,0 -3.030848,-1.544098 -4.899162,-1.634189 -1.6377,-0.07897 -5.233882,0.644208 -5.233882,0.644208 l -0.04028,-6.91023 h -4.355436 v 8.956757 c 0,0 -5.02052,6.154533 -5.494575,9.898342 -0.326033,2.574815 1.962838,7.534654 1.962838,7.534654 l -4.10669,0.231248 -2.847795,1.70024 z"
         id="path849"
         sodipodi:nodetypes="csccsccccacccc" />
      <circle
         style="fill:#ac9393;fill-opacity:1;stroke:#1a1a1a;stroke-width:1;stroke-linecap:round;stroke-linejoin:round;stroke-miterlimit:4;stroke-dasharray:none;stroke-opacity:1"
         id="path841-3"
         cx="21.617016"
         cy="93.335976"
         r="8.5071554" />
      <circle
         style="fill:#552200;fill-opacity:1;stroke:#1a1a1a;stroke-width:1;stroke-linecap:round;stroke-linejoin:round;stroke-miterlimit:4;stroke-dasharray:none;stroke-opacity:1"
         id="path841-3-6"
         cx="64.283157"
         cy="93.336159"
         r="8.5071554" />
      <circle
         style="fill:#d38d5f;fill-opacity:1;stroke:#1a1a1a;stroke-width:1;stroke-linecap:round;stroke-linejoin:round;stroke-miterlimit:4;stroke-dasharray:none;stroke-opacity:1"
         id="path841-3-6-7"
         cx="107.00216"
         cy="93.336159"
         r="8.5071554" />
      <path
         style="fill:#0000fa;fill-opacity:1;stroke:#000000;stroke-width:1px;stroke-linecap:round;stroke-linejoin:round;stroke-opacity:1"
         d="m 1,123.779 v -9.525 C 1,110.73241 4.616108,106 7.5,106 H 35 c 4.839321,0 6.755722,5.72588 7.5,11 1.368645,-5.55069 2.789736,-10.68468 7.5,-11 h 28 c 4.904931,0 6.297959,6.13151 7.5,11 1.33633,-4.85276 2.990644,-10.85129 7.5,-11 h 27.5 c 3.94648,0 6.5,4.82398 6.5,8.254 v 9.52464 l -6.5,3.6e-4 v -9.525 H 117 v 9.525 H 96.5 v -9.525 H 93 v 9.52478 l -15,4.4e-4 V 114.254 h -3.5 v 9.525 H 54 v -9.525 h -4 v 9.525 H 35 v -9.525 h -3.5 v 9.52518 L 11,123.77882 V 114.254 H 7.5 v 9.525 z"
         id="path929"
         sodipodi:nodetypes="csccccccccccccccccccccccccccccccccccc" />
    </g>
  </g>
</svg>
