<svg xmlns="http://www.w3.org/2000/svg" data-name="Layer 1" viewBox="0 0 128 128">
  <g transform="rotate(-30 41.23 5.392)">
    <rect width="60" height="15" y="15" fill="navy" ry="4.579"/>
    <rect width="60" height="15" y="105" fill="navy" ry="4.579"/>
    <path fill="none" stroke="navy" stroke-linecap="round" stroke-linejoin="round" stroke-width="4" d="M12.074 30c-.867 8.019-4.04 17.711 0 25 3.049 5.5 12.95 4.5 16 10 .808 1.458.808 3.542 0 5-3.05 5.5-12.951 4.5-16 10-4.04 7.289-.633 16.667 0 25M50.65 30c.866 8.019 4.039 17.711 0 25-3.05 5.5-12.952 4.5-16 10-.809 1.458-.809 3.542 0 5 3.048 5.5 12.95 4.5 16 10 4.039 7.289.632 16.667 0 25"/>
  </g>
  <path fill="#f60" d="M37.174 56.604 72.15 44.14s.5-.206-.944 2.757c-1.446 2.967-4.418 5.25-6.104 7.796-.992 1.5-1.347 2.804-1.714 5.117-.242 1.523.609 4.588.609 4.588-2.53-1.789-3.46-3.21-6.625-3.543-2.84-.3-9.973 2.43-14.558.818-2.385-.838-4.013-2.689-5.641-5.068zM97.6 88.039l-29.868 17.295s-.422.275.318-2.819c.74-3.096 3.03-5.754 4.077-8.479.616-1.604 1.767-2.812 1.64-5.114-.085-1.516.007-4.666.007-4.666 2.704 1.363 3.852 2.606 6.849 2.46 2.69-.13 7.46-1.1 12.03-.215 2.378.46 2.96-.532 4.947 1.538z"/>
</svg>
