<svg xmlns="http://www.w3.org/2000/svg" data-name="Layer 1" viewBox="0 0 128 128">
  <path fill="navy" d="M72.562 6.658c0-2.288 2.297-4.165 5.077-4.165s5.13 1.857 5.13 4.165v18.198c0 2.288-2.257 4.165-5.13 4.165-2.872 0-5.077-1.857-5.077-4.165zm-45.578 0c0-2.288 2.257-4.165 5.13-4.165 2.872 0 5.077 1.857 5.077 4.165v18.198c0 2.288-2.267 4.165-5.078 4.165-2.81 0-5.129-1.857-5.129-4.165zm76.25 35.637V21.337a2.524 2.524 0 0 0-.75-1.805 2.575 2.575 0 0 0-1.805-.749h-9.232c-3.748 0-3.748-5.621 0-5.621h9.232a8.207 8.207 0 0 1 8.207 8.206v33.257a42.059 42.059 0 0 0-5.704-1.528v-5.201H6.591v54.276a2.524 2.524 0 0 0 .749 1.806c.48.477 1.128.746 1.805.749h45.926a41.31 41.31 0 0 0 1.97 5.683H9.207A8.207 8.207 0 0 1 1 102.203V21.358a8.207 8.207 0 0 1 8.207-8.207h9.889c3.747 0 3.747 5.622 0 5.622h-9.89a2.524 2.524 0 0 0-1.805.749 2.575 2.575 0 0 0-.749 1.805v20.968Zm-57.99-23.522c-3.748 0-3.748-5.622 0-5.622h18.865c3.747 0 3.747 5.622 0 5.622z"/>
  <g fill="none" stroke="navy" stroke-linecap="round" stroke-linejoin="round" transform="translate(0 -.001) scale(1.00042)">
    <circle cx="94.447" cy="92.993" r="29.5" stroke-width="6"/>
    <path stroke-width="7" d="m88.789 80.247 4.422 16.505 13.26-3.553"/>
  </g>
  <path fill="#0000d4" d="M37.065 58.46c-.427.426-.4.954-.4.954v8.584s-.029.522.403.953c.431.432.948.397.948.397H49.64s.526.028.95-.396c.426-.425.4-.954.4-.954v-8.584s.014-.54-.395-.952c-.408-.413-.955-.398-.955-.398H38.016s-.524-.031-.951.396z"/>
  <path fill="teal" fill-opacity=".973" d="M14.846 58.46c-.427.427-.4.955-.4.955v8.583s-.029.523.403.954c.431.431.948.397.948.397h11.625s.526.028.95-.397c.426-.425.4-.954.4-.954v-8.583s.014-.54-.395-.953c-.408-.412-.955-.398-.955-.398H15.797s-.524-.03-.951.396z"/>
  <path fill="#fe9e14" d="M14.806 82.98c-.427.427-.4.955-.4.955v8.584s-.029.522.403.953c.431.432.948.397.948.397h11.625s.526.028.95-.396c.426-.425.4-.954.4-.954v-8.584s.014-.54-.395-.953c-.408-.412-.955-.398-.955-.398H15.757s-.524-.03-.951.397z"/>
  <path fill="teal" fill-opacity=".973" d="M37.065 82.98c-.427.427-.4.955-.4.955v8.584s-.028.522.403.953c.432.432.948.397.948.397h11.625s.527.028.951-.396c.425-.425.4-.954.4-.954v-8.584s.013-.54-.395-.953c-.409-.412-.956-.398-.956-.398H38.016s-.524-.03-.95.397z"/>
  <path fill="#fe9e14" fill-opacity=".997" d="M59.325 58.46c-.427.427-.4.955-.4.955v8.583s-.029.523.403.954c.43.431.948.397.948.397h.916s.67-.972 1.04-1.431c.973-1.207 2.182-2.587 3.092-3.474 1.315-1.282 2.62-2.467 4.032-3.58 1.112-.876 2.082-1.524 3.484-2.43-.158-.154-.256-.213-.51-.3-.22-.076-.43-.07-.43-.07H60.276s-.524-.03-.951.396z"/>
</svg>
