<?xml version="1.0" encoding="UTF-8" standalone="no"?>
<svg
   xmlns:dc="http://purl.org/dc/elements/1.1/"
   xmlns:cc="http://creativecommons.org/ns#"
   xmlns:rdf="http://www.w3.org/1999/02/22-rdf-syntax-ns#"
   xmlns:svg="http://www.w3.org/2000/svg"
   xmlns="http://www.w3.org/2000/svg"
   xmlns:sodipodi="http://sodipodi.sourceforge.net/DTD/sodipodi-0.dtd"
   xmlns:inkscape="http://www.inkscape.org/namespaces/inkscape"
   id="Layer_1"
   data-name="Layer 1"
   viewBox="0 0 128 128"
   version="1.1"
   sodipodi:docname="timetable.svg"
   width="128"
   height="128"
   inkscape:version="1.0.2 (e86c870879, 2021-01-15)">
  <metadata
     id="metadata11">
    <rdf:RDF>
      <cc:Work
         rdf:about="">
        <dc:format>image/svg+xml</dc:format>
        <dc:type
           rdf:resource="http://purl.org/dc/dcmitype/StillImage" />
        <dc:title>timetable</dc:title>
      </cc:Work>
    </rdf:RDF>
  </metadata>
  <defs
     id="defs9" />
  <sodipodi:namedview
     pagecolor="#ffffff"
     bordercolor="#666666"
     borderopacity="1"
     objecttolerance="10"
     gridtolerance="10"
     guidetolerance="10"
     inkscape:pageopacity="0"
     inkscape:pageshadow="2"
     inkscape:window-width="1920"
     inkscape:window-height="1016"
     id="namedview7"
     showgrid="false"
     showguides="false"
     inkscape:zoom="2"
     inkscape:cx="260.07976"
     inkscape:cy="73.212953"
     inkscape:window-x="0"
     inkscape:window-y="27"
     inkscape:window-maximized="1"
     inkscape:current-layer="Layer_1" />
  <title
     id="title2">timetable</title>
  <path
     d="m 72.561602,6.6578524 c 0,-2.2875914 2.29785,-4.1648524 5.077838,-4.1648524 2.779988,0 5.129129,1.8567445 5.129129,4.1648524 V 24.856001 c 0,2.287591 -2.256817,4.164852 -5.129129,4.164852 -2.872313,0 -5.077838,-1.856744 -5.077838,-4.164852 z m -45.577436,0 c 0,-2.2875914 2.256816,-4.1648524 5.129128,-4.1648524 2.872312,0 5.077838,1.8567445 5.077838,4.1648524 V 24.856001 c 0,2.287591 -2.267075,4.164852 -5.077838,4.164852 -2.810762,0 -5.129128,-1.856744 -5.129128,-4.164852 z M 103.23379,42.295038 V 21.337419 c 0.003,-0.677978 -0.26684,-1.328666 -0.74885,-1.805454 -0.47999,-0.477219 -1.1286,-0.746243 -1.80546,-0.748852 h -9.232426 c -3.747681,0 -3.747681,-5.621525 0,-5.621525 h 9.232426 c 4.53239,-3e-6 8.20661,3.67422 8.20661,8.206605 v 33.25727 c -1.86304,-0.642488 -3.76893,-1.15324 -5.70359,-1.52848 V 47.896046 H 6.5907502 v 54.276434 c -0.00305,0.67798 0.2668383,1.32867 0.7488528,1.80546 0.4799981,0.47721 1.1286018,0.74624 1.8054532,0.74885 H 55.071273 c 0.517565,1.9397 1.175837,3.8391 1.969586,5.68308 H 9.2066058 C 4.6742207,110.40987 0.99999746,106.73564 1,102.20326 V 21.357935 c 2e-7,-4.532384 3.6742227,-8.206606 8.2066058,-8.206606 h 9.8889592 c 3.747682,0 3.747682,5.621525 0,5.621525 H 9.2066058 c -0.6779782,-0.003 -1.3286657,0.266839 -1.8054533,0.748853 -0.4772194,0.479997 -0.7462426,1.128601 -0.7488528,1.805454 V 42.295038 Z M 45.243864,18.772854 c -3.747682,0 -3.747682,-5.621525 0,-5.621525 h 18.864934 c 3.747682,0 3.747682,5.621525 0,5.621525 z"
     id="path4"
     style="fill:#000080;fill-opacity:1;stroke:none;stroke-width:1.02583"
     sodipodi:nodetypes="ssssssssssssssccccsssscccccccccscsssscccccsssss" />
  <g
     id="g1584"
     transform="matrix(1.0004243,0,0,1.0004243,-4.2427739e-4,-0.00105772)">
    <circle
       style="fill:none;fill-opacity:1;stroke:#000080;stroke-width:6;stroke-linecap:round;stroke-linejoin:round;stroke-miterlimit:4;stroke-dasharray:none;stroke-opacity:1"
       id="path1578"
       cx="94.446564"
       cy="92.993179"
       r="29.5" />
    <path
       style="fill:none;stroke:#000080;stroke-width:7;stroke-linecap:round;stroke-linejoin:round;stroke-miterlimit:4;stroke-dasharray:none;stroke-opacity:1"
       d="m 88.788593,80.247156 4.422367,16.504498 13.25957,-3.55289"
       id="path1580" />
  </g>
  <path
     style="fill:#0000d4;fill-opacity:1;stroke:none;stroke-width:3.00127;stroke-linecap:round;stroke-linejoin:round;stroke-miterlimit:4;stroke-dasharray:none;stroke-opacity:0.500858"
     d="m 37.0649,58.459638 c -0.426814,0.426814 -0.399775,0.954502 -0.399775,0.954502 v 8.58364 c 0,0 -0.02868,0.522255 0.402652,0.95359 0.431336,0.431336 0.947921,0.396855 0.947921,0.396855 l 11.62493,2.56e-4 c 0,0 0.526494,0.02799 0.951259,-0.396771 0.424764,-0.424765 0.399376,-0.95393 0.399376,-0.95393 l -1.24e-4,-8.58364 c 0,0 0.01344,-0.540375 -0.394967,-0.952633 -0.408406,-0.412258 -0.955544,-0.39794 -0.955544,-0.39794 h -11.62493 c 0,0 -0.523984,-0.03074 -0.950798,0.396071 z"
     id="path1741"
     sodipodi:nodetypes="zcczcczcczccz" />
  <path
     style="fill:#008080;fill-opacity:0.972549;stroke:none;stroke-width:3.00127;stroke-linecap:round;stroke-linejoin:round;stroke-miterlimit:4;stroke-dasharray:none;stroke-opacity:0.500858"
     d="m 14.845872,58.460126 c -0.426814,0.426814 -0.399775,0.954501 -0.399775,0.954501 v 8.583641 c 0,0 -0.02868,0.522254 0.402652,0.953589 0.431336,0.431336 0.947921,0.396855 0.947921,0.396855 l 11.62493,2.56e-4 c 0,0 0.526494,0.02799 0.951259,-0.396771 0.424764,-0.424765 0.399376,-0.953929 0.399376,-0.953929 l -1.24e-4,-8.583641 c 0,0 0.01344,-0.540375 -0.394967,-0.952633 C 27.968738,58.049736 27.4216,58.064055 27.4216,58.064055 H 15.79667 c 0,0 -0.523984,-0.03074 -0.950798,0.396071 z"
     id="path1741-2"
     sodipodi:nodetypes="zcczcczcczccz" />
  <path
     style="fill:#fe9e14;fill-opacity:1;stroke:none;stroke-width:3.00127;stroke-linecap:round;stroke-linejoin:round;stroke-miterlimit:4;stroke-dasharray:none;stroke-opacity:0.500858"
     d="m 14.805855,82.980525 c -0.426814,0.426814 -0.399775,0.954501 -0.399775,0.954501 v 8.583641 c 0,0 -0.02868,0.522254 0.402652,0.953589 0.431336,0.431336 0.947921,0.396855 0.947921,0.396855 l 11.62493,2.56e-4 c 0,0 0.526494,0.02799 0.951259,-0.396771 0.424764,-0.424765 0.399376,-0.953929 0.399376,-0.953929 l -1.24e-4,-8.583641 c 0,0 0.01344,-0.540375 -0.394967,-0.952633 -0.408406,-0.412257 -0.955544,-0.397939 -0.955544,-0.397939 h -11.62493 c 0,0 -0.523984,-0.03074 -0.950798,0.396071 z"
     id="path1741-9"
     sodipodi:nodetypes="zcczcczcczccz" />
  <path
     style="fill:#008080;fill-opacity:0.972549;stroke:none;stroke-width:3.00127;stroke-linecap:round;stroke-linejoin:round;stroke-miterlimit:4;stroke-dasharray:none;stroke-opacity:0.500858"
     d="m 37.065295,82.980525 c -0.426814,0.426814 -0.399774,0.954501 -0.399774,0.954501 v 8.583641 c 0,0 -0.02868,0.522254 0.402651,0.953589 0.431336,0.431336 0.947921,0.396855 0.947921,0.396855 l 11.624931,2.56e-4 c 0,0 0.526493,0.02799 0.951258,-0.396771 0.424764,-0.424765 0.399376,-0.953929 0.399376,-0.953929 l -1.24e-4,-8.583641 c 0,0 0.01344,-0.540375 -0.394967,-0.952633 -0.408405,-0.412257 -0.955543,-0.397939 -0.955543,-0.397939 H 38.016093 c 0,0 -0.523984,-0.03074 -0.950798,0.396071 z"
     id="path1741-9-1"
     sodipodi:nodetypes="zcczcczcczccz" />
  <path
     style="fill:#fe9e14;fill-opacity:0.996926;stroke:none;stroke-width:3.00127;stroke-linecap:round;stroke-linejoin:round;stroke-miterlimit:4;stroke-dasharray:none;stroke-opacity:0.500858"
     d="m 59.324735,58.460126 c -0.426814,0.426814 -0.399774,0.954501 -0.399774,0.954501 v 8.583641 c 0,0 -0.02868,0.522254 0.402652,0.953589 0.431336,0.431336 0.947921,0.396855 0.947921,0.396855 l 0.916726,2e-5 c 0,0 0.67048,-0.971656 1.040342,-1.430986 0.972029,-1.20716 2.181765,-2.587119 3.090982,-3.473404 1.315019,-1.281851 2.620756,-2.466921 4.032217,-3.579587 1.112249,-0.876795 2.082405,-1.524733 3.484666,-2.431031 -0.158081,-0.153483 -0.25644,-0.212822 -0.510216,-0.300127 -0.220473,-0.07584 -0.429787,-0.06954 -0.429787,-0.06954 h -11.62493 c 0,0 -0.523985,-0.03074 -0.950799,0.396071 z"
     id="path1741-27"
     sodipodi:nodetypes="zcczccasacscczz" />
</svg>
