<?xml version="1.0" encoding="UTF-8" standalone="no"?>
<svg
   xmlns:dc="http://purl.org/dc/elements/1.1/"
   xmlns:cc="http://creativecommons.org/ns#"
   xmlns:rdf="http://www.w3.org/1999/02/22-rdf-syntax-ns#"
   xmlns:svg="http://www.w3.org/2000/svg"
   xmlns="http://www.w3.org/2000/svg"
   xmlns:sodipodi="http://sodipodi.sourceforge.net/DTD/sodipodi-0.dtd"
   xmlns:inkscape="http://www.inkscape.org/namespaces/inkscape"
   id="Layer_1"
   data-name="Layer 1"
   viewBox="0 0 128 128"
   version="1.1"
   sodipodi:docname="time.svg"
   width="128"
   height="128"
   inkscape:version="1.0.2 (e86c870879, 2021-01-15)">
  <metadata
     id="metadata11">
    <rdf:RDF>
      <cc:Work
         rdf:about="">
        <dc:format>image/svg+xml</dc:format>
        <dc:type
           rdf:resource="http://purl.org/dc/dcmitype/StillImage" />
        <dc:title>timetable</dc:title>
      </cc:Work>
    </rdf:RDF>
  </metadata>
  <defs
     id="defs9" />
  <sodipodi:namedview
     pagecolor="#ffffff"
     bordercolor="#666666"
     borderopacity="1"
     objecttolerance="10"
     gridtolerance="10"
     guidetolerance="10"
     inkscape:pageopacity="0"
     inkscape:pageshadow="2"
     inkscape:window-width="1920"
     inkscape:window-height="1016"
     id="namedview7"
     showgrid="false"
     showguides="true"
     inkscape:zoom="0.56554732"
     inkscape:cx="267.30675"
     inkscape:cy="64.925539"
     inkscape:window-x="0"
     inkscape:window-y="0"
     inkscape:window-maximized="1"
     inkscape:current-layer="g957"
     inkscape:guide-bbox="true"
     inkscape:document-rotation="0" />
  <title
     id="title2">timetable</title>
  <g
     id="g957"
     transform="rotate(-30,69.22085,-2.1082694)">
    <g
       id="g902"
       transform="translate(0,-15)">
      <rect
         style="fill:#000080;stroke:none;stroke-width:4.77654;stroke-linecap:round;stroke-linejoin:round;stroke-opacity:1"
         id="rect854"
         width="60"
         height="15"
         x="0"
         y="15"
         ry="4.5789871" />
      <rect
         style="fill:#000080;stroke:none;stroke-width:4.77654;stroke-linecap:round;stroke-linejoin:round;stroke-opacity:1"
         id="rect854-3"
         width="60"
         height="15"
         x="0"
         y="105"
         ry="4.5789871" />
      <path
         style="fill:none;stroke:#000080;stroke-width:4;stroke-linecap:round;stroke-linejoin:round;stroke-miterlimit:4;stroke-dasharray:none;stroke-opacity:1"
         d="m 12.073691,30 c -0.866663,8.018693 -4.0397376,17.711313 0,25 3.048865,5.500907 12.951135,4.499093 16,10 0.807948,1.457737 0.807948,3.542263 0,5 -3.048865,5.500907 -12.951135,4.499093 -16,10 -4.0397376,7.288687 -0.633119,16.666667 0,25"
         id="path876"
         sodipodi:nodetypes="caaaac" />
      <path
         style="fill:none;stroke:#000080;stroke-width:4;stroke-linecap:round;stroke-linejoin:round;stroke-miterlimit:4;stroke-dasharray:none;stroke-opacity:1"
         d="m 50.649164,30 c 0.866663,8.018693 4.039738,17.711313 0,25 -3.048865,5.500907 -12.951135,4.499093 -16,10 -0.807948,1.457737 -0.807948,3.542263 0,5 3.048865,5.500907 12.951135,4.499093 16,10 4.039738,7.28869 0.633119,16.66667 0,25"
         id="path876-6"
         sodipodi:nodetypes="caaaac" />
    </g>
    <path
       style="fill:#ff6600;fill-opacity:1;stroke:none;stroke-width:1px;stroke-linecap:butt;stroke-linejoin:miter;stroke-opacity:1"
       d="m 12.110931,32.714697 36.523813,6.693879 c 0,0 0.536891,0.07135 -2.19627,1.915426 -2.735827,1.84588 -6.450499,2.336651 -9.183688,3.699742 -1.609576,0.802724 -2.568786,1.75384 -4.042887,3.57365 -0.971068,1.198804 -1.766844,4.277758 -1.766844,4.277758 -1.296928,-2.814047 -1.392101,-4.509321 -3.965921,-6.380656 -2.310008,-1.679526 -9.851029,-2.882431 -13.016635,-6.570463 -1.64635,-1.918049 -2.130672,-4.334806 -2.351568,-7.209336 z"
       id="path904"
       sodipodi:nodetypes="ccssscssc" />
    <path
       style="fill:#ff6600;fill-opacity:1;stroke:none;stroke-width:0.964099px;stroke-linecap:butt;stroke-linejoin:miter;stroke-opacity:1"
       d="m 48.724487,90.151295 -34.513813,0.04368 c 0,0 -0.502784,0.02724 1.684517,-2.282105 2.189431,-2.311603 5.502106,-3.468178 7.770542,-5.304525 1.335882,-1.081425 2.935967,-1.552506 3.9765,-3.60956 0.685457,-1.355087 2.339586,-4.036481 2.339586,-4.036481 1.660018,2.532045 2.032895,4.181917 4.701097,5.555232 2.394717,1.232551 7.010973,2.775967 10.526462,5.828461 1.828311,1.58752 2.828449,1.018551 3.515102,3.805294 z"
       id="path904-3"
       sodipodi:nodetypes="ccssscsscc" />
  </g>
</svg>
