<svg xmlns="http://www.w3.org/2000/svg" viewBox="0 0 128 128">
  <g transform="translate(.5 .5)">
    <circle cx="24.9" cy="12.25" r="11" fill="#ffb380" stroke="#1a1a1a" stroke-linecap="round" stroke-linejoin="round"/>
    <circle cx="23.9" cy="96.25" r="8" fill="#a80" stroke="#1a1a1a" stroke-linecap="round" stroke-linejoin="round"/>
    <circle cx="65.65" cy="96.25" r="8" fill="#502d16" stroke="#1a1a1a" stroke-linecap="round" stroke-linejoin="round"/>
    <circle cx="106.9" cy="96.25" r="8" fill="#803300" stroke="#1a1a1a" stroke-linecap="round" stroke-linejoin="round"/>
    <path fill="navy" stroke="#000" stroke-linecap="round" stroke-linejoin="round" d="M12.4 61.75h24.5v41h-1.5c1.052-2.922 1.532-10.459-.962-14.68-1.517-2.568-3.988-4.679-7.538-4.82v-12.5c-1.89-1.416-3.568-1.491-5 0v12.5c-3.302.017-9.551 2.608-9.5 7.5z"/>
    <path fill="#f60" stroke="#000" stroke-linejoin="round" d="M36.822 60.75H12.38V36.233c-.32-1.194-.21-1.159-3.269-1.159V72.75A4.29 4.29 0 0 1 5 77.113c-2.113.06-4.601-2.227-4.6-4.363v-35c0-2.235.7-5.936 2.514-8.107 1.803-2.159 5.832-3.893 7.486-3.893h9.827l2.173 3.5-2.5 4.5 3.5 16h2.5l3-16-2.5-4.5 1.5-3.5h9.263c6.64 0 11.063 5.284 11.063 8.204l.125 12.549s1.842-.357 2.69-.74c3.528-1.59 9.721-6.352 9.721-6.352 1.173-.677 3.487.185 4.42 1.42 1.004 1.326 1.125 4.038.176 4.987L46.306 57.81c-1.431.486-3.447.575-4.767-.316-.755-.51-1.158-1.769-1.189-2.464V34.605c-1.382 0-3.807-.684-3.516 1.231z"/>
    <path fill="#f60" stroke="#000" stroke-linecap="round" stroke-linejoin="round" d="M4.4 125.75h6v-10.5c1.63-.046 4.013.304 4 2.5v8h19.5v-8c0-2.291 2.041-2.5 4-2.5v10.5h14v-10.5c2.282 0 4 .346 4 2.059v8.441h19.5v-10.5c2.162 0 4 .296 4 2.5v8h14v-8c0-1.846 1.96-2.5 4-2.5v10.5h19.5v-10.5c1.715 0 4 1.067 4 2.5v8h6v-9c0-2.33-.759-3.995-2-5.5-1.237-1.5-3.066-3-5-3H94.4c-1.858 0-3.386 1.582-4.5 3-1.205 1.534-2 3.585-2 5.5 0 0-.143 1-1.5 1s-1.5-1-1.5-1c0-1.361-.795-3.966-2-5.5-1.114-1.418-3.01-3-4.5-3H52.9c-1.474 0-3.387 1.582-4.5 3-1.205 1.534-2 3.823-2 5.5 0 0-.096 1-1.5 1s-1.5-1-1.5-1c0-1.208-.795-3.966-2-5.5-1.114-1.418-2.954-3-4.5-3H11.4c-1.861 0-3.763 1.5-5 3-1.241 1.505-2 3.496-2 5.5Z"/>
    <g transform="translate(-.6 .75)">
      <path fill="#7e4d07" stroke="#000" stroke-linecap="round" stroke-width="3" d="m66.414 28.029-4.897-4.897m0 4.897 4.897-4.897m39.697 1.552-4.897-4.897m0 4.897 4.897-4.897"/>
      <circle cx="100.026" cy="39.15" r="3.5"/>
      <path fill="none" stroke="#000" stroke-linecap="round" stroke-linejoin="round" stroke-width="3" d="M71.43 26.373c5.983.715 9.674 5.084 11.857 11.858 2.023 5.541 2.854 11.982 14.565 10.2"/>
      <path d="M51.5 26.45v-15.2h65V58.5H57.43c-4.915 3.636-5.826 3.49-7.43 4h66.5c2.366 0 4-1.835 4-4V11.25c0-2.084-2.15-4-4.685-4H51.449c-2.716 0-3.949 2.206-3.949 4v9.906c3.078 2.256 3.337 3.718 4 5.293z"/>
    </g>
  </g>
</svg>
