<svg xmlns="http://www.w3.org/2000/svg" xml:space="preserve" viewBox="0 0 128 128"><path fill="#ececec" d="M25 37.5v81c0 2.587 1.402 4 4 4h70c2.51 0 4-1.702 4-4v-81c0-2.688-1.524-4-4-4H29c-2.385 0-4 1.497-4 4z"/><text xml:space="preserve" x="43.136" y="62.369" font-family="sans-serif" font-size="4" font-weight="400" letter-spacing="0" style="line-height:1.25;white-space:pre;inline-size:59.9132" transform="translate(-6.16 -11.83)" word-spacing="0"><tspan x="43.136" y="62.369"><tspan style="-inkscape-font-specification:sans-serif">Aliquam tincidunt mauris eu </tspan></tspan><tspan x="43.136" y="67.369"><tspan style="-inkscape-font-specification:sans-serif">risus.</tspan></tspan></text><text xml:space="preserve" x="36.978" y="63.539" font-family="sans-serif" font-size="4" letter-spacing="0" style="line-height:1.25" word-spacing="0"><tspan x="36.978" y="63.539">Vestibulum auctor dapibus</tspan><tspan x="36.978" y="68.539">neque.</tspan></text><text xml:space="preserve" x="36.978" y="76.539" font-family="sans-serif" font-size="4" letter-spacing="0" style="line-height:1.25" word-spacing="0"><tspan x="36.978" y="76.539">Nunc dignissim risus id metus.</tspan></text><text xml:space="preserve" x="36.978" y="86.539" font-family="sans-serif" font-size="4" letter-spacing="0" style="line-height:1.25" word-spacing="0"><tspan x="36.978" y="86.539">Cras ornare tristique elit.</tspan></text><text xml:space="preserve" x="36.978" y="95.039" font-family="sans-serif" font-size="4" letter-spacing="0" style="line-height:1.25;white-space:pre;inline-size:64.3061" transform="translate(0 1.5)" word-spacing="0"><tspan x="36.978" y="95.039"><tspan>Vivamus vestibulum ntulla nec </tspan></tspan><tspan x="36.978" y="100.039"><tspan>ante.</tspan></tspan></text><text xml:space="preserve" x="36.784" y="108.039" font-family="sans-serif" font-size="4" letter-spacing="0" style="line-height:1.25;white-space:pre;inline-size:62.2875" transform="translate(0 1.5)" word-spacing="0"><tspan x="36.784" y="108.039"><tspan>Praesent placerat risus quis </tspan></tspan><tspan x="36.784" y="113.039"><tspan>eros.</tspan></tspan></text><circle cx="33.12" cy="49.167" r="1.167" fill="navy"/><circle cx="33.12" cy="62.167" r="1.167" fill="navy"/><circle cx="33.12" cy="75.167" r="1.167" fill="navy"/><circle cx="33.12" cy="85.167" r="1.167" fill="navy"/><circle cx="33.12" cy="95.167" r="1.167" fill="navy"/><circle cx="33.12" cy="108.167" r="1.167" fill="navy"/><text xml:space="preserve" x="43.136" y="62.369" font-family="sans-serif" font-size="4" font-weight="400" letter-spacing="0" style="line-height:1.25;white-space:pre;inline-size:59.9132" transform="translate(-6.16 -21.83)" word-spacing="0"><tspan x="43.136" y="62.369"><tspan>Lorem ipsum dolor</tspan></tspan></text><circle cx="33.12" cy="39.167" r="1.167" fill="navy"/><g transform="translate(2 2)"><circle cx="30" cy="30" r="30" fill="navy"/><path fill="#fe9e14" d="M57.5 30C57.5 14.837 45.163 2.5 30 2.5S2.5 14.837 2.5 30c0 8.009 3.444 15.228 8.926 20.258l-.026.023.892.752c.058.049.121.089.179.137.474.393.965.766 1.465 1.127.162.117.324.234.489.348.534.368 1.082.717 1.642 1.048.122.072.245.142.368.212a27.44 27.44 0 0 0 1.88.98l.142.064a27.252 27.252 0 0 0 6.651 2.105l.184.033c.724.125 1.456.225 2.197.292.09.008.18.013.271.021.738.061 1.484.1 2.24.1.749 0 1.488-.039 2.222-.098l.279-.021a27.808 27.808 0 0 0 2.178-.287l.187-.034a27.251 27.251 0 0 0 6.557-2.055c.076-.035.153-.068.229-.104a27.639 27.639 0 0 0 2.25-1.189 27.514 27.514 0 0 0 1.581-1c.185-.126.366-.259.549-.391.439-.316.87-.642 1.289-.983.093-.075.193-.14.284-.217l.915-.764-.027-.023C54.023 45.302 57.5 38.05 57.5 30zm-53 0C4.5 15.939 15.939 4.5 30 4.5S55.5 15.939 55.5 30c0 7.577-3.325 14.389-8.589 19.063a7.494 7.494 0 0 0-.893-.537l-8.467-4.233a2.217 2.217 0 0 1-1.232-1.993v-2.957c.196-.242.403-.516.617-.817a20.378 20.378 0 0 0 2.616-5.123 3.63 3.63 0 0 0 2.085-3.289v-3.545c0-.867-.318-1.708-.887-2.369v-4.667c.052-.519.236-3.448-1.883-5.864C37.024 11.565 34.041 10.5 30 10.5c-4.041 0-7.024 1.065-8.867 3.168-2.119 2.416-1.935 5.345-1.883 5.864v4.667a3.644 3.644 0 0 0-.887 2.369v3.545c0 1.101.494 2.128 1.34 2.821.81 3.173 2.477 5.575 3.093 6.389v2.894a2.23 2.23 0 0 1-1.162 1.958l-7.907 4.313a7.227 7.227 0 0 0-.752.476C7.776 44.292 4.5 37.522 4.5 30zm40.459 20.632c-.35.254-.706.5-1.067.735-.166.108-.331.216-.5.321-.472.292-.952.57-1.442.83-.108.057-.217.111-.326.167a25.481 25.481 0 0 1-3.488 1.476l-.127.043c-.627.208-1.262.393-1.904.552l-.006.001a25.59 25.59 0 0 1-1.964.402l-.054.01c-.621.101-1.247.174-1.875.229-.111.01-.222.017-.334.025-.621.047-1.245.077-1.872.077a25.43 25.43 0 0 1-1.895-.078c-.109-.008-.218-.015-.326-.025a25.862 25.862 0 0 1-1.89-.233l-.084-.015a25.405 25.405 0 0 1-3.89-.971l-.118-.04a25.86 25.86 0 0 1-1.862-.713l-.013-.006a26.094 26.094 0 0 1-1.705-.816c-.073-.038-.147-.074-.219-.113a25.7 25.7 0 0 1-1.939-1.155 25.417 25.417 0 0 1-1.338-.933l-.133-.104.096-.054 7.907-4.313a4.229 4.229 0 0 0 2.205-3.714l-.001-3.602-.23-.278c-.022-.025-2.184-2.655-3.001-6.216l-.091-.396-.341-.221a1.657 1.657 0 0 1-.769-1.392v-3.545c0-.465.197-.898.557-1.223l.33-.298v-5.57l-.009-.131c-.003-.024-.298-2.429 1.396-4.36C24.083 13.337 26.561 12.5 30 12.5c3.426 0 5.896.83 7.346 2.466 1.692 1.911 1.415 4.361 1.413 4.381l-.009 5.701.33.298c.359.324.557.758.557 1.223v3.545a1.67 1.67 0 0 1-1.181 1.575l-.497.153-.16.495a18.5 18.5 0 0 1-2.496 5.032c-.262.37-.517.698-.736.949l-.248.283V42.3c0 1.612.896 3.062 2.338 3.782l8.467 4.233.16.083c-.107.081-.217.156-.325.234z"/><circle cx="100" cy="100" r="24" fill="maroon"/></g><path fill="none" stroke="#000" stroke-linecap="round" stroke-linejoin="round" stroke-width="4" d="M70 32h27.432c3.708 0 6.98 3.419 6.98 8v32M78 124H30.49c-3.708 0-6.98-3.419-6.98-8V72"/></svg>