<?xml version="1.0" encoding="UTF-8" standalone="no"?>
<svg
   xmlns:dc="http://purl.org/dc/elements/1.1/"
   xmlns:cc="http://creativecommons.org/ns#"
   xmlns:rdf="http://www.w3.org/1999/02/22-rdf-syntax-ns#"
   xmlns:svg="http://www.w3.org/2000/svg"
   xmlns="http://www.w3.org/2000/svg"
   xmlns:sodipodi="http://sodipodi.sourceforge.net/DTD/sodipodi-0.dtd"
   xmlns:inkscape="http://www.inkscape.org/namespaces/inkscape"
   version="1.1"
   id="Layer_1"
   x="0px"
   y="0px"
   viewBox="0 0 128 128"
   xml:space="preserve"
   sodipodi:docname="user_actions.svg"
   width="128"
   height="128"
   inkscape:version="1.0.2 (e86c870879, 2021-01-15)"><metadata
   id="metadata49"><rdf:RDF><cc:Work
       rdf:about=""><dc:format>image/svg+xml</dc:format><dc:type
         rdf:resource="http://purl.org/dc/dcmitype/StillImage" /><dc:title /></cc:Work></rdf:RDF></metadata><defs
   id="defs47" /><sodipodi:namedview
   pagecolor="#ffffff"
   bordercolor="#666666"
   borderopacity="1"
   objecttolerance="10"
   gridtolerance="10"
   guidetolerance="10"
   inkscape:pageopacity="0"
   inkscape:pageshadow="2"
   inkscape:window-width="1920"
   inkscape:window-height="1016"
   id="namedview45"
   showgrid="false"
   inkscape:zoom="4.5243785"
   inkscape:cx="53.208202"
   inkscape:cy="58.05665"
   inkscape:window-x="0"
   inkscape:window-y="36"
   inkscape:window-maximized="1"
   inkscape:current-layer="Layer_1"
   inkscape:document-rotation="0" />




<path
   style="fill:#ececec;fill-opacity:1;stroke:none;stroke-width:1px;stroke-linecap:round;stroke-linejoin:round;stroke-opacity:1"
   d="m 24.999798,37.5 3.97e-4,81 c 0,2.58655 1.40222,4 3.999805,4 h 70 c 2.5105,0 4,-1.70234 4,-4 v -81 c 0,-2.687676 -1.5235,-4 -4,-4 H 29 c -2.384827,0 -4.000214,1.497124 -4.000202,4 z"
   id="path1121"
   sodipodi:nodetypes="ccccccccc" /><text
   xml:space="preserve"
   style="font-style:normal;font-weight:normal;font-size:4px;line-height:1.25;font-family:sans-serif;letter-spacing:0px;word-spacing:0px;white-space:pre;inline-size:59.9132;fill:#000000;fill-opacity:1;stroke:none"
   x="43.136318"
   y="62.369263"
   id="text1193-5-3"
   transform="translate(-6.1592864,-11.8302)"><tspan
     x="43.136318"
     y="62.369263"><tspan
       style="font-style:normal;font-variant:normal;font-weight:normal;font-stretch:normal;font-size:4px;font-family:sans-serif;-inkscape-font-specification:sans-serif;stroke:none">Aliquam tincidunt mauris eu </tspan></tspan><tspan
     x="43.136318"
     y="67.369263"><tspan
       style="font-style:normal;font-variant:normal;font-weight:normal;font-stretch:normal;font-size:4px;font-family:sans-serif;-inkscape-font-specification:sans-serif;stroke:none">risus.</tspan></tspan></text><text
   xml:space="preserve"
   style="font-size:4px;line-height:1.25;font-family:sans-serif;letter-spacing:0px;word-spacing:0px;stroke:none"
   x="36.977749"
   y="63.539059"
   id="text1279"><tspan
     sodipodi:role="line"
     id="tspan1277"
     x="36.977749"
     y="63.539059"
     style="font-size:4px;stroke:none">Vestibulum auctor dapibus</tspan><tspan
     sodipodi:role="line"
     x="36.977749"
     y="68.539062"
     style="font-size:4px;stroke:none"
     id="tspan1463">neque.</tspan></text><text
   xml:space="preserve"
   style="font-size:4px;line-height:1.25;font-family:sans-serif;letter-spacing:0px;word-spacing:0px;stroke:none"
   x="36.977753"
   y="76.539062"
   id="text1279-9"><tspan
     sodipodi:role="line"
     id="tspan1277-8"
     x="36.977753"
     y="76.539062"
     style="font-size:4px;stroke:none">Nunc dignissim risus id metus.</tspan></text><text
   xml:space="preserve"
   style="font-size:4px;line-height:1.25;font-family:sans-serif;letter-spacing:0px;word-spacing:0px;stroke:none"
   x="36.977753"
   y="86.539062"
   id="text1279-9-4"><tspan
     sodipodi:role="line"
     id="tspan1277-8-8"
     x="36.977753"
     y="86.539062"
     style="font-size:4px;stroke:none">Cras ornare tristique elit.</tspan></text><text
   xml:space="preserve"
   style="font-size:4px;line-height:1.25;font-family:sans-serif;letter-spacing:0px;word-spacing:0px;white-space:pre;inline-size:64.3061;stroke:none"
   x="36.977749"
   y="95.039062"
   id="text1279-9-4-1"
   transform="translate(0,1.5)"><tspan
     x="36.977749"
     y="95.039062"><tspan
       style="font-size:4px;stroke:none">Vivamus vestibulum ntulla nec </tspan></tspan><tspan
     x="36.977749"
     y="100.03906"><tspan
       style="font-size:4px;stroke:none">ante.</tspan></tspan></text><text
   xml:space="preserve"
   style="font-size:4px;line-height:1.25;font-family:sans-serif;letter-spacing:0px;word-spacing:0px;white-space:pre;inline-size:62.2875;stroke:none"
   x="36.784389"
   y="108.03906"
   id="text1279-9-4-1-3"
   transform="translate(0,1.5)"><tspan
     x="36.784389"
     y="108.03906"><tspan
       style="font-size:4px;stroke:none">Praesent placerat risus quis </tspan></tspan><tspan
     x="36.784389"
     y="113.03906"><tspan
       style="font-size:4px;stroke:none">eros.</tspan></tspan></text><ellipse
   style="fill:#000080;fill-opacity:1;stroke:none;stroke-width:1;stroke-linecap:round;stroke-linejoin:round;stroke-miterlimit:4;stroke-dasharray:none"
   id="path1187"
   cx="33.120197"
   cy="49.167336"
   rx="1.1673393"
   ry="1.1673392" /><ellipse
   style="fill:#000080;fill-opacity:1;stroke:none;stroke-width:1;stroke-linecap:round;stroke-linejoin:round;stroke-miterlimit:4;stroke-dasharray:none"
   id="path1187-5"
   cx="33.120342"
   cy="62.167339"
   rx="1.1673393"
   ry="1.1673392" /><ellipse
   style="fill:#000080;fill-opacity:1;stroke:none;stroke-width:1;stroke-linecap:round;stroke-linejoin:round;stroke-miterlimit:4;stroke-dasharray:none"
   id="path1187-6"
   cx="33.120342"
   cy="75.167336"
   rx="1.1673393"
   ry="1.1673392" /><ellipse
   style="fill:#000080;fill-opacity:1;stroke:none;stroke-width:1;stroke-linecap:round;stroke-linejoin:round;stroke-miterlimit:4;stroke-dasharray:none"
   id="path1187-5-1"
   cx="33.12048"
   cy="85.167336"
   rx="1.1673393"
   ry="1.1673392" /><ellipse
   style="fill:#000080;fill-opacity:1;stroke:none;stroke-width:1;stroke-linecap:round;stroke-linejoin:round;stroke-miterlimit:4;stroke-dasharray:none"
   id="path1187-6-4"
   cx="33.120342"
   cy="95.167336"
   rx="1.1673393"
   ry="1.1673392" /><ellipse
   style="fill:#000080;fill-opacity:1;stroke:none;stroke-width:1;stroke-linecap:round;stroke-linejoin:round;stroke-miterlimit:4;stroke-dasharray:none"
   id="path1187-5-1-4"
   cx="33.12048"
   cy="108.16734"
   rx="1.1673393"
   ry="1.1673392" /><text
   xml:space="preserve"
   style="font-style:normal;font-weight:normal;font-size:4px;line-height:1.25;font-family:sans-serif;letter-spacing:0px;word-spacing:0px;white-space:pre;inline-size:59.9132;fill:#000000;fill-opacity:1;stroke:none"
   x="43.136318"
   y="62.369263"
   id="text1193-5-3-7"
   transform="matrix(1.0000039,0,0,1.0000039,-6.1592924,-21.830432)"><tspan
     x="43.136318"
     y="62.369263"><tspan>Lorem ipsum dolor</tspan></tspan></text><ellipse
   style="fill:#000080;fill-opacity:1;stroke:none;stroke-width:1;stroke-linecap:round;stroke-linejoin:round;stroke-miterlimit:4;stroke-dasharray:none"
   id="path1187-4"
   cx="33.120342"
   cy="39.167343"
   rx="1.1673439"
   ry="1.1673437" /><g
   id="g14"
   transform="translate(0,-368)">
</g>
<g
   id="g16"
   transform="translate(0,-368)">
</g>
<g
   id="g18"
   transform="translate(0,-368)">
</g>
<g
   id="g20"
   transform="translate(0,-368)">
</g>
<g
   id="g22"
   transform="translate(0,-368)">
</g>
<g
   id="g24"
   transform="translate(0,-368)">
</g>
<g
   id="g26"
   transform="translate(0,-368)">
</g>
<g
   id="g28"
   transform="translate(0,-368)">
</g>
<g
   id="g30"
   transform="translate(0,-368)">
</g>
<g
   id="g32"
   transform="translate(0,-368)">
</g>
<g
   id="g34"
   transform="translate(0,-368)">
</g>
<g
   id="g36"
   transform="translate(0,-368)">
</g>
<g
   id="g38"
   transform="translate(0,-368)">
</g>
<g
   id="g40"
   transform="translate(0,-368)">
</g>
<g
   id="g42"
   transform="translate(0,-368)">
</g>


<path
   style="fill:none;stroke:#000000;stroke-width:4;stroke-linecap:round;stroke-linejoin:round;stroke-miterlimit:4;stroke-dasharray:none;stroke-opacity:1"
   d="M 70.302361,32 H 97 c 4.71884,0 7.41131,3.554982 7.41131,8 v 76 c 0,4.58127 -3.27168,8 -6.979181,8 L 32,124 c -5.110297,-0.0355 -9.092556,-1.73929 -8.988636,-6.25509 V 67.152157"
   id="path1952-1"
   sodipodi:nodetypes="ccccsccc" /><g
   id="g934"
   transform="translate(2,2)"><circle
     style="fill:#000080;stroke-width:4.16898;stroke-linecap:round;stroke-linejoin:round"
     id="path930"
     cx="30"
     cy="30"
     r="30" /><path
     d="M 57.499998,30 C 57.499998,14.837 45.162998,2.5 30,2.5 14.837,2.5 2.5,14.837 2.5,30 c 0,8.009 3.444,15.228 8.926,20.257998 l -0.026,0.023 0.892,0.752 c 0.058,0.049 0.121,0.089 0.179,0.137 0.474,0.393 0.965,0.766 1.465,1.127 0.162,0.117 0.324,0.234 0.489,0.348 0.534,0.368 1.082,0.717 1.642,1.048 0.122,0.072 0.245,0.142 0.368,0.212 0.613,0.349 1.239,0.678 1.88,0.98 0.047,0.022 0.095,0.042 0.142,0.064 2.089,0.971 4.319,1.684 6.651,2.105 0.061,0.011 0.122,0.022 0.184,0.033 0.724,0.125 1.456,0.225 2.197,0.292 0.09,0.008 0.18,0.013 0.271,0.021 0.738,0.061 1.484,0.1 2.24,0.1 0.749,0 1.488,-0.039 2.222,-0.098 0.093,-0.008 0.186,-0.013 0.279,-0.021 0.735,-0.067 1.461,-0.164 2.177998,-0.287 0.062,-0.011 0.125,-0.022 0.187,-0.034 2.297,-0.412 4.495,-1.109 6.557,-2.055 0.076,-0.035 0.153,-0.068 0.229,-0.104 0.617,-0.29 1.22,-0.603 1.811,-0.936 0.147,-0.083 0.293,-0.167 0.439,-0.253 0.538,-0.317 1.067,-0.648 1.581,-1 0.185,-0.126 0.366,-0.259 0.549,-0.391 0.439,-0.316 0.87,-0.642 1.289,-0.983 0.093,-0.075 0.193,-0.14 0.284,-0.217 l 0.915,-0.764 -0.027,-0.023 C 54.022998,45.302 57.499998,38.05 57.499998,30 Z M 4.5,30 C 4.5,15.939 15.939,4.5 30,4.5 c 14.060998,0 25.499998,11.439 25.499998,25.5 0,7.577 -3.325,14.389 -8.589,19.062998 -0.294,-0.203 -0.59,-0.385 -0.893,-0.537 l -8.467,-4.232998 c -0.76,-0.38 -1.232,-1.144 -1.232,-1.993 v -2.957 c 0.196,-0.242 0.403,-0.516 0.617,-0.817 1.096,-1.548 1.975,-3.27 2.616,-5.123 1.267,-0.602 2.085,-1.864 2.085,-3.289 v -3.545 c 0,-0.867 -0.318,-1.708 -0.887,-2.369 v -4.667 c 0.052,-0.519 0.236,-3.448 -1.883,-5.864 C 37.023998,11.565 34.041,10.5 30,10.5 c -4.041,0 -7.024,1.065 -8.867,3.168 -2.119,2.416 -1.935,5.345 -1.883,5.864 v 4.667 c -0.568,0.661 -0.887,1.502 -0.887,2.369 v 3.545 c 0,1.101 0.494,2.128 1.34,2.821 0.81,3.173 2.477,5.575 3.093,6.389 v 2.894 c 0,0.816 -0.445,1.566 -1.162,1.958 l -7.907,4.312998 c -0.252,0.137 -0.502,0.297 -0.752,0.476 C 7.776,44.292 4.5,37.522 4.5,30 Z m 40.458998,20.631998 c -0.35,0.254 -0.706,0.5 -1.067,0.735 -0.166,0.108 -0.331,0.216 -0.5,0.321 -0.472,0.292 -0.952,0.57 -1.442,0.83 -0.108,0.057 -0.217,0.111 -0.326,0.167 -1.126,0.577 -2.291,1.073 -3.488,1.476 -0.042,0.014 -0.084,0.029 -0.127,0.043 -0.627,0.208 -1.262,0.393 -1.904,0.552 -0.002,0 -0.004,0.001 -0.006,0.001 -0.648,0.16 -1.304,0.293 -1.963998,0.402 -0.018,0.003 -0.036,0.007 -0.054,0.01 -0.621,0.101 -1.247,0.174 -1.875,0.229 -0.111,0.01 -0.222,0.017 -0.334,0.025 -0.621,0.047 -1.245,0.077 -1.872,0.077 -0.634,0 -1.266,-0.031 -1.895,-0.078 -0.109,-0.008 -0.218,-0.015 -0.326,-0.025 -0.634,-0.056 -1.265,-0.131 -1.89,-0.233 -0.028,-0.005 -0.056,-0.01 -0.084,-0.015 -1.322,-0.221 -2.623,-0.546 -3.89,-0.971 -0.039,-0.013 -0.079,-0.027 -0.118,-0.04 -0.629,-0.214 -1.251,-0.451 -1.862,-0.713 -0.004,-0.002 -0.009,-0.004 -0.013,-0.006 -0.578,-0.249 -1.145,-0.525 -1.705,-0.816 -0.073,-0.038 -0.147,-0.074 -0.219,-0.113 -0.511,-0.273 -1.011,-0.568 -1.504,-0.876 -0.146,-0.092 -0.291,-0.185 -0.435,-0.279 -0.454,-0.297 -0.902,-0.606 -1.338,-0.933 -0.045,-0.034 -0.088,-0.07 -0.133,-0.104 0.032,-0.018 0.064,-0.036 0.096,-0.054 L 22.591,45.931 c 1.36,-0.742 2.205,-2.165 2.205,-3.714 l -10e-4,-3.602 -0.23,-0.278 c -0.022,-0.025 -2.184,-2.655 -3.001,-6.216 l -0.091,-0.396 -0.341,-0.221 c -0.481,-0.311 -0.769,-0.831 -0.769,-1.392 v -3.545 c 0,-0.465 0.197,-0.898 0.557,-1.223 l 0.33,-0.298 v -5.57 L 21.241,19.345 C 21.238,19.321 20.943,16.916 22.637,14.985 24.083,13.337 26.561,12.5 30,12.5 c 3.426,0 5.895998,0.83 7.345998,2.466 1.692,1.911 1.415,4.361 1.413,4.381 l -0.009,5.701 0.33,0.298 c 0.359,0.324 0.557,0.758 0.557,1.223 v 3.545 c 0,0.713 -0.485,1.36 -1.181,1.575 l -0.497,0.153 -0.16,0.495 c -0.59,1.833 -1.43,3.526 -2.496,5.032 -0.262,0.37 -0.517,0.698 -0.736,0.949 l -0.248,0.283 V 42.3 c 0,1.612 0.896,3.062 2.338,3.782 l 8.467,4.232998 c 0.054,0.027 0.107,0.055 0.16,0.083 -0.107,0.081 -0.217,0.156 -0.325,0.234 z"
     id="path2"
     style="fill:#fe9e14;fill-opacity:1;stroke:none;stroke-opacity:1" /></g></svg>
