<svg xml:space="preserve" width="128" height="128" xmlns="http://www.w3.org/2000/svg"><path fill="#fe9e14" d="M124 64c0-33.083-26.917-60-60-60S4 30.917 4 64c0 17.474 7.514 33.225 19.475 44.2l-.057.05 1.946 1.64c.127.107.264.194.39.3a60.298 60.298 0 0 0 3.197 2.458c.354.255.707.51 1.067.76a61.097 61.097 0 0 0 3.583 2.286c.266.157.534.31.803.462a59.869 59.869 0 0 0 4.101 2.139l.31.14a59.46 59.46 0 0 0 14.512 4.592l.401.072c1.58.273 3.177.49 4.793.637.197.017.393.028.592.046 1.61.133 3.238.218 4.887.218 1.634 0 3.247-.085 4.848-.214l.609-.046a60.674 60.674 0 0 0 4.752-.626l.408-.074a59.457 59.457 0 0 0 14.306-4.484c.166-.076.334-.148.5-.227a60.302 60.302 0 0 0 4.909-2.594 60.03 60.03 0 0 0 3.45-2.182c.403-.274.798-.565 1.197-.853a59.72 59.72 0 0 0 2.812-2.144c.203-.164.421-.306.62-.474l1.996-1.667-.059-.05C116.414 97.386 124 81.564 124 64zM14 64c.876-34.58 26.43-50 50-50s49.615 16.661 50 50c.168 14.535-5.911 25.985-13.103 38.443a16.35 16.35 0 0 0-1.949-1.172l-18.473-6.086a4.837 4.837 0 0 1-2.688-4.349v-6.451c.428-.528.88-1.126 1.346-1.783a44.461 44.461 0 0 0 5.708-11.177 7.92 7.92 0 0 0 4.549-7.176v-7.735a7.938 7.938 0 0 0-1.935-5.169V41.163c.113-1.132.514-7.523-4.109-12.794-4.02-4.59-10.53-6.914-19.346-6.914-8.817 0-15.325 2.323-19.346 6.912-4.623 5.27-4.222 11.661-4.109 12.794v10.183a7.95 7.95 0 0 0-1.935 5.168v7.735a7.937 7.937 0 0 0 2.924 6.154c1.767 6.923 5.404 12.164 6.748 13.94v6.314c0 1.78-.972 3.42-2.535 4.272l-17.252 6.41c-.567.313-1.115.66-1.64 1.04C19.554 89.73 13.635 78.436 14 64zm80.31 43.619c-.362.235-.722.471-1.091.7a54.854 54.854 0 0 1-3.146 1.81c-.236.125-.474.243-.712.365a55.594 55.594 0 0 1-7.61 3.22l-.277.094a55.806 55.806 0 0 1-4.154 1.205l-.013.002c-1.416.348-2.846.64-4.285.877l-.118.022c-1.355.22-2.72.38-4.09.5-.243.022-.485.037-.73.055a54.092 54.092 0 0 1-4.084.168 55.345 55.345 0 0 1-4.135-.17c-.237-.018-.475-.033-.71-.055a56.427 56.427 0 0 1-4.124-.51l-.184-.032a55.43 55.43 0 0 1-8.487-2.118l-.257-.088a56.414 56.414 0 0 1-4.063-1.555l-.028-.013a56.929 56.929 0 0 1-3.72-1.78c-.16-.084-.321-.162-.478-.247a56.073 56.073 0 0 1-4.23-2.52 55.453 55.453 0 0 1-2.92-2.036l-.29-.227.21-.118 20.251-6.41a9.227 9.227 0 0 0 4.811-8.103l-.002-7.859-.502-.606c-.048-.055-4.765-5.793-6.548-13.563l-.198-.864-.744-.482a3.615 3.615 0 0 1-1.678-3.037V56.51c0-1.015.43-1.96 1.215-2.668l.72-.65V41.037l-.02-.286c-.006-.052-.65-4.3 3.046-8.512 3.155-3.596 5.562-4.422 13.065-4.422 7.475 0 9.864.81 13.028 4.38 3.692 4.17 3.087 8.515 3.083 8.559l-.02 12.438.72.65c.783.707 1.215 1.654 1.215 2.669v7.734a3.644 3.644 0 0 1-2.576 3.437l-1.085.334-.349 1.08a40.364 40.364 0 0 1-5.446 10.979 26.795 26.795 0 0 1-1.605 2.07l-.541.618v8.07a9.173 9.173 0 0 0 5.1 8.252l21.474 6.235.349.181c-.838.891-1.734 1.294-3.037 2.115z" style="stroke-width:2.18182;fill:maroon"/></svg>