<?xml version="1.0" encoding="UTF-8" standalone="no"?>
<svg
   version="1.1"
   id="Layer_1"
   x="0px"
   y="0px"
   viewBox="0 0 128 128"
   xml:space="preserve"
   sodipodi:docname="website.svg"
   width="128"
   height="128"
   inkscape:version="1.2.2 (b0a8486541, 2022-12-01)"
   xmlns:inkscape="http://www.inkscape.org/namespaces/inkscape"
   xmlns:sodipodi="http://sodipodi.sourceforge.net/DTD/sodipodi-0.dtd"
   xmlns="http://www.w3.org/2000/svg"
   xmlns:svg="http://www.w3.org/2000/svg"><defs
     id="defs9" /><sodipodi:namedview
     id="namedview7"
     pagecolor="#ffffff"
     bordercolor="#000000"
     borderopacity="0.25"
     inkscape:showpageshadow="2"
     inkscape:pageopacity="0.0"
     inkscape:pagecheckerboard="0"
     inkscape:deskcolor="#d1d1d1"
     showgrid="false"
     inkscape:zoom="5.1440439"
     inkscape:cx="47.627899"
     inkscape:cy="59.875073"
     inkscape:window-width="1920"
     inkscape:window-height="1011"
     inkscape:window-x="0"
     inkscape:window-y="32"
     inkscape:window-maximized="1"
     inkscape:current-layer="Layer_1" /><g
     id="g4"
     transform="matrix(1.0090248,0,0,1.0090263,2,5.8145)"><path
       d="m 76.98,97.89 c -3.62,4.01 -7.79,7.99 -12.51,11.94 1.28,-0.17 2.56,-0.38 3.81,-0.62 3.42,-0.69 6.71,-1.7 9.89,-3.08 0.82,-0.35 1.62,-0.72 2.41,-1.1 0.59,0.76 1.25,1.42 1.96,1.98 0.77,0.61 1.59,1.09 2.45,1.45 -1.58,0.85 -3.2,1.62 -4.86,2.34 -3.53,1.52 -7.16,2.63 -10.9,3.39 -3.74,0.76 -7.61,1.14 -11.59,1.14 -3.98,0 -7.82,-0.38 -11.59,-1.14 -3.7,-0.73 -7.26,-1.83 -10.76,-3.32 -0.03,0 -0.1,-0.03 -0.14,-0.07 -3.46,-1.49 -6.75,-3.29 -9.82,-5.33 -3.08,-2.04 -5.92,-4.39 -8.51,-6.99 C 14.19,95.89 11.87,93.05 9.83,89.97 7.75,86.89 5.99,83.6 4.5,80.15 2.98,76.62 1.87,72.99 1.11,69.25 0.38,65.52 0,61.64 0,57.66 0,53.68 0.38,49.84 1.14,46.07 c 0.73,-3.7 1.83,-7.26 3.32,-10.76 0,-0.03 0.03,-0.1 0.07,-0.14 1.49,-3.49 3.29,-6.75 5.33,-9.82 2.04,-3.08 4.39,-5.92 6.99,-8.51 2.59,-2.63 5.43,-4.95 8.51,-6.99 C 28.44,7.77 31.72,6.01 35.18,4.52 38.71,3 42.34,1.89 46.08,1.13 49.81,0.38 53.69,0 57.66,0 c 3.98,0 7.82,0.38 11.59,1.14 3.7,0.73 7.26,1.83 10.76,3.32 0.03,0 0.1,0.03 0.14,0.07 3.46,1.49 6.75,3.29 9.82,5.33 3.08,2.04 5.92,4.39 8.51,6.99 2.63,2.59 4.95,5.43 6.99,8.51 2.08,3.08 3.84,6.37 5.33,9.82 1.52,3.53 2.63,7.16 3.39,10.9 0.43,2.12 0.74,4.28 0.93,6.48 l -5.23,-1.39 c -0.16,-1.38 -0.37,-2.74 -0.64,-4.09 -0.69,-3.42 -1.7,-6.71 -3.08,-9.89 -0.86,-2.04 -1.83,-3.98 -2.91,-5.85 v 0 H 86.38 c 3,5.13 5.16,10.23 6.47,15.32 L 87.17,45.15 C 85.69,40.59 83.46,35.99 80.46,31.34 H 60.19 v 9.39 c -0.36,0.21 -0.72,0.46 -1.07,0.74 v 0 c -0.28,0.22 -0.55,0.46 -0.8,0.71 -0.34,0.35 -0.66,0.72 -0.93,1.12 -0.44,0.64 -0.79,1.35 -1.06,2.11 -0.27,0.77 -0.43,1.54 -0.49,2.29 -0.05,0.64 -0.03,1.3 0.07,1.95 0.08,0.54 0.2,1.07 0.38,1.59 l 0.05,0.14 c 0.04,0.11 0.08,0.22 0.12,0.32 0.06,0.17 0.11,0.27 0.13,0.32 l 0.02,-0.01 3.63,8.17 h -0.06 v 23.8 H 70.8 l 2.24,5.05 H 60.19 v 17.78 c 5.65,-4.64 10.5,-9.32 14.54,-14.01 z m 38.16,0.08 c -0.34,0.34 -0.74,0.6 -1.16,0.79 -0.44,0.2 -0.91,0.32 -1.38,0.36 -0.51,0.04 -1.03,-0.01 -1.53,-0.17 -0.48,-0.15 -0.94,-0.4 -1.35,-0.74 L 98.63,88.8 94.82,98.15 c -0.32,0.78 -0.7,1.5 -1.13,2.15 -0.44,0.66 -0.93,1.23 -1.44,1.68 -0.41,0.36 -0.86,0.67 -1.33,0.9 -0.47,0.23 -0.95,0.38 -1.45,0.45 -0.58,0.08 -1.16,0.04 -1.72,-0.12 -0.54,-0.16 -1.06,-0.42 -1.56,-0.81 -0.4,-0.31 -0.77,-0.71 -1.12,-1.19 -0.32,-0.44 -0.61,-0.96 -0.88,-1.56 C 76.97,83.38 68.36,65.87 61.92,49.49 c -0.08,-0.22 -0.14,-0.44 -0.17,-0.67 -0.03,-0.23 -0.04,-0.46 -0.02,-0.69 0.02,-0.27 0.08,-0.53 0.17,-0.79 0.09,-0.25 0.21,-0.5 0.36,-0.72 0.08,-0.11 0.16,-0.22 0.26,-0.31 0.08,-0.08 0.17,-0.16 0.27,-0.23 0.18,-0.14 0.37,-0.26 0.57,-0.36 l 0.05,-0.02 c 0.19,-0.09 0.39,-0.16 0.58,-0.2 l 0.09,-0.02 c 0.18,-0.04 0.36,-0.06 0.54,-0.07 0.21,-0.01 0.41,0.01 0.61,0.04 0.07,0.01 0.14,0.02 0.21,0.03 17.64,4.38 35.38,9.38 52.98,14.05 0.63,0.17 1.19,0.38 1.68,0.62 0.53,0.27 0.98,0.57 1.35,0.91 0.46,0.42 0.81,0.9 1.05,1.41 0.25,0.53 0.38,1.1 0.39,1.69 v 0.01 c 0.01,0.5 -0.06,1 -0.21,1.5 -0.15,0.5 -0.38,0.98 -0.68,1.45 -0.37,0.58 -0.85,1.16 -1.43,1.69 -0.56,0.52 -1.22,1.01 -1.95,1.46 -2.89,1.7 -5.77,3.5 -8.64,5.24 l 11.05,9.47 c 0.4,0.35 0.72,0.76 0.94,1.21 l 0.03,0.08 c 0.21,0.45 0.34,0.92 0.38,1.41 0.04,0.49 -0.01,1 -0.16,1.5 -0.14,0.47 -0.37,0.93 -0.69,1.34 -1.69,2.08 -4.52,5.72 -6.39,7.45 z m -2.9,-3.63 5.35,-6.28 -13,-11.14 -0.07,-0.07 c -0.06,-0.06 -0.13,-0.13 -0.18,-0.19 -0.08,-0.09 -0.15,-0.19 -0.21,-0.3 -0.33,-0.54 -0.4,-1.16 -0.26,-1.73 0.14,-0.57 0.5,-1.09 1.04,-1.41 3.76,-2.07 7.64,-4.66 11.35,-6.89 0.43,-0.26 0.81,-0.55 1.13,-0.84 0.3,-0.28 0.55,-0.56 0.72,-0.83 0.07,-0.11 0.12,-0.2 0.15,-0.29 -0.08,-0.06 -0.17,-0.11 -0.3,-0.17 -0.19,-0.09 -0.44,-0.17 -0.73,-0.25 L 67.51,50.77 88.39,97.8 c 0.12,0.26 0.24,0.49 0.37,0.68 l 0.03,0.05 c 0.07,0.09 0.13,0.17 0.18,0.22 0.08,-0.04 0.16,-0.11 0.26,-0.2 0.24,-0.21 0.48,-0.5 0.7,-0.84 0.24,-0.36 0.46,-0.79 0.65,-1.27 l 5,-12.28 0.05,-0.1 c 0.04,-0.08 0.08,-0.16 0.12,-0.23 l 0.03,-0.05 c 0.05,-0.08 0.11,-0.16 0.18,-0.24 0.41,-0.48 0.98,-0.76 1.56,-0.8 0.58,-0.05 1.18,0.13 1.67,0.54 z M 50.89,109.83 C 42.73,102.98 36.19,96.06 31.35,89.04 H 15.39 c 1.52,2.08 3.22,4.01 5.05,5.85 2.39,2.39 4.95,4.5 7.75,6.36 2.77,1.87 5.78,3.49 9.03,4.88 0.03,0.03 0.07,0.03 0.1,0.07 3.15,1.31 6.4,2.35 9.79,3.01 1.25,0.24 2.53,0.45 3.8,0.62 z M 12.07,83.99 H 28.12 C 23.66,76.17 21.24,68.22 20.96,60.19 H 5.12 c 0.14,2.77 0.45,5.43 0.97,8.06 0.69,3.42 1.69,6.71 3.08,9.89 0.86,2.04 1.83,3.98 2.9,5.85 z M 5.12,55.14 h 15.95 c 0.59,-7.89 3.22,-15.81 7.89,-23.8 H 12.07 c -1.07,1.87 -2.04,3.8 -2.91,5.85 -0.03,0.03 -0.03,0.07 -0.07,0.1 -1.31,3.15 -2.35,6.4 -3.01,9.79 -0.51,2.63 -0.86,5.29 -0.96,8.06 z M 15.36,26.29 h 16.85 c 4.81,-6.92 11.14,-13.87 19.03,-20.86 -1.42,0.17 -2.8,0.38 -4.15,0.66 -3.42,0.69 -6.71,1.7 -9.89,3.08 -3.22,1.38 -6.23,3.01 -9.03,4.88 -2.8,1.87 -5.36,3.98 -7.75,6.36 -1.83,1.83 -3.53,3.77 -5.05,5.85 z M 64.1,5.43 c 7.92,6.99 14.25,13.94 19.03,20.86 H 99.98 C 98.46,24.21 96.76,22.28 94.93,20.44 92.54,18.05 89.98,15.94 87.18,14.07 84.41,12.2 81.4,10.58 78.15,9.19 78.12,9.16 78.08,9.16 78.05,9.12 74.9,7.81 71.65,6.77 68.26,6.11 66.88,5.83 65.49,5.63 64.11,5.45 V 5.43 Z M 60.19,8.72 V 26.29 H 76.93 C 72.54,20.48 66.97,14.63 60.19,8.72 Z m -5.05,98.1 V 89.04 H 37.53 c 4.53,5.95 10.41,11.9 17.61,17.78 z m 0,-22.83 V 60.19 H 26.01 c 0.31,7.99 3.01,15.91 7.99,23.8 z m 0,-28.85 V 31.34 H 34.87 c -5.19,8.06 -8.09,15.98 -8.75,23.8 z m 0,-28.85 V 8.72 C 48.36,14.64 42.79,20.48 38.4,26.29 Z"
       id="path2" /></g></svg>
