<svg xmlns="http://www.w3.org/2000/svg" xml:space="preserve" viewBox="0 0 128 128">
  <path d="M79.675 104.588c-3.653 4.046-7.86 8.062-12.623 12.048a67.82 67.82 0 0 0 3.844-.626c3.451-.696 6.77-1.715 9.98-3.108a59.392 59.392 0 0 0 2.431-1.11 11.593 11.593 0 0 0 1.978 1.998c.777.616 1.604 1.1 2.472 1.463a64.48 64.48 0 0 1-4.904 2.362 55.76 55.76 0 0 1-10.998 3.42c-3.774.767-7.679 1.15-11.695 1.15s-7.89-.383-11.694-1.15a54.464 54.464 0 0 1-10.858-3.35c-.03 0-.1-.03-.14-.07a62.849 62.849 0 0 1-9.91-5.378 54.987 54.987 0 0 1-8.586-7.054 53.333 53.333 0 0 1-7.053-8.586c-2.1-3.108-3.875-6.428-5.378-9.909A55.76 55.76 0 0 1 3.12 75.69 60.886 60.886 0 0 1 2 63.995c0-4.016.383-7.89 1.15-11.695A54.465 54.465 0 0 1 6.5 41.443c0-.03.03-.1.07-.141 1.504-3.522 3.32-6.811 5.379-9.909a54.987 54.987 0 0 1 7.053-8.586 53.333 53.333 0 0 1 8.587-7.054c3.108-2.098 6.417-3.874 9.908-5.378a55.76 55.76 0 0 1 10.999-3.42 59.289 59.289 0 0 1 11.684-1.14c4.016 0 7.89.383 11.695 1.15a54.464 54.464 0 0 1 10.857 3.35c.03 0 .101.03.141.07a62.849 62.849 0 0 1 9.909 5.378 54.987 54.987 0 0 1 8.587 7.054 53.333 53.333 0 0 1 7.053 8.586c2.099 3.108 3.875 6.428 5.378 9.909a55.76 55.76 0 0 1 3.42 10.998 57.95 57.95 0 0 1 .939 6.539l-5.277-1.403a50.89 50.89 0 0 0-.646-4.127c-.696-3.45-1.715-6.77-3.108-9.979a52.705 52.705 0 0 0-2.936-5.903H89.16c3.027 5.177 5.206 10.323 6.528 15.459l-5.731-1.524c-1.494-4.601-3.744-9.243-6.77-13.935H62.732v9.475a9.008 9.008 0 0 0-1.08.747 8.324 8.324 0 0 0-1.746 1.847 9.152 9.152 0 0 0-1.069 2.128 9.204 9.204 0 0 0-.494 2.311c-.05.646-.03 1.312.07 1.968.081.545.202 1.08.384 1.604l.05.141c.04.111.081.222.122.323.06.172.11.273.13.323l.02-.01 3.664 8.244h-.06v24.015h10.715l2.26 5.095H62.733v17.94c5.701-4.681 10.595-9.404 14.671-14.136zm38.504.08a3.951 3.951 0 0 1-1.17.798 4.243 4.243 0 0 1-1.393.363c-.514.04-1.04-.01-1.544-.171a4.018 4.018 0 0 1-1.362-.747l-11.19-9.495-3.844 9.434a12.595 12.595 0 0 1-1.14 2.17 8.699 8.699 0 0 1-1.453 1.695 6.165 6.165 0 0 1-1.342.908 4.825 4.825 0 0 1-1.464.454c-.585.08-1.17.04-1.735-.12a4.707 4.707 0 0 1-1.574-.818c-.404-.313-.777-.717-1.13-1.2a8.835 8.835 0 0 1-.888-1.575c-7.285-16.417-15.973-34.085-22.471-50.613a3.165 3.165 0 0 1-.02-2.17c.09-.251.212-.504.363-.726.08-.11.161-.222.262-.312.081-.081.172-.162.273-.233.181-.14.373-.262.575-.363l.05-.02c.192-.09.394-.161.585-.202l.091-.02c.182-.04.364-.06.545-.07.212-.01.414.01.616.04l.212.03c17.799 4.42 35.699 9.465 53.458 14.177.635.171 1.2.383 1.695.625a6.07 6.07 0 0 1 1.362.919c.464.423.817.908 1.06 1.422.252.535.383 1.11.393 1.706v.01a4.88 4.88 0 0 1-.212 1.513 5.834 5.834 0 0 1-.686 1.463 8.586 8.586 0 0 1-1.443 1.706 12.658 12.658 0 0 1-1.967 1.473c-2.917 1.715-5.823 3.531-8.718 5.287l11.15 9.556c.403.353.726.766.948 1.22l.03.081c.212.454.343.929.383 1.423a4.12 4.12 0 0 1-.161 1.513 4.11 4.11 0 0 1-.696 1.353c-1.705 2.098-4.561 5.771-6.448 7.517zm-2.926-3.662 5.398-6.337-13.117-11.24-.07-.07a2.931 2.931 0 0 1-.182-.193 1.624 1.624 0 0 1-.212-.302 2.282 2.282 0 0 1-.263-1.746c.142-.575.505-1.1 1.05-1.423 3.794-2.088 7.709-4.702 11.452-6.952a7.44 7.44 0 0 0 1.14-.847 4.43 4.43 0 0 0 .727-.838c.07-.11.121-.202.151-.292a1.613 1.613 0 0 0-.302-.172 4.754 4.754 0 0 0-.737-.252l-50.169-13.3 21.069 47.455c.12.263.242.495.373.686l.03.05c.07.092.131.172.182.223.08-.04.161-.111.262-.202.242-.212.485-.504.707-.848.242-.363.464-.797.655-1.281l5.046-12.39.05-.102c.04-.08.08-.161.121-.232l.03-.05a1.76 1.76 0 0 1 .182-.242 2.313 2.313 0 0 1 3.26-.262zm-61.904 15.63c-8.233-6.912-14.832-13.894-19.716-20.978H17.529c1.534 2.099 3.249 4.046 5.095 5.903a50.6 50.6 0 0 0 7.82 6.417c2.795 1.887 5.833 3.522 9.112 4.924.03.03.07.03.1.071 3.18 1.322 6.459 2.371 9.88 3.037a68.97 68.97 0 0 0 3.833.626zM14.18 90.563h16.195c-4.5-7.891-6.942-15.913-7.225-24.015H7.166c.141 2.795.454 5.479.979 8.133.696 3.45 1.705 6.77 3.108 9.979a54.433 54.433 0 0 0 2.926 5.903zm-7.013-29.11H23.26c.595-7.962 3.25-15.953 7.961-24.016H14.18a55.434 55.434 0 0 0-2.936 5.903c-.03.03-.03.07-.071.101C9.85 46.62 8.801 49.9 8.135 53.32c-.515 2.654-.868 5.338-.969 8.133zM17.5 32.341h17c4.853-6.983 11.24-13.995 19.201-21.048a49.665 49.665 0 0 0-4.187.665c-3.45.697-6.77 1.716-9.98 3.108a56.293 56.293 0 0 0-9.11 4.924 51.789 51.789 0 0 0-7.82 6.418c-1.847 1.846-3.563 3.804-5.096 5.903zm49.18-21.048c7.991 7.053 14.378 14.065 19.201 21.048h17.002c-1.533-2.099-3.249-4.046-5.095-5.903a51.253 51.253 0 0 0-7.82-6.427c-2.795-1.887-5.832-3.522-9.112-4.925-.03-.03-.07-.03-.1-.07-3.179-1.322-6.458-2.371-9.879-3.037-1.392-.283-2.795-.485-4.187-.666v-.02Zm-3.946 3.32v17.728h16.891c-4.43-5.863-10.05-11.765-16.89-17.729Zm-5.095 98.985v-17.94h-17.77c4.572 6.003 10.505 12.007 17.77 17.94zm0-23.036V66.548H28.245c.313 8.062 3.037 16.053 8.062 24.015zm0-29.11V37.436H37.185c-5.237 8.133-8.163 16.125-8.83 24.015zm0-29.111V14.613c-6.842 5.974-12.462 11.866-16.891 17.729Z"/>
</svg>