<?xml version="1.0" encoding="UTF-8" standalone="no"?>
<svg
   xmlns:dc="http://purl.org/dc/elements/1.1/"
   xmlns:cc="http://creativecommons.org/ns#"
   xmlns:rdf="http://www.w3.org/1999/02/22-rdf-syntax-ns#"
   xmlns:svg="http://www.w3.org/2000/svg"
   xmlns="http://www.w3.org/2000/svg"
   xmlns:sodipodi="http://sodipodi.sourceforge.net/DTD/sodipodi-0.dtd"
   xmlns:inkscape="http://www.inkscape.org/namespaces/inkscape"
   viewBox="0 0 128 128"
   version="1.1"
   id="svg22"
   sodipodi:docname="WhatsApp.svg"
   width="128"
   height="128"
   inkscape:version="1.0.2 (e86c870879, 2021-01-15)">
  <metadata
     id="metadata26">
    <rdf:RDF>
      <cc:Work
         rdf:about="">
        <dc:format>image/svg+xml</dc:format>
        <dc:type
           rdf:resource="http://purl.org/dc/dcmitype/StillImage" />
        <dc:title></dc:title>
      </cc:Work>
    </rdf:RDF>
  </metadata>
  <sodipodi:namedview
     pagecolor="#ffffff"
     bordercolor="#666666"
     borderopacity="1"
     objecttolerance="10"
     gridtolerance="10"
     guidetolerance="10"
     inkscape:pageopacity="0"
     inkscape:pageshadow="2"
     inkscape:window-width="1920"
     inkscape:window-height="1016"
     id="namedview24"
     showgrid="false"
     inkscape:zoom="4.5114837"
     inkscape:cx="82.310063"
     inkscape:cy="82.678853"
     inkscape:window-x="0"
     inkscape:window-y="36"
     inkscape:window-maximized="1"
     inkscape:current-layer="svg22" />
  <defs
     id="defs10">
    <linearGradient
       id="b"
       x1="85.915001"
       x2="86.535004"
       y1="32.567001"
       y2="137.092"
       gradientUnits="userSpaceOnUse"
       gradientTransform="matrix(0.77407947,0,0,0.77407947,-3.8730256,-3.9455976)">
      <stop
         offset="0"
         stop-color="#57d163"
         id="stop2" />
      <stop
         offset="1"
         stop-color="#23b33a"
         id="stop4" />
    </linearGradient>
    <filter
       id="a"
       width="1.115"
       height="1.114"
       x="-0.057"
       y="-0.057"
       color-interpolation-filters="sRGB">
      <feGaussianBlur
         stdDeviation="3.531"
         id="feGaussianBlur7" />
    </filter>
  </defs>
  <path
     fill="#b3b3b3"
     d="m 54.532,138.45 2.235,1.324 c 9.387,5.571 20.15,8.518 31.126,8.523 h 0.023 c 33.707,0 61.139,-27.426 61.153,-61.135 0.006,-16.335 -6.349,-31.696 -17.895,-43.251 A 60.75,60.75 0 0 0 87.94,25.983 c -33.733,0 -61.166,27.423 -61.178,61.13 a 60.98,60.98 0 0 0 9.349,32.535 l 1.455,2.312 -6.179,22.558 z M 13.721,161.994 24.16,123.88 c -6.438,-11.154 -9.825,-23.808 -9.821,-36.772 0.017,-40.556 33.021,-73.55 73.578,-73.55 19.681,0.01 38.154,7.669 52.047,21.572 13.893,13.903 21.537,32.383 21.53,52.037 -0.018,40.553 -33.027,73.553 -73.578,73.553 h -0.032 c -12.313,-0.005 -24.412,-3.094 -35.159,-8.954 z m 0,0"
     filter="url(#a)"
     id="path12"
     transform="matrix(0.77407947,0,0,0.77407947,-3.8730256,-3.9455976)" />
  <path
     fill="#ffffff"
     d="M 6.1636893,120.86543 14.244304,91.362163 A 56.832915,56.832915 0 0 1 6.6420703,62.897713 C 6.6552303,31.504146 32.202948,5.964168 63.597289,5.964168 c 15.234658,0.0077 29.534228,5.936415 40.288511,16.698442 10.75429,10.762027 16.67135,25.067016 16.66593,40.280774 -0.0139,31.391245 -25.565519,56.935866 -56.955215,56.935866 h -0.02477 c -9.53124,-0.004 -18.896828,-2.395 -27.21586,-6.93111 z"
     id="path14"
     style="stroke-width:0.77408" />
  <path
     fill="url(#linearGradient1780)"
     d="m 63.614319,15.582105 c -26.112023,0 -47.347345,21.227582 -47.356634,47.319478 a 47.203366,47.203366 0 0 0 7.236869,25.184676 l 1.126285,1.789672 -4.783037,17.462459 17.916844,-4.69789 1.730068,1.02488 c 7.266284,4.3124 15.597701,6.59361 24.093997,6.59825 h 0.0178 c 26.091897,0 47.327219,-21.229898 47.337289,-47.323343 A 47.025328,47.025328 0 0 0 97.081641,29.460576 47.025328,47.025328 0 0 0 63.614319,15.582105 Z"
     id="path16"
     style="stroke-width:0.77408" />
  <path
     fill="url(#b)"
     d="m 63.614319,15.582105 c -26.112023,0 -47.347345,21.227582 -47.356634,47.319478 a 47.203366,47.203366 0 0 0 7.236869,25.184676 l 1.126285,1.790446 -4.783037,17.461685 17.916844,-4.69789 1.730068,1.02488 c 7.266284,4.3124 15.597701,6.59284 24.093997,6.59748 h 0.0178 c 26.091897,0 47.327219,-21.229902 47.337289,-47.323347 A 47.025328,47.025328 0 0 0 97.081641,29.459802 47.025328,47.025328 0 0 0 63.614319,15.582105 Z"
     id="path18"
     style="fill:url(#b);stroke-width:0.77408" />
  <path
     fill="#ffffff"
     fill-rule="evenodd"
     d="m 49.361968,39.095543 c -1.066682,-2.369457 -2.189097,-2.41745 -3.202367,-2.458476 l -2.727856,-0.03329 c -0.949022,0 -2.490988,0.356077 -3.794538,1.780383 -1.30355,1.424306 -4.981201,4.866638 -4.981201,11.868187 0,7.001549 5.099635,13.767003 5.81024,14.717573 0.710605,0.950569 9.844743,15.776513 24.309966,21.480705 12.02068,4.740463 14.466771,3.797634 17.076967,3.560766 2.610196,-0.236869 8.419663,-3.442332 9.604778,-6.765455 1.185116,-3.323123 1.18589,-6.170187 0.830588,-6.765455 -0.355303,-0.595267 -1.304324,-0.949021 -2.72863,-1.661174 -1.424307,-0.712153 -8.419663,-4.154485 -9.723987,-4.629769 -1.304324,-0.475285 -2.252571,-0.711379 -3.202367,0.712927 -0.949795,1.424306 -3.673781,4.628221 -4.504368,5.578016 -0.830587,0.949796 -1.659626,1.069004 -3.083933,0.357625 -1.424306,-0.711379 -6.006856,-2.214641 -11.443991,-7.062701 -4.230344,-3.772089 -7.085923,-8.430499 -7.917284,-9.854032 -0.831362,-1.423532 -0.08825,-2.194515 0.625456,-2.903572 0.638615,-0.637841 1.422758,-1.661948 2.135685,-2.492536 0.712927,-0.830587 0.947473,-1.424306 1.42121,-2.372553 0.473737,-0.948248 0.237642,-1.781157 -0.118434,-2.492536 -0.356077,-0.711379 -3.121089,-7.74931 -4.385934,-10.563863"
     id="path20"
     style="stroke-width:0.77408" />
</svg>
