<svg xmlns="http://www.w3.org/2000/svg" viewBox="0 0 128 128">
  <defs>
    <linearGradient id="b" x1="85.915" x2="86.535" y1="32.567" y2="137.092" gradientTransform="translate(-3.873 -3.946) scale(.77408)" gradientUnits="userSpaceOnUse">
      <stop offset="0" stop-color="#57d163"/>
      <stop offset="1" stop-color="#23b33a"/>
    </linearGradient>
    <filter id="a" width="1.115" height="1.114" x="-.057" y="-.057" color-interpolation-filters="sRGB">
      <feGaussianBlur stdDeviation="3.531"/>
    </filter>
  </defs>
  <path fill="#b3b3b3" d="m54.532 138.45 2.235 1.324c9.387 5.571 20.15 8.518 31.126 8.523h.023c33.707 0 61.139-27.426 61.153-61.135.006-16.335-6.349-31.696-17.895-43.251A60.75 60.75 0 0 0 87.94 25.983c-33.733 0-61.166 27.423-61.178 61.13a60.98 60.98 0 0 0 9.349 32.535l1.455 2.312-6.179 22.558zm-40.811 23.544L24.16 123.88c-6.438-11.154-9.825-23.808-9.821-36.772.017-40.556 33.021-73.55 73.578-73.55 19.681.01 38.154 7.669 52.047 21.572 13.893 13.903 21.537 32.383 21.53 52.037-.018 40.553-33.027 73.553-73.578 73.553h-.032a73.537 73.537 0 0 1-35.159-8.954zm0 0" filter="url(#a)" transform="translate(-3.873 -3.946) scale(.77408)"/>
  <path fill="#fff" d="m6.164 120.865 8.08-29.503a56.833 56.833 0 0 1-7.602-28.464c.013-31.394 25.56-56.934 56.955-56.934 15.235.008 29.535 5.937 40.289 16.699 10.754 10.762 16.671 25.067 16.666 40.28-.014 31.392-25.566 56.936-56.955 56.936h-.025a56.925 56.925 0 0 1-27.216-6.93z"/>
  <path fill="url(#linearGradient1780)" d="M63.614 15.582c-26.112 0-47.347 21.228-47.356 47.32a47.203 47.203 0 0 0 7.237 25.184l1.126 1.79-4.783 17.462 17.917-4.698 1.73 1.025a47.276 47.276 0 0 0 24.094 6.599h.018c26.091 0 47.327-21.23 47.337-47.324a47.025 47.025 0 0 0-13.852-33.48 47.025 47.025 0 0 0-33.468-13.878Z"/>
  <path fill="url(#b)" d="M63.614 15.582c-26.112 0-47.347 21.228-47.356 47.32a47.203 47.203 0 0 0 7.237 25.184l1.126 1.79-4.783 17.462 17.917-4.697 1.73 1.024a47.275 47.275 0 0 0 24.094 6.598h.018c26.091 0 47.327-21.23 47.337-47.323a47.025 47.025 0 0 0-13.852-33.48 47.025 47.025 0 0 0-33.468-13.878Z"/>
  <path fill="#fff" fill-rule="evenodd" d="M49.362 39.096c-1.067-2.37-2.19-2.418-3.202-2.459l-2.728-.033c-.95 0-2.491.356-3.795 1.78-1.303 1.424-4.981 4.867-4.981 11.868 0 7.002 5.1 13.767 5.81 14.718.71.95 9.845 15.776 24.31 21.48 12.02 4.741 14.467 3.798 17.077 3.561 2.61-.236 8.42-3.442 9.605-6.765 1.185-3.323 1.186-6.17.83-6.766-.355-.595-1.304-.949-2.728-1.66-1.424-.713-8.42-4.155-9.724-4.63-1.304-.476-2.253-.712-3.202.712-.95 1.425-3.674 4.629-4.505 5.578-.83.95-1.66 1.07-3.084.358-1.424-.711-6.007-2.215-11.444-7.063-4.23-3.772-7.086-8.43-7.917-9.854-.831-1.423-.088-2.194.625-2.903.64-.638 1.423-1.662 2.136-2.493.713-.83.948-1.424 1.421-2.372.474-.949.238-1.781-.118-2.493-.356-.711-3.121-7.75-4.386-10.564"/>
</svg>
