<?xml version="1.0" encoding="UTF-8" standalone="no"?>
<svg
   version="1.1"
   id="half-court"
   width="1274"
   height="1345"
   viewBox="0 0 1274 1345"
   xmlns="http://www.w3.org/2000/svg">
  <rect
     x="77"
     y="77"
     width="1124"
     height="1195"
     fill="#ffffff"
     stroke="#000000"
     stroke-width="4"
     id="court" />
  <rect
     style="fill:#f2f2f2;fill-opacity:1;stroke:#000000;stroke-width:3;stroke-linecap:round;stroke-linejoin:round;stroke-dasharray:none;stroke-opacity:1"
     id="zone"
     width="360"
     height="424"
     x="457"
     y="846" />
  <path
     style="fill:none;fill-opacity:1;stroke:#000000;stroke-width:3;stroke-linecap:round;stroke-linejoin:round;stroke-dasharray:none;stroke-opacity:1"
     d="M 769,841.4998 C 769,788.6819 723.17241,712.654 635.872,712.654 565.84816,712.654 506.35845,767.3888 505,841.4998"
     id="freethrow-bulb" />
  <path
     style="fill:none;fill-opacity:1;stroke:#000000;stroke-width:3;stroke-linecap:round;stroke-linejoin:round;stroke-dasharray:none;stroke-opacity:1"
     d="M 769,76.5 C 769,129.31789 723.17241,205.34579 635.872,205.34579 565.84816,205.34579 506.35845,150.61101 505,76.5"
     id="backcourt-semi" />
  <path
     style="fill:none;fill-opacity:1;stroke:#000000;stroke-width:3;stroke-linecap:round;stroke-linejoin:round;stroke-dasharray:none;stroke-opacity:1"
     d="m 542.335,1180.9198 v -40.4719 c 0,0 9.07312,-83.1939 94.6425,-83.3547 85.56938,-0.1608 94.19758,84.9609 94.19758,84.9609 l 0.49041,38.8828"
     id="nocharge-zone" />
  <path
     style="fill:none;fill-opacity:1;stroke:#000000;stroke-width:6;stroke-linecap:round;stroke-linejoin:round;stroke-dasharray:none;stroke-opacity:1"
     d="m 574.13819,1174.8679 h 127.69434 v -0.4443 0"
     id="backboard" />
  <circle
     style="fill:none;fill-opacity:1;stroke:#000000;stroke-width:3;stroke-linecap:round;stroke-linejoin:round;stroke-dasharray:none;stroke-opacity:1"
     id="hoop"
     cx="637"
     cy="1140"
     r="15" />
  <path
     style="fill:none;fill-opacity:1;stroke:#000000;stroke-width:3.00021;stroke-linecap:round;stroke-linejoin:round;stroke-dasharray:none;stroke-opacity:1"
     d="m 155.24261,1268.4134 v -206.7091 c 0,0 43.95652,-405.88269 480.9999,-406.70398 437.04289,-0.82127 480.01029,414.90758 480.01029,414.90758 l 2.5048,198.5923"
     id="three-point-line" />
</svg>
