<svg viewBox="0 0 128 128" xmlns="http://www.w3.org/2000/svg"><defs><marker style="overflow:visible" id="c" refX="0" refY="0" orient="auto-start-reverse" markerWidth="5" markerHeight="4" viewBox="0 0 6.135 5.93" preserveAspectRatio="none"><path transform="scale(.7)" d="M-.211-4.106 6.21-.894a1 1 90 0 1 0 1.788L-.21 4.106A1.236 1.236 31.717 0 1-2 3v-6A1.236 1.236 148.283 0 1-.211-4.106z" style="fill:context-stroke;fill-rule:evenodd;stroke:none"/></marker><marker style="overflow:visible" id="a" refX="0" refY="0" orient="auto-start-reverse" markerWidth="5" markerHeight="4" viewBox="0 0 6.135 5.93" preserveAspectRatio="none"><path transform="scale(.7)" d="M-.211-4.106 6.21-.894a1 1 90 0 1 0 1.788L-.21 4.106A1.236 1.236 31.717 0 1-2 3v-6A1.236 1.236 148.283 0 1-.211-4.106z" style="fill:context-stroke;fill-rule:evenodd;stroke:none"/></marker><marker style="overflow:visible" id="b" refX="0" refY="0" orient="auto-start-reverse" markerWidth="5" markerHeight="4" viewBox="0 0 6.135 5.93" preserveAspectRatio="none"><path transform="scale(.7)" d="M-.211-4.106 6.21-.894a1 1 90 0 1 0 1.788L-.21 4.106A1.236 1.236 31.717 0 1-2 3v-6A1.236 1.236 148.283 0 1-.211-4.106z" style="fill:context-stroke;fill-rule:evenodd;stroke:none"/></marker></defs><rect style="fill:#fff;stroke:#000;stroke-width:4;stroke-linecap:round;stroke-linejoin:round;stroke-dasharray:none;stroke-opacity:1;fill-opacity:1" width="120" height="120" x="5" y="5" rx="4" ry="4"/><path style="fill:#e6e6e6;stroke:#000;stroke-width:1;stroke-linecap:round;stroke-linejoin:round;stroke-dasharray:none;stroke-dashoffset:0;stroke-opacity:1" d="M45 6.5h38v55H45z"/><path fill="#7e4d07" stroke="#000" stroke-linecap="round" stroke-width="6.078" d="m68.96 46.96-9.92-9.92m0 9.92 9.92-9.92" style="fill:maroon;stroke:maroon"/><path style="fill:#000;stroke:#000;stroke-width:2;stroke-linecap:round;stroke-linejoin:round;stroke-dasharray:6,6;stroke-dashoffset:0;stroke-opacity:1;marker-end:url(#a)" d="M84.066 29.114 16.36 15.909" transform="rotate(136.13 47.133 52.15)"/><path style="fill:#000;stroke:#000;stroke-width:2;stroke-linecap:round;stroke-linejoin:round;stroke-dasharray:none;stroke-dashoffset:0;stroke-opacity:1;marker-end:url(#b)" d="m102.298 93.126 3.768-30.736"/><path fill="#7e4d07" stroke="#000" stroke-linecap="round" stroke-width="6.078" d="m68.959 98.959-9.92-9.92m0 9.92 9.92-9.92" style="fill:maroon;stroke:maroon"/><path style="fill:#000;stroke:#000;stroke-width:4;stroke-linecap:round;stroke-linejoin:round;stroke-dasharray:none;stroke-opacity:1" d="M56.5 16h15"/><circle style="fill:none;stroke:#000;stroke-width:2;stroke-linecap:round;stroke-linejoin:round;stroke-dasharray:none;stroke-opacity:1" cx="64" cy="25.199" r="4.199"/><path style="fill:none;stroke:#000;stroke-width:2;stroke-linecap:round;stroke-linejoin:round;stroke-dasharray:none;stroke-opacity:1" d="M98 50V40m4 10V40" transform="rotate(-47.64 97.586 47.786)"/><path style="fill:#000;stroke:#000;stroke-width:1;stroke-linecap:round;stroke-linejoin:round;stroke-dasharray:none;stroke-dashoffset:0;stroke-opacity:1" d="m100 31-4 9h8z" transform="rotate(-47.64 97.586 47.786)"/><path style="fill:none;stroke:#000;stroke-width:1;stroke-linecap:round;stroke-linejoin:round;stroke-dasharray:none;stroke-opacity:1" d="M18 5v15c0 14.01 1.4 29.28 10 40 8.395 10.465 21.69 18 36 18 14.31 0 27.605-7.535 36-18 8.6-10.72 10-26.086 10-40V5"/><circle cx="101" cy="105" fill="navy" stroke="navy" stroke-linecap="round" stroke-linejoin="round" stroke-width="2" r="8" style="fill:navy;fill-opacity:1;stroke:navy;stroke-opacity:1"/><circle cx="29" cy="105" fill="navy" stroke="navy" stroke-linecap="round" stroke-linejoin="round" stroke-width="2" r="8" style="fill:navy;fill-opacity:1;stroke:navy;stroke-opacity:1"/><path style="fill:none;stroke:#000;stroke-width:1.90323;stroke-linecap:round;stroke-linejoin:round;stroke-dasharray:none;stroke-dashoffset:0;stroke-opacity:1;marker-end:url(#c)" d="M26.638 91.23s15.166-22.51 13.09-24.53c-1.886-1.836-19.747 3.028-25.382-3.382-5.306-6.034-.099-24.103-.099-24.103"/></svg>