<?xml version="1.0" encoding="UTF-8" standalone="no"?>
<svg xmlns="http://www.w3.org/2000/svg" width="128" height="128">
  <g transform="translate(.5 .5)">
    <circle cx="63.5" cy="16.5" r="15.5" style="fill:#d45500;fill-opacity:1;stroke:#000;stroke-width:1.00002956;stroke-linecap:round;stroke-linejoin:round;stroke-miterlimit:4;stroke-dasharray:none;stroke-opacity:1"/>
    <g style="stroke-width:.88384563;stroke-miterlimit:4;stroke-dasharray:none">
      <g style="stroke-width:.82982951;stroke-miterlimit:4;stroke-dasharray:none" transform="translate(179.963 87.33) scale(1.20507)">
        <circle cx="-136.15" cy="-10.822" r="10.699" style="fill:#fca;fill-opacity:1;stroke:#000;stroke-width:.82982951;stroke-linecap:round;stroke-linejoin:round;stroke-miterlimit:4;stroke-dasharray:none;stroke-opacity:1"/>
        <path d="M-135.81 7.928s-.968 2.093-1.195 3.213c-.538 2.656-.356 8.122-.356 8.122s.56-3.12 3.848-4.05c3.288-.93 7.179.753 7.49 3.63.006 2.682-.2 4.704-1.612 7.2-2.552 4.445-2.91 6.046-2.91 6.046h19.813c.286-3.15 4.986-11.866-2.698-26.218-1.956-3.654-6.008-6.807-10.133-7.206-6.465-.627-12.248 9.263-12.248 9.263z" style="fill:#d45500;fill-opacity:1;stroke:#000;stroke-width:.82982951;stroke-linecap:round;stroke-linejoin:round;stroke-miterlimit:4;stroke-dasharray:none;stroke-opacity:1"/>
        <path d="M-109.844-35.644c1.432-4.207 4.978-11.414 7.118-11.273 2.14.14-1.397 9.642-1.462 10.677 0 0 1.55 16.027.13 25.18-3.254 5.673-10.17 15.363-10.17 15.363-3.235-3.219-2.82-2.653-8.291-5.444 0 0 5.321-10.189 9.375-12.24 2.89-1.462 2.31-6.838 2.296-11.494-.012-3.974-.158-7.356 1.004-10.77zm-28.917 63.934 1.4-9.027c2.414-6.91 12.628-4.929 11.574 1.878-.254 1.637-1.827 4.96-2.586 6.461l-2.171 4.487h-6.753s-2.492.175-1.464-3.8z" style="fill:#fca;fill-opacity:1;stroke:#000;stroke-width:.82982951;stroke-linecap:round;stroke-linejoin:round;stroke-miterlimit:4;stroke-dasharray:none;stroke-opacity:1"/>
      </g>
    </g>
    <g style="stroke-width:.81382382;stroke-miterlimit:4;stroke-dasharray:none" transform="matrix(-1.22877 0 0 1.22877 -56.3 76.055)">
      <circle cx="-132.156" cy="-10.096" r="10.492" style="fill:#c87137;fill-opacity:1;stroke:#000;stroke-width:.81380558;stroke-linecap:round;stroke-linejoin:round;stroke-miterlimit:4;stroke-dasharray:none;stroke-opacity:1"/>
      <path d="M-135.81 10.824s-.968 2.094-1.194 3.214c-.538 2.656-.356 8.122-.356 8.122s.559-3.12 3.847-4.05c3.288-.93 6.026 2.38 7.027 5.095 1.644 4.454-1.376 6.804-5.775 11.21-3.568 3.574-4.978 6.231-4.978 6.231l24.102-.235c.286-3.15 4.988-16.33-.292-31.643-1.352-3.919-6.008-6.807-10.134-7.207-6.465-.626-12.247 9.263-12.247 9.263z" style="fill:navy;fill-opacity:1;stroke:#000;stroke-width:.81382382;stroke-linecap:round;stroke-linejoin:round;stroke-miterlimit:4;stroke-dasharray:none;stroke-opacity:1"/>
      <path d="M-107.716-32.747c.915-3.505 1.65-10.323 3.79-10.183 2.14.14.439 5.882.374 6.916 0 0 .915 18.698-.505 27.85-3.255 5.674-10.17 15.364-10.17 15.364-3.235-3.219-2.82-2.653-8.292-5.444 0 0 6.25-8.117 10.303-10.168 2.89-1.462 2.01-9.094 2.842-13.675.642-3.538.75-7.18 1.658-10.66zm-33.716 73.276c3.255-5.674 4.072-18.37 4.072-18.37 2.413-6.91 10.418-4.97 11.152 1.88.298 2.78-1.094 6.516-4.268 7.792 0 0-.637-1.766-2.797 8.698z" style="fill:#c87137;fill-opacity:1;stroke:#000;stroke-width:.81382382;stroke-linecap:round;stroke-linejoin:round;stroke-miterlimit:4;stroke-dasharray:none;stroke-opacity:1"/>
    </g>
  </g>
</svg>
