<svg viewBox="0 0 128 128" xml:space="preserve" xmlns="http://www.w3.org/2000/svg"><path d="M13.043 17.5v93c0 8.935 7.209 16.097 16.042 16.45v.05h85.868v-4.644a11.958 11.958 0 0 1-11.964-11.965 11.958 11.958 0 0 1 11.968-11.964V1H29.94c-9.134 0-16.898 7.363-16.898 16.5zm85.302 92.842c0 4.694 2.018 8.935 5.146 11.964H29.745c-6.613.05-12.014-5.351-12.014-11.968 0-6.256 4.896-11.406 11.056-11.859l74.862-.155c-3.23 3.033-5.301 7.27-5.301 12.018z" style="stroke-width:.500004"/><path d="m224.139 210 40.776 40.776c36.787-33.665 83.793-54.3 134.218-58.917-3.965-41.654-21.431-79.428-47.967-108.886zm-28.285 0-40.768-40.768c-36.785 33.663-83.79 54.296-134.215 58.912 3.964 41.652 21.426 79.424 47.958 108.881zm69.074 69.074c-30.139 33.221-48.696 75.509-53.062 120.904 48.061-.466 91.908-18.858 125.16-48.806zm-95.7-123.985 40.768 40.768L337.023 68.831c-29.458-26.53-67.229-43.992-108.88-47.957-4.617 50.424-25.25 97.43-58.915 134.215zm81.544 109.829-40.776-40.776L82.971 351.168c29.459 26.535 67.233 43.999 108.887 47.962 4.618-50.423 25.25-97.427 58.914-134.212zm-95.699-123.984c30.139-33.223 48.697-75.512 53.063-120.907-48.062.464-91.91 18.857-125.162 48.808zM68.831 82.977c-29.949 33.252-48.341 77.099-48.808 125.159 45.396-4.364 87.685-22.921 120.907-53.06zM351.169 337.03c29.953-33.252 48.347-77.101 48.812-125.164-45.396 4.365-87.687 22.924-120.91 53.065z" style="fill:#ffac52" transform="translate(31 21) scale(.22857)"/><path d="M33.6 0C15.072 0 0 15.073 0 33.6c0 18.528 15.073 33.6 33.6 33.6s33.6-15.072 33.6-33.6C67.2 15.074 52.128 0 33.6 0zM3.203 33.302c.074-7.69 3.017-14.705 7.81-20.026l11.535 11.536c-5.316 4.822-12.082 7.791-19.345 8.49zM33.302 3.204c-.699 7.263-3.668 14.03-8.49 19.345L13.276 11.013c5.32-4.792 12.336-7.735 20.026-7.81zm30.695 30.694c-.075 7.69-3.017 14.706-7.81 20.027L44.65 42.389c5.316-4.823 12.082-7.792 19.346-8.49zm-21.61 6.226L35.861 33.6l20.324-20.325a30.289 30.289 0 0 1 7.675 17.422c-8.068.74-15.589 4.04-21.475 9.427zM24.813 27.077l6.523 6.523-20.324 20.324a30.29 30.29 0 0 1-7.674-17.421c8.068-.739 15.59-4.04 21.475-9.426zm8.785 4.26-6.523-6.523c5.387-5.886 8.688-13.407 9.427-21.474a30.29 30.29 0 0 1 17.42 7.673zm0 4.526 6.524 6.524c-5.386 5.886-8.687 13.406-9.426 21.474a30.288 30.288 0 0 1-17.422-7.674zm8.79 8.789 11.535 11.536c-5.32 4.791-12.336 7.734-20.026 7.809.699-7.264 3.668-14.03 8.49-19.345z" style="stroke-width:.999999" transform="translate(31 21) scale(1.42857)"/></svg>